%TF.GenerationSoftware,KiCad,Pcbnew,10.0.3*%
%TF.CreationDate,2026-09-02T13:03:21+01:00*%
%TF.ProjectId,Dual15PowerSupply,4475616c-3135-4506-9f77-657253757070,0.1.4*%
%TF.SameCoordinates,Original*%
%TF.FileFunction,Soldermask,Top*%
%TF.FilePolarity,Negative*%
%FSLAX46Y46*%
G04 Gerber Fmt 4.6, Leading zero omitted, Abs format (unit mm)*
G04 Created by KiCad (PCBNEW 10.0.3) date 2026-09-02 13:03:21*
%MOMM*%
%LPD*%
G01*
G04 APERTURE LIST*
G04 Aperture macros list*
%AMRoundRect*
0 Rectangle with rounded corners*
0 $1 Rounding radius*
0 $2 $3 $4 $5 $6 $7 $8 $9 X,Y pos of 4 corners*
0 Add a 4 corners polygon primitive as box body*
4,1,4,$2,$3,$4,$5,$6,$7,$8,$9,$2,$3,0*
0 Add four circle primitives for the rounded corners*
1,1,$1+$1,$2,$3*
1,1,$1+$1,$4,$5*
1,1,$1+$1,$6,$7*
1,1,$1+$1,$8,$9*
0 Add four rect primitives between the rounded corners*
20,1,$1+$1,$2,$3,$4,$5,0*
20,1,$1+$1,$4,$5,$6,$7,0*
20,1,$1+$1,$6,$7,$8,$9,0*
20,1,$1+$1,$8,$9,$2,$3,0*%
G04 Aperture macros list end*
%ADD10C,2.800000*%
%ADD11C,2.400000*%
%ADD12RoundRect,0.250001X-0.949999X-0.949999X0.949999X-0.949999X0.949999X0.949999X-0.949999X0.949999X0*%
%ADD13RoundRect,0.250000X-0.450000X0.350000X-0.450000X-0.350000X0.450000X-0.350000X0.450000X0.350000X0*%
%ADD14R,1.800000X2.000000*%
%ADD15RoundRect,0.102000X0.975000X0.975000X-0.975000X0.975000X-0.975000X-0.975000X0.975000X-0.975000X0*%
%ADD16C,2.154000*%
%ADD17RoundRect,0.250000X-0.400000X-0.625000X0.400000X-0.625000X0.400000X0.625000X-0.400000X0.625000X0*%
%ADD18RoundRect,0.250000X-1.050000X-1.050000X1.050000X-1.050000X1.050000X1.050000X-1.050000X1.050000X0*%
%ADD19C,2.600000*%
%ADD20R,1.800000X1.800000*%
%ADD21O,1.800000X1.800000*%
%ADD22C,3.200000*%
%ADD23RoundRect,0.250000X0.625000X-0.400000X0.625000X0.400000X-0.625000X0.400000X-0.625000X-0.400000X0*%
%ADD24RoundRect,0.250000X-0.550000X0.550000X-0.550000X-0.550000X0.550000X-0.550000X0.550000X0.550000X0*%
%ADD25C,1.600000*%
%ADD26C,1.800000*%
%ADD27RoundRect,0.250001X-0.949999X0.949999X-0.949999X-0.949999X0.949999X-0.949999X0.949999X0.949999X0*%
%ADD28RoundRect,0.250000X0.550000X-0.550000X0.550000X0.550000X-0.550000X0.550000X-0.550000X-0.550000X0*%
%ADD29C,1.500000*%
%ADD30C,2.000000*%
%ADD31R,2.250000X2.250000*%
%ADD32C,2.250000*%
%ADD33RoundRect,0.250001X0.949999X-0.949999X0.949999X0.949999X-0.949999X0.949999X-0.949999X-0.949999X0*%
%ADD34RoundRect,0.250000X-0.625000X0.400000X-0.625000X-0.400000X0.625000X-0.400000X0.625000X0.400000X0*%
%ADD35RoundRect,0.250000X0.400000X0.625000X-0.400000X0.625000X-0.400000X-0.625000X0.400000X-0.625000X0*%
%ADD36RoundRect,0.700000X-0.700000X-0.700000X0.700000X-0.700000X0.700000X0.700000X-0.700000X0.700000X0*%
G04 APERTURE END LIST*
D10*
%TO.C,TP1*%
X183000000Y-121000000D03*
%TD*%
D11*
%TO.C,R2*%
X191000000Y-84500000D03*
X191000000Y-104820000D03*
%TD*%
D12*
%TO.C,C4*%
X109000000Y-115000000D03*
D11*
X114000000Y-115000000D03*
%TD*%
D10*
%TO.C,TP2*%
X175000000Y-126000000D03*
%TD*%
D13*
%TO.C,R3*%
X122000000Y-113000000D03*
X122000000Y-115000000D03*
%TD*%
D14*
%TO.C,D1*%
X195800000Y-64550000D03*
X195800000Y-59450000D03*
X186200000Y-59450000D03*
X186200000Y-64550000D03*
%TD*%
D15*
%TO.C,J1*%
X131190000Y-37300000D03*
D16*
X123570000Y-37300000D03*
%TD*%
D13*
%TO.C,R5*%
X176000000Y-119000000D03*
X176000000Y-121000000D03*
%TD*%
D11*
%TO.C,R1*%
X109000000Y-105660000D03*
X109000000Y-85340000D03*
%TD*%
D17*
%TO.C,R10*%
X165950000Y-125500000D03*
X169050000Y-125500000D03*
%TD*%
D18*
%TO.C,J2*%
X145000000Y-125500000D03*
D19*
X150080000Y-125500000D03*
X155160000Y-125500000D03*
%TD*%
D20*
%TO.C,U2*%
X173500000Y-115000000D03*
D21*
X174770000Y-111300000D03*
X176040000Y-115000000D03*
X177310000Y-111300000D03*
X178580000Y-115000000D03*
X179850000Y-111300000D03*
X181120000Y-115000000D03*
%TD*%
D14*
%TO.C,D2*%
X103200000Y-59450000D03*
X103200000Y-64550000D03*
X112800000Y-64550000D03*
X112800000Y-59450000D03*
%TD*%
D22*
%TO.C,H7*%
X105000000Y-126715620D03*
%TD*%
D17*
%TO.C,R8*%
X169450000Y-119000000D03*
X172550000Y-119000000D03*
%TD*%
D23*
%TO.C,R9*%
X131100000Y-121550000D03*
X131100000Y-118450000D03*
%TD*%
D10*
%TO.C,TP3*%
X117000000Y-104000000D03*
%TD*%
D17*
%TO.C,R11*%
X130450000Y-125500000D03*
X133550000Y-125500000D03*
%TD*%
D24*
%TO.C,C8*%
X144000000Y-112000000D03*
D25*
X144000000Y-115500000D03*
%TD*%
D22*
%TO.C,H8*%
X195000000Y-126715620D03*
%TD*%
D20*
%TO.C,U1*%
X126000000Y-115000000D03*
D21*
X127270000Y-111300000D03*
X128540000Y-115000000D03*
X129810000Y-111300000D03*
X131080000Y-115000000D03*
X132350000Y-111300000D03*
X133620000Y-115000000D03*
%TD*%
D20*
%TO.C,D3*%
X163000000Y-125500000D03*
D26*
X160460000Y-125500000D03*
%TD*%
D13*
%TO.C,R4*%
X178580000Y-119000000D03*
X178580000Y-121000000D03*
%TD*%
D22*
%TO.C,H4*%
X195000000Y-36715620D03*
%TD*%
D27*
%TO.C,C3*%
X191000000Y-111326041D03*
D11*
X191000000Y-116326041D03*
%TD*%
D27*
%TO.C,C2*%
X109000000Y-73000000D03*
D11*
X109000000Y-78000000D03*
%TD*%
D28*
%TO.C,C7*%
X155000000Y-115500000D03*
D25*
X155000000Y-112000000D03*
%TD*%
D29*
%TO.C,C5*%
X169600000Y-106400000D03*
X164600000Y-106400000D03*
%TD*%
D22*
%TO.C,H2*%
X105000000Y-36715620D03*
%TD*%
D30*
%TO.C,CX1*%
X180000000Y-38500000D03*
X170000000Y-38500000D03*
%TD*%
D29*
%TO.C,C6*%
X126200000Y-123600000D03*
X126200000Y-118600000D03*
%TD*%
D19*
%TO.C,F1*%
X152500000Y-38500000D03*
D31*
X145000000Y-38500000D03*
D32*
X160000000Y-38500000D03*
%TD*%
D33*
%TO.C,C1*%
X191000000Y-77000000D03*
D11*
X191000000Y-72000000D03*
%TD*%
D34*
%TO.C,R7*%
X127200000Y-101050000D03*
X127200000Y-104150000D03*
%TD*%
D35*
%TO.C,R6*%
X169550000Y-111300000D03*
X166450000Y-111300000D03*
%TD*%
D20*
%TO.C,D4*%
X139000000Y-125500000D03*
D26*
X136460000Y-125500000D03*
%TD*%
D36*
%TO.C,TR1*%
X124600000Y-56125000D03*
D10*
X137300000Y-56125000D03*
X175400000Y-56125000D03*
X162700000Y-56125000D03*
X124600000Y-87875000D03*
X137300000Y-87875000D03*
X175400000Y-87875000D03*
X162700000Y-87875000D03*
%TD*%
M02*
