%TF.GenerationSoftware,KiCad,Pcbnew,10.0.3*%
%TF.CreationDate,2026-09-02T13:03:21+01:00*%
%TF.ProjectId,Dual15PowerSupply,4475616c-3135-4506-9f77-657253757070,0.1.4*%
%TF.SameCoordinates,Original*%
%TF.FileFunction,Copper,L1,Top*%
%TF.FilePolarity,Positive*%
%FSLAX46Y46*%
G04 Gerber Fmt 4.6, Leading zero omitted, Abs format (unit mm)*
G04 Created by KiCad (PCBNEW 10.0.3) date 2026-09-02 13:03:21*
%MOMM*%
%LPD*%
G01*
G04 APERTURE LIST*
G04 Aperture macros list*
%AMRoundRect*
0 Rectangle with rounded corners*
0 $1 Rounding radius*
0 $2 $3 $4 $5 $6 $7 $8 $9 X,Y pos of 4 corners*
0 Add a 4 corners polygon primitive as box body*
4,1,4,$2,$3,$4,$5,$6,$7,$8,$9,$2,$3,0*
0 Add four circle primitives for the rounded corners*
1,1,$1+$1,$2,$3*
1,1,$1+$1,$4,$5*
1,1,$1+$1,$6,$7*
1,1,$1+$1,$8,$9*
0 Add four rect primitives between the rounded corners*
20,1,$1+$1,$2,$3,$4,$5,0*
20,1,$1+$1,$4,$5,$6,$7,0*
20,1,$1+$1,$6,$7,$8,$9,0*
20,1,$1+$1,$8,$9,$2,$3,0*%
G04 Aperture macros list end*
%TA.AperFunction,ComponentPad*%
%ADD10C,2.800000*%
%TD*%
%TA.AperFunction,ComponentPad*%
%ADD11C,2.400000*%
%TD*%
%TA.AperFunction,ComponentPad*%
%ADD12RoundRect,0.250001X-0.949999X-0.949999X0.949999X-0.949999X0.949999X0.949999X-0.949999X0.949999X0*%
%TD*%
%TA.AperFunction,SMDPad,CuDef*%
%ADD13RoundRect,0.250000X-0.450000X0.350000X-0.450000X-0.350000X0.450000X-0.350000X0.450000X0.350000X0*%
%TD*%
%TA.AperFunction,SMDPad,CuDef*%
%ADD14R,1.800000X2.000000*%
%TD*%
%TA.AperFunction,ComponentPad*%
%ADD15R,1.950000X1.950000*%
%TD*%
%TA.AperFunction,ComponentPad*%
%ADD16C,1.950000*%
%TD*%
%TA.AperFunction,SMDPad,CuDef*%
%ADD17RoundRect,0.250000X-0.400000X-0.625000X0.400000X-0.625000X0.400000X0.625000X-0.400000X0.625000X0*%
%TD*%
%TA.AperFunction,ComponentPad*%
%ADD18RoundRect,0.250000X-1.050000X-1.050000X1.050000X-1.050000X1.050000X1.050000X-1.050000X1.050000X0*%
%TD*%
%TA.AperFunction,ComponentPad*%
%ADD19C,2.600000*%
%TD*%
%TA.AperFunction,ComponentPad*%
%ADD20R,1.800000X1.800000*%
%TD*%
%TA.AperFunction,ComponentPad*%
%ADD21O,1.800000X1.800000*%
%TD*%
%TA.AperFunction,SMDPad,CuDef*%
%ADD22RoundRect,0.250000X0.625000X-0.400000X0.625000X0.400000X-0.625000X0.400000X-0.625000X-0.400000X0*%
%TD*%
%TA.AperFunction,ComponentPad*%
%ADD23RoundRect,0.250000X-0.550000X0.550000X-0.550000X-0.550000X0.550000X-0.550000X0.550000X0.550000X0*%
%TD*%
%TA.AperFunction,ComponentPad*%
%ADD24C,1.600000*%
%TD*%
%TA.AperFunction,ComponentPad*%
%ADD25C,1.800000*%
%TD*%
%TA.AperFunction,ComponentPad*%
%ADD26RoundRect,0.250001X-0.949999X0.949999X-0.949999X-0.949999X0.949999X-0.949999X0.949999X0.949999X0*%
%TD*%
%TA.AperFunction,ComponentPad*%
%ADD27RoundRect,0.250000X0.550000X-0.550000X0.550000X0.550000X-0.550000X0.550000X-0.550000X-0.550000X0*%
%TD*%
%TA.AperFunction,ComponentPad*%
%ADD28C,1.500000*%
%TD*%
%TA.AperFunction,ComponentPad*%
%ADD29C,2.000000*%
%TD*%
%TA.AperFunction,ComponentPad*%
%ADD30R,2.250000X2.250000*%
%TD*%
%TA.AperFunction,ComponentPad*%
%ADD31C,2.250000*%
%TD*%
%TA.AperFunction,ComponentPad*%
%ADD32RoundRect,0.250001X0.949999X-0.949999X0.949999X0.949999X-0.949999X0.949999X-0.949999X-0.949999X0*%
%TD*%
%TA.AperFunction,SMDPad,CuDef*%
%ADD33RoundRect,0.250000X-0.625000X0.400000X-0.625000X-0.400000X0.625000X-0.400000X0.625000X0.400000X0*%
%TD*%
%TA.AperFunction,SMDPad,CuDef*%
%ADD34RoundRect,0.250000X0.400000X0.625000X-0.400000X0.625000X-0.400000X-0.625000X0.400000X-0.625000X0*%
%TD*%
%TA.AperFunction,ComponentPad*%
%ADD35RoundRect,0.700000X-0.700000X-0.700000X0.700000X-0.700000X0.700000X0.700000X-0.700000X0.700000X0*%
%TD*%
%TA.AperFunction,ViaPad*%
%ADD36C,1.400000*%
%TD*%
%TA.AperFunction,ViaPad*%
%ADD37C,0.600000*%
%TD*%
%TA.AperFunction,Conductor*%
%ADD38C,1.000000*%
%TD*%
%TA.AperFunction,Conductor*%
%ADD39C,1.200000*%
%TD*%
%TA.AperFunction,Conductor*%
%ADD40C,1.500000*%
%TD*%
%TA.AperFunction,Conductor*%
%ADD41C,1.800000*%
%TD*%
%TA.AperFunction,Conductor*%
%ADD42C,1.250000*%
%TD*%
%TA.AperFunction,Conductor*%
%ADD43C,1.600000*%
%TD*%
G04 APERTURE END LIST*
D10*
%TO.P,TP1,1,1_1*%
%TO.N,Net-(U2-TEMP)*%
X183000000Y-121000000D03*
%TD*%
D11*
%TO.P,R2,1*%
%TO.N,/RawDC+*%
X191000000Y-84500000D03*
%TO.P,R2,2*%
%TO.N,/Vin+*%
X191000000Y-104820000D03*
%TD*%
D12*
%TO.P,C4,1*%
%TO.N,GND*%
X109000000Y-115000000D03*
D11*
%TO.P,C4,2*%
%TO.N,/Vin-*%
X114000000Y-115000000D03*
%TD*%
D10*
%TO.P,TP2,1,1_1*%
%TO.N,Net-(U2-Imon)*%
X175000000Y-126000000D03*
%TD*%
D13*
%TO.P,R3,1*%
%TO.N,/Vin-*%
X122000000Y-113000000D03*
%TO.P,R3,2*%
%TO.N,Net-(U1-ILIM)*%
X122000000Y-115000000D03*
%TD*%
D14*
%TO.P,D1,1,+_1*%
%TO.N,/RawDC+*%
X195800000Y-64550000D03*
%TO.P,D1,2,-_2*%
%TO.N,GND*%
X195800000Y-59450000D03*
%TO.P,D1,3*%
%TO.N,/S1*%
X186200000Y-59450000D03*
%TO.P,D1,4*%
%TO.N,/S2*%
X186200000Y-64550000D03*
%TD*%
D15*
%TO.P,J1,1,Pin_1_1*%
%TO.N,/AC_L*%
X131190000Y-37300000D03*
D16*
%TO.P,J1,2,Pin_2_2*%
%TO.N,/AC_N*%
X123570000Y-37300000D03*
%TD*%
D13*
%TO.P,R5,1*%
%TO.N,Net-(U2-Imon)*%
X176000000Y-119000000D03*
%TO.P,R5,2*%
%TO.N,GND*%
X176000000Y-121000000D03*
%TD*%
D11*
%TO.P,R1,1*%
%TO.N,/Vin-*%
X109000000Y-105660000D03*
%TO.P,R1,2*%
%TO.N,/RawDC-*%
X109000000Y-85340000D03*
%TD*%
D17*
%TO.P,R10,1*%
%TO.N,Net-(D3-K)*%
X165950000Y-125500000D03*
%TO.P,R10,2*%
%TO.N,GND*%
X169050000Y-125500000D03*
%TD*%
D18*
%TO.P,J2,1,Pin_1_1*%
%TO.N,/-15VDC*%
X145000000Y-125500000D03*
D19*
%TO.P,J2,2,Pin_2_2*%
%TO.N,GND*%
X150080000Y-125500000D03*
%TO.P,J2,3,Pin_3_3*%
%TO.N,/+15VDC*%
X155160000Y-125500000D03*
%TD*%
D20*
%TO.P,U2,1,Ilim_1*%
%TO.N,Net-(U2-Ilim)*%
X173500000Y-115000000D03*
D21*
%TO.P,U2,2,SET_2*%
%TO.N,Net-(U2-SET)*%
X174770000Y-111300000D03*
%TO.P,U2,3,Imon_3*%
%TO.N,Net-(U2-Imon)*%
X176040000Y-115000000D03*
%TO.P,U2,4,OUT_4*%
%TO.N,/+15VDC*%
X177310000Y-111300000D03*
%TO.P,U2,5,TEMP_5*%
%TO.N,Net-(U2-TEMP)*%
X178580000Y-115000000D03*
%TO.P,U2,6,IN_6*%
%TO.N,/Vin+*%
X179850000Y-111300000D03*
%TO.P,U2,7*%
%TO.N,unconnected-(U2-Pad7)*%
X181120000Y-115000000D03*
%TD*%
D14*
%TO.P,D2,1,+_1*%
%TO.N,GND*%
X103200000Y-59450000D03*
%TO.P,D2,2,-_2*%
%TO.N,/RawDC-*%
X103200000Y-64550000D03*
%TO.P,D2,3*%
%TO.N,/S4*%
X112800000Y-64550000D03*
%TO.P,D2,4*%
%TO.N,/S3*%
X112800000Y-59450000D03*
%TD*%
D17*
%TO.P,R8,1*%
%TO.N,/+15VDC*%
X169450000Y-119000000D03*
%TO.P,R8,2*%
%TO.N,Net-(U2-Ilim)*%
X172550000Y-119000000D03*
%TD*%
D22*
%TO.P,R9,1*%
%TO.N,GND*%
X131100000Y-121550000D03*
%TO.P,R9,2*%
%TO.N,Net-(U1-SET)*%
X131100000Y-118450000D03*
%TD*%
D10*
%TO.P,TP3,1,1_1*%
%TO.N,Net-(U1-IMONN)*%
X117000000Y-104000000D03*
%TD*%
D17*
%TO.P,R11,1*%
%TO.N,GND*%
X130450000Y-125500000D03*
%TO.P,R11,2*%
%TO.N,Net-(D4-A)*%
X133550000Y-125500000D03*
%TD*%
D23*
%TO.P,C8,1*%
%TO.N,GND*%
X144000000Y-112000000D03*
D24*
%TO.P,C8,2*%
%TO.N,/-15VDC*%
X144000000Y-115500000D03*
%TD*%
D20*
%TO.P,U1,1,ILIM_1*%
%TO.N,Net-(U1-ILIM)*%
X126000000Y-115000000D03*
D21*
%TO.P,U1,2,IMONN_2*%
%TO.N,Net-(U1-IMONN)*%
X127270000Y-111300000D03*
%TO.P,U1,3,~{SHDN}_3*%
%TO.N,/Vin-*%
X128540000Y-115000000D03*
%TO.P,U1,4,IN_4*%
X129810000Y-111300000D03*
%TO.P,U1,5,SET_5*%
%TO.N,Net-(U1-SET)*%
X131080000Y-115000000D03*
%TO.P,U1,6,GND_6*%
%TO.N,GND*%
X132350000Y-111300000D03*
%TO.P,U1,7,OUT_7*%
%TO.N,/-15VDC*%
X133620000Y-115000000D03*
%TD*%
D20*
%TO.P,D3,1,K_1*%
%TO.N,Net-(D3-K)*%
X163000000Y-125500000D03*
D25*
%TO.P,D3,2,A_2*%
%TO.N,/+15VDC*%
X160460000Y-125500000D03*
%TD*%
D13*
%TO.P,R4,1*%
%TO.N,Net-(U2-TEMP)*%
X178580000Y-119000000D03*
%TO.P,R4,2*%
%TO.N,GND*%
X178580000Y-121000000D03*
%TD*%
D26*
%TO.P,C3,1*%
%TO.N,/Vin+*%
X191000000Y-111326041D03*
D11*
%TO.P,C3,2*%
%TO.N,GND*%
X191000000Y-116326041D03*
%TD*%
D26*
%TO.P,C2,1*%
%TO.N,GND*%
X109000000Y-73000000D03*
D11*
%TO.P,C2,2*%
%TO.N,/RawDC-*%
X109000000Y-78000000D03*
%TD*%
D27*
%TO.P,C7,1*%
%TO.N,/+15VDC*%
X155000000Y-115500000D03*
D24*
%TO.P,C7,2*%
%TO.N,GND*%
X155000000Y-112000000D03*
%TD*%
D28*
%TO.P,C5,1*%
%TO.N,Net-(U2-SET)*%
X169600000Y-106400000D03*
%TO.P,C5,2*%
%TO.N,GND*%
X164600000Y-106400000D03*
%TD*%
D29*
%TO.P,CX1,1*%
%TO.N,/AC_L_Fused*%
X180000000Y-38500000D03*
%TO.P,CX1,2*%
%TO.N,/AC_N*%
X170000000Y-38500000D03*
%TD*%
D28*
%TO.P,C6,1*%
%TO.N,GND*%
X126200000Y-123600000D03*
%TO.P,C6,2*%
%TO.N,Net-(U1-SET)*%
X126200000Y-118600000D03*
%TD*%
D30*
%TO.P,F1,1*%
%TO.N,/AC_L*%
X145000000Y-38500000D03*
D31*
%TO.P,F1,2*%
%TO.N,/AC_L_Fused*%
X160000000Y-38500000D03*
%TD*%
D32*
%TO.P,C1,1*%
%TO.N,/RawDC+*%
X191000000Y-77000000D03*
D11*
%TO.P,C1,2*%
%TO.N,GND*%
X191000000Y-72000000D03*
%TD*%
D33*
%TO.P,R7,1*%
%TO.N,GND*%
X127200000Y-101050000D03*
%TO.P,R7,2*%
%TO.N,Net-(U1-IMONN)*%
X127200000Y-104150000D03*
%TD*%
D34*
%TO.P,R6,1*%
%TO.N,Net-(U2-SET)*%
X169550000Y-111300000D03*
%TO.P,R6,2*%
%TO.N,GND*%
X166450000Y-111300000D03*
%TD*%
D20*
%TO.P,D4,1,K_1*%
%TO.N,/-15VDC*%
X139000000Y-125500000D03*
D25*
%TO.P,D4,2,A_2*%
%TO.N,Net-(D4-A)*%
X136460000Y-125500000D03*
%TD*%
D35*
%TO.P,TR1,1*%
%TO.N,/AC_L_Fused*%
X124600000Y-56125000D03*
D10*
%TO.P,TR1,2*%
%TO.N,/AC_N*%
X137300000Y-56125000D03*
%TO.P,TR1,3*%
%TO.N,/AC_L_Fused*%
X175400000Y-56125000D03*
%TO.P,TR1,4*%
%TO.N,/AC_N*%
X162700000Y-56125000D03*
%TO.P,TR1,5*%
%TO.N,/S4*%
X124600000Y-87875000D03*
%TO.P,TR1,6*%
%TO.N,/S3*%
X137300000Y-87875000D03*
%TO.P,TR1,7*%
%TO.N,/S1*%
X175400000Y-87875000D03*
%TO.P,TR1,8*%
%TO.N,/S2*%
X162700000Y-87875000D03*
%TD*%
D36*
%TO.N,/-15VDC*%
X138800000Y-118200000D03*
X134200000Y-118200000D03*
D37*
%TO.N,/+15VDC*%
X164500000Y-117000000D03*
D36*
X172000000Y-107000000D03*
%TD*%
%TO.N,Net-(U2-TEMP)*%
D38*
X178580000Y-115000000D02*
X178580000Y-119000000D01*
X181000000Y-119000000D02*
X183000000Y-121000000D01*
X178580000Y-119000000D02*
X181000000Y-119000000D01*
%TO.N,/RawDC+*%
D39*
X197500000Y-72500000D02*
X197500000Y-65000000D01*
X191000000Y-77000000D02*
X193000000Y-77000000D01*
X197500000Y-65000000D02*
X196250000Y-65000000D01*
X193000000Y-77000000D02*
X197500000Y-72500000D01*
X196250000Y-65000000D02*
X195800000Y-64550000D01*
%TO.N,GND*%
D38*
X195800000Y-59450000D02*
X193550000Y-59450000D01*
D40*
X109000000Y-73000000D02*
X109000000Y-63000000D01*
X105450000Y-59450000D02*
X103200000Y-59450000D01*
D38*
X191000000Y-62000000D02*
X191000000Y-72000000D01*
D40*
X109000000Y-63000000D02*
X105450000Y-59450000D01*
D38*
X193550000Y-59450000D02*
X191000000Y-62000000D01*
%TO.N,/Vin-*%
X114000000Y-115000000D02*
X116000000Y-113000000D01*
X116000000Y-113000000D02*
X122000000Y-113000000D01*
%TO.N,Net-(U2-Imon)*%
X176040000Y-118960000D02*
X176000000Y-119000000D01*
X176040000Y-115000000D02*
X176040000Y-118960000D01*
X174800000Y-119000000D02*
X174400000Y-119400000D01*
X174400000Y-119400000D02*
X174400000Y-125400000D01*
X174400000Y-125400000D02*
X175000000Y-126000000D01*
X176000000Y-119000000D02*
X174800000Y-119000000D01*
%TO.N,Net-(U1-ILIM)*%
X122000000Y-115000000D02*
X126000000Y-115000000D01*
%TO.N,/S1*%
D40*
X187950000Y-59450000D02*
X188500000Y-60000000D01*
X186200000Y-59450000D02*
X187950000Y-59450000D01*
X188500000Y-60000000D02*
X188500000Y-74775000D01*
X188500000Y-74775000D02*
X175400000Y-87875000D01*
%TO.N,/S2*%
D41*
X170625000Y-87875000D02*
X186200000Y-72300000D01*
X162700000Y-87875000D02*
X170625000Y-87875000D01*
D40*
X186200000Y-64550000D02*
X186025000Y-64550000D01*
D41*
X186200000Y-72300000D02*
X186200000Y-64550000D01*
%TO.N,/AC_N*%
D42*
X123570000Y-42395000D02*
X137300000Y-56125000D01*
X123570000Y-37300000D02*
X123570000Y-42395000D01*
%TO.N,/RawDC-*%
D40*
X106500000Y-78000000D02*
X109000000Y-78000000D01*
X103200000Y-64550000D02*
X103200000Y-74700000D01*
X103200000Y-74700000D02*
X106500000Y-78000000D01*
%TO.N,Net-(D3-K)*%
D38*
X163000000Y-125500000D02*
X165950000Y-125500000D01*
%TO.N,/+15VDC*%
X169450000Y-119000000D02*
X166500000Y-119000000D01*
X166500000Y-119000000D02*
X164500000Y-117000000D01*
%TO.N,Net-(U2-Ilim)*%
X173500000Y-115000000D02*
X172600000Y-115900000D01*
X172600000Y-115900000D02*
X172600000Y-118950000D01*
X172600000Y-118950000D02*
X172550000Y-119000000D01*
%TO.N,Net-(U2-SET)*%
X169600000Y-106400000D02*
X169600000Y-111250000D01*
X174770000Y-111300000D02*
X169550000Y-111300000D01*
X169600000Y-111250000D02*
X169550000Y-111300000D01*
%TO.N,/S4*%
D41*
X112800000Y-64550000D02*
X112800000Y-76075000D01*
X112800000Y-76075000D02*
X124600000Y-87875000D01*
%TO.N,/S3*%
D43*
X112800000Y-60300000D02*
X115500000Y-63000000D01*
X115500000Y-63000000D02*
X115500000Y-74000000D01*
X115500000Y-74000000D02*
X129375000Y-87875000D01*
D41*
X112800000Y-59450000D02*
X112800000Y-60300000D01*
D43*
X129375000Y-87875000D02*
X137300000Y-87875000D01*
%TO.N,Net-(U1-SET)*%
D38*
X131080000Y-118430000D02*
X131100000Y-118450000D01*
X131080000Y-115000000D02*
X131080000Y-118430000D01*
X130950000Y-118600000D02*
X131100000Y-118450000D01*
X126200000Y-118600000D02*
X130950000Y-118600000D01*
%TO.N,Net-(U1-IMONN)*%
X117000000Y-104000000D02*
X117200000Y-104000000D01*
X117200000Y-104000000D02*
X117350000Y-104150000D01*
X127270000Y-111300000D02*
X127270000Y-104220000D01*
X117350000Y-104150000D02*
X127200000Y-104150000D01*
X127270000Y-104220000D02*
X127200000Y-104150000D01*
%TO.N,Net-(D4-A)*%
X136460000Y-125500000D02*
X133550000Y-125500000D01*
%TD*%
%TA.AperFunction,Conductor*%
%TO.N,GND*%
G36*
X102140877Y-70005102D02*
G01*
X102156121Y-70009578D01*
X102215846Y-70047960D01*
X102215858Y-70047974D01*
X102217063Y-70049365D01*
X102244946Y-70105072D01*
X102246618Y-70112755D01*
X102249500Y-70139548D01*
X102249500Y-74793622D01*
X102264418Y-74868614D01*
X102286027Y-74977250D01*
X102286029Y-74977255D01*
X102357677Y-75150230D01*
X102461697Y-75305907D01*
X102461702Y-75305913D01*
X102461708Y-75305919D01*
X102461717Y-75305929D01*
X105894069Y-78738281D01*
X105894078Y-78738289D01*
X105894086Y-78738297D01*
X105894092Y-78738302D01*
X106049770Y-78842323D01*
X106151099Y-78884294D01*
X106222749Y-78913973D01*
X106314566Y-78932236D01*
X106406383Y-78950500D01*
X106406384Y-78950500D01*
X107899589Y-78950500D01*
X107935084Y-78955603D01*
X107960731Y-78963134D01*
X108014327Y-78994935D01*
X108087629Y-79068237D01*
X108087632Y-79068239D01*
X108087635Y-79068242D01*
X108265978Y-79197815D01*
X108462394Y-79297895D01*
X108672049Y-79366015D01*
X108889778Y-79400500D01*
X108889781Y-79400500D01*
X109110219Y-79400500D01*
X109110222Y-79400500D01*
X109327951Y-79366015D01*
X109537606Y-79297895D01*
X109734022Y-79197815D01*
X109912365Y-79068242D01*
X110068242Y-78912365D01*
X110197815Y-78734022D01*
X110297895Y-78537606D01*
X110366015Y-78327951D01*
X110400500Y-78110222D01*
X110400500Y-77889778D01*
X110366015Y-77672049D01*
X110297895Y-77462394D01*
X110197815Y-77265978D01*
X110068242Y-77087635D01*
X110068239Y-77087632D01*
X110068237Y-77087629D01*
X110068236Y-77087628D01*
X110068234Y-77087625D01*
X109912376Y-76931767D01*
X109911868Y-76931350D01*
X109910342Y-76930288D01*
X109734022Y-76802185D01*
X109537606Y-76702105D01*
X109537603Y-76702104D01*
X109537601Y-76702103D01*
X109328272Y-76634089D01*
X109327971Y-76633990D01*
X109327947Y-76633984D01*
X109233142Y-76618968D01*
X109110222Y-76599500D01*
X109110219Y-76599500D01*
X108889781Y-76599500D01*
X108889778Y-76599500D01*
X108801363Y-76613503D01*
X108686030Y-76631770D01*
X108686021Y-76631772D01*
X108672049Y-76633985D01*
X108672046Y-76633985D01*
X108672045Y-76633986D01*
X108661946Y-76637267D01*
X108661934Y-76637270D01*
X108462403Y-76702100D01*
X108462293Y-76702155D01*
X108265976Y-76802185D01*
X108265975Y-76802185D01*
X108087631Y-76931760D01*
X108087628Y-76931762D01*
X108047217Y-76972174D01*
X108047216Y-76972176D01*
X108019605Y-76999787D01*
X107990899Y-77021276D01*
X107967439Y-77034086D01*
X107907053Y-77049500D01*
X106964015Y-77049500D01*
X106928514Y-77044395D01*
X106902868Y-77036864D01*
X106849274Y-77005064D01*
X104200217Y-74356007D01*
X104200212Y-74356002D01*
X104178723Y-74327296D01*
X104165912Y-74303834D01*
X104150500Y-74243449D01*
X104150500Y-71999484D01*
X107292000Y-71999484D01*
X107292000Y-72746000D01*
X108282687Y-72746000D01*
X108350808Y-72766002D01*
X108397301Y-72819658D01*
X108407405Y-72889932D01*
X108404394Y-72904610D01*
X108400000Y-72921008D01*
X108400000Y-73078991D01*
X108404394Y-73095390D01*
X108402704Y-73166366D01*
X108362909Y-73225162D01*
X108297644Y-73253109D01*
X108282687Y-73254000D01*
X107292001Y-73254000D01*
X107292001Y-74000507D01*
X107302604Y-74104317D01*
X107348707Y-74243449D01*
X107358342Y-74272525D01*
X107451366Y-74423339D01*
X107451371Y-74423345D01*
X107451376Y-74423350D01*
X107451386Y-74423361D01*
X107576637Y-74548612D01*
X107576648Y-74548622D01*
X107576654Y-74548628D01*
X107576660Y-74548633D01*
X107727474Y-74641657D01*
X107895678Y-74697393D01*
X107895681Y-74697394D01*
X107999484Y-74707999D01*
X108746000Y-74707999D01*
X108746000Y-73717312D01*
X108766002Y-73649191D01*
X108819658Y-73602698D01*
X108889932Y-73592594D01*
X108904595Y-73595601D01*
X108921009Y-73600000D01*
X109078988Y-73600000D01*
X109078991Y-73600000D01*
X109095389Y-73595606D01*
X109166362Y-73597294D01*
X109225159Y-73637086D01*
X109253108Y-73702350D01*
X109254000Y-73717312D01*
X109254000Y-74707999D01*
X110000507Y-74707999D01*
X110104318Y-74697394D01*
X110272525Y-74641657D01*
X110423339Y-74548633D01*
X110423345Y-74548628D01*
X110548628Y-74423345D01*
X110548633Y-74423339D01*
X110641657Y-74272525D01*
X110697393Y-74104321D01*
X110697394Y-74104318D01*
X110703666Y-74042918D01*
X110703966Y-74040744D01*
X110708000Y-74031766D01*
X110708000Y-73254000D01*
X109717313Y-73254000D01*
X109649192Y-73233998D01*
X109602699Y-73180342D01*
X109592595Y-73110068D01*
X109595606Y-73095390D01*
X109595982Y-73093983D01*
X109600000Y-73078991D01*
X109600000Y-72921009D01*
X109595606Y-72904610D01*
X109597296Y-72833634D01*
X109637091Y-72774838D01*
X109702356Y-72746891D01*
X109717313Y-72746000D01*
X110707999Y-72746000D01*
X110707999Y-71999491D01*
X110697394Y-71895682D01*
X110697394Y-71895681D01*
X110641657Y-71727474D01*
X110548633Y-71576660D01*
X110548628Y-71576654D01*
X110548622Y-71576648D01*
X110548612Y-71576637D01*
X110423361Y-71451386D01*
X110423350Y-71451376D01*
X110423345Y-71451371D01*
X110423339Y-71451366D01*
X110272525Y-71358342D01*
X110104321Y-71302606D01*
X110104318Y-71302605D01*
X110000515Y-71292000D01*
X109254000Y-71292000D01*
X109254000Y-72282687D01*
X109233998Y-72350808D01*
X109180342Y-72397301D01*
X109110068Y-72407405D01*
X109095390Y-72404394D01*
X109078991Y-72400000D01*
X108921009Y-72400000D01*
X108921008Y-72400000D01*
X108904610Y-72404394D01*
X108833634Y-72402704D01*
X108774838Y-72362909D01*
X108746891Y-72297644D01*
X108746000Y-72282687D01*
X108746000Y-71292000D01*
X107999492Y-71292000D01*
X107895682Y-71302604D01*
X107727473Y-71358342D01*
X107576664Y-71451363D01*
X107576648Y-71451376D01*
X107576637Y-71451386D01*
X107451386Y-71576637D01*
X107451376Y-71576648D01*
X107451363Y-71576664D01*
X107378194Y-71695289D01*
X107358342Y-71727474D01*
X107302606Y-71895678D01*
X107302605Y-71895681D01*
X107292000Y-71999484D01*
X104150500Y-71999484D01*
X104150500Y-70144115D01*
X104155603Y-70108621D01*
X104160077Y-70093382D01*
X104198456Y-70033656D01*
X104199865Y-70032436D01*
X104255586Y-70004549D01*
X104263270Y-70002878D01*
X104290048Y-70000000D01*
X111555385Y-70000000D01*
X111587027Y-70004549D01*
X111590877Y-70005102D01*
X111606121Y-70009578D01*
X111665846Y-70047960D01*
X111665858Y-70047974D01*
X111667063Y-70049365D01*
X111694946Y-70105072D01*
X111696618Y-70112755D01*
X111699500Y-70139548D01*
X111699500Y-75988389D01*
X111699500Y-76161611D01*
X111726598Y-76332701D01*
X111726599Y-76332704D01*
X111780121Y-76497426D01*
X111780129Y-76497451D01*
X111780130Y-76497452D01*
X111858768Y-76651788D01*
X111960587Y-76791930D01*
X111960590Y-76791933D01*
X122949783Y-87781125D01*
X122971274Y-87809832D01*
X122984086Y-87833294D01*
X122999500Y-87893682D01*
X122999500Y-88000962D01*
X123031028Y-88200020D01*
X123038910Y-88249786D01*
X123038912Y-88249795D01*
X123116753Y-88489364D01*
X123116763Y-88489388D01*
X123231132Y-88713848D01*
X123377724Y-88915615D01*
X123377725Y-88915616D01*
X123379212Y-88917663D01*
X123557335Y-89095786D01*
X123557835Y-89096196D01*
X123559362Y-89097259D01*
X123761155Y-89243870D01*
X123985621Y-89358241D01*
X124225215Y-89436090D01*
X124474038Y-89475500D01*
X124474041Y-89475500D01*
X124725959Y-89475500D01*
X124725962Y-89475500D01*
X124974785Y-89436090D01*
X125214379Y-89358241D01*
X125438845Y-89243870D01*
X125642656Y-89095793D01*
X125820793Y-88917656D01*
X125968870Y-88713845D01*
X126083241Y-88489379D01*
X126161090Y-88249785D01*
X126200500Y-88000962D01*
X126200500Y-87749038D01*
X126161090Y-87500215D01*
X126083241Y-87260621D01*
X125968870Y-87036155D01*
X125820793Y-86832344D01*
X125820790Y-86832341D01*
X125820788Y-86832338D01*
X125820787Y-86832337D01*
X125820785Y-86832334D01*
X125642667Y-86654216D01*
X125642154Y-86653795D01*
X125640615Y-86652724D01*
X125438848Y-86506132D01*
X125438847Y-86506131D01*
X125438845Y-86506130D01*
X125214379Y-86391759D01*
X125214376Y-86391758D01*
X125214374Y-86391757D01*
X125121069Y-86361440D01*
X124974804Y-86313915D01*
X124974777Y-86313907D01*
X124974438Y-86313822D01*
X124972636Y-86313569D01*
X124775057Y-86282276D01*
X124725962Y-86274500D01*
X124725960Y-86274500D01*
X124626147Y-86274500D01*
X124626144Y-86274499D01*
X124626144Y-86274500D01*
X124590646Y-86269395D01*
X124565000Y-86261864D01*
X124511406Y-86230064D01*
X113950216Y-75668874D01*
X113928723Y-75640164D01*
X113915912Y-75616702D01*
X113900500Y-75556317D01*
X113900500Y-70144115D01*
X113905603Y-70108621D01*
X113910077Y-70093382D01*
X113948456Y-70033656D01*
X113949865Y-70032436D01*
X114005586Y-70004549D01*
X114013270Y-70002878D01*
X114040048Y-70000000D01*
X114355385Y-70000000D01*
X114387027Y-70004549D01*
X114390877Y-70005102D01*
X114406121Y-70009578D01*
X114465846Y-70047960D01*
X114465858Y-70047974D01*
X114467063Y-70049365D01*
X114494946Y-70105072D01*
X114496618Y-70112755D01*
X114499500Y-70139548D01*
X114499500Y-74098545D01*
X114537946Y-74291823D01*
X114537948Y-74291830D01*
X114537949Y-74291835D01*
X114537951Y-74291843D01*
X114542918Y-74303834D01*
X114553382Y-74329099D01*
X114560037Y-74345164D01*
X114560038Y-74345164D01*
X114560038Y-74345165D01*
X114613368Y-74473914D01*
X114722861Y-74637782D01*
X114862218Y-74777139D01*
X114866618Y-74781539D01*
X114866629Y-74781549D01*
X114867712Y-74782632D01*
X128593135Y-88508055D01*
X128593154Y-88508075D01*
X128594694Y-88509615D01*
X128594699Y-88509620D01*
X128597860Y-88512781D01*
X128597861Y-88512782D01*
X128737218Y-88652139D01*
X128901086Y-88761632D01*
X129029834Y-88814961D01*
X129083164Y-88837051D01*
X129179812Y-88856275D01*
X129276459Y-88875500D01*
X129276460Y-88875500D01*
X129473540Y-88875500D01*
X135967001Y-88875500D01*
X136002156Y-88880554D01*
X136002493Y-88880602D01*
X136026706Y-88887712D01*
X136074066Y-88913684D01*
X136075193Y-88914668D01*
X136080048Y-88918906D01*
X136086268Y-88924718D01*
X136173953Y-89012403D01*
X136257341Y-89095791D01*
X136257835Y-89096196D01*
X136259362Y-89097259D01*
X136461155Y-89243870D01*
X136685621Y-89358241D01*
X136925215Y-89436090D01*
X137174038Y-89475500D01*
X137174041Y-89475500D01*
X137425959Y-89475500D01*
X137425962Y-89475500D01*
X137674785Y-89436090D01*
X137914379Y-89358241D01*
X138138845Y-89243870D01*
X138342656Y-89095793D01*
X138520793Y-88917656D01*
X138668870Y-88713845D01*
X138783241Y-88489379D01*
X138861090Y-88249785D01*
X138900500Y-88000962D01*
X138900500Y-87749038D01*
X138861090Y-87500215D01*
X138783241Y-87260621D01*
X138668870Y-87036155D01*
X138520793Y-86832344D01*
X138520790Y-86832341D01*
X138520788Y-86832338D01*
X138520787Y-86832337D01*
X138520785Y-86832334D01*
X138342667Y-86654216D01*
X138342154Y-86653795D01*
X138340615Y-86652724D01*
X138138848Y-86506132D01*
X138138847Y-86506131D01*
X138138845Y-86506130D01*
X137914379Y-86391759D01*
X137914376Y-86391758D01*
X137914374Y-86391757D01*
X137821069Y-86361440D01*
X137674804Y-86313915D01*
X137674777Y-86313907D01*
X137674438Y-86313822D01*
X137672636Y-86313569D01*
X137475057Y-86282276D01*
X137425962Y-86274500D01*
X137425960Y-86274500D01*
X137174041Y-86274500D01*
X137174038Y-86274500D01*
X136925215Y-86313910D01*
X136925209Y-86313911D01*
X136925206Y-86313911D01*
X136925205Y-86313912D01*
X136685624Y-86391757D01*
X136461147Y-86506134D01*
X136259389Y-86652720D01*
X136257846Y-86653794D01*
X136257331Y-86654216D01*
X136091037Y-86820511D01*
X136070837Y-86836912D01*
X136044677Y-86853996D01*
X135976705Y-86874497D01*
X135975782Y-86874500D01*
X129859725Y-86874500D01*
X129824224Y-86869395D01*
X129798578Y-86861864D01*
X129744984Y-86830064D01*
X116550217Y-73635297D01*
X116550212Y-73635292D01*
X116528723Y-73606586D01*
X116515912Y-73583124D01*
X116500500Y-73522739D01*
X116500500Y-70144115D01*
X116505603Y-70108621D01*
X116510077Y-70093382D01*
X116548456Y-70033656D01*
X116549865Y-70032436D01*
X116605586Y-70004549D01*
X116613270Y-70002878D01*
X116640048Y-70000000D01*
X184955385Y-70000000D01*
X184987027Y-70004549D01*
X184990877Y-70005102D01*
X185006121Y-70009578D01*
X185065846Y-70047960D01*
X185065858Y-70047974D01*
X185067063Y-70049365D01*
X185094946Y-70105072D01*
X185096618Y-70112755D01*
X185099500Y-70139548D01*
X185099500Y-71773852D01*
X185099499Y-71773854D01*
X185099500Y-71773855D01*
X185094395Y-71809353D01*
X185086864Y-71834999D01*
X185055064Y-71888593D01*
X170218874Y-86724783D01*
X170190169Y-86746273D01*
X170166708Y-86759085D01*
X170106318Y-86774500D01*
X163933254Y-86774500D01*
X163933251Y-86774499D01*
X163933250Y-86774500D01*
X163897753Y-86769395D01*
X163891311Y-86767503D01*
X163872107Y-86761864D01*
X163818514Y-86730064D01*
X163742661Y-86654211D01*
X163742658Y-86654209D01*
X163742656Y-86654207D01*
X163538845Y-86506130D01*
X163314379Y-86391759D01*
X163314376Y-86391758D01*
X163314374Y-86391757D01*
X163221069Y-86361440D01*
X163074804Y-86313915D01*
X163074777Y-86313907D01*
X163074438Y-86313822D01*
X163072636Y-86313569D01*
X162875057Y-86282276D01*
X162825962Y-86274500D01*
X162825960Y-86274500D01*
X162574041Y-86274500D01*
X162574038Y-86274500D01*
X162325215Y-86313910D01*
X162325209Y-86313911D01*
X162325206Y-86313911D01*
X162325205Y-86313912D01*
X162085624Y-86391757D01*
X161861147Y-86506134D01*
X161659389Y-86652720D01*
X161657846Y-86653794D01*
X161657331Y-86654216D01*
X161479216Y-86832331D01*
X161478794Y-86832846D01*
X161477720Y-86834389D01*
X161331134Y-87036147D01*
X161216757Y-87260624D01*
X161138910Y-87500211D01*
X161138607Y-87501726D01*
X161138334Y-87503850D01*
X161099500Y-87749038D01*
X161099500Y-88000962D01*
X161131028Y-88200020D01*
X161138910Y-88249786D01*
X161138912Y-88249795D01*
X161216753Y-88489364D01*
X161216763Y-88489388D01*
X161331132Y-88713848D01*
X161477724Y-88915615D01*
X161477725Y-88915616D01*
X161479212Y-88917663D01*
X161657335Y-89095786D01*
X161657835Y-89096196D01*
X161659362Y-89097259D01*
X161861155Y-89243870D01*
X162085621Y-89358241D01*
X162325215Y-89436090D01*
X162574038Y-89475500D01*
X162574041Y-89475500D01*
X162825959Y-89475500D01*
X162825962Y-89475500D01*
X163074785Y-89436090D01*
X163314379Y-89358241D01*
X163538845Y-89243870D01*
X163742656Y-89095793D01*
X163813244Y-89025203D01*
X163841941Y-89003722D01*
X163865410Y-88990908D01*
X163925788Y-88975500D01*
X170711608Y-88975500D01*
X170711611Y-88975500D01*
X170882701Y-88948402D01*
X171047445Y-88894873D01*
X171201788Y-88816232D01*
X171341928Y-88714414D01*
X187039414Y-73016928D01*
X187141232Y-72876788D01*
X187219873Y-72722446D01*
X187273402Y-72557701D01*
X187296217Y-72413646D01*
X187297695Y-72409299D01*
X187297509Y-72406742D01*
X187306809Y-72379389D01*
X187309471Y-72373774D01*
X187309961Y-72373224D01*
X187309996Y-72373123D01*
X187312830Y-72367916D01*
X187330479Y-72350218D01*
X187356723Y-72320791D01*
X187361016Y-72319596D01*
X187362963Y-72317645D01*
X187386770Y-72312431D01*
X187425122Y-72301763D01*
X187429422Y-72303092D01*
X187432317Y-72302459D01*
X187456877Y-72311581D01*
X187492951Y-72322735D01*
X187495702Y-72326002D01*
X187498871Y-72327179D01*
X187516753Y-72350999D01*
X187538652Y-72377003D01*
X187538830Y-72377407D01*
X187539706Y-72381573D01*
X187541495Y-72383956D01*
X187542178Y-72393329D01*
X187549500Y-72428150D01*
X187549500Y-74310983D01*
X187544395Y-74346484D01*
X187536864Y-74372130D01*
X187505064Y-74425724D01*
X175696678Y-86234108D01*
X175696677Y-86234111D01*
X175667967Y-86255603D01*
X175648102Y-86266450D01*
X175591331Y-86281810D01*
X175586800Y-86281940D01*
X175579153Y-86281448D01*
X175578728Y-86281541D01*
X175578339Y-86281396D01*
X175563478Y-86280441D01*
X175538735Y-86276522D01*
X175538731Y-86276522D01*
X175525962Y-86274500D01*
X175525958Y-86274500D01*
X175274041Y-86274500D01*
X175274038Y-86274500D01*
X175025215Y-86313910D01*
X175025209Y-86313911D01*
X175025206Y-86313911D01*
X175025205Y-86313912D01*
X174785624Y-86391757D01*
X174561147Y-86506134D01*
X174359389Y-86652720D01*
X174357846Y-86653794D01*
X174357331Y-86654216D01*
X174179216Y-86832331D01*
X174178794Y-86832846D01*
X174177720Y-86834389D01*
X174031134Y-87036147D01*
X173916757Y-87260624D01*
X173838910Y-87500211D01*
X173838607Y-87501726D01*
X173838334Y-87503850D01*
X173799500Y-87749038D01*
X173799500Y-88000962D01*
X173831028Y-88200020D01*
X173838910Y-88249786D01*
X173838912Y-88249795D01*
X173916753Y-88489364D01*
X173916763Y-88489388D01*
X174031132Y-88713848D01*
X174177724Y-88915615D01*
X174177725Y-88915616D01*
X174179212Y-88917663D01*
X174357335Y-89095786D01*
X174357835Y-89096196D01*
X174359362Y-89097259D01*
X174561155Y-89243870D01*
X174785621Y-89358241D01*
X175025215Y-89436090D01*
X175274038Y-89475500D01*
X175274041Y-89475500D01*
X175525959Y-89475500D01*
X175525962Y-89475500D01*
X175774785Y-89436090D01*
X176014379Y-89358241D01*
X176238845Y-89243870D01*
X176442656Y-89095793D01*
X176620793Y-88917656D01*
X176768870Y-88713845D01*
X176883241Y-88489379D01*
X176961090Y-88249785D01*
X177000500Y-88000962D01*
X177000500Y-87749038D01*
X176995555Y-87717823D01*
X176995044Y-87681974D01*
X176997945Y-87659524D01*
X177018897Y-87604554D01*
X177021463Y-87600801D01*
X177026336Y-87594928D01*
X177026511Y-87594532D01*
X177026854Y-87594304D01*
X177036364Y-87582843D01*
X180229430Y-84389778D01*
X189599500Y-84389778D01*
X189599500Y-84610222D01*
X189633985Y-84827951D01*
X189702105Y-85037606D01*
X189802185Y-85234022D01*
X189931758Y-85412365D01*
X189931764Y-85412373D01*
X190087626Y-85568235D01*
X190088126Y-85568645D01*
X190089653Y-85569708D01*
X190265978Y-85697815D01*
X190462394Y-85797895D01*
X190672049Y-85866015D01*
X190889778Y-85900500D01*
X190889781Y-85900500D01*
X191110219Y-85900500D01*
X191110222Y-85900500D01*
X191327951Y-85866015D01*
X191537606Y-85797895D01*
X191734022Y-85697815D01*
X191912365Y-85568242D01*
X192068242Y-85412365D01*
X192197815Y-85234022D01*
X192297895Y-85037606D01*
X192366015Y-84827951D01*
X192400500Y-84610222D01*
X192400500Y-84389778D01*
X192366015Y-84172049D01*
X192297895Y-83962394D01*
X192197815Y-83765978D01*
X192068242Y-83587635D01*
X192068239Y-83587632D01*
X192068237Y-83587629D01*
X192068236Y-83587628D01*
X192068234Y-83587625D01*
X191912376Y-83431767D01*
X191911868Y-83431350D01*
X191910342Y-83430288D01*
X191734022Y-83302185D01*
X191537606Y-83202105D01*
X191537603Y-83202104D01*
X191537601Y-83202103D01*
X191328272Y-83134089D01*
X191327971Y-83133990D01*
X191327947Y-83133984D01*
X191233142Y-83118968D01*
X191110222Y-83099500D01*
X191110219Y-83099500D01*
X190889781Y-83099500D01*
X190889778Y-83099500D01*
X190801363Y-83113503D01*
X190686030Y-83131770D01*
X190686021Y-83131772D01*
X190672049Y-83133985D01*
X190672046Y-83133985D01*
X190672045Y-83133986D01*
X190661946Y-83137267D01*
X190661934Y-83137270D01*
X190462403Y-83202100D01*
X190462293Y-83202155D01*
X190265976Y-83302185D01*
X190265975Y-83302186D01*
X190089680Y-83430271D01*
X190088137Y-83431345D01*
X190087622Y-83431767D01*
X189931767Y-83587622D01*
X189931345Y-83588137D01*
X189930271Y-83589680D01*
X189802186Y-83765975D01*
X189802185Y-83765976D01*
X189702155Y-83962293D01*
X189702100Y-83962403D01*
X189633994Y-84172017D01*
X189633984Y-84172052D01*
X189618192Y-84271760D01*
X189599500Y-84389778D01*
X180229430Y-84389778D01*
X189238302Y-75380908D01*
X189342323Y-75225230D01*
X189384294Y-75123901D01*
X189413973Y-75052251D01*
X189450500Y-74868616D01*
X189450500Y-73156056D01*
X189455604Y-73120559D01*
X189460020Y-73105519D01*
X189498403Y-73045792D01*
X189558173Y-73017086D01*
X189560937Y-73016578D01*
X189569362Y-73015032D01*
X189600340Y-73013233D01*
X189625881Y-73014907D01*
X190313178Y-72327608D01*
X190375489Y-72293585D01*
X190446304Y-72298649D01*
X190503140Y-72341196D01*
X190511389Y-72353701D01*
X190519878Y-72368404D01*
X190519886Y-72368414D01*
X190631585Y-72480113D01*
X190631589Y-72480116D01*
X190631592Y-72480119D01*
X190646292Y-72488606D01*
X190695285Y-72539987D01*
X190708722Y-72609701D01*
X190682335Y-72675612D01*
X190672387Y-72686820D01*
X189985090Y-73374116D01*
X189985090Y-73374119D01*
X190049046Y-73423195D01*
X190049052Y-73423199D01*
X190242944Y-73535142D01*
X190242953Y-73535147D01*
X190449803Y-73620826D01*
X190666077Y-73678777D01*
X190666083Y-73678777D01*
X190666084Y-73678778D01*
X190888047Y-73707999D01*
X190888058Y-73708000D01*
X190888059Y-73708000D01*
X191111934Y-73708000D01*
X191111941Y-73708000D01*
X191111948Y-73707999D01*
X191111951Y-73707999D01*
X191111969Y-73707997D01*
X191333914Y-73678778D01*
X191333913Y-73678778D01*
X191333922Y-73678777D01*
X191550196Y-73620826D01*
X191757046Y-73535147D01*
X191757055Y-73535142D01*
X191950953Y-73423195D01*
X192014908Y-73374118D01*
X191327611Y-72686820D01*
X191293586Y-72624508D01*
X191298651Y-72553692D01*
X191341198Y-72496857D01*
X191353698Y-72488611D01*
X191368408Y-72480119D01*
X191480119Y-72368408D01*
X191488606Y-72353707D01*
X191539988Y-72304714D01*
X191609701Y-72291276D01*
X191675613Y-72317662D01*
X191686813Y-72327603D01*
X192374118Y-73014908D01*
X192423195Y-72950953D01*
X192535142Y-72757055D01*
X192535147Y-72757046D01*
X192620826Y-72550196D01*
X192678777Y-72333922D01*
X192695706Y-72205327D01*
X192707997Y-72111969D01*
X192707999Y-72111951D01*
X192708000Y-72111934D01*
X192708000Y-71888057D01*
X192707999Y-71888047D01*
X192678778Y-71666084D01*
X192678777Y-71666083D01*
X192678777Y-71666077D01*
X192620826Y-71449803D01*
X192535147Y-71242953D01*
X192535142Y-71242944D01*
X192423199Y-71049052D01*
X192374118Y-70985090D01*
X192374117Y-70985089D01*
X191686820Y-71672387D01*
X191624508Y-71706413D01*
X191553693Y-71701348D01*
X191496857Y-71658801D01*
X191488609Y-71646297D01*
X191480119Y-71631592D01*
X191480116Y-71631589D01*
X191480113Y-71631585D01*
X191368414Y-71519886D01*
X191368404Y-71519878D01*
X191353705Y-71511392D01*
X191304712Y-71460010D01*
X191291276Y-71390296D01*
X191317662Y-71324385D01*
X191327594Y-71313194D01*
X192014908Y-70625881D01*
X192014907Y-70625879D01*
X191950946Y-70576800D01*
X191950941Y-70576797D01*
X191757073Y-70464867D01*
X191757042Y-70464850D01*
X191757038Y-70464848D01*
X191550201Y-70379175D01*
X191550191Y-70379171D01*
X191407398Y-70340910D01*
X191333922Y-70321222D01*
X191333919Y-70321221D01*
X191333917Y-70321221D01*
X191333912Y-70321220D01*
X191111954Y-70292000D01*
X191111950Y-70292000D01*
X190888049Y-70292000D01*
X190888044Y-70292000D01*
X190666086Y-70321220D01*
X190666081Y-70321221D01*
X190449807Y-70379171D01*
X190449797Y-70379175D01*
X190242960Y-70464848D01*
X190242956Y-70464850D01*
X190242925Y-70464867D01*
X190049056Y-70576797D01*
X189985091Y-70625879D01*
X189985090Y-70625880D01*
X190672389Y-71313179D01*
X190706413Y-71375490D01*
X190701349Y-71446305D01*
X190658802Y-71503141D01*
X190646297Y-71511390D01*
X190631596Y-71519878D01*
X190631585Y-71519886D01*
X190519886Y-71631585D01*
X190519878Y-71631596D01*
X190511390Y-71646297D01*
X190460005Y-71695289D01*
X190390291Y-71708722D01*
X190324381Y-71682333D01*
X190313185Y-71672395D01*
X189625880Y-70985090D01*
X189625879Y-70985089D01*
X189602822Y-70986601D01*
X189577908Y-70985763D01*
X189572430Y-70985031D01*
X189571748Y-70984879D01*
X189571525Y-70984910D01*
X189565211Y-70984068D01*
X189562253Y-70982753D01*
X189560567Y-70982376D01*
X189560633Y-70982077D01*
X189541738Y-70978609D01*
X189539007Y-70977691D01*
X189518265Y-70963198D01*
X189500336Y-70955228D01*
X189494801Y-70946803D01*
X189480809Y-70937027D01*
X189480807Y-70937023D01*
X189478486Y-70934125D01*
X189463007Y-70898412D01*
X189461352Y-70895892D01*
X189461338Y-70894560D01*
X189452112Y-70873274D01*
X189451778Y-70870946D01*
X189450500Y-70853048D01*
X189450500Y-70144115D01*
X189455603Y-70108621D01*
X189460077Y-70093382D01*
X189498456Y-70033656D01*
X189499865Y-70032436D01*
X189555586Y-70004549D01*
X189563270Y-70002878D01*
X189590048Y-70000000D01*
X196555385Y-70000000D01*
X196587027Y-70004549D01*
X196590877Y-70005102D01*
X196606121Y-70009578D01*
X196665846Y-70047960D01*
X196665858Y-70047974D01*
X196667063Y-70049365D01*
X196694946Y-70105072D01*
X196696618Y-70112755D01*
X196699500Y-70139548D01*
X196699500Y-72098116D01*
X196699499Y-72098118D01*
X196699500Y-72098119D01*
X196694395Y-72133617D01*
X196686864Y-72159263D01*
X196655064Y-72212857D01*
X192718139Y-76149782D01*
X192689432Y-76171273D01*
X192677961Y-76177537D01*
X192674918Y-76179493D01*
X192606799Y-76199500D01*
X192544614Y-76199500D01*
X192544611Y-76199499D01*
X192544611Y-76199500D01*
X192509113Y-76194395D01*
X192493874Y-76189920D01*
X192434148Y-76151535D01*
X192434140Y-76151525D01*
X192432935Y-76150134D01*
X192405048Y-76094412D01*
X192403377Y-76086729D01*
X192400499Y-76059951D01*
X192400499Y-75995735D01*
X192400460Y-75995124D01*
X192400321Y-75993853D01*
X192397646Y-75965302D01*
X192352793Y-75837118D01*
X192352791Y-75837114D01*
X192352787Y-75837108D01*
X192272150Y-75727848D01*
X192162890Y-75647211D01*
X192162886Y-75647209D01*
X192162885Y-75647208D01*
X192162881Y-75647206D01*
X192162879Y-75647205D01*
X192162875Y-75647203D01*
X192034708Y-75602356D01*
X192034702Y-75602354D01*
X192034698Y-75602353D01*
X192034693Y-75602352D01*
X192019485Y-75600926D01*
X192019481Y-75600927D01*
X192004265Y-75599500D01*
X192004264Y-75599500D01*
X189995743Y-75599500D01*
X189995728Y-75599501D01*
X189995719Y-75599501D01*
X189995716Y-75599502D01*
X189992109Y-75599840D01*
X189971388Y-75601783D01*
X189971384Y-75601783D01*
X189965302Y-75602354D01*
X189965301Y-75602354D01*
X189837120Y-75647205D01*
X189837113Y-75647208D01*
X189837108Y-75647211D01*
X189727848Y-75727848D01*
X189647211Y-75837108D01*
X189647203Y-75837123D01*
X189602356Y-75965290D01*
X189602354Y-75965296D01*
X189600189Y-75988389D01*
X189599500Y-75995734D01*
X189599500Y-78004256D01*
X189599501Y-78004265D01*
X189599502Y-78004285D01*
X189601497Y-78025563D01*
X189602353Y-78034692D01*
X189602354Y-78034698D01*
X189603045Y-78038152D01*
X189605582Y-78043927D01*
X189647201Y-78162869D01*
X189647205Y-78162878D01*
X189647206Y-78162881D01*
X189647208Y-78162885D01*
X189647211Y-78162890D01*
X189727848Y-78272150D01*
X189837108Y-78352787D01*
X189837110Y-78352788D01*
X189837114Y-78352791D01*
X189837118Y-78352793D01*
X189837121Y-78352794D01*
X189837123Y-78352795D01*
X189965293Y-78397643D01*
X189965302Y-78397646D01*
X189995735Y-78400500D01*
X192004264Y-78400499D01*
X192034698Y-78397646D01*
X192162882Y-78352793D01*
X192272150Y-78272150D01*
X192352793Y-78162882D01*
X192397646Y-78034698D01*
X192400500Y-78004265D01*
X192400500Y-77944615D01*
X192405603Y-77909121D01*
X192410077Y-77893882D01*
X192448456Y-77834156D01*
X192449865Y-77832936D01*
X192505586Y-77805049D01*
X192513270Y-77803378D01*
X192540048Y-77800500D01*
X193078841Y-77800500D01*
X193078842Y-77800500D01*
X193233497Y-77769737D01*
X193379179Y-77709394D01*
X193510289Y-77621789D01*
X198121789Y-73010289D01*
X198209394Y-72879179D01*
X198269737Y-72733497D01*
X198300500Y-72578842D01*
X198300500Y-72421158D01*
X198300500Y-70144115D01*
X198305603Y-70108621D01*
X198310077Y-70093382D01*
X198348456Y-70033656D01*
X198349865Y-70032436D01*
X198405586Y-70004549D01*
X198413270Y-70002878D01*
X198440048Y-70000000D01*
X198855885Y-70000000D01*
X198887527Y-70004549D01*
X198891377Y-70005102D01*
X198906621Y-70009578D01*
X198966346Y-70047960D01*
X198966358Y-70047974D01*
X198967563Y-70049365D01*
X198995446Y-70105072D01*
X198997118Y-70112755D01*
X199000000Y-70139548D01*
X199000000Y-120855884D01*
X198999999Y-120855886D01*
X199000000Y-120855887D01*
X198994895Y-120891385D01*
X198990420Y-120906624D01*
X198952035Y-120966350D01*
X198952025Y-120966358D01*
X198950634Y-120967563D01*
X198894931Y-120995446D01*
X198887249Y-120997118D01*
X198860452Y-121000000D01*
X190000000Y-121000000D01*
X190000000Y-129855884D01*
X189999999Y-129855886D01*
X190000000Y-129855887D01*
X189994895Y-129891385D01*
X189990420Y-129906624D01*
X189952035Y-129966350D01*
X189952025Y-129966358D01*
X189950634Y-129967563D01*
X189894931Y-129995446D01*
X189887249Y-129997118D01*
X189860452Y-130000000D01*
X110144115Y-130000000D01*
X110144112Y-129999999D01*
X110144112Y-130000000D01*
X110108614Y-129994895D01*
X110093375Y-129990420D01*
X110033649Y-129952035D01*
X110033641Y-129952025D01*
X110032436Y-129950634D01*
X110004549Y-129894912D01*
X110002878Y-129887229D01*
X110000000Y-129860451D01*
X110000000Y-126175516D01*
X129292000Y-126175516D01*
X129302605Y-126279318D01*
X129302606Y-126279321D01*
X129358342Y-126447525D01*
X129376841Y-126477517D01*
X129451362Y-126598335D01*
X129451363Y-126598337D01*
X129451365Y-126598339D01*
X129451370Y-126598345D01*
X129451375Y-126598350D01*
X129451385Y-126598361D01*
X129576637Y-126723613D01*
X129576648Y-126723623D01*
X129576654Y-126723629D01*
X129576660Y-126723634D01*
X129727474Y-126816657D01*
X129895678Y-126872393D01*
X129895681Y-126872394D01*
X129957057Y-126878664D01*
X129959191Y-126878957D01*
X129968201Y-126883000D01*
X129999483Y-126883000D01*
X130196000Y-126883000D01*
X130704000Y-126883000D01*
X130900517Y-126883000D01*
X130947826Y-126883000D01*
X130960692Y-126879424D01*
X130968728Y-126876207D01*
X130972015Y-126875694D01*
X131004318Y-126872394D01*
X131004321Y-126872393D01*
X131172525Y-126816657D01*
X131323339Y-126723634D01*
X131323345Y-126723629D01*
X131448629Y-126598345D01*
X131448634Y-126598339D01*
X131541657Y-126447525D01*
X131597393Y-126279321D01*
X131597394Y-126279318D01*
X131603668Y-126217901D01*
X131603965Y-126215747D01*
X131608000Y-126206766D01*
X131608000Y-125754000D01*
X130704000Y-125754000D01*
X130704000Y-126883000D01*
X130196000Y-126883000D01*
X130196000Y-125754000D01*
X129292000Y-125754000D01*
X129292000Y-126175516D01*
X110000000Y-126175516D01*
X110000000Y-123500996D01*
X124942000Y-123500996D01*
X124942000Y-123699003D01*
X124972977Y-123894585D01*
X124972978Y-123894588D01*
X125034166Y-124082905D01*
X125124053Y-124259322D01*
X125124058Y-124259330D01*
X125148212Y-124292575D01*
X125677891Y-123762895D01*
X125740200Y-123728873D01*
X125811015Y-123733937D01*
X125867851Y-123776484D01*
X125876102Y-123788993D01*
X125899922Y-123830251D01*
X125899930Y-123830261D01*
X125969738Y-123900069D01*
X125969742Y-123900072D01*
X125969745Y-123900075D01*
X126011003Y-123923895D01*
X126059996Y-123975277D01*
X126073433Y-124044990D01*
X126047046Y-124110901D01*
X126037098Y-124122109D01*
X125507423Y-124651783D01*
X125507423Y-124651787D01*
X125521657Y-124662129D01*
X125540660Y-124675935D01*
X125717097Y-124765834D01*
X125905414Y-124827022D01*
X126100996Y-124858000D01*
X126299002Y-124858000D01*
X126299004Y-124858000D01*
X126494585Y-124827022D01*
X126502399Y-124824483D01*
X129292000Y-124824483D01*
X129292000Y-125246000D01*
X130196000Y-125246000D01*
X130704000Y-125246000D01*
X131608000Y-125246000D01*
X131608000Y-124824489D01*
X131607999Y-124824477D01*
X131607616Y-124820733D01*
X132699500Y-124820733D01*
X132699500Y-126179265D01*
X132702354Y-126209703D01*
X132702358Y-126209717D01*
X132747203Y-126337875D01*
X132747211Y-126337890D01*
X132827848Y-126447150D01*
X132937108Y-126527787D01*
X132937110Y-126527788D01*
X132937114Y-126527791D01*
X132937118Y-126527793D01*
X132937121Y-126527794D01*
X132937123Y-126527795D01*
X133001209Y-126550219D01*
X133065301Y-126572646D01*
X133095734Y-126575500D01*
X133095736Y-126575500D01*
X134004264Y-126575500D01*
X134004266Y-126575500D01*
X134034699Y-126572646D01*
X134162882Y-126527793D01*
X134168601Y-126523572D01*
X134173619Y-126519870D01*
X134230031Y-126478235D01*
X134272150Y-126447150D01*
X134352791Y-126337885D01*
X134352793Y-126337881D01*
X134365355Y-126301983D01*
X134381893Y-126270167D01*
X134391153Y-126257256D01*
X134447106Y-126213560D01*
X134457690Y-126209365D01*
X134504117Y-126200500D01*
X135533852Y-126200500D01*
X135569349Y-126205603D01*
X135590744Y-126211886D01*
X135594995Y-126213134D01*
X135648590Y-126244933D01*
X135697539Y-126293882D01*
X135743068Y-126339411D01*
X135743574Y-126339825D01*
X135745121Y-126340902D01*
X135883212Y-126441232D01*
X136037555Y-126519873D01*
X136202299Y-126573402D01*
X136373389Y-126600500D01*
X136373392Y-126600500D01*
X136546608Y-126600500D01*
X136546611Y-126600500D01*
X136717701Y-126573402D01*
X136882445Y-126519873D01*
X137036788Y-126441232D01*
X137176928Y-126339414D01*
X137299414Y-126216928D01*
X137401232Y-126076788D01*
X137479873Y-125922445D01*
X137533402Y-125757701D01*
X137560500Y-125586611D01*
X137560500Y-125413389D01*
X137533402Y-125242299D01*
X137479873Y-125077555D01*
X137401232Y-124923212D01*
X137299414Y-124783072D01*
X137299412Y-124783069D01*
X137179034Y-124662691D01*
X137178986Y-124662642D01*
X137176935Y-124660591D01*
X137176932Y-124660589D01*
X137176930Y-124660587D01*
X137066350Y-124580246D01*
X137899500Y-124580246D01*
X137899500Y-124580249D01*
X137899500Y-126419750D01*
X137910989Y-126477510D01*
X137911133Y-126478231D01*
X137911134Y-126478235D01*
X137955447Y-126544551D01*
X137955448Y-126544552D01*
X138021769Y-126588867D01*
X138080252Y-126600500D01*
X138080253Y-126600500D01*
X139919747Y-126600500D01*
X139919748Y-126600500D01*
X139978231Y-126588867D01*
X140044552Y-126544552D01*
X140088867Y-126478231D01*
X140100500Y-126419748D01*
X140100500Y-124580252D01*
X140088867Y-124521769D01*
X140044552Y-124455448D01*
X140044551Y-124455447D01*
X139978234Y-124411134D01*
X139978230Y-124411132D01*
X139919752Y-124399500D01*
X139919750Y-124399500D01*
X139919748Y-124399500D01*
X138080252Y-124399500D01*
X138080249Y-124399500D01*
X138080246Y-124399500D01*
X138021771Y-124411132D01*
X138021768Y-124411133D01*
X138021766Y-124411133D01*
X138021762Y-124411136D01*
X137955447Y-124455447D01*
X137911136Y-124521762D01*
X137911132Y-124521771D01*
X137899500Y-124580246D01*
X137066350Y-124580246D01*
X137036788Y-124558768D01*
X136954337Y-124516757D01*
X136882451Y-124480129D01*
X136882442Y-124480126D01*
X136717701Y-124426598D01*
X136546611Y-124399500D01*
X136546608Y-124399500D01*
X136373391Y-124399500D01*
X136373389Y-124399500D01*
X136309994Y-124409540D01*
X136216281Y-124424383D01*
X136216274Y-124424384D01*
X136202299Y-124426598D01*
X136202296Y-124426598D01*
X136202295Y-124426599D01*
X136192206Y-124429876D01*
X136192193Y-124429880D01*
X136123253Y-124452281D01*
X136042496Y-124478521D01*
X136038562Y-124479622D01*
X136037553Y-124480126D01*
X135883207Y-124558770D01*
X135743066Y-124660589D01*
X135743063Y-124660591D01*
X135653877Y-124749777D01*
X135653876Y-124749780D01*
X135653872Y-124749782D01*
X135653871Y-124749784D01*
X135628378Y-124768870D01*
X135625167Y-124771274D01*
X135613356Y-124777724D01*
X135601706Y-124784085D01*
X135541317Y-124799500D01*
X134508382Y-124799500D01*
X134472881Y-124794395D01*
X134457642Y-124789920D01*
X134397917Y-124751536D01*
X134390467Y-124742938D01*
X134366764Y-124702043D01*
X134352795Y-124662124D01*
X134352795Y-124662123D01*
X134352794Y-124662121D01*
X134352793Y-124662118D01*
X134352791Y-124662114D01*
X134351667Y-124660591D01*
X134272150Y-124552848D01*
X134162890Y-124472211D01*
X134162886Y-124472209D01*
X134162885Y-124472208D01*
X134162881Y-124472206D01*
X134162879Y-124472205D01*
X134162875Y-124472203D01*
X134034717Y-124427358D01*
X134034701Y-124427354D01*
X134034703Y-124427354D01*
X134011874Y-124425213D01*
X134004266Y-124424500D01*
X134004265Y-124424500D01*
X133095733Y-124424500D01*
X133065295Y-124427354D01*
X133065281Y-124427358D01*
X132937123Y-124472203D01*
X132937108Y-124472211D01*
X132827848Y-124552848D01*
X132747211Y-124662108D01*
X132747203Y-124662123D01*
X132702358Y-124790281D01*
X132702354Y-124790295D01*
X132699500Y-124820733D01*
X131607616Y-124820733D01*
X131597394Y-124720681D01*
X131597393Y-124720678D01*
X131541657Y-124552474D01*
X131456102Y-124413768D01*
X131448636Y-124401663D01*
X131448635Y-124401662D01*
X131448634Y-124401660D01*
X131448629Y-124401654D01*
X131448623Y-124401648D01*
X131448613Y-124401637D01*
X131442709Y-124395733D01*
X143499500Y-124395733D01*
X143499500Y-126604265D01*
X143502354Y-126634703D01*
X143502358Y-126634717D01*
X143547203Y-126762875D01*
X143547211Y-126762890D01*
X143627848Y-126872150D01*
X143737108Y-126952787D01*
X143737110Y-126952788D01*
X143737114Y-126952791D01*
X143737118Y-126952793D01*
X143737121Y-126952794D01*
X143737123Y-126952795D01*
X143767868Y-126963553D01*
X143865301Y-126997646D01*
X143895734Y-127000500D01*
X143895736Y-127000500D01*
X146104264Y-127000500D01*
X146104266Y-127000500D01*
X146134699Y-126997646D01*
X146262882Y-126952793D01*
X146272847Y-126945439D01*
X146347194Y-126890568D01*
X146372150Y-126872150D01*
X146413281Y-126816418D01*
X146452791Y-126762886D01*
X146452793Y-126762881D01*
X146494211Y-126644517D01*
X146497646Y-126634699D01*
X146500500Y-126604266D01*
X146500500Y-125381491D01*
X148272000Y-125381491D01*
X148272000Y-125618507D01*
X148302932Y-125853465D01*
X148310296Y-125880949D01*
X148364277Y-126082408D01*
X148454976Y-126301375D01*
X148454981Y-126301385D01*
X148497363Y-126374793D01*
X148573474Y-126506622D01*
X148573476Y-126506625D01*
X148573477Y-126506626D01*
X148634559Y-126586230D01*
X149358936Y-125861852D01*
X149421245Y-125827830D01*
X149492060Y-125832894D01*
X149548896Y-125875441D01*
X149552790Y-125880943D01*
X149575112Y-125914351D01*
X149575115Y-125914355D01*
X149665644Y-126004884D01*
X149665650Y-126004889D01*
X149699048Y-126027205D01*
X149744576Y-126081682D01*
X149753424Y-126152125D01*
X149722782Y-126216169D01*
X149718141Y-126221065D01*
X148993768Y-126945438D01*
X148993768Y-126945439D01*
X148993769Y-126945440D01*
X149073373Y-127006522D01*
X149278614Y-127125018D01*
X149278624Y-127125023D01*
X149497591Y-127215722D01*
X149726527Y-127277065D01*
X149726533Y-127277065D01*
X149726534Y-127277066D01*
X149961493Y-127307999D01*
X149961503Y-127308000D01*
X149961504Y-127308000D01*
X150198489Y-127308000D01*
X150198496Y-127308000D01*
X150198503Y-127307999D01*
X150198506Y-127307999D01*
X150198523Y-127307997D01*
X150433464Y-127277066D01*
X150433463Y-127277066D01*
X150433472Y-127277065D01*
X150662408Y-127215722D01*
X150881375Y-127125023D01*
X150881385Y-127125018D01*
X151086621Y-127006524D01*
X151166230Y-126945439D01*
X150441854Y-126221063D01*
X150407831Y-126158753D01*
X150412895Y-126087938D01*
X150455442Y-126031102D01*
X150460914Y-126027229D01*
X150494351Y-126004888D01*
X150584888Y-125914351D01*
X150607205Y-125880950D01*
X150661678Y-125835423D01*
X150732121Y-125826573D01*
X150796166Y-125857212D01*
X150801046Y-125861837D01*
X151525439Y-126586230D01*
X151586524Y-126506621D01*
X151682203Y-126340902D01*
X151705009Y-126301401D01*
X151705010Y-126301398D01*
X151705018Y-126301385D01*
X151705023Y-126301375D01*
X151795722Y-126082408D01*
X151857065Y-125853472D01*
X151869673Y-125757704D01*
X151887997Y-125618523D01*
X151887999Y-125618506D01*
X151888000Y-125618489D01*
X151888000Y-125381908D01*
X153659500Y-125381908D01*
X153659500Y-125618092D01*
X153696447Y-125851368D01*
X153754846Y-126031102D01*
X153769432Y-126075991D01*
X153769435Y-126075999D01*
X153876653Y-126286427D01*
X153876655Y-126286431D01*
X153932431Y-126363199D01*
X154015484Y-126477512D01*
X154015486Y-126477514D01*
X154015488Y-126477517D01*
X154182480Y-126644509D01*
X154182992Y-126644928D01*
X154184539Y-126646005D01*
X154373567Y-126783343D01*
X154584008Y-126890568D01*
X154808632Y-126963553D01*
X155041908Y-127000500D01*
X155041911Y-127000500D01*
X155278089Y-127000500D01*
X155278092Y-127000500D01*
X155511368Y-126963553D01*
X155735992Y-126890568D01*
X155946433Y-126783343D01*
X156137510Y-126644517D01*
X156137510Y-126644516D01*
X156137514Y-126644514D01*
X156137515Y-126644512D01*
X156304515Y-126477512D01*
X156304517Y-126477510D01*
X156443343Y-126286433D01*
X156550568Y-126075992D01*
X156623553Y-125851368D01*
X156660500Y-125618092D01*
X156660500Y-125413389D01*
X159359500Y-125413389D01*
X159359500Y-125586611D01*
X159386598Y-125757701D01*
X159437498Y-125914355D01*
X159440121Y-125922426D01*
X159440129Y-125922451D01*
X159440130Y-125922452D01*
X159518768Y-126076788D01*
X159620587Y-126216930D01*
X159620589Y-126216932D01*
X159620591Y-126216935D01*
X159743062Y-126339406D01*
X159743574Y-126339825D01*
X159745121Y-126340902D01*
X159883212Y-126441232D01*
X160037555Y-126519873D01*
X160202299Y-126573402D01*
X160373389Y-126600500D01*
X160373392Y-126600500D01*
X160546608Y-126600500D01*
X160546611Y-126600500D01*
X160717701Y-126573402D01*
X160882445Y-126519873D01*
X161036788Y-126441232D01*
X161176928Y-126339414D01*
X161299414Y-126216928D01*
X161401232Y-126076788D01*
X161479873Y-125922445D01*
X161533402Y-125757701D01*
X161560500Y-125586611D01*
X161560500Y-125413389D01*
X161533402Y-125242299D01*
X161479873Y-125077555D01*
X161401232Y-124923212D01*
X161299414Y-124783072D01*
X161299412Y-124783069D01*
X161179034Y-124662691D01*
X161178986Y-124662642D01*
X161176935Y-124660591D01*
X161176932Y-124660589D01*
X161176930Y-124660587D01*
X161066350Y-124580246D01*
X161899500Y-124580246D01*
X161899500Y-124580249D01*
X161899500Y-126419750D01*
X161910989Y-126477510D01*
X161911133Y-126478231D01*
X161911134Y-126478235D01*
X161955447Y-126544551D01*
X161955448Y-126544552D01*
X162021769Y-126588867D01*
X162080252Y-126600500D01*
X162080253Y-126600500D01*
X163919747Y-126600500D01*
X163919748Y-126600500D01*
X163978231Y-126588867D01*
X164044552Y-126544552D01*
X164088867Y-126478231D01*
X164100500Y-126419748D01*
X164100500Y-126344615D01*
X164105603Y-126309121D01*
X164107874Y-126301385D01*
X164110077Y-126293880D01*
X164148456Y-126234156D01*
X164149865Y-126232936D01*
X164205586Y-126205049D01*
X164213270Y-126203378D01*
X164240048Y-126200500D01*
X164991618Y-126200500D01*
X165027110Y-126205602D01*
X165042354Y-126210078D01*
X165102076Y-126248457D01*
X165109527Y-126257055D01*
X165133235Y-126297955D01*
X165147206Y-126337881D01*
X165147208Y-126337885D01*
X165147209Y-126337887D01*
X165147211Y-126337890D01*
X165227848Y-126447150D01*
X165337108Y-126527787D01*
X165337110Y-126527788D01*
X165337114Y-126527791D01*
X165337118Y-126527793D01*
X165337121Y-126527794D01*
X165337123Y-126527795D01*
X165401209Y-126550219D01*
X165465301Y-126572646D01*
X165495734Y-126575500D01*
X165495736Y-126575500D01*
X166404264Y-126575500D01*
X166404266Y-126575500D01*
X166434699Y-126572646D01*
X166562882Y-126527793D01*
X166568601Y-126523572D01*
X166573619Y-126519870D01*
X166630031Y-126478235D01*
X166672150Y-126447150D01*
X166752791Y-126337885D01*
X166752793Y-126337881D01*
X166756776Y-126326500D01*
X166797646Y-126209699D01*
X166800500Y-126179266D01*
X166800500Y-126175516D01*
X167892000Y-126175516D01*
X167902605Y-126279318D01*
X167902606Y-126279321D01*
X167958342Y-126447525D01*
X167976841Y-126477517D01*
X168051362Y-126598335D01*
X168051363Y-126598337D01*
X168051365Y-126598339D01*
X168051370Y-126598345D01*
X168051375Y-126598350D01*
X168051385Y-126598361D01*
X168176637Y-126723613D01*
X168176648Y-126723623D01*
X168176654Y-126723629D01*
X168176660Y-126723634D01*
X168327474Y-126816657D01*
X168495678Y-126872393D01*
X168495681Y-126872394D01*
X168557057Y-126878664D01*
X168559191Y-126878957D01*
X168568201Y-126883000D01*
X168599483Y-126883000D01*
X168796000Y-126883000D01*
X169304000Y-126883000D01*
X169500517Y-126883000D01*
X169547826Y-126883000D01*
X169560692Y-126879424D01*
X169568728Y-126876207D01*
X169572015Y-126875694D01*
X169604318Y-126872394D01*
X169604321Y-126872393D01*
X169772525Y-126816657D01*
X169923339Y-126723634D01*
X169923345Y-126723629D01*
X170048629Y-126598345D01*
X170048634Y-126598339D01*
X170141657Y-126447525D01*
X170197393Y-126279321D01*
X170197394Y-126279318D01*
X170203668Y-126217901D01*
X170203965Y-126215747D01*
X170208000Y-126206766D01*
X170208000Y-125754000D01*
X169304000Y-125754000D01*
X169304000Y-126883000D01*
X168796000Y-126883000D01*
X168796000Y-125754000D01*
X167892000Y-125754000D01*
X167892000Y-126175516D01*
X166800500Y-126175516D01*
X166800500Y-124824483D01*
X167892000Y-124824483D01*
X167892000Y-125246000D01*
X168796000Y-125246000D01*
X169304000Y-125246000D01*
X170208000Y-125246000D01*
X170208000Y-124824483D01*
X170197394Y-124720681D01*
X170197393Y-124720678D01*
X170141657Y-124552474D01*
X170056102Y-124413768D01*
X170048636Y-124401663D01*
X170048635Y-124401662D01*
X170048634Y-124401660D01*
X170048629Y-124401654D01*
X170048623Y-124401648D01*
X170048613Y-124401637D01*
X169923361Y-124276385D01*
X169923350Y-124276375D01*
X169923345Y-124276370D01*
X169923339Y-124276365D01*
X169923337Y-124276363D01*
X169923335Y-124276362D01*
X169821404Y-124213491D01*
X169772525Y-124183342D01*
X169604321Y-124127606D01*
X169604318Y-124127605D01*
X169500516Y-124117000D01*
X169304000Y-124117000D01*
X169304000Y-125246000D01*
X168796000Y-125246000D01*
X168796000Y-124117000D01*
X168599483Y-124117000D01*
X168495681Y-124127605D01*
X168495678Y-124127606D01*
X168327474Y-124183342D01*
X168327472Y-124183342D01*
X168327472Y-124183343D01*
X168176663Y-124276362D01*
X168176648Y-124276375D01*
X168176637Y-124276385D01*
X168051385Y-124401637D01*
X168051375Y-124401648D01*
X168051362Y-124401663D01*
X167976840Y-124522484D01*
X167958342Y-124552474D01*
X167904450Y-124715115D01*
X167902677Y-124720465D01*
X167902606Y-124720678D01*
X167902605Y-124720680D01*
X167897054Y-124775014D01*
X167892000Y-124824483D01*
X166800500Y-124824483D01*
X166800500Y-124820734D01*
X166797646Y-124790301D01*
X166795116Y-124783072D01*
X166757629Y-124675939D01*
X166752797Y-124662129D01*
X166752795Y-124662124D01*
X166752793Y-124662118D01*
X166752791Y-124662114D01*
X166751667Y-124660591D01*
X166672150Y-124552848D01*
X166562890Y-124472211D01*
X166562886Y-124472209D01*
X166562885Y-124472208D01*
X166562881Y-124472206D01*
X166562879Y-124472205D01*
X166562875Y-124472203D01*
X166434717Y-124427358D01*
X166434701Y-124427354D01*
X166434703Y-124427354D01*
X166411874Y-124425213D01*
X166404266Y-124424500D01*
X166404265Y-124424500D01*
X165495733Y-124424500D01*
X165465295Y-124427354D01*
X165465281Y-124427358D01*
X165337123Y-124472203D01*
X165337108Y-124472211D01*
X165227848Y-124552848D01*
X165147211Y-124662108D01*
X165147208Y-124662113D01*
X165147205Y-124662120D01*
X165134644Y-124698018D01*
X165122165Y-124722022D01*
X165118101Y-124729839D01*
X165108844Y-124742745D01*
X165052900Y-124786436D01*
X165049344Y-124787845D01*
X165042321Y-124790629D01*
X164995883Y-124799500D01*
X164244615Y-124799500D01*
X164209114Y-124794395D01*
X164193875Y-124789920D01*
X164178629Y-124780121D01*
X164161242Y-124775014D01*
X164134162Y-124751543D01*
X164134149Y-124751535D01*
X164134141Y-124751525D01*
X164132936Y-124750134D01*
X164105049Y-124694412D01*
X164103378Y-124686729D01*
X164100500Y-124659951D01*
X164100500Y-124580252D01*
X164100408Y-124579505D01*
X164099907Y-124577275D01*
X164096226Y-124558768D01*
X164088867Y-124521769D01*
X164088866Y-124521767D01*
X164088866Y-124521766D01*
X164044552Y-124455447D01*
X163978234Y-124411134D01*
X163978230Y-124411132D01*
X163919752Y-124399500D01*
X163919750Y-124399500D01*
X163919748Y-124399500D01*
X162080252Y-124399500D01*
X162080249Y-124399500D01*
X162080246Y-124399500D01*
X162021771Y-124411132D01*
X162021768Y-124411133D01*
X162021766Y-124411133D01*
X162021762Y-124411136D01*
X161955447Y-124455447D01*
X161911136Y-124521762D01*
X161911132Y-124521771D01*
X161899500Y-124580246D01*
X161066350Y-124580246D01*
X161036788Y-124558768D01*
X160954337Y-124516757D01*
X160882451Y-124480129D01*
X160882442Y-124480126D01*
X160717701Y-124426598D01*
X160546611Y-124399500D01*
X160546608Y-124399500D01*
X160373391Y-124399500D01*
X160373389Y-124399500D01*
X160309994Y-124409540D01*
X160216281Y-124424383D01*
X160216274Y-124424384D01*
X160202299Y-124426598D01*
X160202296Y-124426598D01*
X160202295Y-124426599D01*
X160192206Y-124429876D01*
X160192193Y-124429880D01*
X160123253Y-124452281D01*
X160042496Y-124478521D01*
X160038562Y-124479622D01*
X160037553Y-124480126D01*
X159883207Y-124558770D01*
X159743066Y-124660589D01*
X159743063Y-124660591D01*
X159620591Y-124783063D01*
X159620590Y-124783065D01*
X159620587Y-124783068D01*
X159620587Y-124783069D01*
X159615347Y-124790281D01*
X159518770Y-124923207D01*
X159440126Y-125077553D01*
X159439621Y-125078563D01*
X159438521Y-125082490D01*
X159438521Y-125082496D01*
X159428786Y-125112456D01*
X159417716Y-125146527D01*
X159412281Y-125163253D01*
X159402906Y-125192110D01*
X159386598Y-125242299D01*
X159359500Y-125413389D01*
X156660500Y-125413389D01*
X156660500Y-125381908D01*
X156623553Y-125148632D01*
X156550568Y-124924008D01*
X156443343Y-124713567D01*
X156383449Y-124631130D01*
X156346482Y-124580249D01*
X156304513Y-124522484D01*
X156137517Y-124355488D01*
X156137514Y-124355486D01*
X156137512Y-124355484D01*
X155974602Y-124237123D01*
X155957212Y-124224488D01*
X155957209Y-124224486D01*
X155946436Y-124216659D01*
X155946435Y-124216658D01*
X155946433Y-124216657D01*
X155940222Y-124213492D01*
X155940220Y-124213491D01*
X155771660Y-124127606D01*
X155735992Y-124109432D01*
X155511368Y-124036447D01*
X155278092Y-123999500D01*
X155278089Y-123999500D01*
X155041910Y-123999500D01*
X155041908Y-123999500D01*
X154987553Y-124008108D01*
X154822611Y-124034232D01*
X154822597Y-124034235D01*
X154808632Y-124036447D01*
X154808629Y-124036447D01*
X154808628Y-124036448D01*
X154798533Y-124039728D01*
X154798529Y-124039729D01*
X154584006Y-124109432D01*
X154373559Y-124216661D01*
X154182484Y-124355486D01*
X154182481Y-124355488D01*
X154015488Y-124522481D01*
X154015486Y-124522484D01*
X153876661Y-124713559D01*
X153769432Y-124924008D01*
X153714123Y-125094231D01*
X153714123Y-125094232D01*
X153704271Y-125124554D01*
X153696447Y-125148632D01*
X153659500Y-125381908D01*
X151888000Y-125381908D01*
X151888000Y-125381506D01*
X151888000Y-125381505D01*
X151887999Y-125381493D01*
X151860606Y-125173426D01*
X151857066Y-125146533D01*
X151857065Y-125146531D01*
X151857065Y-125146527D01*
X151795722Y-124917591D01*
X151705023Y-124698624D01*
X151705018Y-124698614D01*
X151602918Y-124521771D01*
X151586524Y-124493376D01*
X151576359Y-124480129D01*
X151525440Y-124413769D01*
X151525439Y-124413768D01*
X150801064Y-125138141D01*
X150738752Y-125172166D01*
X150667936Y-125167101D01*
X150611101Y-125124554D01*
X150607203Y-125119046D01*
X150584887Y-125085648D01*
X150584884Y-125085644D01*
X150494355Y-124995115D01*
X150494351Y-124995112D01*
X150460948Y-124972793D01*
X150415421Y-124918317D01*
X150406572Y-124847874D01*
X150437213Y-124783830D01*
X150441818Y-124778970D01*
X151166230Y-124054559D01*
X151086626Y-123993477D01*
X151086625Y-123993476D01*
X151086622Y-123993474D01*
X150924849Y-123900075D01*
X150881385Y-123874981D01*
X150881375Y-123874976D01*
X150662408Y-123784277D01*
X150455637Y-123728873D01*
X150433465Y-123722932D01*
X150198507Y-123692000D01*
X150198505Y-123692000D01*
X149961494Y-123692000D01*
X149961491Y-123692000D01*
X149726533Y-123722932D01*
X149497591Y-123784277D01*
X149278622Y-123874977D01*
X149278618Y-123874979D01*
X149278596Y-123874991D01*
X149073390Y-123993466D01*
X149073381Y-123993472D01*
X149073373Y-123993478D01*
X149006239Y-124044990D01*
X148993768Y-124054559D01*
X149718144Y-124778935D01*
X149752168Y-124841246D01*
X149747104Y-124912061D01*
X149704557Y-124968897D01*
X149699049Y-124972795D01*
X149665648Y-124995112D01*
X149665644Y-124995115D01*
X149575115Y-125085644D01*
X149575112Y-125085648D01*
X149552795Y-125119049D01*
X149498318Y-125164577D01*
X149427875Y-125173426D01*
X149363831Y-125142785D01*
X149358952Y-125138161D01*
X148634559Y-124413768D01*
X148573478Y-124493373D01*
X148573472Y-124493381D01*
X148573466Y-124493390D01*
X148457407Y-124694412D01*
X148454981Y-124698614D01*
X148454976Y-124698624D01*
X148402846Y-124824477D01*
X148364277Y-124917591D01*
X148302932Y-125146533D01*
X148272000Y-125381491D01*
X146500500Y-125381491D01*
X146500500Y-124395734D01*
X146497646Y-124365301D01*
X146452793Y-124237118D01*
X146452793Y-124237117D01*
X146410377Y-124179646D01*
X146410373Y-124179640D01*
X146402438Y-124168888D01*
X146372150Y-124127849D01*
X146372148Y-124127848D01*
X146372148Y-124127847D01*
X146262890Y-124047211D01*
X146262886Y-124047209D01*
X146262885Y-124047208D01*
X146262881Y-124047206D01*
X146262879Y-124047205D01*
X146262875Y-124047203D01*
X146134717Y-124002358D01*
X146134701Y-124002354D01*
X146134703Y-124002354D01*
X146111874Y-124000213D01*
X146104266Y-123999500D01*
X146104265Y-123999500D01*
X143895733Y-123999500D01*
X143865295Y-124002354D01*
X143865281Y-124002358D01*
X143737123Y-124047203D01*
X143737108Y-124047211D01*
X143627848Y-124127848D01*
X143547211Y-124237108D01*
X143547203Y-124237123D01*
X143502358Y-124365281D01*
X143502354Y-124365295D01*
X143499500Y-124395733D01*
X131442709Y-124395733D01*
X131323361Y-124276385D01*
X131323350Y-124276375D01*
X131323345Y-124276370D01*
X131323339Y-124276365D01*
X131323337Y-124276363D01*
X131323335Y-124276362D01*
X131221404Y-124213491D01*
X131172525Y-124183342D01*
X131004321Y-124127606D01*
X131004318Y-124127605D01*
X130900516Y-124117000D01*
X130704000Y-124117000D01*
X130704000Y-125246000D01*
X130196000Y-125246000D01*
X130196000Y-124117000D01*
X129999483Y-124117000D01*
X129895681Y-124127605D01*
X129895678Y-124127606D01*
X129727474Y-124183342D01*
X129727472Y-124183342D01*
X129727472Y-124183343D01*
X129576663Y-124276362D01*
X129576648Y-124276375D01*
X129576637Y-124276385D01*
X129451385Y-124401637D01*
X129451375Y-124401648D01*
X129451362Y-124401663D01*
X129376840Y-124522484D01*
X129358342Y-124552474D01*
X129304450Y-124715115D01*
X129302677Y-124720465D01*
X129302606Y-124720678D01*
X129302605Y-124720680D01*
X129297054Y-124775014D01*
X129292000Y-124824483D01*
X126502399Y-124824483D01*
X126682902Y-124765834D01*
X126794413Y-124709017D01*
X126794414Y-124709016D01*
X126859333Y-124675939D01*
X126859339Y-124675935D01*
X126878356Y-124662118D01*
X126892574Y-124651788D01*
X126892576Y-124651786D01*
X126636523Y-124395733D01*
X126362898Y-124122108D01*
X126328875Y-124059798D01*
X126333939Y-123988983D01*
X126376486Y-123932147D01*
X126388986Y-123923901D01*
X126430255Y-123900075D01*
X126500075Y-123830255D01*
X126523898Y-123788993D01*
X126575277Y-123740002D01*
X126644991Y-123726565D01*
X126710902Y-123752951D01*
X126722109Y-123762898D01*
X127251786Y-124292576D01*
X127251787Y-124292576D01*
X127251788Y-124292574D01*
X127258390Y-124283486D01*
X127275935Y-124259339D01*
X127275936Y-124259337D01*
X127275940Y-124259330D01*
X127275945Y-124259322D01*
X127276094Y-124259026D01*
X127365834Y-124082902D01*
X127427022Y-123894585D01*
X127458000Y-123699003D01*
X127458000Y-123500996D01*
X127427022Y-123305414D01*
X127365834Y-123117097D01*
X127275935Y-122940660D01*
X127251787Y-122907423D01*
X127251783Y-122907423D01*
X126722109Y-123437098D01*
X126659797Y-123471124D01*
X126588982Y-123466059D01*
X126532146Y-123423512D01*
X126523897Y-123411006D01*
X126500075Y-123369745D01*
X126500072Y-123369742D01*
X126500069Y-123369738D01*
X126430261Y-123299930D01*
X126430251Y-123299922D01*
X126388994Y-123276103D01*
X126340001Y-123224721D01*
X126326564Y-123155007D01*
X126352951Y-123089096D01*
X126362894Y-123077894D01*
X126892575Y-122548212D01*
X126859330Y-122524058D01*
X126859327Y-122524056D01*
X126859325Y-122524055D01*
X126682905Y-122434166D01*
X126494588Y-122372978D01*
X126494585Y-122372977D01*
X126299004Y-122342000D01*
X126299001Y-122342000D01*
X126100999Y-122342000D01*
X126100996Y-122342000D01*
X125905414Y-122372977D01*
X125905411Y-122372977D01*
X125905410Y-122372978D01*
X125717093Y-122434166D01*
X125540669Y-122524057D01*
X125540580Y-122524113D01*
X125539891Y-122524622D01*
X125507421Y-122548211D01*
X125507422Y-122548211D01*
X125507422Y-122548212D01*
X126037100Y-123077890D01*
X126071124Y-123140201D01*
X126066060Y-123211016D01*
X126023513Y-123267852D01*
X126011006Y-123276102D01*
X125969748Y-123299922D01*
X125969738Y-123299930D01*
X125899930Y-123369738D01*
X125899922Y-123369748D01*
X125876102Y-123411006D01*
X125824719Y-123459998D01*
X125755005Y-123473433D01*
X125689095Y-123447046D01*
X125677896Y-123437106D01*
X125148212Y-122907422D01*
X125148211Y-122907421D01*
X125124622Y-122939891D01*
X125124113Y-122940580D01*
X125124057Y-122940669D01*
X125034166Y-123117093D01*
X124972978Y-123305410D01*
X124972977Y-123305414D01*
X124942000Y-123500996D01*
X110000000Y-123500996D01*
X110000000Y-122000516D01*
X129717000Y-122000516D01*
X129727605Y-122104318D01*
X129727606Y-122104321D01*
X129783342Y-122272525D01*
X129783343Y-122272526D01*
X129876362Y-122423335D01*
X129876363Y-122423337D01*
X129876365Y-122423339D01*
X129876370Y-122423345D01*
X129876375Y-122423350D01*
X129876385Y-122423361D01*
X130001637Y-122548613D01*
X130001648Y-122548623D01*
X130001654Y-122548629D01*
X130001660Y-122548634D01*
X130152474Y-122641657D01*
X130320678Y-122697393D01*
X130320681Y-122697394D01*
X130382057Y-122703664D01*
X130384191Y-122703957D01*
X130393201Y-122708000D01*
X130424483Y-122708000D01*
X130846000Y-122708000D01*
X131354000Y-122708000D01*
X131775517Y-122708000D01*
X131822826Y-122708000D01*
X131835692Y-122704424D01*
X131843728Y-122701207D01*
X131847015Y-122700694D01*
X131879318Y-122697394D01*
X131879321Y-122697393D01*
X132047525Y-122641657D01*
X132198339Y-122548634D01*
X132198345Y-122548629D01*
X132323629Y-122423345D01*
X132323634Y-122423339D01*
X132416657Y-122272525D01*
X132472393Y-122104321D01*
X132472394Y-122104318D01*
X132478668Y-122042901D01*
X132478965Y-122040747D01*
X132483000Y-122031766D01*
X132483000Y-121804000D01*
X131354000Y-121804000D01*
X131354000Y-122708000D01*
X130846000Y-122708000D01*
X130846000Y-121804000D01*
X129717000Y-121804000D01*
X129717000Y-122000516D01*
X110000000Y-122000516D01*
X110000000Y-120000000D01*
X101144115Y-120000000D01*
X101144112Y-119999999D01*
X101144112Y-120000000D01*
X101108614Y-119994895D01*
X101093375Y-119990420D01*
X101033649Y-119952035D01*
X101033641Y-119952025D01*
X101032436Y-119950634D01*
X101004549Y-119894912D01*
X101002878Y-119887229D01*
X101000000Y-119860451D01*
X101000000Y-116924432D01*
X122394500Y-116924432D01*
X122394500Y-120876005D01*
X122399197Y-120919689D01*
X122410406Y-120971208D01*
X122412889Y-120981372D01*
X122412890Y-120981375D01*
X122455897Y-121062082D01*
X122501656Y-121114890D01*
X122519245Y-121132842D01*
X122519249Y-121132845D01*
X122599055Y-121177486D01*
X122599057Y-121177487D01*
X122599063Y-121177490D01*
X122666102Y-121197175D01*
X122723997Y-121205499D01*
X122723998Y-121205500D01*
X122724000Y-121205500D01*
X129075997Y-121205500D01*
X129076000Y-121205500D01*
X129119684Y-121200803D01*
X129171195Y-121189597D01*
X129181373Y-121187110D01*
X129199430Y-121177488D01*
X129262082Y-121144102D01*
X129262083Y-121144100D01*
X129262085Y-121144100D01*
X129314889Y-121098345D01*
X129332843Y-121080754D01*
X129377490Y-121000937D01*
X129397175Y-120933898D01*
X129405500Y-120876000D01*
X129405500Y-120531568D01*
X129425502Y-120463447D01*
X129479158Y-120416954D01*
X129531523Y-120405568D01*
X129843227Y-120405634D01*
X129911341Y-120425650D01*
X129957823Y-120479316D01*
X129967912Y-120549592D01*
X129938405Y-120614167D01*
X129932294Y-120620729D01*
X129876375Y-120676648D01*
X129876362Y-120676663D01*
X129783343Y-120827472D01*
X129783342Y-120827474D01*
X129732346Y-120981375D01*
X129727677Y-120995465D01*
X129727606Y-120995678D01*
X129727605Y-120995680D01*
X129720821Y-121062082D01*
X129717000Y-121099483D01*
X129717000Y-121296000D01*
X132483000Y-121296000D01*
X132483000Y-121099483D01*
X132472394Y-120995681D01*
X132472393Y-120995678D01*
X132416657Y-120827474D01*
X132323634Y-120676660D01*
X132323629Y-120676654D01*
X132323623Y-120676648D01*
X132323613Y-120676637D01*
X132268239Y-120621263D01*
X132234213Y-120558951D01*
X132239278Y-120488136D01*
X132281825Y-120431300D01*
X132348345Y-120406489D01*
X132357352Y-120406168D01*
X140013168Y-120407794D01*
X140074374Y-120407807D01*
X140074374Y-120407806D01*
X140074385Y-120407807D01*
X140118070Y-120403120D01*
X140169584Y-120391925D01*
X140179763Y-120389439D01*
X140260484Y-120346447D01*
X140313297Y-120300704D01*
X140331256Y-120283115D01*
X140375920Y-120203307D01*
X140395619Y-120136271D01*
X140403955Y-120078377D01*
X140404622Y-116931002D01*
X163799500Y-116931002D01*
X163799500Y-117068997D01*
X163802303Y-117083087D01*
X163826420Y-117204328D01*
X163879225Y-117331811D01*
X163955886Y-117446543D01*
X166053457Y-119544114D01*
X166143574Y-119604328D01*
X166168189Y-119620775D01*
X166295672Y-119673580D01*
X166431007Y-119700500D01*
X168491618Y-119700500D01*
X168526815Y-119705560D01*
X168527110Y-119705602D01*
X168542354Y-119710078D01*
X168602076Y-119748457D01*
X168609527Y-119757055D01*
X168633235Y-119797955D01*
X168647206Y-119837881D01*
X168647208Y-119837885D01*
X168647209Y-119837887D01*
X168647211Y-119837890D01*
X168727848Y-119947150D01*
X168837108Y-120027787D01*
X168837110Y-120027788D01*
X168837114Y-120027791D01*
X168837118Y-120027793D01*
X168837121Y-120027794D01*
X168837123Y-120027795D01*
X168901209Y-120050219D01*
X168965301Y-120072646D01*
X168995734Y-120075500D01*
X168995736Y-120075500D01*
X169904264Y-120075500D01*
X169904266Y-120075500D01*
X169934699Y-120072646D01*
X170062882Y-120027793D01*
X170100541Y-120000000D01*
X170172150Y-119947150D01*
X170252791Y-119837885D01*
X170252793Y-119837881D01*
X170260256Y-119816555D01*
X170273323Y-119779211D01*
X170273323Y-119779210D01*
X170273324Y-119779209D01*
X170297646Y-119709699D01*
X170300500Y-119679266D01*
X170300500Y-118320734D01*
X170297646Y-118290301D01*
X170292282Y-118274975D01*
X170292282Y-118274971D01*
X170252795Y-118162124D01*
X170252795Y-118162123D01*
X170252793Y-118162118D01*
X170252791Y-118162114D01*
X170225121Y-118124622D01*
X170172150Y-118052848D01*
X170062890Y-117972211D01*
X170062886Y-117972209D01*
X170062885Y-117972208D01*
X170062881Y-117972206D01*
X170062879Y-117972205D01*
X170062875Y-117972203D01*
X169934717Y-117927358D01*
X169934701Y-117927354D01*
X169934703Y-117927354D01*
X169911874Y-117925213D01*
X169904266Y-117924500D01*
X169904265Y-117924500D01*
X168995733Y-117924500D01*
X168965295Y-117927354D01*
X168965281Y-117927358D01*
X168837123Y-117972203D01*
X168837108Y-117972211D01*
X168727848Y-118052848D01*
X168647211Y-118162108D01*
X168647208Y-118162113D01*
X168647205Y-118162120D01*
X168634644Y-118198018D01*
X168620177Y-118225845D01*
X168618101Y-118229839D01*
X168608844Y-118242745D01*
X168552900Y-118286436D01*
X168551821Y-118286864D01*
X168542321Y-118290629D01*
X168495883Y-118299500D01*
X166860462Y-118299500D01*
X166824961Y-118294395D01*
X166799315Y-118286864D01*
X166745721Y-118255064D01*
X164946547Y-116455890D01*
X164946545Y-116455888D01*
X164946543Y-116455886D01*
X164831811Y-116379225D01*
X164751421Y-116345926D01*
X164751420Y-116345925D01*
X164704342Y-116326425D01*
X164704326Y-116326419D01*
X164622835Y-116310209D01*
X164568997Y-116299500D01*
X164568995Y-116299500D01*
X164431003Y-116299500D01*
X164431002Y-116299500D01*
X164404083Y-116304854D01*
X164295672Y-116326419D01*
X164295667Y-116326421D01*
X164168188Y-116379225D01*
X164053456Y-116455886D01*
X164053454Y-116455888D01*
X164053435Y-116455905D01*
X163955905Y-116553435D01*
X163955888Y-116553454D01*
X163955886Y-116553456D01*
X163879225Y-116668188D01*
X163826421Y-116795667D01*
X163826419Y-116795672D01*
X163799699Y-116929999D01*
X163799699Y-116930001D01*
X163799500Y-116931002D01*
X140404622Y-116931002D01*
X140404727Y-116437981D01*
X140404948Y-115401455D01*
X142999500Y-115401455D01*
X142999500Y-115598544D01*
X143037949Y-115791834D01*
X143037954Y-115791849D01*
X143086078Y-115908032D01*
X143086079Y-115908032D01*
X143086079Y-115908033D01*
X143113368Y-115973914D01*
X143222861Y-116137782D01*
X143362218Y-116277139D01*
X143526086Y-116386632D01*
X143708165Y-116462051D01*
X143901459Y-116500500D01*
X144098541Y-116500500D01*
X144291835Y-116462051D01*
X144473914Y-116386632D01*
X144637782Y-116277139D01*
X144777139Y-116137782D01*
X144886632Y-115973914D01*
X144962051Y-115791835D01*
X145000500Y-115598541D01*
X145000500Y-115401459D01*
X144962051Y-115208165D01*
X144886632Y-115026086D01*
X144799533Y-114895733D01*
X153999500Y-114895733D01*
X153999500Y-116104265D01*
X154002354Y-116134703D01*
X154002358Y-116134717D01*
X154047203Y-116262875D01*
X154047211Y-116262890D01*
X154127848Y-116372150D01*
X154237108Y-116452787D01*
X154237110Y-116452788D01*
X154237114Y-116452791D01*
X154237118Y-116452793D01*
X154237121Y-116452794D01*
X154237123Y-116452795D01*
X154263570Y-116462049D01*
X154365301Y-116497646D01*
X154395734Y-116500500D01*
X154395736Y-116500500D01*
X155604264Y-116500500D01*
X155604266Y-116500500D01*
X155634699Y-116497646D01*
X155762882Y-116452793D01*
X155782951Y-116437982D01*
X155872150Y-116372150D01*
X155952791Y-116262885D01*
X155952793Y-116262881D01*
X155956255Y-116252985D01*
X155958335Y-116247046D01*
X155992834Y-116148452D01*
X155997646Y-116134699D01*
X156000500Y-116104266D01*
X156000500Y-114895734D01*
X155997646Y-114865301D01*
X155971615Y-114790908D01*
X155952795Y-114737122D01*
X155952793Y-114737118D01*
X155952791Y-114737114D01*
X155952788Y-114737110D01*
X155952787Y-114737108D01*
X155872150Y-114627848D01*
X155762890Y-114547211D01*
X155762886Y-114547209D01*
X155762885Y-114547208D01*
X155762881Y-114547206D01*
X155762879Y-114547205D01*
X155762875Y-114547203D01*
X155634717Y-114502358D01*
X155634701Y-114502354D01*
X155634703Y-114502354D01*
X155611874Y-114500213D01*
X155604266Y-114499500D01*
X155604265Y-114499500D01*
X154395733Y-114499500D01*
X154365295Y-114502354D01*
X154365281Y-114502358D01*
X154237123Y-114547203D01*
X154237108Y-114547211D01*
X154127848Y-114627848D01*
X154047211Y-114737108D01*
X154047204Y-114737122D01*
X154002358Y-114865281D01*
X154002354Y-114865295D01*
X153999500Y-114895733D01*
X144799533Y-114895733D01*
X144777139Y-114862218D01*
X144637782Y-114722861D01*
X144473914Y-114613368D01*
X144291838Y-114537950D01*
X144291835Y-114537949D01*
X144098544Y-114499500D01*
X144098542Y-114499500D01*
X143901456Y-114499500D01*
X143901455Y-114499500D01*
X143708164Y-114537949D01*
X143708160Y-114537950D01*
X143526084Y-114613368D01*
X143362214Y-114722863D01*
X143362209Y-114722867D01*
X143222867Y-114862209D01*
X143222863Y-114862214D01*
X143113368Y-115026084D01*
X143039276Y-115204960D01*
X143037950Y-115208161D01*
X143037949Y-115208164D01*
X142999500Y-115401455D01*
X140404948Y-115401455D01*
X140404949Y-115395238D01*
X140405473Y-112923750D01*
X140405472Y-112923749D01*
X140405473Y-112923741D01*
X140400839Y-112880304D01*
X140389770Y-112829066D01*
X140387362Y-112819122D01*
X140361588Y-112770445D01*
X140344568Y-112738300D01*
X140344563Y-112738294D01*
X140298969Y-112685392D01*
X140298966Y-112685388D01*
X140298955Y-112685377D01*
X140298951Y-112685372D01*
X140281410Y-112667373D01*
X140281407Y-112667371D01*
X140281404Y-112667369D01*
X140201717Y-112622516D01*
X140201714Y-112622515D01*
X140201711Y-112622513D01*
X140134726Y-112602650D01*
X140134722Y-112602649D01*
X140134721Y-112602649D01*
X140076854Y-112594172D01*
X133368703Y-112576366D01*
X133300635Y-112556183D01*
X133254285Y-112502404D01*
X133244368Y-112432103D01*
X133274032Y-112367601D01*
X133279927Y-112361285D01*
X133423960Y-112217253D01*
X133488990Y-112127748D01*
X133554227Y-112037956D01*
X133654843Y-111840485D01*
X133654844Y-111840483D01*
X133723330Y-111629709D01*
X133735322Y-111554000D01*
X133015549Y-111554000D01*
X132991352Y-111546895D01*
X132966306Y-111543979D01*
X132957882Y-111537067D01*
X132947428Y-111533998D01*
X132930914Y-111514940D01*
X132911420Y-111498945D01*
X132908070Y-111488576D01*
X132900935Y-111480342D01*
X132897345Y-111455379D01*
X132889595Y-111431387D01*
X132891533Y-111414954D01*
X132890831Y-111410068D01*
X132892985Y-111399483D01*
X142692000Y-111399483D01*
X142692000Y-111746000D01*
X143489742Y-111746000D01*
X143557863Y-111766002D01*
X143604356Y-111819658D01*
X143614460Y-111889932D01*
X143611449Y-111904610D01*
X143600000Y-111947338D01*
X143600000Y-112052661D01*
X143611449Y-112095390D01*
X143609759Y-112166366D01*
X143569964Y-112225162D01*
X143504700Y-112253109D01*
X143489742Y-112254000D01*
X142692000Y-112254000D01*
X142692000Y-112600516D01*
X142702605Y-112704318D01*
X142702606Y-112704321D01*
X142758342Y-112872525D01*
X142772394Y-112895307D01*
X142851362Y-113023335D01*
X142851363Y-113023337D01*
X142851365Y-113023339D01*
X142851370Y-113023345D01*
X142851375Y-113023350D01*
X142851385Y-113023361D01*
X142976637Y-113148613D01*
X142976648Y-113148623D01*
X142976654Y-113148629D01*
X142976660Y-113148634D01*
X143127474Y-113241657D01*
X143295678Y-113297393D01*
X143295681Y-113297394D01*
X143357057Y-113303664D01*
X143359191Y-113303957D01*
X143368201Y-113308000D01*
X143399483Y-113308000D01*
X143746000Y-113308000D01*
X143746000Y-112510257D01*
X143766002Y-112442136D01*
X143819658Y-112395643D01*
X143889932Y-112385539D01*
X143904601Y-112388548D01*
X143947339Y-112400000D01*
X144052660Y-112400000D01*
X144052661Y-112400000D01*
X144095389Y-112388551D01*
X144166364Y-112390239D01*
X144225160Y-112430033D01*
X144253109Y-112495297D01*
X144254000Y-112510257D01*
X144254000Y-113308000D01*
X144600517Y-113308000D01*
X144647826Y-113308000D01*
X144660692Y-113304424D01*
X144668728Y-113301207D01*
X144672015Y-113300694D01*
X144704318Y-113297394D01*
X144704321Y-113297393D01*
X144872525Y-113241657D01*
X145023339Y-113148634D01*
X145023345Y-113148629D01*
X145148629Y-113023345D01*
X145148634Y-113023339D01*
X145179429Y-112973414D01*
X145179430Y-112973412D01*
X145241656Y-112872527D01*
X145297393Y-112704321D01*
X145297394Y-112704318D01*
X145303668Y-112642901D01*
X145303965Y-112640747D01*
X145308000Y-112631766D01*
X145308000Y-112254000D01*
X144510258Y-112254000D01*
X144442137Y-112233998D01*
X144395644Y-112180342D01*
X144384291Y-112125122D01*
X144384636Y-112109999D01*
X144400000Y-112052661D01*
X144400000Y-111947339D01*
X144388552Y-111904613D01*
X144388732Y-111897061D01*
X153692000Y-111897061D01*
X153692000Y-112102938D01*
X153722280Y-112294121D01*
X153724209Y-112306300D01*
X153783547Y-112488925D01*
X153787826Y-112502093D01*
X153787829Y-112502099D01*
X153881297Y-112685540D01*
X153881298Y-112685541D01*
X153912416Y-112728372D01*
X154459590Y-112181197D01*
X154521899Y-112147175D01*
X154592714Y-112152239D01*
X154649550Y-112194786D01*
X154657801Y-112207295D01*
X154679917Y-112245602D01*
X154679925Y-112245612D01*
X154754387Y-112320074D01*
X154754391Y-112320077D01*
X154754394Y-112320080D01*
X154792701Y-112342196D01*
X154841695Y-112393579D01*
X154855132Y-112463292D01*
X154828745Y-112529203D01*
X154818797Y-112540412D01*
X154271625Y-113087582D01*
X154271626Y-113087582D01*
X154271626Y-113087583D01*
X154314454Y-113118699D01*
X154497900Y-113212170D01*
X154497906Y-113212173D01*
X154599232Y-113245095D01*
X154629177Y-113265570D01*
X154693701Y-113275789D01*
X154693705Y-113275791D01*
X154693701Y-113275791D01*
X154897061Y-113308000D01*
X155102936Y-113308000D01*
X155102939Y-113308000D01*
X155306296Y-113275791D01*
X155502093Y-113212173D01*
X155502099Y-113212170D01*
X155685541Y-113118701D01*
X155728372Y-113087582D01*
X155728372Y-113087581D01*
X155181200Y-112540409D01*
X155147177Y-112478099D01*
X155152241Y-112407284D01*
X155194788Y-112350448D01*
X155207293Y-112342199D01*
X155245606Y-112320080D01*
X155320080Y-112245606D01*
X155342196Y-112207298D01*
X155393578Y-112158305D01*
X155463291Y-112144867D01*
X155529203Y-112171253D01*
X155540403Y-112181194D01*
X156087581Y-112728372D01*
X156087582Y-112728372D01*
X156118701Y-112685541D01*
X156212170Y-112502099D01*
X156212173Y-112502093D01*
X156275791Y-112306296D01*
X156308000Y-112102938D01*
X156308000Y-111975516D01*
X165292000Y-111975516D01*
X165302605Y-112079318D01*
X165302606Y-112079321D01*
X165358342Y-112247525D01*
X165392578Y-112303030D01*
X165451362Y-112398335D01*
X165451363Y-112398337D01*
X165451365Y-112398339D01*
X165451370Y-112398345D01*
X165451375Y-112398350D01*
X165451385Y-112398361D01*
X165576637Y-112523613D01*
X165576648Y-112523623D01*
X165576654Y-112523629D01*
X165576660Y-112523634D01*
X165576662Y-112523635D01*
X165576663Y-112523636D01*
X165601290Y-112538826D01*
X165727474Y-112616657D01*
X165895678Y-112672393D01*
X165895681Y-112672394D01*
X165957057Y-112678664D01*
X165959191Y-112678957D01*
X165968201Y-112683000D01*
X165999483Y-112683000D01*
X166196000Y-112683000D01*
X166196000Y-111554000D01*
X165292000Y-111554000D01*
X165292000Y-111975516D01*
X156308000Y-111975516D01*
X156308000Y-111897061D01*
X156275791Y-111693703D01*
X156226092Y-111540745D01*
X156212173Y-111497906D01*
X156212170Y-111497900D01*
X156118699Y-111314454D01*
X156087583Y-111271626D01*
X156087582Y-111271626D01*
X156087580Y-111271626D01*
X155540411Y-111818796D01*
X155478099Y-111852822D01*
X155407284Y-111847757D01*
X155350448Y-111805210D01*
X155342197Y-111792701D01*
X155320082Y-111754397D01*
X155320081Y-111754395D01*
X155320080Y-111754394D01*
X155320078Y-111754392D01*
X155320074Y-111754387D01*
X155245612Y-111679925D01*
X155245602Y-111679917D01*
X155207297Y-111657802D01*
X155158304Y-111606419D01*
X155144868Y-111536706D01*
X155171254Y-111470795D01*
X155181196Y-111459593D01*
X155728372Y-110912416D01*
X155685541Y-110881298D01*
X155685540Y-110881297D01*
X155635651Y-110855877D01*
X155502098Y-110787828D01*
X155502091Y-110787825D01*
X155358335Y-110741117D01*
X155358309Y-110741108D01*
X155358307Y-110741108D01*
X155337802Y-110734445D01*
X155306298Y-110724208D01*
X155204617Y-110708104D01*
X155102939Y-110692000D01*
X155102937Y-110692000D01*
X154897063Y-110692000D01*
X154897061Y-110692000D01*
X154693703Y-110724208D01*
X154693701Y-110724208D01*
X154693698Y-110724209D01*
X154497905Y-110787826D01*
X154314453Y-110881300D01*
X154314446Y-110881305D01*
X154271625Y-110912415D01*
X154271625Y-110912416D01*
X154818798Y-111459589D01*
X154852822Y-111521900D01*
X154847758Y-111592715D01*
X154805211Y-111649551D01*
X154792703Y-111657802D01*
X154754395Y-111679919D01*
X154754387Y-111679925D01*
X154679925Y-111754387D01*
X154679919Y-111754395D01*
X154657802Y-111792703D01*
X154606418Y-111841696D01*
X154536705Y-111855131D01*
X154470794Y-111828744D01*
X154459595Y-111818804D01*
X153912416Y-111271625D01*
X153912415Y-111271625D01*
X153881305Y-111314446D01*
X153881300Y-111314453D01*
X153787826Y-111497905D01*
X153724209Y-111693698D01*
X153724208Y-111693701D01*
X153724208Y-111693703D01*
X153692000Y-111897061D01*
X144388732Y-111897061D01*
X144390240Y-111833636D01*
X144430034Y-111774840D01*
X144495298Y-111746891D01*
X144510258Y-111746000D01*
X145308000Y-111746000D01*
X145308000Y-111399491D01*
X145308000Y-111399483D01*
X145297394Y-111295681D01*
X145297393Y-111295678D01*
X145241657Y-111127474D01*
X145179427Y-111026584D01*
X145179426Y-111026582D01*
X145148636Y-110976663D01*
X145148629Y-110976654D01*
X145148628Y-110976653D01*
X145148625Y-110976649D01*
X145023361Y-110851385D01*
X145023350Y-110851375D01*
X145023345Y-110851370D01*
X145023339Y-110851365D01*
X145023337Y-110851363D01*
X145023335Y-110851362D01*
X144912596Y-110783058D01*
X144872525Y-110758342D01*
X144704321Y-110702606D01*
X144704318Y-110702605D01*
X144600516Y-110692000D01*
X144254000Y-110692000D01*
X144254000Y-111489742D01*
X144233998Y-111557863D01*
X144180342Y-111604356D01*
X144110068Y-111614460D01*
X144095390Y-111611449D01*
X144052661Y-111600000D01*
X143947339Y-111600000D01*
X143947338Y-111600000D01*
X143904610Y-111611449D01*
X143833634Y-111609759D01*
X143774838Y-111569964D01*
X143746891Y-111504700D01*
X143746000Y-111489742D01*
X143746000Y-110692000D01*
X143399483Y-110692000D01*
X143295681Y-110702605D01*
X143295678Y-110702606D01*
X143127474Y-110758342D01*
X143127472Y-110758342D01*
X143127472Y-110758343D01*
X142976663Y-110851362D01*
X142976648Y-110851375D01*
X142976637Y-110851385D01*
X142851385Y-110976637D01*
X142851375Y-110976648D01*
X142851362Y-110976663D01*
X142776185Y-111098546D01*
X142758342Y-111127474D01*
X142710577Y-111271625D01*
X142702677Y-111295465D01*
X142702606Y-111295678D01*
X142702606Y-111295679D01*
X142702605Y-111295681D01*
X142692000Y-111399483D01*
X132892985Y-111399483D01*
X132893742Y-111395764D01*
X132893744Y-111395754D01*
X132900000Y-111372409D01*
X132900000Y-111227591D01*
X132893842Y-111204609D01*
X132895532Y-111133635D01*
X132935326Y-111074839D01*
X133000590Y-111046891D01*
X133015549Y-111046000D01*
X133735320Y-111046000D01*
X133735321Y-111046000D01*
X133723330Y-110970290D01*
X133654844Y-110759516D01*
X133654843Y-110759514D01*
X133586042Y-110624483D01*
X165292000Y-110624483D01*
X165292000Y-111046000D01*
X166196000Y-111046000D01*
X166196000Y-109917000D01*
X166704000Y-109917000D01*
X166704000Y-112683000D01*
X166900517Y-112683000D01*
X166947826Y-112683000D01*
X166960692Y-112679424D01*
X166968728Y-112676207D01*
X166972015Y-112675694D01*
X167004318Y-112672394D01*
X167004321Y-112672393D01*
X167172525Y-112616657D01*
X167302353Y-112536577D01*
X167370833Y-112517841D01*
X167438571Y-112539100D01*
X167484063Y-112593608D01*
X167494500Y-112643819D01*
X167494500Y-113351006D01*
X167501500Y-113404176D01*
X167501501Y-113404184D01*
X167501502Y-113404187D01*
X167505291Y-113418329D01*
X167521465Y-113478695D01*
X167525993Y-113493371D01*
X167525994Y-113493372D01*
X167573004Y-113568188D01*
X167574654Y-113570813D01*
X167629171Y-113625330D01*
X167629184Y-113625342D01*
X167629190Y-113625348D01*
X167640455Y-113635802D01*
X167640457Y-113635803D01*
X167640458Y-113635804D01*
X167718982Y-113677304D01*
X167721313Y-113678536D01*
X167795813Y-113698498D01*
X167849000Y-113705500D01*
X167849008Y-113705500D01*
X172414154Y-113705500D01*
X172482275Y-113725502D01*
X172528768Y-113779158D01*
X172538872Y-113849432D01*
X172509378Y-113914012D01*
X172484158Y-113936263D01*
X172483667Y-113936591D01*
X172455447Y-113955448D01*
X172411136Y-114021762D01*
X172411132Y-114021771D01*
X172399500Y-114080246D01*
X172399500Y-115039538D01*
X172394396Y-115075036D01*
X172386866Y-115100680D01*
X172355065Y-115154276D01*
X172055900Y-115453440D01*
X172055885Y-115453456D01*
X171979225Y-115568187D01*
X171926418Y-115695674D01*
X171923693Y-115709383D01*
X171923691Y-115709392D01*
X171899500Y-115831005D01*
X171899500Y-117918246D01*
X171899499Y-117918247D01*
X171899500Y-117918248D01*
X171894396Y-117953746D01*
X171887950Y-117975698D01*
X171858982Y-118026367D01*
X171856184Y-118029352D01*
X171849845Y-118034988D01*
X171849565Y-118035424D01*
X171849133Y-118035621D01*
X171839080Y-118044560D01*
X171827848Y-118052849D01*
X171747212Y-118162107D01*
X171747209Y-118162113D01*
X171747203Y-118162123D01*
X171702358Y-118290281D01*
X171702354Y-118290295D01*
X171699500Y-118320733D01*
X171699500Y-119679265D01*
X171702354Y-119709703D01*
X171702358Y-119709717D01*
X171747203Y-119837875D01*
X171747211Y-119837890D01*
X171827848Y-119947150D01*
X171937108Y-120027787D01*
X171937110Y-120027788D01*
X171937114Y-120027791D01*
X171937118Y-120027793D01*
X171937121Y-120027794D01*
X171937123Y-120027795D01*
X172001209Y-120050219D01*
X172065301Y-120072646D01*
X172095734Y-120075500D01*
X172095736Y-120075500D01*
X173004264Y-120075500D01*
X173004266Y-120075500D01*
X173034699Y-120072646D01*
X173162882Y-120027793D01*
X173200541Y-120000000D01*
X173272150Y-119947150D01*
X173352791Y-119837885D01*
X173352793Y-119837881D01*
X173360256Y-119816555D01*
X173373323Y-119779211D01*
X173373323Y-119779210D01*
X173373324Y-119779209D01*
X173397646Y-119709699D01*
X173400500Y-119679266D01*
X173400500Y-118320734D01*
X173397646Y-118290301D01*
X173392281Y-118274970D01*
X173352793Y-118162118D01*
X173352791Y-118162113D01*
X173327488Y-118127830D01*
X173321826Y-118114891D01*
X173321516Y-118112464D01*
X173318904Y-118107603D01*
X173308147Y-118078150D01*
X173300500Y-118034924D01*
X173300500Y-116260459D01*
X173305603Y-116224964D01*
X173309283Y-116212431D01*
X173309646Y-116210761D01*
X173309764Y-116210545D01*
X173309842Y-116210241D01*
X173309919Y-116210260D01*
X173329993Y-116173500D01*
X173343666Y-116148456D01*
X173343670Y-116148452D01*
X173372380Y-116126960D01*
X173392611Y-116115913D01*
X173452997Y-116100500D01*
X174419747Y-116100500D01*
X174419748Y-116100500D01*
X174478231Y-116088867D01*
X174544552Y-116044552D01*
X174588867Y-115978231D01*
X174600500Y-115919748D01*
X174600500Y-114080252D01*
X174588867Y-114021769D01*
X174544552Y-113955448D01*
X174539815Y-113952283D01*
X174515843Y-113936265D01*
X174470315Y-113881788D01*
X174461468Y-113811344D01*
X174492109Y-113747300D01*
X174552511Y-113709989D01*
X174585845Y-113705500D01*
X175667234Y-113705500D01*
X175682920Y-113710106D01*
X175699265Y-113709639D01*
X175716285Y-113719902D01*
X175735355Y-113725502D01*
X175746062Y-113737859D01*
X175760063Y-113746302D01*
X175768831Y-113764136D01*
X175781848Y-113779158D01*
X175784174Y-113795341D01*
X175791389Y-113810014D01*
X175789123Y-113829759D01*
X175791952Y-113849432D01*
X175785159Y-113864304D01*
X175783296Y-113880548D01*
X175770713Y-113895935D01*
X175762458Y-113914012D01*
X175748204Y-113923463D01*
X175738354Y-113935509D01*
X175706173Y-113951331D01*
X175706171Y-113951333D01*
X175706168Y-113951333D01*
X175706166Y-113951334D01*
X175703253Y-113952281D01*
X175703247Y-113952282D01*
X175622496Y-113978521D01*
X175618562Y-113979622D01*
X175617553Y-113980126D01*
X175463207Y-114058770D01*
X175323066Y-114160589D01*
X175323063Y-114160591D01*
X175200591Y-114283063D01*
X175200589Y-114283066D01*
X175098770Y-114423207D01*
X175020131Y-114577544D01*
X175020130Y-114577546D01*
X175020130Y-114577547D01*
X175020127Y-114577556D01*
X174968283Y-114737114D01*
X174966598Y-114742299D01*
X174939500Y-114913389D01*
X174939500Y-115086611D01*
X174966598Y-115257701D01*
X175017574Y-115414589D01*
X175020121Y-115422426D01*
X175020129Y-115422451D01*
X175049512Y-115480118D01*
X175094800Y-115569001D01*
X175098770Y-115576791D01*
X175195104Y-115709383D01*
X175200587Y-115716930D01*
X175289785Y-115806128D01*
X175304361Y-115825599D01*
X175311274Y-115834833D01*
X175324086Y-115858295D01*
X175339500Y-115918683D01*
X175339500Y-118155384D01*
X175334395Y-118190885D01*
X175329920Y-118206124D01*
X175291535Y-118265850D01*
X175291525Y-118265858D01*
X175290134Y-118267063D01*
X175234431Y-118294946D01*
X175226749Y-118296618D01*
X175199952Y-118299500D01*
X174731003Y-118299500D01*
X174664439Y-118312740D01*
X174664440Y-118312741D01*
X174632292Y-118319135D01*
X174632286Y-118319136D01*
X174624257Y-118320734D01*
X174614132Y-118322748D01*
X174595671Y-118326420D01*
X174595663Y-118326422D01*
X174542866Y-118348291D01*
X174542866Y-118348292D01*
X174528309Y-118354320D01*
X174528297Y-118354325D01*
X174520997Y-118357348D01*
X174520998Y-118357349D01*
X174468183Y-118379226D01*
X174416252Y-118413926D01*
X174416251Y-118413928D01*
X174381547Y-118437118D01*
X174381544Y-118437119D01*
X174381544Y-118437120D01*
X174360038Y-118451490D01*
X174357548Y-118452936D01*
X174355285Y-118454568D01*
X174353615Y-118455725D01*
X173855905Y-118953435D01*
X173855888Y-118953454D01*
X173855886Y-118953456D01*
X173779226Y-119068187D01*
X173726420Y-119195669D01*
X173707298Y-119291807D01*
X173707297Y-119291810D01*
X173699500Y-119330999D01*
X173699500Y-125007995D01*
X173699499Y-125007996D01*
X173699500Y-125007997D01*
X173694396Y-125043495D01*
X173685469Y-125073896D01*
X173666510Y-125112456D01*
X173631132Y-125161149D01*
X173589787Y-125242295D01*
X173516759Y-125385621D01*
X173507737Y-125413389D01*
X173438911Y-125625209D01*
X173438910Y-125625214D01*
X173438910Y-125625215D01*
X173436870Y-125638092D01*
X173436868Y-125638100D01*
X173410096Y-125807137D01*
X173399500Y-125874038D01*
X173399500Y-126125962D01*
X173433308Y-126339414D01*
X173433307Y-126339414D01*
X173438910Y-126374787D01*
X173438911Y-126374793D01*
X173510245Y-126594332D01*
X173516757Y-126614375D01*
X173516758Y-126614378D01*
X173516759Y-126614379D01*
X173616913Y-126810943D01*
X173631132Y-126838848D01*
X173777724Y-127040615D01*
X173777725Y-127040616D01*
X173779212Y-127042663D01*
X173957335Y-127220786D01*
X173957835Y-127221196D01*
X173959362Y-127222259D01*
X174161155Y-127368870D01*
X174385621Y-127483241D01*
X174625215Y-127561090D01*
X174874038Y-127600500D01*
X174874041Y-127600500D01*
X175125959Y-127600500D01*
X175125962Y-127600500D01*
X175374785Y-127561090D01*
X175614379Y-127483241D01*
X175838845Y-127368870D01*
X176042656Y-127220793D01*
X176220793Y-127042656D01*
X176368870Y-126838845D01*
X176483241Y-126614379D01*
X176561090Y-126374785D01*
X176600500Y-126125962D01*
X176600500Y-125874038D01*
X176561090Y-125625215D01*
X176483241Y-125385621D01*
X176368870Y-125161155D01*
X176220793Y-124957344D01*
X176220790Y-124957341D01*
X176220788Y-124957338D01*
X176220787Y-124957337D01*
X176220785Y-124957334D01*
X176042667Y-124779216D01*
X176042154Y-124778795D01*
X176040615Y-124777724D01*
X175838848Y-124631132D01*
X175838847Y-124631131D01*
X175838845Y-124631130D01*
X175614379Y-124516759D01*
X175614376Y-124516758D01*
X175614374Y-124516757D01*
X175521069Y-124486440D01*
X175374804Y-124438915D01*
X175374777Y-124438907D01*
X175374439Y-124438823D01*
X175372634Y-124438569D01*
X175224678Y-124415134D01*
X175190421Y-124404542D01*
X175189803Y-124404249D01*
X175176069Y-124397738D01*
X175162544Y-124385678D01*
X175160526Y-124384721D01*
X175159345Y-124382824D01*
X175123084Y-124350489D01*
X175119535Y-124344790D01*
X175100500Y-124278197D01*
X175100500Y-122192187D01*
X175105604Y-122156689D01*
X175109577Y-122143158D01*
X175147960Y-122083432D01*
X175212534Y-122053940D01*
X175219418Y-122052950D01*
X175276981Y-122058062D01*
X175395669Y-122097392D01*
X175395681Y-122097394D01*
X175454889Y-122103443D01*
X175466058Y-122108000D01*
X175499483Y-122108000D01*
X175746000Y-122108000D01*
X176254000Y-122108000D01*
X176500517Y-122108000D01*
X176547826Y-122108000D01*
X176560692Y-122104424D01*
X176568728Y-122101207D01*
X176572015Y-122100694D01*
X176604318Y-122097394D01*
X176604321Y-122097393D01*
X176772525Y-122041657D01*
X176923339Y-121948634D01*
X176923345Y-121948629D01*
X177048629Y-121823345D01*
X177048634Y-121823339D01*
X177141657Y-121672524D01*
X177164699Y-121602988D01*
X177180703Y-121570910D01*
X177187252Y-121561452D01*
X177242473Y-121516834D01*
X177313053Y-121509153D01*
X177376577Y-121540845D01*
X177379067Y-121543157D01*
X177412937Y-121595858D01*
X177438343Y-121672526D01*
X177531360Y-121823332D01*
X177531362Y-121823335D01*
X177531365Y-121823339D01*
X177531370Y-121823345D01*
X177531375Y-121823350D01*
X177531385Y-121823361D01*
X177656637Y-121948613D01*
X177656648Y-121948623D01*
X177656654Y-121948629D01*
X177656660Y-121948634D01*
X177807474Y-122041657D01*
X177975678Y-122097393D01*
X177975681Y-122097394D01*
X178037057Y-122103664D01*
X178039191Y-122103957D01*
X178048201Y-122108000D01*
X178079483Y-122108000D01*
X178326000Y-122108000D01*
X178834000Y-122108000D01*
X179080517Y-122108000D01*
X179127826Y-122108000D01*
X179140692Y-122104424D01*
X179148728Y-122101207D01*
X179152015Y-122100694D01*
X179184318Y-122097394D01*
X179184321Y-122097393D01*
X179352525Y-122041657D01*
X179503339Y-121948634D01*
X179503345Y-121948629D01*
X179628629Y-121823345D01*
X179628634Y-121823339D01*
X179721657Y-121672525D01*
X179777393Y-121504321D01*
X179777394Y-121504318D01*
X179783668Y-121442901D01*
X179783965Y-121440747D01*
X179788000Y-121431766D01*
X179788000Y-121254000D01*
X178834000Y-121254000D01*
X178834000Y-122108000D01*
X178326000Y-122108000D01*
X178326000Y-121254000D01*
X177366100Y-121254000D01*
X177349253Y-121263199D01*
X177331553Y-121267050D01*
X177315663Y-121275729D01*
X177279891Y-121278291D01*
X177278057Y-121278160D01*
X177218912Y-121258477D01*
X177211946Y-121254000D01*
X176254000Y-121254000D01*
X176254000Y-122108000D01*
X175746000Y-122108000D01*
X175746000Y-121144115D01*
X175751103Y-121108621D01*
X175751911Y-121105868D01*
X175755577Y-121093380D01*
X175765372Y-121078138D01*
X175766002Y-121075994D01*
X175767690Y-121074530D01*
X175793956Y-121033656D01*
X175795365Y-121032436D01*
X175851086Y-121004549D01*
X175858770Y-121002878D01*
X175885548Y-121000000D01*
X176000000Y-121000000D01*
X176000000Y-120890115D01*
X176005103Y-120854621D01*
X176009577Y-120839382D01*
X176047956Y-120779656D01*
X176049365Y-120778436D01*
X176105086Y-120750549D01*
X176112770Y-120748878D01*
X176139548Y-120746000D01*
X177213900Y-120746000D01*
X177230742Y-120736802D01*
X177248440Y-120732951D01*
X177264336Y-120724270D01*
X177300103Y-120721708D01*
X177301944Y-120721839D01*
X177361087Y-120741522D01*
X177368054Y-120746000D01*
X179788000Y-120746000D01*
X179788000Y-120599483D01*
X179777394Y-120495681D01*
X179777393Y-120495678D01*
X179721657Y-120327474D01*
X179643826Y-120201290D01*
X179628636Y-120176663D01*
X179628635Y-120176662D01*
X179628634Y-120176660D01*
X179628629Y-120176654D01*
X179628623Y-120176648D01*
X179628613Y-120176637D01*
X179503361Y-120051385D01*
X179503350Y-120051375D01*
X179503345Y-120051370D01*
X179503339Y-120051365D01*
X179503335Y-120051362D01*
X179503332Y-120051360D01*
X179352521Y-119958339D01*
X179332788Y-119951801D01*
X179320241Y-119943114D01*
X179300705Y-119935795D01*
X179294760Y-119931680D01*
X179283371Y-119917587D01*
X179274416Y-119911387D01*
X179270235Y-119901333D01*
X179250138Y-119876464D01*
X179242451Y-119805885D01*
X179263813Y-119763058D01*
X179264156Y-119761742D01*
X179264739Y-119761203D01*
X179274142Y-119742354D01*
X179306300Y-119722840D01*
X179316325Y-119713587D01*
X179323684Y-119712291D01*
X179333076Y-119706593D01*
X179338837Y-119705009D01*
X179372241Y-119700500D01*
X180639538Y-119700500D01*
X180675035Y-119705603D01*
X180690269Y-119710077D01*
X180700681Y-119713134D01*
X180754278Y-119744935D01*
X181419480Y-120410137D01*
X181440971Y-120438844D01*
X181449285Y-120454069D01*
X181464542Y-120520755D01*
X181463866Y-120534263D01*
X181457856Y-120566901D01*
X181438910Y-120625208D01*
X181438607Y-120626726D01*
X181438334Y-120628850D01*
X181399500Y-120874038D01*
X181399500Y-121125962D01*
X181411354Y-121200802D01*
X181424045Y-121280929D01*
X181438912Y-121374796D01*
X181499412Y-121560994D01*
X181499413Y-121560994D01*
X181499413Y-121560995D01*
X181516759Y-121614379D01*
X181623232Y-121823345D01*
X181631132Y-121838848D01*
X181777724Y-122040615D01*
X181777725Y-122040616D01*
X181779212Y-122042663D01*
X181957335Y-122220786D01*
X181957835Y-122221196D01*
X181959362Y-122222259D01*
X182161155Y-122368870D01*
X182385621Y-122483241D01*
X182625215Y-122561090D01*
X182874038Y-122600500D01*
X182874041Y-122600500D01*
X183125959Y-122600500D01*
X183125962Y-122600500D01*
X183374785Y-122561090D01*
X183614379Y-122483241D01*
X183838845Y-122368870D01*
X184042656Y-122220793D01*
X184220793Y-122042656D01*
X184368870Y-121838845D01*
X184483241Y-121614379D01*
X184561090Y-121374785D01*
X184600500Y-121125962D01*
X184600500Y-120874038D01*
X184561090Y-120625215D01*
X184483241Y-120385621D01*
X184368870Y-120161155D01*
X184220793Y-119957344D01*
X184220790Y-119957341D01*
X184220788Y-119957338D01*
X184220787Y-119957337D01*
X184220785Y-119957334D01*
X184042667Y-119779216D01*
X184042154Y-119778795D01*
X184040615Y-119777724D01*
X183838848Y-119631132D01*
X183838847Y-119631131D01*
X183838845Y-119631130D01*
X183614379Y-119516759D01*
X183614376Y-119516758D01*
X183614374Y-119516757D01*
X183455259Y-119465057D01*
X183374804Y-119438915D01*
X183374777Y-119438907D01*
X183374438Y-119438822D01*
X183372636Y-119438569D01*
X183208565Y-119412583D01*
X183125962Y-119399500D01*
X183125960Y-119399500D01*
X182874041Y-119399500D01*
X182874038Y-119399500D01*
X182625215Y-119438910D01*
X182625209Y-119438911D01*
X182625207Y-119438911D01*
X182625204Y-119438912D01*
X182568209Y-119457431D01*
X182568208Y-119457431D01*
X182568207Y-119457432D01*
X182532869Y-119463547D01*
X182515530Y-119464042D01*
X182449191Y-119447360D01*
X182437462Y-119440625D01*
X182411110Y-119420453D01*
X181446547Y-118455890D01*
X181446545Y-118455888D01*
X181446543Y-118455886D01*
X181331811Y-118379225D01*
X181207783Y-118327851D01*
X181207783Y-118327849D01*
X181207776Y-118327848D01*
X181204331Y-118326421D01*
X181204328Y-118326420D01*
X181204326Y-118326419D01*
X181122835Y-118310209D01*
X181068997Y-118299500D01*
X181068995Y-118299500D01*
X179424615Y-118299500D01*
X179424612Y-118299499D01*
X179424612Y-118299500D01*
X179389114Y-118294395D01*
X179373875Y-118289920D01*
X179314149Y-118251535D01*
X179314141Y-118251525D01*
X179312936Y-118250134D01*
X179285049Y-118194412D01*
X179283378Y-118186729D01*
X179280500Y-118159951D01*
X179280500Y-116214085D01*
X189292000Y-116214085D01*
X189292000Y-116437995D01*
X189321220Y-116659953D01*
X189321221Y-116659958D01*
X189321222Y-116659963D01*
X189331252Y-116697394D01*
X189379171Y-116876232D01*
X189379175Y-116876242D01*
X189464848Y-117083079D01*
X189464850Y-117083083D01*
X189464852Y-117083087D01*
X189464857Y-117083096D01*
X189576800Y-117276987D01*
X189625879Y-117340948D01*
X189625881Y-117340949D01*
X190313179Y-116653649D01*
X190375490Y-116619626D01*
X190446305Y-116624690D01*
X190503141Y-116667237D01*
X190511392Y-116679746D01*
X190519878Y-116694445D01*
X190519886Y-116694455D01*
X190631585Y-116806154D01*
X190631589Y-116806157D01*
X190631592Y-116806160D01*
X190646292Y-116814647D01*
X190695285Y-116866028D01*
X190708722Y-116935742D01*
X190682335Y-117001653D01*
X190672387Y-117012861D01*
X189985090Y-117700157D01*
X189985090Y-117700160D01*
X190049046Y-117749236D01*
X190049052Y-117749240D01*
X190242944Y-117861183D01*
X190242953Y-117861188D01*
X190449803Y-117946867D01*
X190666077Y-118004818D01*
X190666083Y-118004818D01*
X190666084Y-118004819D01*
X190888047Y-118034040D01*
X190888058Y-118034041D01*
X190888059Y-118034041D01*
X191111934Y-118034041D01*
X191111941Y-118034041D01*
X191111948Y-118034040D01*
X191111951Y-118034040D01*
X191111969Y-118034038D01*
X191333914Y-118004819D01*
X191333913Y-118004819D01*
X191333922Y-118004818D01*
X191550196Y-117946867D01*
X191757046Y-117861188D01*
X191757055Y-117861183D01*
X191950953Y-117749236D01*
X192014908Y-117700159D01*
X191327611Y-117012861D01*
X191293586Y-116950549D01*
X191298651Y-116879733D01*
X191341198Y-116822898D01*
X191353698Y-116814652D01*
X191368408Y-116806160D01*
X191480119Y-116694449D01*
X191488606Y-116679748D01*
X191539988Y-116630755D01*
X191609701Y-116617317D01*
X191675613Y-116643703D01*
X191686813Y-116653644D01*
X192374118Y-117340949D01*
X192423195Y-117276994D01*
X192535142Y-117083096D01*
X192535147Y-117083087D01*
X192620826Y-116876237D01*
X192678777Y-116659963D01*
X192684256Y-116618344D01*
X192707997Y-116438010D01*
X192708000Y-116437981D01*
X192708000Y-116214098D01*
X192707999Y-116214088D01*
X192678778Y-115992125D01*
X192678777Y-115992124D01*
X192678777Y-115992118D01*
X192620826Y-115775844D01*
X192535147Y-115568994D01*
X192535142Y-115568985D01*
X192423199Y-115375093D01*
X192374118Y-115311131D01*
X192374117Y-115311130D01*
X191686820Y-115998428D01*
X191624508Y-116032454D01*
X191553693Y-116027389D01*
X191496857Y-115984842D01*
X191488609Y-115972338D01*
X191480119Y-115957633D01*
X191480115Y-115957629D01*
X191480113Y-115957626D01*
X191368414Y-115845927D01*
X191368404Y-115845919D01*
X191353705Y-115837433D01*
X191304712Y-115786051D01*
X191291276Y-115716337D01*
X191317662Y-115650426D01*
X191327594Y-115639235D01*
X192014908Y-114951922D01*
X192014907Y-114951920D01*
X191950946Y-114902841D01*
X191916660Y-114883046D01*
X191757073Y-114790908D01*
X191757042Y-114790891D01*
X191757038Y-114790889D01*
X191550201Y-114705216D01*
X191550191Y-114705212D01*
X191407398Y-114666951D01*
X191333922Y-114647263D01*
X191333919Y-114647262D01*
X191333917Y-114647262D01*
X191333912Y-114647261D01*
X191111954Y-114618041D01*
X191111950Y-114618041D01*
X190888049Y-114618041D01*
X190888044Y-114618041D01*
X190666086Y-114647261D01*
X190666081Y-114647262D01*
X190449807Y-114705212D01*
X190449797Y-114705216D01*
X190242960Y-114790889D01*
X190242956Y-114790891D01*
X190242925Y-114790908D01*
X190049056Y-114902838D01*
X189985091Y-114951920D01*
X189985090Y-114951921D01*
X190672389Y-115639220D01*
X190706413Y-115701531D01*
X190701349Y-115772346D01*
X190658802Y-115829182D01*
X190646297Y-115837431D01*
X190631596Y-115845919D01*
X190631585Y-115845927D01*
X190519886Y-115957626D01*
X190519879Y-115957636D01*
X190511390Y-115972338D01*
X190460005Y-116021330D01*
X190390291Y-116034763D01*
X190324381Y-116008374D01*
X190313185Y-115998436D01*
X189625880Y-115311131D01*
X189576797Y-115375097D01*
X189464867Y-115568966D01*
X189464850Y-115568997D01*
X189464848Y-115569001D01*
X189379175Y-115775838D01*
X189379171Y-115775848D01*
X189321221Y-115992122D01*
X189321220Y-115992127D01*
X189292000Y-116214085D01*
X179280500Y-116214085D01*
X179280500Y-115926148D01*
X179285603Y-115890653D01*
X179288364Y-115881250D01*
X179293133Y-115865005D01*
X179324934Y-115811409D01*
X179419410Y-115716933D01*
X179419412Y-115716930D01*
X179419414Y-115716928D01*
X179521232Y-115576788D01*
X179599873Y-115422445D01*
X179653402Y-115257701D01*
X179680500Y-115086611D01*
X179680500Y-114913389D01*
X180019500Y-114913389D01*
X180019500Y-115086611D01*
X180046598Y-115257701D01*
X180097574Y-115414589D01*
X180100121Y-115422426D01*
X180100129Y-115422451D01*
X180129512Y-115480118D01*
X180178768Y-115576788D01*
X180280587Y-115716930D01*
X180280589Y-115716932D01*
X180280589Y-115716933D01*
X180403062Y-115839406D01*
X180403574Y-115839825D01*
X180405121Y-115840902D01*
X180543212Y-115941232D01*
X180697555Y-116019873D01*
X180862299Y-116073402D01*
X181033389Y-116100500D01*
X181033392Y-116100500D01*
X181206608Y-116100500D01*
X181206611Y-116100500D01*
X181377701Y-116073402D01*
X181542445Y-116019873D01*
X181696788Y-115941232D01*
X181836928Y-115839414D01*
X181959414Y-115716928D01*
X182061232Y-115576788D01*
X182139873Y-115422445D01*
X182193402Y-115257701D01*
X182220500Y-115086611D01*
X182220500Y-114913389D01*
X182193402Y-114742299D01*
X182139873Y-114577555D01*
X182061232Y-114423212D01*
X181960902Y-114285120D01*
X181959825Y-114283574D01*
X181959406Y-114283062D01*
X181836935Y-114160591D01*
X181836932Y-114160589D01*
X181836930Y-114160587D01*
X181726350Y-114080246D01*
X181696791Y-114058770D01*
X181696790Y-114058769D01*
X181696788Y-114058768D01*
X181598581Y-114008729D01*
X181542451Y-113980129D01*
X181542442Y-113980126D01*
X181377701Y-113926598D01*
X181206611Y-113899500D01*
X181206608Y-113899500D01*
X181033391Y-113899500D01*
X181033389Y-113899500D01*
X180969994Y-113909540D01*
X180876281Y-113924383D01*
X180876274Y-113924384D01*
X180862299Y-113926598D01*
X180862296Y-113926598D01*
X180862295Y-113926599D01*
X180852206Y-113929876D01*
X180852193Y-113929880D01*
X180783253Y-113952281D01*
X180702496Y-113978521D01*
X180698562Y-113979622D01*
X180697553Y-113980126D01*
X180543207Y-114058770D01*
X180403066Y-114160589D01*
X180403063Y-114160591D01*
X180280591Y-114283063D01*
X180280589Y-114283066D01*
X180178770Y-114423207D01*
X180100131Y-114577544D01*
X180100130Y-114577546D01*
X180100130Y-114577547D01*
X180100127Y-114577556D01*
X180048283Y-114737114D01*
X180046598Y-114742299D01*
X180019500Y-114913389D01*
X179680500Y-114913389D01*
X179653402Y-114742299D01*
X179599873Y-114577555D01*
X179521232Y-114423212D01*
X179420902Y-114285120D01*
X179419825Y-114283574D01*
X179419406Y-114283062D01*
X179296935Y-114160591D01*
X179296932Y-114160589D01*
X179296930Y-114160587D01*
X179186350Y-114080246D01*
X179156791Y-114058770D01*
X179156790Y-114058769D01*
X179156788Y-114058768D01*
X179058581Y-114008729D01*
X179002451Y-113980129D01*
X179002442Y-113980126D01*
X178837701Y-113926598D01*
X178740053Y-113911132D01*
X178666601Y-113899498D01*
X178661673Y-113899111D01*
X178661856Y-113896775D01*
X178603016Y-113879498D01*
X178556523Y-113825842D01*
X178546419Y-113755568D01*
X178575913Y-113690988D01*
X178603085Y-113667457D01*
X178671988Y-113623242D01*
X178726003Y-113568188D01*
X178736348Y-113556824D01*
X178778310Y-113475563D01*
X178797562Y-113400876D01*
X178804058Y-113347624D01*
X178794624Y-112357099D01*
X178792745Y-112331265D01*
X178787675Y-112294119D01*
X178762030Y-112219157D01*
X178723465Y-112152363D01*
X178720205Y-112147175D01*
X178715291Y-112139355D01*
X178715290Y-112139354D01*
X178648248Y-112077148D01*
X178581453Y-112038584D01*
X178567866Y-112031403D01*
X178478703Y-112011052D01*
X178478700Y-112011052D01*
X178401571Y-112011052D01*
X178392932Y-112011375D01*
X178324111Y-111993932D01*
X178275646Y-111942051D01*
X178262924Y-111872203D01*
X178275955Y-111828264D01*
X178329873Y-111722445D01*
X178383402Y-111557701D01*
X178410500Y-111386611D01*
X178410500Y-111213389D01*
X178749500Y-111213389D01*
X178749500Y-111386611D01*
X178776598Y-111557701D01*
X178828937Y-111718784D01*
X178830121Y-111722426D01*
X178830129Y-111722451D01*
X178868414Y-111797589D01*
X178908768Y-111876788D01*
X179010587Y-112016930D01*
X179010589Y-112016932D01*
X179010591Y-112016935D01*
X179133062Y-112139406D01*
X179133574Y-112139825D01*
X179135121Y-112140902D01*
X179273212Y-112241232D01*
X179427555Y-112319873D01*
X179592299Y-112373402D01*
X179763389Y-112400500D01*
X179763392Y-112400500D01*
X179936608Y-112400500D01*
X179936611Y-112400500D01*
X180107701Y-112373402D01*
X180272445Y-112319873D01*
X180426788Y-112241232D01*
X180566928Y-112139414D01*
X180689414Y-112016928D01*
X180791232Y-111876788D01*
X180869873Y-111722445D01*
X180923402Y-111557701D01*
X180950500Y-111386611D01*
X180950500Y-111213389D01*
X180923402Y-111042299D01*
X180869873Y-110877555D01*
X180791232Y-110723212D01*
X180689414Y-110583072D01*
X180689412Y-110583069D01*
X180566934Y-110460591D01*
X180566930Y-110460588D01*
X180566928Y-110460586D01*
X180493908Y-110407534D01*
X180426788Y-110358768D01*
X180354186Y-110321775D01*
X189599500Y-110321775D01*
X189599500Y-112330293D01*
X189599502Y-112330326D01*
X189601497Y-112351604D01*
X189602353Y-112360733D01*
X189602354Y-112360739D01*
X189603045Y-112364193D01*
X189605582Y-112369968D01*
X189647201Y-112488910D01*
X189647208Y-112488926D01*
X189647211Y-112488931D01*
X189727848Y-112598191D01*
X189837108Y-112678828D01*
X189837110Y-112678829D01*
X189837114Y-112678832D01*
X189837118Y-112678834D01*
X189837121Y-112678835D01*
X189837123Y-112678836D01*
X189920470Y-112708000D01*
X189965302Y-112723687D01*
X189995735Y-112726541D01*
X192004264Y-112726540D01*
X192034698Y-112723687D01*
X192162882Y-112678834D01*
X192171610Y-112672393D01*
X192272150Y-112598191D01*
X192352791Y-112488926D01*
X192352793Y-112488922D01*
X192364353Y-112455887D01*
X192397646Y-112360739D01*
X192400500Y-112330306D01*
X192400499Y-110321777D01*
X192397646Y-110291343D01*
X192352793Y-110163159D01*
X192352791Y-110163155D01*
X192303062Y-110095774D01*
X192272150Y-110053889D01*
X192162890Y-109973252D01*
X192162886Y-109973250D01*
X192162885Y-109973249D01*
X192162881Y-109973247D01*
X192162879Y-109973246D01*
X192162875Y-109973244D01*
X192034708Y-109928397D01*
X192034702Y-109928395D01*
X192034698Y-109928394D01*
X192034693Y-109928393D01*
X192016298Y-109926668D01*
X192016294Y-109926669D01*
X192004267Y-109925541D01*
X192004265Y-109925541D01*
X192004264Y-109925541D01*
X189995743Y-109925541D01*
X189995728Y-109925542D01*
X189995719Y-109925542D01*
X189995716Y-109925543D01*
X189992109Y-109925881D01*
X189971388Y-109927824D01*
X189971384Y-109927824D01*
X189965302Y-109928395D01*
X189965301Y-109928395D01*
X189837120Y-109973246D01*
X189837113Y-109973249D01*
X189837108Y-109973252D01*
X189727848Y-110053889D01*
X189647211Y-110163149D01*
X189647203Y-110163164D01*
X189602356Y-110291331D01*
X189602354Y-110291337D01*
X189599500Y-110321775D01*
X180354186Y-110321775D01*
X180348149Y-110318699D01*
X180272451Y-110280129D01*
X180272442Y-110280126D01*
X180107701Y-110226598D01*
X179936611Y-110199500D01*
X179936608Y-110199500D01*
X179763391Y-110199500D01*
X179763389Y-110199500D01*
X179699994Y-110209540D01*
X179606281Y-110224383D01*
X179606274Y-110224384D01*
X179592299Y-110226598D01*
X179592296Y-110226598D01*
X179592295Y-110226599D01*
X179582206Y-110229876D01*
X179582193Y-110229880D01*
X179513253Y-110252281D01*
X179432496Y-110278521D01*
X179428562Y-110279622D01*
X179427553Y-110280126D01*
X179273207Y-110358770D01*
X179133066Y-110460589D01*
X179133063Y-110460591D01*
X179010591Y-110583063D01*
X179010589Y-110583066D01*
X178908770Y-110723207D01*
X178830131Y-110877544D01*
X178830130Y-110877546D01*
X178830130Y-110877547D01*
X178830127Y-110877556D01*
X178797928Y-110976654D01*
X178792595Y-110993065D01*
X178776598Y-111042296D01*
X178772317Y-111069326D01*
X178749500Y-111213389D01*
X178410500Y-111213389D01*
X178383402Y-111042299D01*
X178329873Y-110877555D01*
X178266685Y-110753541D01*
X178253582Y-110683767D01*
X178280282Y-110617982D01*
X178338310Y-110577076D01*
X178376710Y-110572361D01*
X178376636Y-110570783D01*
X178454669Y-110567118D01*
X178476241Y-110566105D01*
X178550547Y-110545434D01*
X178550561Y-110545429D01*
X178550570Y-110545427D01*
X178565181Y-110540767D01*
X178565182Y-110540766D01*
X178565186Y-110540765D01*
X178642158Y-110491373D01*
X178696174Y-110436319D01*
X178706520Y-110424954D01*
X178748482Y-110343693D01*
X178767734Y-110269006D01*
X178774230Y-110215754D01*
X178774075Y-110199500D01*
X178721793Y-104709778D01*
X189599500Y-104709778D01*
X189599500Y-104930222D01*
X189616445Y-105037210D01*
X189633984Y-105147947D01*
X189633990Y-105147971D01*
X189634089Y-105148272D01*
X189699052Y-105348212D01*
X189702105Y-105357606D01*
X189802185Y-105554022D01*
X189931758Y-105732365D01*
X189931764Y-105732373D01*
X190087626Y-105888235D01*
X190088126Y-105888645D01*
X190089653Y-105889708D01*
X190265978Y-106017815D01*
X190462394Y-106117895D01*
X190672049Y-106186015D01*
X190889778Y-106220500D01*
X190889781Y-106220500D01*
X191110219Y-106220500D01*
X191110222Y-106220500D01*
X191327951Y-106186015D01*
X191537606Y-106117895D01*
X191734022Y-106017815D01*
X191912365Y-105888242D01*
X192068242Y-105732365D01*
X192197815Y-105554022D01*
X192297895Y-105357606D01*
X192366015Y-105147951D01*
X192400500Y-104930222D01*
X192400500Y-104709778D01*
X192366015Y-104492049D01*
X192297895Y-104282394D01*
X192197815Y-104085978D01*
X192068242Y-103907635D01*
X192068239Y-103907632D01*
X192068237Y-103907629D01*
X192068236Y-103907628D01*
X192068234Y-103907625D01*
X191912371Y-103751762D01*
X191911866Y-103751348D01*
X191910340Y-103750286D01*
X191778115Y-103654221D01*
X191778112Y-103654218D01*
X191746051Y-103630923D01*
X191742044Y-103628012D01*
X191741704Y-103627722D01*
X191734025Y-103622187D01*
X191734024Y-103622186D01*
X191734022Y-103622185D01*
X191734011Y-103622177D01*
X191733604Y-103621972D01*
X191727996Y-103619114D01*
X191537606Y-103522105D01*
X191537603Y-103522104D01*
X191537601Y-103522103D01*
X191328272Y-103454089D01*
X191327971Y-103453990D01*
X191327947Y-103453984D01*
X191233142Y-103438968D01*
X191110222Y-103419500D01*
X191110219Y-103419500D01*
X190889781Y-103419500D01*
X190889778Y-103419500D01*
X190816583Y-103431093D01*
X190686030Y-103451770D01*
X190686021Y-103451772D01*
X190672049Y-103453985D01*
X190672046Y-103453985D01*
X190672045Y-103453986D01*
X190661946Y-103457267D01*
X190661934Y-103457270D01*
X190462403Y-103522100D01*
X190462293Y-103522155D01*
X190265976Y-103622185D01*
X190265975Y-103622186D01*
X190089680Y-103750271D01*
X190088137Y-103751345D01*
X190087622Y-103751767D01*
X189931767Y-103907622D01*
X189931345Y-103908137D01*
X189930271Y-103909680D01*
X189802186Y-104085975D01*
X189802185Y-104085976D01*
X189702155Y-104282293D01*
X189702100Y-104282403D01*
X189633994Y-104492017D01*
X189633984Y-104492052D01*
X189614611Y-104614372D01*
X189599500Y-104709778D01*
X178721793Y-104709778D01*
X178721757Y-104706027D01*
X178706896Y-103145621D01*
X178699649Y-103093456D01*
X178699648Y-103093455D01*
X178699648Y-103093449D01*
X178679694Y-103020370D01*
X178675419Y-103006628D01*
X178626761Y-102929190D01*
X178626760Y-102929189D01*
X178626757Y-102929185D01*
X178572241Y-102874669D01*
X178572223Y-102874652D01*
X178560958Y-102864198D01*
X178560955Y-102864196D01*
X178560954Y-102864195D01*
X178480101Y-102821464D01*
X178447248Y-102812661D01*
X178405600Y-102801502D01*
X178405597Y-102801501D01*
X178405595Y-102801501D01*
X178405589Y-102801500D01*
X178352419Y-102794500D01*
X178352413Y-102794500D01*
X167249000Y-102794500D01*
X167248993Y-102794500D01*
X167195823Y-102801500D01*
X167195813Y-102801502D01*
X167121304Y-102821465D01*
X167106628Y-102825993D01*
X167029186Y-102874654D01*
X166974669Y-102929171D01*
X166964197Y-102940456D01*
X166964195Y-102940458D01*
X166921464Y-103021311D01*
X166901501Y-103095817D01*
X166901500Y-103095823D01*
X166894500Y-103148993D01*
X166894500Y-108851006D01*
X166901500Y-108904176D01*
X166901502Y-108904186D01*
X166921465Y-108978695D01*
X166925993Y-108993371D01*
X166974654Y-109070813D01*
X167029171Y-109125330D01*
X167029184Y-109125342D01*
X167029190Y-109125348D01*
X167040455Y-109135802D01*
X167040457Y-109135803D01*
X167040458Y-109135804D01*
X167121311Y-109178535D01*
X167121313Y-109178536D01*
X167195813Y-109198498D01*
X167249000Y-109205500D01*
X167368500Y-109205500D01*
X167436621Y-109225502D01*
X167483114Y-109279158D01*
X167494500Y-109331500D01*
X167494500Y-109956179D01*
X167474498Y-110024300D01*
X167420842Y-110070793D01*
X167350568Y-110080897D01*
X167302354Y-110063420D01*
X167172531Y-109983345D01*
X167172527Y-109983343D01*
X167172525Y-109983342D01*
X167004321Y-109927606D01*
X167004318Y-109927605D01*
X166900516Y-109917000D01*
X166704000Y-109917000D01*
X166196000Y-109917000D01*
X165999483Y-109917000D01*
X165895681Y-109927605D01*
X165895678Y-109927606D01*
X165727474Y-109983342D01*
X165727472Y-109983342D01*
X165727472Y-109983343D01*
X165576663Y-110076362D01*
X165576648Y-110076375D01*
X165576637Y-110076385D01*
X165451385Y-110201637D01*
X165451375Y-110201648D01*
X165451362Y-110201663D01*
X165358343Y-110352472D01*
X165358342Y-110352474D01*
X165306632Y-110508526D01*
X165306631Y-110508529D01*
X165302606Y-110520678D01*
X165302605Y-110520681D01*
X165292000Y-110624483D01*
X133586042Y-110624483D01*
X133554227Y-110562043D01*
X133423960Y-110382746D01*
X133423957Y-110382743D01*
X133423955Y-110382740D01*
X133267258Y-110226043D01*
X133267255Y-110226041D01*
X133267253Y-110226039D01*
X133087956Y-110095772D01*
X132947684Y-110024300D01*
X132890484Y-109995155D01*
X132679711Y-109926669D01*
X132604000Y-109914678D01*
X132604000Y-110634451D01*
X132583998Y-110702572D01*
X132530342Y-110749065D01*
X132460068Y-110759169D01*
X132445399Y-110756160D01*
X132422409Y-110750000D01*
X132422406Y-110750000D01*
X132277594Y-110750000D01*
X132277591Y-110750000D01*
X132254609Y-110756157D01*
X132183635Y-110754468D01*
X132124839Y-110714674D01*
X132096891Y-110649410D01*
X132096000Y-110634451D01*
X132096000Y-109914678D01*
X132020287Y-109926669D01*
X131809514Y-109995155D01*
X131612039Y-110095774D01*
X131432743Y-110226041D01*
X131432740Y-110226043D01*
X131276043Y-110382740D01*
X131276041Y-110382743D01*
X131145774Y-110562039D01*
X131045155Y-110759515D01*
X131045151Y-110759525D01*
X131037504Y-110783058D01*
X131026452Y-110805535D01*
X131021683Y-110815235D01*
X131015197Y-110824721D01*
X130960237Y-110869664D01*
X130889703Y-110877759D01*
X130825991Y-110846436D01*
X130825988Y-110846434D01*
X130825988Y-110846433D01*
X130820246Y-110841163D01*
X130793179Y-110805538D01*
X130751232Y-110723212D01*
X130751231Y-110723210D01*
X130650902Y-110585120D01*
X130649825Y-110583574D01*
X130649406Y-110583062D01*
X130526935Y-110460591D01*
X130526932Y-110460589D01*
X130526931Y-110460588D01*
X130526930Y-110460587D01*
X130386788Y-110358768D01*
X130311149Y-110320228D01*
X130232451Y-110280129D01*
X130232442Y-110280126D01*
X130067701Y-110226598D01*
X129896611Y-110199500D01*
X129896608Y-110199500D01*
X129723391Y-110199500D01*
X129723389Y-110199500D01*
X129659994Y-110209540D01*
X129566281Y-110224383D01*
X129566274Y-110224384D01*
X129552299Y-110226598D01*
X129552296Y-110226598D01*
X129552295Y-110226599D01*
X129542206Y-110229876D01*
X129542193Y-110229880D01*
X129473253Y-110252281D01*
X129392496Y-110278521D01*
X129388562Y-110279622D01*
X129387553Y-110280126D01*
X129233207Y-110358770D01*
X129093066Y-110460589D01*
X129093063Y-110460591D01*
X128970591Y-110583063D01*
X128970589Y-110583066D01*
X128868770Y-110723207D01*
X128790131Y-110877544D01*
X128790130Y-110877546D01*
X128790130Y-110877547D01*
X128790127Y-110877556D01*
X128757928Y-110976654D01*
X128752595Y-110993065D01*
X128736598Y-111042296D01*
X128732317Y-111069326D01*
X128709500Y-111213389D01*
X128709500Y-111386611D01*
X128736598Y-111557701D01*
X128788937Y-111718784D01*
X128790121Y-111722426D01*
X128790129Y-111722451D01*
X128828414Y-111797589D01*
X128868768Y-111876788D01*
X128970587Y-112016930D01*
X128970589Y-112016932D01*
X128970591Y-112016935D01*
X129093062Y-112139406D01*
X129093574Y-112139825D01*
X129095121Y-112140902D01*
X129233212Y-112241232D01*
X129387555Y-112319873D01*
X129552299Y-112373402D01*
X129552302Y-112373402D01*
X129556028Y-112374613D01*
X129614634Y-112414686D01*
X129642271Y-112480083D01*
X129630164Y-112550040D01*
X129582158Y-112602346D01*
X129576054Y-112605799D01*
X129534903Y-112627588D01*
X129534901Y-112627589D01*
X129481967Y-112673212D01*
X129463978Y-112690744D01*
X129463973Y-112690751D01*
X129419117Y-112770442D01*
X129419115Y-112770445D01*
X129399252Y-112837429D01*
X129399251Y-112837436D01*
X129390774Y-112895298D01*
X129390774Y-112895306D01*
X129387818Y-114008729D01*
X129367635Y-114076796D01*
X129313856Y-114123146D01*
X129243555Y-114133063D01*
X129187757Y-114110330D01*
X129116791Y-114058770D01*
X129116790Y-114058769D01*
X129116788Y-114058768D01*
X129018581Y-114008729D01*
X128962451Y-113980129D01*
X128962442Y-113980126D01*
X128797701Y-113926598D01*
X128626611Y-113899500D01*
X128626608Y-113899500D01*
X128453391Y-113899500D01*
X128453389Y-113899500D01*
X128389994Y-113909540D01*
X128296281Y-113924383D01*
X128296274Y-113924384D01*
X128282299Y-113926598D01*
X128282296Y-113926598D01*
X128282295Y-113926599D01*
X128272206Y-113929876D01*
X128272193Y-113929880D01*
X128203253Y-113952281D01*
X128122496Y-113978521D01*
X128118562Y-113979622D01*
X128117553Y-113980126D01*
X127963207Y-114058770D01*
X127823066Y-114160589D01*
X127823063Y-114160591D01*
X127700591Y-114283063D01*
X127700589Y-114283066D01*
X127598770Y-114423207D01*
X127520131Y-114577544D01*
X127520130Y-114577546D01*
X127520130Y-114577547D01*
X127520127Y-114577556D01*
X127468283Y-114737114D01*
X127466598Y-114742299D01*
X127439500Y-114913389D01*
X127439500Y-115086611D01*
X127466598Y-115257701D01*
X127517574Y-115414589D01*
X127520121Y-115422426D01*
X127520129Y-115422451D01*
X127549512Y-115480118D01*
X127598768Y-115576788D01*
X127700587Y-115716930D01*
X127700589Y-115716932D01*
X127700589Y-115716933D01*
X127823062Y-115839406D01*
X127823574Y-115839825D01*
X127825121Y-115840902D01*
X127963212Y-115941232D01*
X128117555Y-116019873D01*
X128282299Y-116073402D01*
X128453389Y-116100500D01*
X128453392Y-116100500D01*
X128626608Y-116100500D01*
X128626611Y-116100500D01*
X128797701Y-116073402D01*
X128962445Y-116019873D01*
X129116788Y-115941232D01*
X129182482Y-115893501D01*
X129249350Y-115869643D01*
X129318501Y-115885722D01*
X129367982Y-115936636D01*
X129382544Y-115995772D01*
X129381226Y-116492236D01*
X129361043Y-116560303D01*
X129307264Y-116606653D01*
X129254783Y-116617900D01*
X122725157Y-116594937D01*
X122725154Y-116594938D01*
X122681099Y-116599558D01*
X122681098Y-116599558D01*
X122629175Y-116610758D01*
X122618629Y-116613325D01*
X122618627Y-116613325D01*
X122618627Y-116613326D01*
X122609210Y-116618344D01*
X122537916Y-116656335D01*
X122485109Y-116702092D01*
X122467157Y-116719681D01*
X122467154Y-116719685D01*
X122422515Y-116799488D01*
X122422511Y-116799496D01*
X122402825Y-116866537D01*
X122402823Y-116866547D01*
X122394500Y-116924432D01*
X101000000Y-116924432D01*
X101000000Y-113999484D01*
X107292000Y-113999484D01*
X107292000Y-114746000D01*
X108282687Y-114746000D01*
X108350808Y-114766002D01*
X108397301Y-114819658D01*
X108407405Y-114889932D01*
X108404394Y-114904610D01*
X108400000Y-114921008D01*
X108400000Y-115078991D01*
X108404394Y-115095390D01*
X108402704Y-115166366D01*
X108362909Y-115225162D01*
X108297644Y-115253109D01*
X108282687Y-115254000D01*
X107292001Y-115254000D01*
X107292001Y-116000507D01*
X107302604Y-116104317D01*
X107338982Y-116214100D01*
X107358342Y-116272525D01*
X107451366Y-116423339D01*
X107451371Y-116423345D01*
X107451376Y-116423350D01*
X107451386Y-116423361D01*
X107576637Y-116548612D01*
X107576648Y-116548622D01*
X107576654Y-116548628D01*
X107576660Y-116548633D01*
X107727474Y-116641657D01*
X107895678Y-116697393D01*
X107895681Y-116697394D01*
X107999484Y-116707999D01*
X108746000Y-116707999D01*
X108746000Y-115717312D01*
X108766002Y-115649191D01*
X108819658Y-115602698D01*
X108889932Y-115592594D01*
X108904595Y-115595601D01*
X108921009Y-115600000D01*
X109078988Y-115600000D01*
X109078991Y-115600000D01*
X109095389Y-115595606D01*
X109166362Y-115597294D01*
X109225159Y-115637086D01*
X109253108Y-115702350D01*
X109254000Y-115717312D01*
X109254000Y-116707999D01*
X110000507Y-116707999D01*
X110104318Y-116697394D01*
X110272525Y-116641657D01*
X110423339Y-116548633D01*
X110423345Y-116548628D01*
X110548628Y-116423345D01*
X110548633Y-116423339D01*
X110641657Y-116272525D01*
X110697393Y-116104321D01*
X110697394Y-116104318D01*
X110703666Y-116042918D01*
X110703966Y-116040744D01*
X110708000Y-116031766D01*
X110708000Y-115254000D01*
X109717313Y-115254000D01*
X109649192Y-115233998D01*
X109602699Y-115180342D01*
X109591326Y-115126219D01*
X109591547Y-115110535D01*
X109600000Y-115078991D01*
X109600000Y-114921009D01*
X109594515Y-114900541D01*
X109594668Y-114889778D01*
X112599500Y-114889778D01*
X112599500Y-115110222D01*
X112610606Y-115180342D01*
X112633984Y-115327947D01*
X112633990Y-115327971D01*
X112634089Y-115328272D01*
X112683426Y-115480119D01*
X112702105Y-115537606D01*
X112795296Y-115720502D01*
X112802187Y-115734025D01*
X112816043Y-115753096D01*
X112930844Y-115911107D01*
X112931764Y-115912373D01*
X113087626Y-116068235D01*
X113088126Y-116068645D01*
X113089653Y-116069708D01*
X113265978Y-116197815D01*
X113462394Y-116297895D01*
X113672049Y-116366015D01*
X113889778Y-116400500D01*
X113889781Y-116400500D01*
X114110219Y-116400500D01*
X114110222Y-116400500D01*
X114327951Y-116366015D01*
X114537606Y-116297895D01*
X114734022Y-116197815D01*
X114912365Y-116068242D01*
X115068242Y-115912365D01*
X115197815Y-115734022D01*
X115297895Y-115537606D01*
X115366015Y-115327951D01*
X115400500Y-115110222D01*
X115400500Y-114889778D01*
X115372407Y-114712411D01*
X115370865Y-114694129D01*
X115370791Y-114687568D01*
X115372360Y-114681992D01*
X115371900Y-114676532D01*
X115372260Y-114673751D01*
X115372939Y-114673838D01*
X115373664Y-114659358D01*
X115374785Y-114654204D01*
X115374785Y-114654203D01*
X115374788Y-114654190D01*
X115374944Y-114652977D01*
X115375037Y-114652750D01*
X115375247Y-114651537D01*
X115375361Y-114651556D01*
X115375364Y-114651545D01*
X115375513Y-114651577D01*
X115380923Y-114638256D01*
X115381881Y-114624991D01*
X115397883Y-114595733D01*
X121099500Y-114595733D01*
X121099500Y-115404265D01*
X121102354Y-115434703D01*
X121102358Y-115434717D01*
X121147203Y-115562875D01*
X121147211Y-115562890D01*
X121227848Y-115672150D01*
X121337108Y-115752787D01*
X121337110Y-115752788D01*
X121337114Y-115752791D01*
X121337118Y-115752793D01*
X121337121Y-115752794D01*
X121448701Y-115791838D01*
X121457634Y-115794963D01*
X121465301Y-115797646D01*
X121495734Y-115800500D01*
X121495736Y-115800500D01*
X122504264Y-115800500D01*
X122504266Y-115800500D01*
X122534699Y-115797646D01*
X122662882Y-115752793D01*
X122662883Y-115752792D01*
X122662886Y-115752791D01*
X122662887Y-115752789D01*
X122663527Y-115752566D01*
X122666895Y-115750270D01*
X122666900Y-115750266D01*
X122670475Y-115747190D01*
X122685804Y-115735877D01*
X122717396Y-115718905D01*
X122746847Y-115708148D01*
X122790075Y-115700500D01*
X124755385Y-115700500D01*
X124790877Y-115705602D01*
X124806121Y-115710078D01*
X124865846Y-115748460D01*
X124865858Y-115748474D01*
X124867063Y-115749865D01*
X124894946Y-115805572D01*
X124896618Y-115813255D01*
X124899500Y-115840048D01*
X124899500Y-115919757D01*
X124907034Y-115957629D01*
X124911132Y-115978229D01*
X124911132Y-115978230D01*
X124911133Y-115978231D01*
X124955448Y-116044552D01*
X125021769Y-116088867D01*
X125080252Y-116100500D01*
X125080253Y-116100500D01*
X126919747Y-116100500D01*
X126919748Y-116100500D01*
X126978231Y-116088867D01*
X127044552Y-116044552D01*
X127088867Y-115978231D01*
X127100500Y-115919748D01*
X127100500Y-114080252D01*
X127088867Y-114021769D01*
X127044552Y-113955448D01*
X127044551Y-113955447D01*
X126978234Y-113911134D01*
X126978230Y-113911132D01*
X126919752Y-113899500D01*
X126919750Y-113899500D01*
X126919748Y-113899500D01*
X125080252Y-113899500D01*
X125080249Y-113899500D01*
X125080246Y-113899500D01*
X125021771Y-113911132D01*
X125021768Y-113911133D01*
X125021766Y-113911133D01*
X125021762Y-113911136D01*
X124955447Y-113955447D01*
X124911136Y-114021762D01*
X124911132Y-114021771D01*
X124899500Y-114080246D01*
X124899500Y-114155384D01*
X124899499Y-114155386D01*
X124899500Y-114155387D01*
X124894395Y-114190885D01*
X124889920Y-114206124D01*
X124851535Y-114265850D01*
X124851525Y-114265858D01*
X124850134Y-114267063D01*
X124794431Y-114294946D01*
X124786749Y-114296618D01*
X124759952Y-114299500D01*
X122793314Y-114299500D01*
X122793312Y-114299499D01*
X122793312Y-114299500D01*
X122757818Y-114294396D01*
X122727729Y-114285561D01*
X122688409Y-114266045D01*
X122662886Y-114247208D01*
X122662885Y-114247207D01*
X122662865Y-114247199D01*
X122534717Y-114202358D01*
X122534701Y-114202354D01*
X122534703Y-114202354D01*
X122511874Y-114200213D01*
X122504266Y-114199500D01*
X122504265Y-114199500D01*
X121495733Y-114199500D01*
X121465295Y-114202354D01*
X121465281Y-114202358D01*
X121337123Y-114247203D01*
X121337108Y-114247211D01*
X121227848Y-114327848D01*
X121147211Y-114437108D01*
X121147203Y-114437123D01*
X121102358Y-114565281D01*
X121102354Y-114565295D01*
X121099500Y-114595733D01*
X115397883Y-114595733D01*
X115399090Y-114593526D01*
X115399581Y-114592871D01*
X115411297Y-114579358D01*
X115443450Y-114547206D01*
X115452707Y-114537949D01*
X115486965Y-114503692D01*
X116240445Y-113750212D01*
X116240445Y-113750211D01*
X116240450Y-113750206D01*
X116269152Y-113728722D01*
X116292614Y-113715910D01*
X116352996Y-113700500D01*
X121206686Y-113700500D01*
X121242178Y-113705602D01*
X121272267Y-113714437D01*
X121311590Y-113733954D01*
X121337111Y-113752790D01*
X121337133Y-113752799D01*
X121465295Y-113797644D01*
X121465301Y-113797646D01*
X121495734Y-113800500D01*
X121495736Y-113800500D01*
X122504264Y-113800500D01*
X122504266Y-113800500D01*
X122534699Y-113797646D01*
X122662882Y-113752793D01*
X122677010Y-113742366D01*
X122683736Y-113737403D01*
X122721354Y-113709639D01*
X122772150Y-113672150D01*
X122852791Y-113562885D01*
X122852793Y-113562881D01*
X122896748Y-113437263D01*
X122897530Y-113435176D01*
X122897644Y-113434704D01*
X122897646Y-113434699D01*
X122898571Y-113424835D01*
X122900499Y-113404285D01*
X122900500Y-113404264D01*
X122900500Y-112595735D01*
X122900500Y-112595734D01*
X122897646Y-112565301D01*
X122873151Y-112495297D01*
X122852795Y-112437123D01*
X122852794Y-112437121D01*
X122852793Y-112437118D01*
X122852791Y-112437114D01*
X122838802Y-112418159D01*
X122772150Y-112327848D01*
X122662890Y-112247211D01*
X122662886Y-112247209D01*
X122662885Y-112247208D01*
X122662881Y-112247206D01*
X122662879Y-112247205D01*
X122662875Y-112247203D01*
X122534717Y-112202358D01*
X122534701Y-112202354D01*
X122534703Y-112202354D01*
X122511874Y-112200213D01*
X122504266Y-112199500D01*
X122504265Y-112199500D01*
X121495733Y-112199500D01*
X121465295Y-112202354D01*
X121465281Y-112202358D01*
X121337119Y-112247204D01*
X121337115Y-112247206D01*
X121314194Y-112264123D01*
X121282605Y-112281094D01*
X121261987Y-112288625D01*
X121253155Y-112291851D01*
X121209925Y-112299500D01*
X115931004Y-112299500D01*
X115795671Y-112326420D01*
X115795667Y-112326421D01*
X115668188Y-112379225D01*
X115553454Y-112455888D01*
X115553432Y-112455907D01*
X114427085Y-113582254D01*
X114427084Y-113582257D01*
X114398374Y-113603750D01*
X114378510Y-113614597D01*
X114321710Y-113629959D01*
X114317180Y-113630088D01*
X114309557Y-113629597D01*
X114309136Y-113629689D01*
X114308750Y-113629545D01*
X114293883Y-113628588D01*
X114201536Y-113613962D01*
X114110222Y-113599500D01*
X114110220Y-113599500D01*
X113889781Y-113599500D01*
X113889778Y-113599500D01*
X113801363Y-113613503D01*
X113686030Y-113631770D01*
X113686021Y-113631772D01*
X113672049Y-113633985D01*
X113672046Y-113633985D01*
X113672045Y-113633986D01*
X113661946Y-113637267D01*
X113661934Y-113637270D01*
X113462403Y-113702100D01*
X113462293Y-113702155D01*
X113265976Y-113802185D01*
X113265975Y-113802186D01*
X113089680Y-113930271D01*
X113088137Y-113931345D01*
X113087622Y-113931767D01*
X112931767Y-114087622D01*
X112931345Y-114088137D01*
X112930271Y-114089680D01*
X112802186Y-114265975D01*
X112802185Y-114265976D01*
X112702155Y-114462293D01*
X112702100Y-114462403D01*
X112633994Y-114672017D01*
X112633984Y-114672052D01*
X112613459Y-114801642D01*
X112599500Y-114889778D01*
X109594668Y-114889778D01*
X109594763Y-114883046D01*
X109596232Y-114878290D01*
X109597296Y-114833635D01*
X109637090Y-114774839D01*
X109702354Y-114746891D01*
X109717313Y-114746000D01*
X110707999Y-114746000D01*
X110707999Y-113999491D01*
X110698973Y-113911134D01*
X110697394Y-113895681D01*
X110641657Y-113727474D01*
X110548633Y-113576660D01*
X110548628Y-113576654D01*
X110548622Y-113576648D01*
X110548612Y-113576637D01*
X110423361Y-113451386D01*
X110423350Y-113451376D01*
X110423345Y-113451371D01*
X110423339Y-113451366D01*
X110272525Y-113358342D01*
X110104321Y-113302606D01*
X110104318Y-113302605D01*
X110000515Y-113292000D01*
X109254000Y-113292000D01*
X109254000Y-114282687D01*
X109233998Y-114350808D01*
X109180342Y-114397301D01*
X109110068Y-114407405D01*
X109095390Y-114404394D01*
X109078991Y-114400000D01*
X108921009Y-114400000D01*
X108921008Y-114400000D01*
X108904610Y-114404394D01*
X108833634Y-114402704D01*
X108774838Y-114362909D01*
X108746891Y-114297644D01*
X108746000Y-114282687D01*
X108746000Y-113292000D01*
X107999492Y-113292000D01*
X107895682Y-113302604D01*
X107727473Y-113358342D01*
X107576664Y-113451363D01*
X107576648Y-113451376D01*
X107576637Y-113451386D01*
X107451386Y-113576637D01*
X107451376Y-113576648D01*
X107451363Y-113576664D01*
X107358342Y-113727474D01*
X107307209Y-113881788D01*
X107302606Y-113895678D01*
X107302605Y-113895681D01*
X107292000Y-113999484D01*
X101000000Y-113999484D01*
X101000000Y-105549778D01*
X107599500Y-105549778D01*
X107599500Y-105770222D01*
X107618328Y-105889096D01*
X107633984Y-105987947D01*
X107633990Y-105987971D01*
X107634089Y-105988272D01*
X107676206Y-106117896D01*
X107693052Y-106169745D01*
X107702105Y-106197607D01*
X107802185Y-106394023D01*
X107802189Y-106394029D01*
X107817998Y-106415787D01*
X107825388Y-106425959D01*
X107930288Y-106570342D01*
X107931475Y-106572047D01*
X107931665Y-106572274D01*
X108087626Y-106728235D01*
X108088126Y-106728645D01*
X108089653Y-106729708D01*
X108265978Y-106857815D01*
X108462394Y-106957895D01*
X108672049Y-107026015D01*
X108889778Y-107060500D01*
X108889781Y-107060500D01*
X109110219Y-107060500D01*
X109110222Y-107060500D01*
X109327951Y-107026015D01*
X109537606Y-106957895D01*
X109734022Y-106857815D01*
X109912365Y-106728242D01*
X110068242Y-106572365D01*
X110197815Y-106394022D01*
X110297895Y-106197606D01*
X110366015Y-105987951D01*
X110400500Y-105770222D01*
X110400500Y-105549778D01*
X110366015Y-105332049D01*
X110297895Y-105122394D01*
X110197815Y-104925978D01*
X110068242Y-104747635D01*
X110068239Y-104747632D01*
X110068237Y-104747629D01*
X110068236Y-104747628D01*
X110068234Y-104747625D01*
X109912376Y-104591767D01*
X109911868Y-104591350D01*
X109910342Y-104590288D01*
X109734022Y-104462185D01*
X109537606Y-104362105D01*
X109537603Y-104362104D01*
X109537601Y-104362103D01*
X109328272Y-104294089D01*
X109327971Y-104293990D01*
X109327947Y-104293984D01*
X109233142Y-104278968D01*
X109110222Y-104259500D01*
X109110219Y-104259500D01*
X108889781Y-104259500D01*
X108889778Y-104259500D01*
X108801363Y-104273503D01*
X108686030Y-104291770D01*
X108686021Y-104291772D01*
X108672049Y-104293985D01*
X108672046Y-104293985D01*
X108672045Y-104293986D01*
X108661946Y-104297267D01*
X108661934Y-104297270D01*
X108462403Y-104362100D01*
X108462293Y-104362155D01*
X108265976Y-104462185D01*
X108265975Y-104462186D01*
X108089680Y-104590271D01*
X108088137Y-104591345D01*
X108087622Y-104591767D01*
X107931767Y-104747622D01*
X107931345Y-104748137D01*
X107930271Y-104749680D01*
X107802187Y-104925974D01*
X107802185Y-104925976D01*
X107702155Y-105122293D01*
X107702100Y-105122403D01*
X107633994Y-105332017D01*
X107633984Y-105332052D01*
X107628153Y-105368870D01*
X107599500Y-105549778D01*
X101000000Y-105549778D01*
X101000000Y-103874038D01*
X115399500Y-103874038D01*
X115399500Y-104125962D01*
X115420651Y-104259500D01*
X115436901Y-104362101D01*
X115438911Y-104374790D01*
X115438911Y-104374793D01*
X115509409Y-104591761D01*
X115516756Y-104614372D01*
X115516757Y-104614374D01*
X115516759Y-104614379D01*
X115594648Y-104767244D01*
X115631132Y-104838848D01*
X115777724Y-105040615D01*
X115777725Y-105040616D01*
X115779212Y-105042663D01*
X115957335Y-105220786D01*
X115957835Y-105221196D01*
X115959362Y-105222259D01*
X116161155Y-105368870D01*
X116385621Y-105483241D01*
X116625215Y-105561090D01*
X116874038Y-105600500D01*
X116874041Y-105600500D01*
X117125959Y-105600500D01*
X117125962Y-105600500D01*
X117374785Y-105561090D01*
X117614379Y-105483241D01*
X117838845Y-105368870D01*
X118042656Y-105220793D01*
X118220793Y-105042656D01*
X118312020Y-104917090D01*
X118337009Y-104891377D01*
X118354937Y-104877553D01*
X118408637Y-104853498D01*
X118412043Y-104852858D01*
X118413096Y-104852661D01*
X118420690Y-104851954D01*
X118421093Y-104851798D01*
X118421496Y-104851879D01*
X118436330Y-104850500D01*
X126163939Y-104850500D01*
X126199430Y-104855602D01*
X126229525Y-104864438D01*
X126268844Y-104883954D01*
X126290309Y-104899796D01*
X126325778Y-104925974D01*
X126325779Y-104925974D01*
X126362119Y-104952794D01*
X126468011Y-104989847D01*
X126468013Y-104989848D01*
X126499834Y-105006389D01*
X126512741Y-105015646D01*
X126556437Y-105071597D01*
X126560630Y-105082173D01*
X126569500Y-105128611D01*
X126569500Y-110373851D01*
X126564396Y-110409350D01*
X126556866Y-110434994D01*
X126525065Y-110488590D01*
X126430591Y-110583063D01*
X126430589Y-110583066D01*
X126328770Y-110723207D01*
X126250131Y-110877544D01*
X126250130Y-110877546D01*
X126250130Y-110877547D01*
X126250127Y-110877556D01*
X126217928Y-110976654D01*
X126212595Y-110993065D01*
X126196598Y-111042296D01*
X126192317Y-111069326D01*
X126169500Y-111213389D01*
X126169500Y-111386611D01*
X126196598Y-111557701D01*
X126248937Y-111718784D01*
X126250121Y-111722426D01*
X126250129Y-111722451D01*
X126288414Y-111797589D01*
X126328768Y-111876788D01*
X126430587Y-112016930D01*
X126430589Y-112016932D01*
X126430591Y-112016935D01*
X126553062Y-112139406D01*
X126553574Y-112139825D01*
X126555121Y-112140902D01*
X126693212Y-112241232D01*
X126847555Y-112319873D01*
X127012299Y-112373402D01*
X127183389Y-112400500D01*
X127183392Y-112400500D01*
X127356608Y-112400500D01*
X127356611Y-112400500D01*
X127527701Y-112373402D01*
X127692445Y-112319873D01*
X127846788Y-112241232D01*
X127986928Y-112139414D01*
X128109414Y-112016928D01*
X128211232Y-111876788D01*
X128289873Y-111722445D01*
X128343402Y-111557701D01*
X128370500Y-111386611D01*
X128370500Y-111213389D01*
X128343402Y-111042299D01*
X128289873Y-110877555D01*
X128211232Y-110723212D01*
X128109414Y-110583072D01*
X128109412Y-110583069D01*
X128019617Y-110493274D01*
X128019054Y-110492696D01*
X128018378Y-110491419D01*
X127998723Y-110465163D01*
X127996225Y-110460589D01*
X127985912Y-110441701D01*
X127970500Y-110381316D01*
X127970500Y-106300996D01*
X163342000Y-106300996D01*
X163342000Y-106499003D01*
X163372977Y-106694585D01*
X163372978Y-106694588D01*
X163434166Y-106882905D01*
X163524053Y-107059322D01*
X163524058Y-107059330D01*
X163548212Y-107092575D01*
X164077891Y-106562895D01*
X164140200Y-106528873D01*
X164211015Y-106533937D01*
X164267851Y-106576484D01*
X164276102Y-106588993D01*
X164299922Y-106630251D01*
X164299930Y-106630261D01*
X164369738Y-106700069D01*
X164369742Y-106700072D01*
X164369745Y-106700075D01*
X164411003Y-106723895D01*
X164459996Y-106775277D01*
X164473433Y-106844990D01*
X164447046Y-106910901D01*
X164437098Y-106922109D01*
X163907423Y-107451783D01*
X163907423Y-107451785D01*
X163907423Y-107451787D01*
X163940660Y-107475935D01*
X164117097Y-107565834D01*
X164305414Y-107627022D01*
X164500996Y-107658000D01*
X164699002Y-107658000D01*
X164699004Y-107658000D01*
X164894585Y-107627022D01*
X165082902Y-107565834D01*
X165259026Y-107476094D01*
X165259322Y-107475945D01*
X165259333Y-107475937D01*
X165259337Y-107475936D01*
X165259339Y-107475935D01*
X165292575Y-107451787D01*
X165292576Y-107451786D01*
X164762898Y-106922108D01*
X164728875Y-106859798D01*
X164733939Y-106788983D01*
X164776486Y-106732147D01*
X164788986Y-106723901D01*
X164830255Y-106700075D01*
X164900075Y-106630255D01*
X164923898Y-106588993D01*
X164975277Y-106540002D01*
X165044991Y-106526565D01*
X165110902Y-106552951D01*
X165122109Y-106562898D01*
X165651786Y-107092576D01*
X165651787Y-107092576D01*
X165651788Y-107092574D01*
X165675091Y-107060500D01*
X165675935Y-107059339D01*
X165675936Y-107059337D01*
X165675940Y-107059330D01*
X165675945Y-107059322D01*
X165676094Y-107059026D01*
X165765834Y-106882902D01*
X165827022Y-106694585D01*
X165858000Y-106499003D01*
X165858000Y-106300996D01*
X165827022Y-106105414D01*
X165765834Y-105917097D01*
X165675935Y-105740660D01*
X165651787Y-105707423D01*
X165651783Y-105707423D01*
X165122109Y-106237098D01*
X165059797Y-106271124D01*
X164988982Y-106266059D01*
X164932146Y-106223512D01*
X164923897Y-106211006D01*
X164900075Y-106169745D01*
X164900072Y-106169742D01*
X164900069Y-106169738D01*
X164830261Y-106099930D01*
X164830251Y-106099922D01*
X164788994Y-106076103D01*
X164740001Y-106024721D01*
X164726564Y-105955007D01*
X164752951Y-105889096D01*
X164762894Y-105877894D01*
X165292575Y-105348212D01*
X165259330Y-105324058D01*
X165259327Y-105324056D01*
X165259325Y-105324055D01*
X165082905Y-105234166D01*
X164894588Y-105172978D01*
X164894585Y-105172977D01*
X164699004Y-105142000D01*
X164699001Y-105142000D01*
X164500999Y-105142000D01*
X164500996Y-105142000D01*
X164305414Y-105172977D01*
X164305411Y-105172977D01*
X164305410Y-105172978D01*
X164117093Y-105234166D01*
X163940669Y-105324057D01*
X163940580Y-105324113D01*
X163939891Y-105324622D01*
X163907421Y-105348211D01*
X163907422Y-105348211D01*
X163907422Y-105348212D01*
X164437100Y-105877890D01*
X164471124Y-105940201D01*
X164466060Y-106011016D01*
X164423513Y-106067852D01*
X164411006Y-106076102D01*
X164369748Y-106099922D01*
X164369738Y-106099930D01*
X164299930Y-106169738D01*
X164299926Y-106169744D01*
X164299925Y-106169745D01*
X164299924Y-106169747D01*
X164276102Y-106211006D01*
X164224719Y-106259998D01*
X164155005Y-106273433D01*
X164089095Y-106247046D01*
X164077896Y-106237106D01*
X163548212Y-105707422D01*
X163548211Y-105707421D01*
X163524622Y-105739891D01*
X163524113Y-105740580D01*
X163524057Y-105740669D01*
X163434166Y-105917093D01*
X163372978Y-106105410D01*
X163372977Y-106105414D01*
X163342000Y-106300996D01*
X127970500Y-106300996D01*
X127970500Y-105082442D01*
X127975602Y-105046950D01*
X127980633Y-105029814D01*
X128016298Y-104972515D01*
X128030843Y-104959158D01*
X128030842Y-104959157D01*
X128032354Y-104957769D01*
X128042747Y-104949202D01*
X128138614Y-104878449D01*
X128145734Y-104874068D01*
X128147151Y-104872148D01*
X128147152Y-104872148D01*
X128224584Y-104767230D01*
X128228621Y-104762226D01*
X128231379Y-104755706D01*
X128242142Y-104734180D01*
X128247641Y-104706157D01*
X128262670Y-104663211D01*
X128267987Y-104648013D01*
X128272646Y-104634699D01*
X128275500Y-104604266D01*
X128275500Y-103695734D01*
X128272646Y-103665301D01*
X128227793Y-103537118D01*
X128227791Y-103537114D01*
X128216714Y-103522105D01*
X128147150Y-103427848D01*
X128037890Y-103347211D01*
X128037886Y-103347209D01*
X128037885Y-103347208D01*
X128037881Y-103347206D01*
X128037879Y-103347205D01*
X128037875Y-103347203D01*
X127909717Y-103302358D01*
X127909701Y-103302354D01*
X127909703Y-103302354D01*
X127886874Y-103300213D01*
X127879266Y-103299500D01*
X127879265Y-103299500D01*
X126520733Y-103299500D01*
X126490295Y-103302354D01*
X126490281Y-103302358D01*
X126378796Y-103341368D01*
X126378789Y-103341372D01*
X126362118Y-103347206D01*
X126362117Y-103347206D01*
X126269474Y-103415580D01*
X126267397Y-103416991D01*
X126264194Y-103418019D01*
X126239861Y-103431093D01*
X126210410Y-103441851D01*
X126167178Y-103449500D01*
X118611117Y-103449500D01*
X118575616Y-103444395D01*
X118558974Y-103439508D01*
X118544254Y-103430269D01*
X118528643Y-103426047D01*
X118501042Y-103403148D01*
X118491969Y-103393120D01*
X118473135Y-103365788D01*
X118463667Y-103347206D01*
X118368870Y-103161155D01*
X118220793Y-102957344D01*
X118220790Y-102957341D01*
X118220788Y-102957338D01*
X118220787Y-102957337D01*
X118220785Y-102957334D01*
X118042667Y-102779216D01*
X118042154Y-102778795D01*
X118040615Y-102777724D01*
X117838848Y-102631132D01*
X117838847Y-102631131D01*
X117838845Y-102631130D01*
X117614379Y-102516759D01*
X117614376Y-102516758D01*
X117614374Y-102516757D01*
X117521069Y-102486440D01*
X117374804Y-102438915D01*
X117374777Y-102438907D01*
X117374438Y-102438822D01*
X117372636Y-102438569D01*
X117208565Y-102412583D01*
X117125962Y-102399500D01*
X117125960Y-102399500D01*
X116874041Y-102399500D01*
X116874038Y-102399500D01*
X116625215Y-102438910D01*
X116625209Y-102438911D01*
X116625206Y-102438911D01*
X116625205Y-102438912D01*
X116385624Y-102516757D01*
X116161147Y-102631134D01*
X115959389Y-102777720D01*
X115957846Y-102778794D01*
X115957331Y-102779216D01*
X115779216Y-102957331D01*
X115778794Y-102957846D01*
X115777720Y-102959389D01*
X115631134Y-103161147D01*
X115516757Y-103385624D01*
X115438910Y-103625211D01*
X115438607Y-103626726D01*
X115438334Y-103628850D01*
X115399500Y-103874038D01*
X101000000Y-103874038D01*
X101000000Y-101500516D01*
X125817000Y-101500516D01*
X125827605Y-101604318D01*
X125827606Y-101604321D01*
X125883342Y-101772525D01*
X125883343Y-101772526D01*
X125976362Y-101923335D01*
X125976363Y-101923337D01*
X125976365Y-101923339D01*
X125976370Y-101923345D01*
X125976375Y-101923350D01*
X125976385Y-101923361D01*
X126101637Y-102048613D01*
X126101648Y-102048623D01*
X126101654Y-102048629D01*
X126101660Y-102048634D01*
X126252474Y-102141657D01*
X126420678Y-102197393D01*
X126420681Y-102197394D01*
X126482057Y-102203664D01*
X126484191Y-102203957D01*
X126493201Y-102208000D01*
X126524483Y-102208000D01*
X126946000Y-102208000D01*
X127454000Y-102208000D01*
X127875517Y-102208000D01*
X127922826Y-102208000D01*
X127935692Y-102204424D01*
X127943728Y-102201207D01*
X127947015Y-102200694D01*
X127979318Y-102197394D01*
X127979321Y-102197393D01*
X128147525Y-102141657D01*
X128298339Y-102048634D01*
X128298345Y-102048629D01*
X128423629Y-101923345D01*
X128423634Y-101923339D01*
X128516657Y-101772525D01*
X128572393Y-101604321D01*
X128572394Y-101604318D01*
X128578668Y-101542901D01*
X128578965Y-101540747D01*
X128583000Y-101531766D01*
X128583000Y-101304000D01*
X127454000Y-101304000D01*
X127454000Y-102208000D01*
X126946000Y-102208000D01*
X126946000Y-101304000D01*
X125817000Y-101304000D01*
X125817000Y-101500516D01*
X101000000Y-101500516D01*
X101000000Y-100599483D01*
X125817000Y-100599483D01*
X125817000Y-100796000D01*
X126946000Y-100796000D01*
X127454000Y-100796000D01*
X128583000Y-100796000D01*
X128583000Y-100599483D01*
X128572394Y-100495681D01*
X128572393Y-100495678D01*
X128516657Y-100327474D01*
X128423634Y-100176660D01*
X128423629Y-100176654D01*
X128423623Y-100176648D01*
X128423613Y-100176637D01*
X128298361Y-100051385D01*
X128298350Y-100051375D01*
X128298345Y-100051370D01*
X128298339Y-100051365D01*
X128298337Y-100051363D01*
X128298335Y-100051362D01*
X128210616Y-99997257D01*
X128147525Y-99958342D01*
X127979321Y-99902606D01*
X127979318Y-99902605D01*
X127875516Y-99892000D01*
X127454000Y-99892000D01*
X127454000Y-100796000D01*
X126946000Y-100796000D01*
X126946000Y-99892000D01*
X126524483Y-99892000D01*
X126420681Y-99902605D01*
X126420678Y-99902606D01*
X126252474Y-99958342D01*
X126252472Y-99958342D01*
X126252472Y-99958343D01*
X126101663Y-100051362D01*
X126101648Y-100051375D01*
X126101637Y-100051385D01*
X125976385Y-100176637D01*
X125976375Y-100176648D01*
X125976362Y-100176663D01*
X125883343Y-100327472D01*
X125883342Y-100327474D01*
X125831632Y-100483526D01*
X125831631Y-100483529D01*
X125827606Y-100495678D01*
X125827605Y-100495681D01*
X125817000Y-100599483D01*
X101000000Y-100599483D01*
X101000000Y-85229778D01*
X107599500Y-85229778D01*
X107599500Y-85450222D01*
X107618427Y-85569720D01*
X107633984Y-85667947D01*
X107633990Y-85667971D01*
X107634089Y-85668272D01*
X107676205Y-85797895D01*
X107676205Y-85797896D01*
X107702103Y-85877602D01*
X107702104Y-85877605D01*
X107702105Y-85877606D01*
X107802185Y-86074022D01*
X107931758Y-86252365D01*
X107931764Y-86252373D01*
X108087626Y-86408235D01*
X108088126Y-86408645D01*
X108089653Y-86409708D01*
X108265978Y-86537815D01*
X108462394Y-86637895D01*
X108672049Y-86706015D01*
X108889778Y-86740500D01*
X108889781Y-86740500D01*
X109110219Y-86740500D01*
X109110222Y-86740500D01*
X109327951Y-86706015D01*
X109537606Y-86637895D01*
X109734022Y-86537815D01*
X109912365Y-86408242D01*
X110068242Y-86252365D01*
X110197815Y-86074022D01*
X110297895Y-85877606D01*
X110366015Y-85667951D01*
X110400500Y-85450222D01*
X110400500Y-85229778D01*
X110366015Y-85012049D01*
X110297895Y-84802394D01*
X110197815Y-84605978D01*
X110068242Y-84427635D01*
X110068239Y-84427632D01*
X110068237Y-84427629D01*
X110068236Y-84427628D01*
X110068234Y-84427625D01*
X109912376Y-84271767D01*
X109911868Y-84271350D01*
X109910342Y-84270288D01*
X109734022Y-84142185D01*
X109537606Y-84042105D01*
X109537603Y-84042104D01*
X109537601Y-84042103D01*
X109328272Y-83974089D01*
X109327971Y-83973990D01*
X109327947Y-83973984D01*
X109233142Y-83958968D01*
X109110222Y-83939500D01*
X109110219Y-83939500D01*
X108889781Y-83939500D01*
X108889778Y-83939500D01*
X108801363Y-83953503D01*
X108686030Y-83971770D01*
X108686021Y-83971772D01*
X108672049Y-83973985D01*
X108672046Y-83973985D01*
X108672045Y-83973986D01*
X108661946Y-83977267D01*
X108661934Y-83977270D01*
X108462403Y-84042100D01*
X108462293Y-84042155D01*
X108265976Y-84142185D01*
X108265975Y-84142186D01*
X108089680Y-84270271D01*
X108088137Y-84271345D01*
X108087622Y-84271767D01*
X107931767Y-84427622D01*
X107931345Y-84428137D01*
X107930271Y-84429680D01*
X107802186Y-84605975D01*
X107802185Y-84605976D01*
X107702155Y-84802293D01*
X107702102Y-84802398D01*
X107694006Y-84827317D01*
X107693801Y-84827951D01*
X107633985Y-85012049D01*
X107599500Y-85229778D01*
X101000000Y-85229778D01*
X101000000Y-70144115D01*
X101005103Y-70108621D01*
X101009577Y-70093382D01*
X101047956Y-70033656D01*
X101049365Y-70032436D01*
X101105086Y-70004549D01*
X101112770Y-70002878D01*
X101139548Y-70000000D01*
X102105385Y-70000000D01*
X102140877Y-70005102D01*
G37*
%TD.AperFunction*%
%TD*%
%TA.AperFunction,Conductor*%
%TO.N,/+15VDC*%
G36*
X178426913Y-103019962D02*
G01*
X178481451Y-103074500D01*
X178501405Y-103147579D01*
X178521401Y-105247195D01*
X178568739Y-110217711D01*
X178549487Y-110292398D01*
X178495471Y-110347452D01*
X178421165Y-110368123D01*
X178346478Y-110348871D01*
X178314387Y-110324489D01*
X178222035Y-110232137D01*
X178043761Y-110102614D01*
X177847418Y-110002571D01*
X177847403Y-110002565D01*
X177637836Y-109934473D01*
X177560000Y-109922145D01*
X177560000Y-110809252D01*
X177522292Y-110787482D01*
X177382409Y-110750000D01*
X177237591Y-110750000D01*
X177097708Y-110787482D01*
X177060000Y-110809252D01*
X177060000Y-109922145D01*
X176982163Y-109934473D01*
X176772596Y-110002565D01*
X176772581Y-110002571D01*
X176576238Y-110102614D01*
X176397964Y-110232137D01*
X176242137Y-110387964D01*
X176112614Y-110566238D01*
X176012571Y-110762581D01*
X176010332Y-110767990D01*
X176008079Y-110767057D01*
X175972039Y-110822382D01*
X175903268Y-110857300D01*
X175826251Y-110853154D01*
X175761626Y-110811055D01*
X175739738Y-110779159D01*
X175711232Y-110723212D01*
X175711230Y-110723208D01*
X175609416Y-110583075D01*
X175609414Y-110583072D01*
X175486928Y-110460586D01*
X175419681Y-110411728D01*
X175346793Y-110358771D01*
X175346790Y-110358769D01*
X175346788Y-110358768D01*
X175192445Y-110280127D01*
X175144821Y-110264653D01*
X175027700Y-110226597D01*
X174930086Y-110211137D01*
X174856611Y-110199500D01*
X174683389Y-110199500D01*
X174617037Y-110210009D01*
X174512299Y-110226597D01*
X174347561Y-110280125D01*
X174347555Y-110280127D01*
X174347549Y-110280129D01*
X174347549Y-110280130D01*
X174193206Y-110358771D01*
X174053075Y-110460583D01*
X174053062Y-110460595D01*
X173957798Y-110555859D01*
X173891003Y-110594423D01*
X173852440Y-110599500D01*
X170506586Y-110599500D01*
X170432086Y-110579538D01*
X170377548Y-110525000D01*
X170374785Y-110519995D01*
X170369611Y-110510184D01*
X170352793Y-110462118D01*
X170322940Y-110421669D01*
X170317699Y-110411728D01*
X170311559Y-110384706D01*
X170301437Y-110358915D01*
X170300500Y-110342233D01*
X170300500Y-107105283D01*
X170320462Y-107030783D01*
X170334319Y-107010762D01*
X170338298Y-107005913D01*
X170338300Y-107005909D01*
X170338302Y-107005908D01*
X170442322Y-106850231D01*
X170513973Y-106677251D01*
X170550500Y-106493616D01*
X170550500Y-106306384D01*
X170513973Y-106122749D01*
X170442322Y-105949769D01*
X170338302Y-105794092D01*
X170205908Y-105661698D01*
X170154015Y-105627024D01*
X170050235Y-105557680D01*
X170050226Y-105557675D01*
X169913073Y-105500865D01*
X169877251Y-105486027D01*
X169877249Y-105486026D01*
X169877248Y-105486026D01*
X169693616Y-105449500D01*
X169506384Y-105449500D01*
X169322751Y-105486026D01*
X169149773Y-105557675D01*
X169149764Y-105557680D01*
X168994093Y-105661697D01*
X168994088Y-105661701D01*
X168861701Y-105794088D01*
X168861697Y-105794093D01*
X168757680Y-105949764D01*
X168757675Y-105949773D01*
X168686026Y-106122751D01*
X168649500Y-106306383D01*
X168649500Y-106493616D01*
X168686026Y-106677248D01*
X168757675Y-106850226D01*
X168757680Y-106850235D01*
X168861701Y-107005913D01*
X168865681Y-107010762D01*
X168897511Y-107081016D01*
X168899500Y-107105283D01*
X168899500Y-110224751D01*
X168879538Y-110299251D01*
X168838983Y-110344633D01*
X168827851Y-110352848D01*
X168827846Y-110352853D01*
X168747207Y-110462116D01*
X168702353Y-110590304D01*
X168699500Y-110620724D01*
X168699500Y-111979275D01*
X168702353Y-112009695D01*
X168747207Y-112137883D01*
X168827848Y-112247148D01*
X168827851Y-112247151D01*
X168937116Y-112327792D01*
X168937117Y-112327792D01*
X168937118Y-112327793D01*
X169065301Y-112372646D01*
X169095734Y-112375500D01*
X169095741Y-112375500D01*
X170004259Y-112375500D01*
X170004266Y-112375500D01*
X170034699Y-112372646D01*
X170162882Y-112327793D01*
X170272150Y-112247150D01*
X170352793Y-112137882D01*
X170365947Y-112100290D01*
X170409394Y-112036563D01*
X170478884Y-112003098D01*
X170506586Y-112000500D01*
X173852440Y-112000500D01*
X173926940Y-112020462D01*
X173957798Y-112044141D01*
X174013948Y-112100290D01*
X174053072Y-112139414D01*
X174193212Y-112241232D01*
X174347555Y-112319873D01*
X174512299Y-112373402D01*
X174683389Y-112400500D01*
X174683393Y-112400500D01*
X174856607Y-112400500D01*
X174856611Y-112400500D01*
X175027701Y-112373402D01*
X175192445Y-112319873D01*
X175346788Y-112241232D01*
X175486928Y-112139414D01*
X175609414Y-112016928D01*
X175711232Y-111876788D01*
X175739738Y-111820839D01*
X175791343Y-111763526D01*
X175864696Y-111739691D01*
X175940139Y-111755726D01*
X175997457Y-111807334D01*
X176009420Y-111832387D01*
X176010332Y-111832010D01*
X176012571Y-111837418D01*
X176112614Y-112033761D01*
X176242137Y-112212035D01*
X176397964Y-112367862D01*
X176576238Y-112497385D01*
X176772581Y-112597428D01*
X176772593Y-112597432D01*
X176982161Y-112665525D01*
X176982161Y-112665526D01*
X177060000Y-112677853D01*
X177060000Y-111790747D01*
X177097708Y-111812518D01*
X177237591Y-111850000D01*
X177382409Y-111850000D01*
X177522292Y-111812518D01*
X177560000Y-111790747D01*
X177560000Y-112677853D01*
X177637838Y-112665526D01*
X177637838Y-112665525D01*
X177847406Y-112597432D01*
X177847418Y-112597428D01*
X178043761Y-112497385D01*
X178222039Y-112367859D01*
X178334781Y-112255117D01*
X178401575Y-112216552D01*
X178478703Y-112216552D01*
X178545498Y-112255116D01*
X178584063Y-112321910D01*
X178589133Y-112359056D01*
X178598567Y-113349581D01*
X178579315Y-113424268D01*
X178525300Y-113479322D01*
X178450993Y-113499993D01*
X178449574Y-113500000D01*
X167849000Y-113500000D01*
X167774500Y-113480038D01*
X167719962Y-113425500D01*
X167700000Y-113351000D01*
X167700000Y-109000000D01*
X167249000Y-109000000D01*
X167174500Y-108980038D01*
X167119962Y-108925500D01*
X167100000Y-108851000D01*
X167100000Y-103149000D01*
X167119962Y-103074500D01*
X167174500Y-103019962D01*
X167249000Y-103000000D01*
X178352413Y-103000000D01*
X178426913Y-103019962D01*
G37*
%TD.AperFunction*%
%TD*%
%TA.AperFunction,Conductor*%
%TO.N,/-15VDC*%
G36*
X140076304Y-112799671D02*
G01*
X140143289Y-112819534D01*
X140188904Y-112872459D01*
X140199973Y-112923697D01*
X140198455Y-120078333D01*
X140178756Y-120145369D01*
X140125943Y-120191112D01*
X140074429Y-120202307D01*
X129200000Y-120199999D01*
X129200000Y-120876000D01*
X129180315Y-120943039D01*
X129127511Y-120988794D01*
X129076000Y-121000000D01*
X122724000Y-121000000D01*
X122656961Y-120980315D01*
X122611206Y-120927511D01*
X122600000Y-120876000D01*
X122600000Y-118506379D01*
X125249500Y-118506379D01*
X125249500Y-118693620D01*
X125286025Y-118877243D01*
X125286027Y-118877251D01*
X125357676Y-119050228D01*
X125357681Y-119050237D01*
X125461697Y-119205907D01*
X125461700Y-119205911D01*
X125594088Y-119338299D01*
X125594092Y-119338302D01*
X125749762Y-119442318D01*
X125749768Y-119442321D01*
X125749769Y-119442322D01*
X125922749Y-119513973D01*
X126106379Y-119550499D01*
X126106383Y-119550500D01*
X126106384Y-119550500D01*
X126293617Y-119550500D01*
X126293618Y-119550499D01*
X126477251Y-119513973D01*
X126650231Y-119442322D01*
X126805908Y-119338302D01*
X126805911Y-119338299D01*
X126807392Y-119336819D01*
X126808358Y-119336291D01*
X126810618Y-119334437D01*
X126810969Y-119334865D01*
X126868715Y-119303334D01*
X126895073Y-119300500D01*
X131779270Y-119300500D01*
X131809699Y-119297646D01*
X131809701Y-119297646D01*
X131873790Y-119275219D01*
X131937882Y-119252793D01*
X132047150Y-119172150D01*
X132127793Y-119062882D01*
X132150219Y-118998790D01*
X132172646Y-118934701D01*
X132172646Y-118934699D01*
X132175500Y-118904269D01*
X132175500Y-117995730D01*
X132172646Y-117965300D01*
X132172646Y-117965298D01*
X132136913Y-117863181D01*
X132127793Y-117837118D01*
X132047150Y-117727850D01*
X131937882Y-117647207D01*
X131937880Y-117647206D01*
X131863545Y-117621195D01*
X131806769Y-117580473D01*
X131781022Y-117515520D01*
X131780500Y-117504154D01*
X131780500Y-115907204D01*
X131800185Y-115840165D01*
X131816819Y-115819523D01*
X131838696Y-115797646D01*
X131919414Y-115716928D01*
X132021232Y-115576788D01*
X132077137Y-115467066D01*
X132125109Y-115416272D01*
X132192930Y-115399476D01*
X132259065Y-115422013D01*
X132302517Y-115476727D01*
X132305552Y-115485043D01*
X132322568Y-115537411D01*
X132422613Y-115733760D01*
X132552142Y-115912041D01*
X132707958Y-116067857D01*
X132886239Y-116197386D01*
X133082589Y-116297432D01*
X133292163Y-116365526D01*
X133369999Y-116377854D01*
X133370000Y-116377854D01*
X133370000Y-115490747D01*
X133407708Y-115512518D01*
X133547591Y-115550000D01*
X133692409Y-115550000D01*
X133832292Y-115512518D01*
X133870000Y-115490747D01*
X133870000Y-116377854D01*
X133947834Y-116365526D01*
X133947837Y-116365526D01*
X134157410Y-116297432D01*
X134353760Y-116197386D01*
X134532041Y-116067857D01*
X134687857Y-115912041D01*
X134817386Y-115733760D01*
X134917432Y-115537410D01*
X134985526Y-115327838D01*
X134985526Y-115327835D01*
X134997855Y-115250000D01*
X134110748Y-115250000D01*
X134132518Y-115212292D01*
X134170000Y-115072409D01*
X134170000Y-114927591D01*
X134132518Y-114787708D01*
X134110748Y-114750000D01*
X134997855Y-114750000D01*
X134985526Y-114672164D01*
X134985526Y-114672161D01*
X134917432Y-114462589D01*
X134817386Y-114266239D01*
X134687857Y-114087958D01*
X134532041Y-113932142D01*
X134353760Y-113802613D01*
X134157410Y-113702567D01*
X133947836Y-113634473D01*
X133870000Y-113622144D01*
X133870000Y-114509252D01*
X133832292Y-114487482D01*
X133692409Y-114450000D01*
X133547591Y-114450000D01*
X133407708Y-114487482D01*
X133370000Y-114509252D01*
X133370000Y-113622144D01*
X133292164Y-113634473D01*
X133292161Y-113634473D01*
X133082589Y-113702567D01*
X132886239Y-113802613D01*
X132707958Y-113932142D01*
X132552142Y-114087958D01*
X132422613Y-114266239D01*
X132322566Y-114462592D01*
X132305551Y-114514957D01*
X132266113Y-114572632D01*
X132201754Y-114599829D01*
X132132908Y-114587914D01*
X132081433Y-114540669D01*
X132077136Y-114532931D01*
X132021233Y-114423213D01*
X132005937Y-114402160D01*
X131919414Y-114283072D01*
X131796928Y-114160586D01*
X131656788Y-114058768D01*
X131502445Y-113980127D01*
X131337701Y-113926598D01*
X131337699Y-113926597D01*
X131337698Y-113926597D01*
X131206271Y-113905781D01*
X131166611Y-113899500D01*
X130993389Y-113899500D01*
X130953728Y-113905781D01*
X130822302Y-113926597D01*
X130657552Y-113980128D01*
X130503211Y-114058768D01*
X130423256Y-114116859D01*
X130363072Y-114160586D01*
X130363070Y-114160588D01*
X130363069Y-114160588D01*
X130240588Y-114283069D01*
X130240588Y-114283070D01*
X130240586Y-114283072D01*
X130208053Y-114327850D01*
X130138768Y-114423211D01*
X130060128Y-114577552D01*
X130006597Y-114742302D01*
X130006597Y-114742304D01*
X129979500Y-114913389D01*
X129979500Y-115086611D01*
X130006598Y-115257701D01*
X130060127Y-115422445D01*
X130138768Y-115576788D01*
X130240586Y-115716928D01*
X130240588Y-115716930D01*
X130343181Y-115819523D01*
X130376666Y-115880846D01*
X130379500Y-115907204D01*
X130379500Y-117518150D01*
X130359815Y-117585189D01*
X130307011Y-117630944D01*
X130296457Y-117635191D01*
X130262117Y-117647207D01*
X130152850Y-117727850D01*
X130066689Y-117844595D01*
X130064714Y-117843137D01*
X130025420Y-117883515D01*
X129964520Y-117899500D01*
X126895073Y-117899500D01*
X126828034Y-117879815D01*
X126807392Y-117863181D01*
X126805911Y-117861700D01*
X126805907Y-117861697D01*
X126650237Y-117757681D01*
X126650228Y-117757676D01*
X126477251Y-117686027D01*
X126477243Y-117686025D01*
X126293620Y-117649500D01*
X126293616Y-117649500D01*
X126106384Y-117649500D01*
X126106379Y-117649500D01*
X125922756Y-117686025D01*
X125922748Y-117686027D01*
X125749771Y-117757676D01*
X125749762Y-117757681D01*
X125594092Y-117861697D01*
X125594088Y-117861700D01*
X125461700Y-117994088D01*
X125461697Y-117994092D01*
X125357681Y-118149762D01*
X125357676Y-118149771D01*
X125286027Y-118322748D01*
X125286025Y-118322756D01*
X125249500Y-118506379D01*
X122600000Y-118506379D01*
X122600000Y-116924436D01*
X122619685Y-116857397D01*
X122672489Y-116811642D01*
X122724433Y-116800437D01*
X129547124Y-116824431D01*
X129585845Y-116824568D01*
X129585845Y-116824567D01*
X129585846Y-116824568D01*
X129589760Y-115349768D01*
X129595828Y-115311787D01*
X129613402Y-115257701D01*
X129640500Y-115086611D01*
X129640500Y-114913389D01*
X129613402Y-114742299D01*
X129597671Y-114693885D01*
X129591603Y-114655248D01*
X129596273Y-112895852D01*
X129616136Y-112828868D01*
X129669061Y-112783253D01*
X129720601Y-112772184D01*
X140076304Y-112799671D01*
G37*
%TD.AperFunction*%
%TD*%
M02*
