%TF.GenerationSoftware,KiCad,Pcbnew,10.0.3*%
%TF.CreationDate,2026-09-02T13:03:21+01:00*%
%TF.ProjectId,Dual15PowerSupply,4475616c-3135-4506-9f77-657253757070,0.1.4*%
%TF.SameCoordinates,Original*%
%TF.FileFunction,Legend,Top*%
%TF.FilePolarity,Positive*%
%FSLAX46Y46*%
G04 Gerber Fmt 4.6, Leading zero omitted, Abs format (unit mm)*
G04 Created by KiCad (PCBNEW 10.0.3) date 2026-09-02 13:03:21*
%MOMM*%
%LPD*%
G01*
G04 APERTURE LIST*
%ADD10C,0.300000*%
%ADD11C,0.400000*%
%ADD12C,0.160000*%
%ADD13C,0.150000*%
%ADD14C,0.200000*%
%ADD15C,0.180000*%
%ADD16C,0.120000*%
%ADD17C,0.127000*%
%ADD18C,0.710000*%
G04 APERTURE END LIST*
D10*
X133673558Y-120777733D02*
X135197368Y-120777733D01*
X137197367Y-121539638D02*
X136054510Y-121539638D01*
X136625938Y-121539638D02*
X136625938Y-119539638D01*
X136625938Y-119539638D02*
X136435462Y-119825352D01*
X136435462Y-119825352D02*
X136244986Y-120015828D01*
X136244986Y-120015828D02*
X136054510Y-120111066D01*
X139006891Y-119539638D02*
X138054510Y-119539638D01*
X138054510Y-119539638D02*
X137959272Y-120492019D01*
X137959272Y-120492019D02*
X138054510Y-120396780D01*
X138054510Y-120396780D02*
X138244986Y-120301542D01*
X138244986Y-120301542D02*
X138721177Y-120301542D01*
X138721177Y-120301542D02*
X138911653Y-120396780D01*
X138911653Y-120396780D02*
X139006891Y-120492019D01*
X139006891Y-120492019D02*
X139102129Y-120682495D01*
X139102129Y-120682495D02*
X139102129Y-121158685D01*
X139102129Y-121158685D02*
X139006891Y-121349161D01*
X139006891Y-121349161D02*
X138911653Y-121444400D01*
X138911653Y-121444400D02*
X138721177Y-121539638D01*
X138721177Y-121539638D02*
X138244986Y-121539638D01*
X138244986Y-121539638D02*
X138054510Y-121444400D01*
X138054510Y-121444400D02*
X137959272Y-121349161D01*
X139673558Y-119539638D02*
X140340224Y-121539638D01*
X140340224Y-121539638D02*
X141006891Y-119539638D01*
X158673558Y-120777733D02*
X160197368Y-120777733D01*
X159435463Y-121539638D02*
X159435463Y-120015828D01*
X162197367Y-121539638D02*
X161054510Y-121539638D01*
X161625938Y-121539638D02*
X161625938Y-119539638D01*
X161625938Y-119539638D02*
X161435462Y-119825352D01*
X161435462Y-119825352D02*
X161244986Y-120015828D01*
X161244986Y-120015828D02*
X161054510Y-120111066D01*
X164006891Y-119539638D02*
X163054510Y-119539638D01*
X163054510Y-119539638D02*
X162959272Y-120492019D01*
X162959272Y-120492019D02*
X163054510Y-120396780D01*
X163054510Y-120396780D02*
X163244986Y-120301542D01*
X163244986Y-120301542D02*
X163721177Y-120301542D01*
X163721177Y-120301542D02*
X163911653Y-120396780D01*
X163911653Y-120396780D02*
X164006891Y-120492019D01*
X164006891Y-120492019D02*
X164102129Y-120682495D01*
X164102129Y-120682495D02*
X164102129Y-121158685D01*
X164102129Y-121158685D02*
X164006891Y-121349161D01*
X164006891Y-121349161D02*
X163911653Y-121444400D01*
X163911653Y-121444400D02*
X163721177Y-121539638D01*
X163721177Y-121539638D02*
X163244986Y-121539638D01*
X163244986Y-121539638D02*
X163054510Y-121444400D01*
X163054510Y-121444400D02*
X162959272Y-121349161D01*
X164673558Y-119539638D02*
X165340224Y-121539638D01*
X165340224Y-121539638D02*
X166006891Y-119539638D01*
D11*
X116215537Y-39489676D02*
X116215537Y-35489676D01*
X116215537Y-35489676D02*
X118501252Y-39489676D01*
X118501252Y-39489676D02*
X118501252Y-35489676D01*
X138320299Y-39489676D02*
X136415537Y-39489676D01*
X136415537Y-39489676D02*
X136415537Y-35489676D01*
D12*
X181611904Y-117650560D02*
X182240476Y-117650560D01*
X181926190Y-118750560D02*
X181926190Y-117650560D01*
X182607142Y-118750560D02*
X182607142Y-117650560D01*
X182607142Y-117650560D02*
X183026190Y-117650560D01*
X183026190Y-117650560D02*
X183130952Y-117702941D01*
X183130952Y-117702941D02*
X183183333Y-117755322D01*
X183183333Y-117755322D02*
X183235714Y-117860084D01*
X183235714Y-117860084D02*
X183235714Y-118017227D01*
X183235714Y-118017227D02*
X183183333Y-118121989D01*
X183183333Y-118121989D02*
X183130952Y-118174370D01*
X183130952Y-118174370D02*
X183026190Y-118226751D01*
X183026190Y-118226751D02*
X182607142Y-118226751D01*
X184283333Y-118750560D02*
X183654761Y-118750560D01*
X183969047Y-118750560D02*
X183969047Y-117650560D01*
X183969047Y-117650560D02*
X183864285Y-117807703D01*
X183864285Y-117807703D02*
X183759523Y-117912465D01*
X183759523Y-117912465D02*
X183654761Y-117964846D01*
D13*
X194824819Y-94826666D02*
X194348628Y-95159999D01*
X194824819Y-95398094D02*
X193824819Y-95398094D01*
X193824819Y-95398094D02*
X193824819Y-95017142D01*
X193824819Y-95017142D02*
X193872438Y-94921904D01*
X193872438Y-94921904D02*
X193920057Y-94874285D01*
X193920057Y-94874285D02*
X194015295Y-94826666D01*
X194015295Y-94826666D02*
X194158152Y-94826666D01*
X194158152Y-94826666D02*
X194253390Y-94874285D01*
X194253390Y-94874285D02*
X194301009Y-94921904D01*
X194301009Y-94921904D02*
X194348628Y-95017142D01*
X194348628Y-95017142D02*
X194348628Y-95398094D01*
X193920057Y-94445713D02*
X193872438Y-94398094D01*
X193872438Y-94398094D02*
X193824819Y-94302856D01*
X193824819Y-94302856D02*
X193824819Y-94064761D01*
X193824819Y-94064761D02*
X193872438Y-93969523D01*
X193872438Y-93969523D02*
X193920057Y-93921904D01*
X193920057Y-93921904D02*
X194015295Y-93874285D01*
X194015295Y-93874285D02*
X194110533Y-93874285D01*
X194110533Y-93874285D02*
X194253390Y-93921904D01*
X194253390Y-93921904D02*
X194824819Y-94493332D01*
X194824819Y-94493332D02*
X194824819Y-93874285D01*
D12*
X105800000Y-109432537D02*
X105742857Y-109489680D01*
X105742857Y-109489680D02*
X105571429Y-109546822D01*
X105571429Y-109546822D02*
X105457143Y-109546822D01*
X105457143Y-109546822D02*
X105285714Y-109489680D01*
X105285714Y-109489680D02*
X105171429Y-109375394D01*
X105171429Y-109375394D02*
X105114286Y-109261108D01*
X105114286Y-109261108D02*
X105057143Y-109032537D01*
X105057143Y-109032537D02*
X105057143Y-108861108D01*
X105057143Y-108861108D02*
X105114286Y-108632537D01*
X105114286Y-108632537D02*
X105171429Y-108518251D01*
X105171429Y-108518251D02*
X105285714Y-108403965D01*
X105285714Y-108403965D02*
X105457143Y-108346822D01*
X105457143Y-108346822D02*
X105571429Y-108346822D01*
X105571429Y-108346822D02*
X105742857Y-108403965D01*
X105742857Y-108403965D02*
X105800000Y-108461108D01*
X106828572Y-108746822D02*
X106828572Y-109546822D01*
X106542857Y-108289680D02*
X106257143Y-109146822D01*
X106257143Y-109146822D02*
X107000000Y-109146822D01*
X177150560Y-127388095D02*
X177150560Y-126759523D01*
X178250560Y-127073809D02*
X177150560Y-127073809D01*
X178250560Y-126392857D02*
X177150560Y-126392857D01*
X177150560Y-126392857D02*
X177150560Y-125973809D01*
X177150560Y-125973809D02*
X177202941Y-125869047D01*
X177202941Y-125869047D02*
X177255322Y-125816666D01*
X177255322Y-125816666D02*
X177360084Y-125764285D01*
X177360084Y-125764285D02*
X177517227Y-125764285D01*
X177517227Y-125764285D02*
X177621989Y-125816666D01*
X177621989Y-125816666D02*
X177674370Y-125869047D01*
X177674370Y-125869047D02*
X177726751Y-125973809D01*
X177726751Y-125973809D02*
X177726751Y-126392857D01*
X177255322Y-125345238D02*
X177202941Y-125292857D01*
X177202941Y-125292857D02*
X177150560Y-125188095D01*
X177150560Y-125188095D02*
X177150560Y-124926190D01*
X177150560Y-124926190D02*
X177202941Y-124821428D01*
X177202941Y-124821428D02*
X177255322Y-124769047D01*
X177255322Y-124769047D02*
X177360084Y-124716666D01*
X177360084Y-124716666D02*
X177464846Y-124716666D01*
X177464846Y-124716666D02*
X177621989Y-124769047D01*
X177621989Y-124769047D02*
X178250560Y-125397619D01*
X178250560Y-125397619D02*
X178250560Y-124716666D01*
D13*
X122454819Y-111166666D02*
X121978628Y-111499999D01*
X122454819Y-111738094D02*
X121454819Y-111738094D01*
X121454819Y-111738094D02*
X121454819Y-111357142D01*
X121454819Y-111357142D02*
X121502438Y-111261904D01*
X121502438Y-111261904D02*
X121550057Y-111214285D01*
X121550057Y-111214285D02*
X121645295Y-111166666D01*
X121645295Y-111166666D02*
X121788152Y-111166666D01*
X121788152Y-111166666D02*
X121883390Y-111214285D01*
X121883390Y-111214285D02*
X121931009Y-111261904D01*
X121931009Y-111261904D02*
X121978628Y-111357142D01*
X121978628Y-111357142D02*
X121978628Y-111738094D01*
X121454819Y-110833332D02*
X121454819Y-110214285D01*
X121454819Y-110214285D02*
X121835771Y-110547618D01*
X121835771Y-110547618D02*
X121835771Y-110404761D01*
X121835771Y-110404761D02*
X121883390Y-110309523D01*
X121883390Y-110309523D02*
X121931009Y-110261904D01*
X121931009Y-110261904D02*
X122026247Y-110214285D01*
X122026247Y-110214285D02*
X122264342Y-110214285D01*
X122264342Y-110214285D02*
X122359580Y-110261904D01*
X122359580Y-110261904D02*
X122407200Y-110309523D01*
X122407200Y-110309523D02*
X122454819Y-110404761D01*
X122454819Y-110404761D02*
X122454819Y-110690475D01*
X122454819Y-110690475D02*
X122407200Y-110785713D01*
X122407200Y-110785713D02*
X122359580Y-110833332D01*
D14*
X189792857Y-55583528D02*
X189792857Y-54083528D01*
X189792857Y-54083528D02*
X190150000Y-54083528D01*
X190150000Y-54083528D02*
X190364286Y-54154957D01*
X190364286Y-54154957D02*
X190507143Y-54297814D01*
X190507143Y-54297814D02*
X190578572Y-54440671D01*
X190578572Y-54440671D02*
X190650000Y-54726385D01*
X190650000Y-54726385D02*
X190650000Y-54940671D01*
X190650000Y-54940671D02*
X190578572Y-55226385D01*
X190578572Y-55226385D02*
X190507143Y-55369242D01*
X190507143Y-55369242D02*
X190364286Y-55512100D01*
X190364286Y-55512100D02*
X190150000Y-55583528D01*
X190150000Y-55583528D02*
X189792857Y-55583528D01*
X192078572Y-55583528D02*
X191221429Y-55583528D01*
X191650000Y-55583528D02*
X191650000Y-54083528D01*
X191650000Y-54083528D02*
X191507143Y-54297814D01*
X191507143Y-54297814D02*
X191364286Y-54440671D01*
X191364286Y-54440671D02*
X191221429Y-54512100D01*
D13*
X127166666Y-36954819D02*
X127166666Y-37669104D01*
X127166666Y-37669104D02*
X127119047Y-37811961D01*
X127119047Y-37811961D02*
X127023809Y-37907200D01*
X127023809Y-37907200D02*
X126880952Y-37954819D01*
X126880952Y-37954819D02*
X126785714Y-37954819D01*
X128166666Y-37954819D02*
X127595238Y-37954819D01*
X127880952Y-37954819D02*
X127880952Y-36954819D01*
X127880952Y-36954819D02*
X127785714Y-37097676D01*
X127785714Y-37097676D02*
X127690476Y-37192914D01*
X127690476Y-37192914D02*
X127595238Y-37240533D01*
X175933333Y-123254819D02*
X175600000Y-122778628D01*
X175361905Y-123254819D02*
X175361905Y-122254819D01*
X175361905Y-122254819D02*
X175742857Y-122254819D01*
X175742857Y-122254819D02*
X175838095Y-122302438D01*
X175838095Y-122302438D02*
X175885714Y-122350057D01*
X175885714Y-122350057D02*
X175933333Y-122445295D01*
X175933333Y-122445295D02*
X175933333Y-122588152D01*
X175933333Y-122588152D02*
X175885714Y-122683390D01*
X175885714Y-122683390D02*
X175838095Y-122731009D01*
X175838095Y-122731009D02*
X175742857Y-122778628D01*
X175742857Y-122778628D02*
X175361905Y-122778628D01*
X176838095Y-122254819D02*
X176361905Y-122254819D01*
X176361905Y-122254819D02*
X176314286Y-122731009D01*
X176314286Y-122731009D02*
X176361905Y-122683390D01*
X176361905Y-122683390D02*
X176457143Y-122635771D01*
X176457143Y-122635771D02*
X176695238Y-122635771D01*
X176695238Y-122635771D02*
X176790476Y-122683390D01*
X176790476Y-122683390D02*
X176838095Y-122731009D01*
X176838095Y-122731009D02*
X176885714Y-122826247D01*
X176885714Y-122826247D02*
X176885714Y-123064342D01*
X176885714Y-123064342D02*
X176838095Y-123159580D01*
X176838095Y-123159580D02*
X176790476Y-123207200D01*
X176790476Y-123207200D02*
X176695238Y-123254819D01*
X176695238Y-123254819D02*
X176457143Y-123254819D01*
X176457143Y-123254819D02*
X176361905Y-123207200D01*
X176361905Y-123207200D02*
X176314286Y-123159580D01*
X106084819Y-95666666D02*
X105608628Y-95999999D01*
X106084819Y-96238094D02*
X105084819Y-96238094D01*
X105084819Y-96238094D02*
X105084819Y-95857142D01*
X105084819Y-95857142D02*
X105132438Y-95761904D01*
X105132438Y-95761904D02*
X105180057Y-95714285D01*
X105180057Y-95714285D02*
X105275295Y-95666666D01*
X105275295Y-95666666D02*
X105418152Y-95666666D01*
X105418152Y-95666666D02*
X105513390Y-95714285D01*
X105513390Y-95714285D02*
X105561009Y-95761904D01*
X105561009Y-95761904D02*
X105608628Y-95857142D01*
X105608628Y-95857142D02*
X105608628Y-96238094D01*
X106084819Y-94714285D02*
X106084819Y-95285713D01*
X106084819Y-94999999D02*
X105084819Y-94999999D01*
X105084819Y-94999999D02*
X105227676Y-95095237D01*
X105227676Y-95095237D02*
X105322914Y-95190475D01*
X105322914Y-95190475D02*
X105370533Y-95285713D01*
X166857142Y-124124819D02*
X166523809Y-123648628D01*
X166285714Y-124124819D02*
X166285714Y-123124819D01*
X166285714Y-123124819D02*
X166666666Y-123124819D01*
X166666666Y-123124819D02*
X166761904Y-123172438D01*
X166761904Y-123172438D02*
X166809523Y-123220057D01*
X166809523Y-123220057D02*
X166857142Y-123315295D01*
X166857142Y-123315295D02*
X166857142Y-123458152D01*
X166857142Y-123458152D02*
X166809523Y-123553390D01*
X166809523Y-123553390D02*
X166761904Y-123601009D01*
X166761904Y-123601009D02*
X166666666Y-123648628D01*
X166666666Y-123648628D02*
X166285714Y-123648628D01*
X167809523Y-124124819D02*
X167238095Y-124124819D01*
X167523809Y-124124819D02*
X167523809Y-123124819D01*
X167523809Y-123124819D02*
X167428571Y-123267676D01*
X167428571Y-123267676D02*
X167333333Y-123362914D01*
X167333333Y-123362914D02*
X167238095Y-123410533D01*
X168428571Y-123124819D02*
X168523809Y-123124819D01*
X168523809Y-123124819D02*
X168619047Y-123172438D01*
X168619047Y-123172438D02*
X168666666Y-123220057D01*
X168666666Y-123220057D02*
X168714285Y-123315295D01*
X168714285Y-123315295D02*
X168761904Y-123505771D01*
X168761904Y-123505771D02*
X168761904Y-123743866D01*
X168761904Y-123743866D02*
X168714285Y-123934342D01*
X168714285Y-123934342D02*
X168666666Y-124029580D01*
X168666666Y-124029580D02*
X168619047Y-124077200D01*
X168619047Y-124077200D02*
X168523809Y-124124819D01*
X168523809Y-124124819D02*
X168428571Y-124124819D01*
X168428571Y-124124819D02*
X168333333Y-124077200D01*
X168333333Y-124077200D02*
X168285714Y-124029580D01*
X168285714Y-124029580D02*
X168238095Y-123934342D01*
X168238095Y-123934342D02*
X168190476Y-123743866D01*
X168190476Y-123743866D02*
X168190476Y-123505771D01*
X168190476Y-123505771D02*
X168238095Y-123315295D01*
X168238095Y-123315295D02*
X168285714Y-123220057D01*
X168285714Y-123220057D02*
X168333333Y-123172438D01*
X168333333Y-123172438D02*
X168428571Y-123124819D01*
X149746666Y-117954819D02*
X149746666Y-118669104D01*
X149746666Y-118669104D02*
X149699047Y-118811961D01*
X149699047Y-118811961D02*
X149603809Y-118907200D01*
X149603809Y-118907200D02*
X149460952Y-118954819D01*
X149460952Y-118954819D02*
X149365714Y-118954819D01*
X150175238Y-118050057D02*
X150222857Y-118002438D01*
X150222857Y-118002438D02*
X150318095Y-117954819D01*
X150318095Y-117954819D02*
X150556190Y-117954819D01*
X150556190Y-117954819D02*
X150651428Y-118002438D01*
X150651428Y-118002438D02*
X150699047Y-118050057D01*
X150699047Y-118050057D02*
X150746666Y-118145295D01*
X150746666Y-118145295D02*
X150746666Y-118240533D01*
X150746666Y-118240533D02*
X150699047Y-118383390D01*
X150699047Y-118383390D02*
X150127619Y-118954819D01*
X150127619Y-118954819D02*
X150746666Y-118954819D01*
X174438095Y-104854819D02*
X174438095Y-105664342D01*
X174438095Y-105664342D02*
X174485714Y-105759580D01*
X174485714Y-105759580D02*
X174533333Y-105807200D01*
X174533333Y-105807200D02*
X174628571Y-105854819D01*
X174628571Y-105854819D02*
X174819047Y-105854819D01*
X174819047Y-105854819D02*
X174914285Y-105807200D01*
X174914285Y-105807200D02*
X174961904Y-105759580D01*
X174961904Y-105759580D02*
X175009523Y-105664342D01*
X175009523Y-105664342D02*
X175009523Y-104854819D01*
X175438095Y-104950057D02*
X175485714Y-104902438D01*
X175485714Y-104902438D02*
X175580952Y-104854819D01*
X175580952Y-104854819D02*
X175819047Y-104854819D01*
X175819047Y-104854819D02*
X175914285Y-104902438D01*
X175914285Y-104902438D02*
X175961904Y-104950057D01*
X175961904Y-104950057D02*
X176009523Y-105045295D01*
X176009523Y-105045295D02*
X176009523Y-105140533D01*
X176009523Y-105140533D02*
X175961904Y-105283390D01*
X175961904Y-105283390D02*
X175390476Y-105854819D01*
X175390476Y-105854819D02*
X176009523Y-105854819D01*
D14*
X106892857Y-56683528D02*
X106892857Y-55183528D01*
X106892857Y-55183528D02*
X107250000Y-55183528D01*
X107250000Y-55183528D02*
X107464286Y-55254957D01*
X107464286Y-55254957D02*
X107607143Y-55397814D01*
X107607143Y-55397814D02*
X107678572Y-55540671D01*
X107678572Y-55540671D02*
X107750000Y-55826385D01*
X107750000Y-55826385D02*
X107750000Y-56040671D01*
X107750000Y-56040671D02*
X107678572Y-56326385D01*
X107678572Y-56326385D02*
X107607143Y-56469242D01*
X107607143Y-56469242D02*
X107464286Y-56612100D01*
X107464286Y-56612100D02*
X107250000Y-56683528D01*
X107250000Y-56683528D02*
X106892857Y-56683528D01*
X108321429Y-55326385D02*
X108392857Y-55254957D01*
X108392857Y-55254957D02*
X108535715Y-55183528D01*
X108535715Y-55183528D02*
X108892857Y-55183528D01*
X108892857Y-55183528D02*
X109035715Y-55254957D01*
X109035715Y-55254957D02*
X109107143Y-55326385D01*
X109107143Y-55326385D02*
X109178572Y-55469242D01*
X109178572Y-55469242D02*
X109178572Y-55612100D01*
X109178572Y-55612100D02*
X109107143Y-55826385D01*
X109107143Y-55826385D02*
X108250000Y-56683528D01*
X108250000Y-56683528D02*
X109178572Y-56683528D01*
D13*
X104238095Y-122970439D02*
X104238095Y-121970439D01*
X104238095Y-122446629D02*
X104809523Y-122446629D01*
X104809523Y-122970439D02*
X104809523Y-121970439D01*
X105190476Y-121970439D02*
X105857142Y-121970439D01*
X105857142Y-121970439D02*
X105428571Y-122970439D01*
X170833333Y-117624819D02*
X170500000Y-117148628D01*
X170261905Y-117624819D02*
X170261905Y-116624819D01*
X170261905Y-116624819D02*
X170642857Y-116624819D01*
X170642857Y-116624819D02*
X170738095Y-116672438D01*
X170738095Y-116672438D02*
X170785714Y-116720057D01*
X170785714Y-116720057D02*
X170833333Y-116815295D01*
X170833333Y-116815295D02*
X170833333Y-116958152D01*
X170833333Y-116958152D02*
X170785714Y-117053390D01*
X170785714Y-117053390D02*
X170738095Y-117101009D01*
X170738095Y-117101009D02*
X170642857Y-117148628D01*
X170642857Y-117148628D02*
X170261905Y-117148628D01*
X171404762Y-117053390D02*
X171309524Y-117005771D01*
X171309524Y-117005771D02*
X171261905Y-116958152D01*
X171261905Y-116958152D02*
X171214286Y-116862914D01*
X171214286Y-116862914D02*
X171214286Y-116815295D01*
X171214286Y-116815295D02*
X171261905Y-116720057D01*
X171261905Y-116720057D02*
X171309524Y-116672438D01*
X171309524Y-116672438D02*
X171404762Y-116624819D01*
X171404762Y-116624819D02*
X171595238Y-116624819D01*
X171595238Y-116624819D02*
X171690476Y-116672438D01*
X171690476Y-116672438D02*
X171738095Y-116720057D01*
X171738095Y-116720057D02*
X171785714Y-116815295D01*
X171785714Y-116815295D02*
X171785714Y-116862914D01*
X171785714Y-116862914D02*
X171738095Y-116958152D01*
X171738095Y-116958152D02*
X171690476Y-117005771D01*
X171690476Y-117005771D02*
X171595238Y-117053390D01*
X171595238Y-117053390D02*
X171404762Y-117053390D01*
X171404762Y-117053390D02*
X171309524Y-117101009D01*
X171309524Y-117101009D02*
X171261905Y-117148628D01*
X171261905Y-117148628D02*
X171214286Y-117243866D01*
X171214286Y-117243866D02*
X171214286Y-117434342D01*
X171214286Y-117434342D02*
X171261905Y-117529580D01*
X171261905Y-117529580D02*
X171309524Y-117577200D01*
X171309524Y-117577200D02*
X171404762Y-117624819D01*
X171404762Y-117624819D02*
X171595238Y-117624819D01*
X171595238Y-117624819D02*
X171690476Y-117577200D01*
X171690476Y-117577200D02*
X171738095Y-117529580D01*
X171738095Y-117529580D02*
X171785714Y-117434342D01*
X171785714Y-117434342D02*
X171785714Y-117243866D01*
X171785714Y-117243866D02*
X171738095Y-117148628D01*
X171738095Y-117148628D02*
X171690476Y-117101009D01*
X171690476Y-117101009D02*
X171595238Y-117053390D01*
X129724819Y-120166666D02*
X129248628Y-120499999D01*
X129724819Y-120738094D02*
X128724819Y-120738094D01*
X128724819Y-120738094D02*
X128724819Y-120357142D01*
X128724819Y-120357142D02*
X128772438Y-120261904D01*
X128772438Y-120261904D02*
X128820057Y-120214285D01*
X128820057Y-120214285D02*
X128915295Y-120166666D01*
X128915295Y-120166666D02*
X129058152Y-120166666D01*
X129058152Y-120166666D02*
X129153390Y-120214285D01*
X129153390Y-120214285D02*
X129201009Y-120261904D01*
X129201009Y-120261904D02*
X129248628Y-120357142D01*
X129248628Y-120357142D02*
X129248628Y-120738094D01*
X129724819Y-119690475D02*
X129724819Y-119499999D01*
X129724819Y-119499999D02*
X129677200Y-119404761D01*
X129677200Y-119404761D02*
X129629580Y-119357142D01*
X129629580Y-119357142D02*
X129486723Y-119261904D01*
X129486723Y-119261904D02*
X129296247Y-119214285D01*
X129296247Y-119214285D02*
X128915295Y-119214285D01*
X128915295Y-119214285D02*
X128820057Y-119261904D01*
X128820057Y-119261904D02*
X128772438Y-119309523D01*
X128772438Y-119309523D02*
X128724819Y-119404761D01*
X128724819Y-119404761D02*
X128724819Y-119595237D01*
X128724819Y-119595237D02*
X128772438Y-119690475D01*
X128772438Y-119690475D02*
X128820057Y-119738094D01*
X128820057Y-119738094D02*
X128915295Y-119785713D01*
X128915295Y-119785713D02*
X129153390Y-119785713D01*
X129153390Y-119785713D02*
X129248628Y-119738094D01*
X129248628Y-119738094D02*
X129296247Y-119690475D01*
X129296247Y-119690475D02*
X129343866Y-119595237D01*
X129343866Y-119595237D02*
X129343866Y-119404761D01*
X129343866Y-119404761D02*
X129296247Y-119309523D01*
X129296247Y-119309523D02*
X129248628Y-119261904D01*
X129248628Y-119261904D02*
X129153390Y-119214285D01*
D12*
X115611904Y-100650560D02*
X116240476Y-100650560D01*
X115926190Y-101750560D02*
X115926190Y-100650560D01*
X116607142Y-101750560D02*
X116607142Y-100650560D01*
X116607142Y-100650560D02*
X117026190Y-100650560D01*
X117026190Y-100650560D02*
X117130952Y-100702941D01*
X117130952Y-100702941D02*
X117183333Y-100755322D01*
X117183333Y-100755322D02*
X117235714Y-100860084D01*
X117235714Y-100860084D02*
X117235714Y-101017227D01*
X117235714Y-101017227D02*
X117183333Y-101121989D01*
X117183333Y-101121989D02*
X117130952Y-101174370D01*
X117130952Y-101174370D02*
X117026190Y-101226751D01*
X117026190Y-101226751D02*
X116607142Y-101226751D01*
X117602380Y-100650560D02*
X118283333Y-100650560D01*
X118283333Y-100650560D02*
X117916666Y-101069608D01*
X117916666Y-101069608D02*
X118073809Y-101069608D01*
X118073809Y-101069608D02*
X118178571Y-101121989D01*
X118178571Y-101121989D02*
X118230952Y-101174370D01*
X118230952Y-101174370D02*
X118283333Y-101279132D01*
X118283333Y-101279132D02*
X118283333Y-101541037D01*
X118283333Y-101541037D02*
X118230952Y-101645799D01*
X118230952Y-101645799D02*
X118178571Y-101698180D01*
X118178571Y-101698180D02*
X118073809Y-101750560D01*
X118073809Y-101750560D02*
X117759523Y-101750560D01*
X117759523Y-101750560D02*
X117654761Y-101698180D01*
X117654761Y-101698180D02*
X117602380Y-101645799D01*
D13*
X131357142Y-124124819D02*
X131023809Y-123648628D01*
X130785714Y-124124819D02*
X130785714Y-123124819D01*
X130785714Y-123124819D02*
X131166666Y-123124819D01*
X131166666Y-123124819D02*
X131261904Y-123172438D01*
X131261904Y-123172438D02*
X131309523Y-123220057D01*
X131309523Y-123220057D02*
X131357142Y-123315295D01*
X131357142Y-123315295D02*
X131357142Y-123458152D01*
X131357142Y-123458152D02*
X131309523Y-123553390D01*
X131309523Y-123553390D02*
X131261904Y-123601009D01*
X131261904Y-123601009D02*
X131166666Y-123648628D01*
X131166666Y-123648628D02*
X130785714Y-123648628D01*
X132309523Y-124124819D02*
X131738095Y-124124819D01*
X132023809Y-124124819D02*
X132023809Y-123124819D01*
X132023809Y-123124819D02*
X131928571Y-123267676D01*
X131928571Y-123267676D02*
X131833333Y-123362914D01*
X131833333Y-123362914D02*
X131738095Y-123410533D01*
X133261904Y-124124819D02*
X132690476Y-124124819D01*
X132976190Y-124124819D02*
X132976190Y-123124819D01*
X132976190Y-123124819D02*
X132880952Y-123267676D01*
X132880952Y-123267676D02*
X132785714Y-123362914D01*
X132785714Y-123362914D02*
X132690476Y-123410533D01*
X143833333Y-108859580D02*
X143785714Y-108907200D01*
X143785714Y-108907200D02*
X143642857Y-108954819D01*
X143642857Y-108954819D02*
X143547619Y-108954819D01*
X143547619Y-108954819D02*
X143404762Y-108907200D01*
X143404762Y-108907200D02*
X143309524Y-108811961D01*
X143309524Y-108811961D02*
X143261905Y-108716723D01*
X143261905Y-108716723D02*
X143214286Y-108526247D01*
X143214286Y-108526247D02*
X143214286Y-108383390D01*
X143214286Y-108383390D02*
X143261905Y-108192914D01*
X143261905Y-108192914D02*
X143309524Y-108097676D01*
X143309524Y-108097676D02*
X143404762Y-108002438D01*
X143404762Y-108002438D02*
X143547619Y-107954819D01*
X143547619Y-107954819D02*
X143642857Y-107954819D01*
X143642857Y-107954819D02*
X143785714Y-108002438D01*
X143785714Y-108002438D02*
X143833333Y-108050057D01*
X144404762Y-108383390D02*
X144309524Y-108335771D01*
X144309524Y-108335771D02*
X144261905Y-108288152D01*
X144261905Y-108288152D02*
X144214286Y-108192914D01*
X144214286Y-108192914D02*
X144214286Y-108145295D01*
X144214286Y-108145295D02*
X144261905Y-108050057D01*
X144261905Y-108050057D02*
X144309524Y-108002438D01*
X144309524Y-108002438D02*
X144404762Y-107954819D01*
X144404762Y-107954819D02*
X144595238Y-107954819D01*
X144595238Y-107954819D02*
X144690476Y-108002438D01*
X144690476Y-108002438D02*
X144738095Y-108050057D01*
X144738095Y-108050057D02*
X144785714Y-108145295D01*
X144785714Y-108145295D02*
X144785714Y-108192914D01*
X144785714Y-108192914D02*
X144738095Y-108288152D01*
X144738095Y-108288152D02*
X144690476Y-108335771D01*
X144690476Y-108335771D02*
X144595238Y-108383390D01*
X144595238Y-108383390D02*
X144404762Y-108383390D01*
X144404762Y-108383390D02*
X144309524Y-108431009D01*
X144309524Y-108431009D02*
X144261905Y-108478628D01*
X144261905Y-108478628D02*
X144214286Y-108573866D01*
X144214286Y-108573866D02*
X144214286Y-108764342D01*
X144214286Y-108764342D02*
X144261905Y-108859580D01*
X144261905Y-108859580D02*
X144309524Y-108907200D01*
X144309524Y-108907200D02*
X144404762Y-108954819D01*
X144404762Y-108954819D02*
X144595238Y-108954819D01*
X144595238Y-108954819D02*
X144690476Y-108907200D01*
X144690476Y-108907200D02*
X144738095Y-108859580D01*
X144738095Y-108859580D02*
X144785714Y-108764342D01*
X144785714Y-108764342D02*
X144785714Y-108573866D01*
X144785714Y-108573866D02*
X144738095Y-108478628D01*
X144738095Y-108478628D02*
X144690476Y-108431009D01*
X144690476Y-108431009D02*
X144595238Y-108383390D01*
X194238095Y-122970439D02*
X194238095Y-121970439D01*
X194238095Y-122446629D02*
X194809523Y-122446629D01*
X194809523Y-122970439D02*
X194809523Y-121970439D01*
X195428571Y-122399010D02*
X195333333Y-122351391D01*
X195333333Y-122351391D02*
X195285714Y-122303772D01*
X195285714Y-122303772D02*
X195238095Y-122208534D01*
X195238095Y-122208534D02*
X195238095Y-122160915D01*
X195238095Y-122160915D02*
X195285714Y-122065677D01*
X195285714Y-122065677D02*
X195333333Y-122018058D01*
X195333333Y-122018058D02*
X195428571Y-121970439D01*
X195428571Y-121970439D02*
X195619047Y-121970439D01*
X195619047Y-121970439D02*
X195714285Y-122018058D01*
X195714285Y-122018058D02*
X195761904Y-122065677D01*
X195761904Y-122065677D02*
X195809523Y-122160915D01*
X195809523Y-122160915D02*
X195809523Y-122208534D01*
X195809523Y-122208534D02*
X195761904Y-122303772D01*
X195761904Y-122303772D02*
X195714285Y-122351391D01*
X195714285Y-122351391D02*
X195619047Y-122399010D01*
X195619047Y-122399010D02*
X195428571Y-122399010D01*
X195428571Y-122399010D02*
X195333333Y-122446629D01*
X195333333Y-122446629D02*
X195285714Y-122494248D01*
X195285714Y-122494248D02*
X195238095Y-122589486D01*
X195238095Y-122589486D02*
X195238095Y-122779962D01*
X195238095Y-122779962D02*
X195285714Y-122875200D01*
X195285714Y-122875200D02*
X195333333Y-122922820D01*
X195333333Y-122922820D02*
X195428571Y-122970439D01*
X195428571Y-122970439D02*
X195619047Y-122970439D01*
X195619047Y-122970439D02*
X195714285Y-122922820D01*
X195714285Y-122922820D02*
X195761904Y-122875200D01*
X195761904Y-122875200D02*
X195809523Y-122779962D01*
X195809523Y-122779962D02*
X195809523Y-122589486D01*
X195809523Y-122589486D02*
X195761904Y-122494248D01*
X195761904Y-122494248D02*
X195714285Y-122446629D01*
X195714285Y-122446629D02*
X195619047Y-122399010D01*
X129238095Y-104854819D02*
X129238095Y-105664342D01*
X129238095Y-105664342D02*
X129285714Y-105759580D01*
X129285714Y-105759580D02*
X129333333Y-105807200D01*
X129333333Y-105807200D02*
X129428571Y-105854819D01*
X129428571Y-105854819D02*
X129619047Y-105854819D01*
X129619047Y-105854819D02*
X129714285Y-105807200D01*
X129714285Y-105807200D02*
X129761904Y-105759580D01*
X129761904Y-105759580D02*
X129809523Y-105664342D01*
X129809523Y-105664342D02*
X129809523Y-104854819D01*
X130809523Y-105854819D02*
X130238095Y-105854819D01*
X130523809Y-105854819D02*
X130523809Y-104854819D01*
X130523809Y-104854819D02*
X130428571Y-104997676D01*
X130428571Y-104997676D02*
X130333333Y-105092914D01*
X130333333Y-105092914D02*
X130238095Y-105140533D01*
X160991905Y-128914819D02*
X160991905Y-127914819D01*
X160991905Y-127914819D02*
X161230000Y-127914819D01*
X161230000Y-127914819D02*
X161372857Y-127962438D01*
X161372857Y-127962438D02*
X161468095Y-128057676D01*
X161468095Y-128057676D02*
X161515714Y-128152914D01*
X161515714Y-128152914D02*
X161563333Y-128343390D01*
X161563333Y-128343390D02*
X161563333Y-128486247D01*
X161563333Y-128486247D02*
X161515714Y-128676723D01*
X161515714Y-128676723D02*
X161468095Y-128771961D01*
X161468095Y-128771961D02*
X161372857Y-128867200D01*
X161372857Y-128867200D02*
X161230000Y-128914819D01*
X161230000Y-128914819D02*
X160991905Y-128914819D01*
X161896667Y-127914819D02*
X162515714Y-127914819D01*
X162515714Y-127914819D02*
X162182381Y-128295771D01*
X162182381Y-128295771D02*
X162325238Y-128295771D01*
X162325238Y-128295771D02*
X162420476Y-128343390D01*
X162420476Y-128343390D02*
X162468095Y-128391009D01*
X162468095Y-128391009D02*
X162515714Y-128486247D01*
X162515714Y-128486247D02*
X162515714Y-128724342D01*
X162515714Y-128724342D02*
X162468095Y-128819580D01*
X162468095Y-128819580D02*
X162420476Y-128867200D01*
X162420476Y-128867200D02*
X162325238Y-128914819D01*
X162325238Y-128914819D02*
X162039524Y-128914819D01*
X162039524Y-128914819D02*
X161944286Y-128867200D01*
X161944286Y-128867200D02*
X161896667Y-128819580D01*
X180684819Y-120166666D02*
X180208628Y-120499999D01*
X180684819Y-120738094D02*
X179684819Y-120738094D01*
X179684819Y-120738094D02*
X179684819Y-120357142D01*
X179684819Y-120357142D02*
X179732438Y-120261904D01*
X179732438Y-120261904D02*
X179780057Y-120214285D01*
X179780057Y-120214285D02*
X179875295Y-120166666D01*
X179875295Y-120166666D02*
X180018152Y-120166666D01*
X180018152Y-120166666D02*
X180113390Y-120214285D01*
X180113390Y-120214285D02*
X180161009Y-120261904D01*
X180161009Y-120261904D02*
X180208628Y-120357142D01*
X180208628Y-120357142D02*
X180208628Y-120738094D01*
X180018152Y-119309523D02*
X180684819Y-119309523D01*
X179637200Y-119547618D02*
X180351485Y-119785713D01*
X180351485Y-119785713D02*
X180351485Y-119166666D01*
X196859580Y-107992707D02*
X196907200Y-108040326D01*
X196907200Y-108040326D02*
X196954819Y-108183183D01*
X196954819Y-108183183D02*
X196954819Y-108278421D01*
X196954819Y-108278421D02*
X196907200Y-108421278D01*
X196907200Y-108421278D02*
X196811961Y-108516516D01*
X196811961Y-108516516D02*
X196716723Y-108564135D01*
X196716723Y-108564135D02*
X196526247Y-108611754D01*
X196526247Y-108611754D02*
X196383390Y-108611754D01*
X196383390Y-108611754D02*
X196192914Y-108564135D01*
X196192914Y-108564135D02*
X196097676Y-108516516D01*
X196097676Y-108516516D02*
X196002438Y-108421278D01*
X196002438Y-108421278D02*
X195954819Y-108278421D01*
X195954819Y-108278421D02*
X195954819Y-108183183D01*
X195954819Y-108183183D02*
X196002438Y-108040326D01*
X196002438Y-108040326D02*
X196050057Y-107992707D01*
X195954819Y-107659373D02*
X195954819Y-107040326D01*
X195954819Y-107040326D02*
X196335771Y-107373659D01*
X196335771Y-107373659D02*
X196335771Y-107230802D01*
X196335771Y-107230802D02*
X196383390Y-107135564D01*
X196383390Y-107135564D02*
X196431009Y-107087945D01*
X196431009Y-107087945D02*
X196526247Y-107040326D01*
X196526247Y-107040326D02*
X196764342Y-107040326D01*
X196764342Y-107040326D02*
X196859580Y-107087945D01*
X196859580Y-107087945D02*
X196907200Y-107135564D01*
X196907200Y-107135564D02*
X196954819Y-107230802D01*
X196954819Y-107230802D02*
X196954819Y-107516516D01*
X196954819Y-107516516D02*
X196907200Y-107611754D01*
X196907200Y-107611754D02*
X196859580Y-107659373D01*
X102333333Y-69859580D02*
X102285714Y-69907200D01*
X102285714Y-69907200D02*
X102142857Y-69954819D01*
X102142857Y-69954819D02*
X102047619Y-69954819D01*
X102047619Y-69954819D02*
X101904762Y-69907200D01*
X101904762Y-69907200D02*
X101809524Y-69811961D01*
X101809524Y-69811961D02*
X101761905Y-69716723D01*
X101761905Y-69716723D02*
X101714286Y-69526247D01*
X101714286Y-69526247D02*
X101714286Y-69383390D01*
X101714286Y-69383390D02*
X101761905Y-69192914D01*
X101761905Y-69192914D02*
X101809524Y-69097676D01*
X101809524Y-69097676D02*
X101904762Y-69002438D01*
X101904762Y-69002438D02*
X102047619Y-68954819D01*
X102047619Y-68954819D02*
X102142857Y-68954819D01*
X102142857Y-68954819D02*
X102285714Y-69002438D01*
X102285714Y-69002438D02*
X102333333Y-69050057D01*
X102714286Y-69050057D02*
X102761905Y-69002438D01*
X102761905Y-69002438D02*
X102857143Y-68954819D01*
X102857143Y-68954819D02*
X103095238Y-68954819D01*
X103095238Y-68954819D02*
X103190476Y-69002438D01*
X103190476Y-69002438D02*
X103238095Y-69050057D01*
X103238095Y-69050057D02*
X103285714Y-69145295D01*
X103285714Y-69145295D02*
X103285714Y-69240533D01*
X103285714Y-69240533D02*
X103238095Y-69383390D01*
X103238095Y-69383390D02*
X102666667Y-69954819D01*
X102666667Y-69954819D02*
X103285714Y-69954819D01*
X154733333Y-108859580D02*
X154685714Y-108907200D01*
X154685714Y-108907200D02*
X154542857Y-108954819D01*
X154542857Y-108954819D02*
X154447619Y-108954819D01*
X154447619Y-108954819D02*
X154304762Y-108907200D01*
X154304762Y-108907200D02*
X154209524Y-108811961D01*
X154209524Y-108811961D02*
X154161905Y-108716723D01*
X154161905Y-108716723D02*
X154114286Y-108526247D01*
X154114286Y-108526247D02*
X154114286Y-108383390D01*
X154114286Y-108383390D02*
X154161905Y-108192914D01*
X154161905Y-108192914D02*
X154209524Y-108097676D01*
X154209524Y-108097676D02*
X154304762Y-108002438D01*
X154304762Y-108002438D02*
X154447619Y-107954819D01*
X154447619Y-107954819D02*
X154542857Y-107954819D01*
X154542857Y-107954819D02*
X154685714Y-108002438D01*
X154685714Y-108002438D02*
X154733333Y-108050057D01*
X155066667Y-107954819D02*
X155733333Y-107954819D01*
X155733333Y-107954819D02*
X155304762Y-108954819D01*
X166933333Y-104459580D02*
X166885714Y-104507200D01*
X166885714Y-104507200D02*
X166742857Y-104554819D01*
X166742857Y-104554819D02*
X166647619Y-104554819D01*
X166647619Y-104554819D02*
X166504762Y-104507200D01*
X166504762Y-104507200D02*
X166409524Y-104411961D01*
X166409524Y-104411961D02*
X166361905Y-104316723D01*
X166361905Y-104316723D02*
X166314286Y-104126247D01*
X166314286Y-104126247D02*
X166314286Y-103983390D01*
X166314286Y-103983390D02*
X166361905Y-103792914D01*
X166361905Y-103792914D02*
X166409524Y-103697676D01*
X166409524Y-103697676D02*
X166504762Y-103602438D01*
X166504762Y-103602438D02*
X166647619Y-103554819D01*
X166647619Y-103554819D02*
X166742857Y-103554819D01*
X166742857Y-103554819D02*
X166885714Y-103602438D01*
X166885714Y-103602438D02*
X166933333Y-103650057D01*
X167838095Y-103554819D02*
X167361905Y-103554819D01*
X167361905Y-103554819D02*
X167314286Y-104031009D01*
X167314286Y-104031009D02*
X167361905Y-103983390D01*
X167361905Y-103983390D02*
X167457143Y-103935771D01*
X167457143Y-103935771D02*
X167695238Y-103935771D01*
X167695238Y-103935771D02*
X167790476Y-103983390D01*
X167790476Y-103983390D02*
X167838095Y-104031009D01*
X167838095Y-104031009D02*
X167885714Y-104126247D01*
X167885714Y-104126247D02*
X167885714Y-104364342D01*
X167885714Y-104364342D02*
X167838095Y-104459580D01*
X167838095Y-104459580D02*
X167790476Y-104507200D01*
X167790476Y-104507200D02*
X167695238Y-104554819D01*
X167695238Y-104554819D02*
X167457143Y-104554819D01*
X167457143Y-104554819D02*
X167361905Y-104507200D01*
X167361905Y-104507200D02*
X167314286Y-104459580D01*
D15*
X174035714Y-42491711D02*
X173964286Y-42563140D01*
X173964286Y-42563140D02*
X173750000Y-42634568D01*
X173750000Y-42634568D02*
X173607143Y-42634568D01*
X173607143Y-42634568D02*
X173392857Y-42563140D01*
X173392857Y-42563140D02*
X173250000Y-42420282D01*
X173250000Y-42420282D02*
X173178571Y-42277425D01*
X173178571Y-42277425D02*
X173107143Y-41991711D01*
X173107143Y-41991711D02*
X173107143Y-41777425D01*
X173107143Y-41777425D02*
X173178571Y-41491711D01*
X173178571Y-41491711D02*
X173250000Y-41348854D01*
X173250000Y-41348854D02*
X173392857Y-41205997D01*
X173392857Y-41205997D02*
X173607143Y-41134568D01*
X173607143Y-41134568D02*
X173750000Y-41134568D01*
X173750000Y-41134568D02*
X173964286Y-41205997D01*
X173964286Y-41205997D02*
X174035714Y-41277425D01*
X174535714Y-41134568D02*
X175535714Y-42634568D01*
X175535714Y-41134568D02*
X174535714Y-42634568D01*
X176892857Y-42634568D02*
X176035714Y-42634568D01*
X176464285Y-42634568D02*
X176464285Y-41134568D01*
X176464285Y-41134568D02*
X176321428Y-41348854D01*
X176321428Y-41348854D02*
X176178571Y-41491711D01*
X176178571Y-41491711D02*
X176035714Y-41563140D01*
D13*
X123559580Y-121266666D02*
X123607200Y-121314285D01*
X123607200Y-121314285D02*
X123654819Y-121457142D01*
X123654819Y-121457142D02*
X123654819Y-121552380D01*
X123654819Y-121552380D02*
X123607200Y-121695237D01*
X123607200Y-121695237D02*
X123511961Y-121790475D01*
X123511961Y-121790475D02*
X123416723Y-121838094D01*
X123416723Y-121838094D02*
X123226247Y-121885713D01*
X123226247Y-121885713D02*
X123083390Y-121885713D01*
X123083390Y-121885713D02*
X122892914Y-121838094D01*
X122892914Y-121838094D02*
X122797676Y-121790475D01*
X122797676Y-121790475D02*
X122702438Y-121695237D01*
X122702438Y-121695237D02*
X122654819Y-121552380D01*
X122654819Y-121552380D02*
X122654819Y-121457142D01*
X122654819Y-121457142D02*
X122702438Y-121314285D01*
X122702438Y-121314285D02*
X122750057Y-121266666D01*
X122654819Y-120409523D02*
X122654819Y-120599999D01*
X122654819Y-120599999D02*
X122702438Y-120695237D01*
X122702438Y-120695237D02*
X122750057Y-120742856D01*
X122750057Y-120742856D02*
X122892914Y-120838094D01*
X122892914Y-120838094D02*
X123083390Y-120885713D01*
X123083390Y-120885713D02*
X123464342Y-120885713D01*
X123464342Y-120885713D02*
X123559580Y-120838094D01*
X123559580Y-120838094D02*
X123607200Y-120790475D01*
X123607200Y-120790475D02*
X123654819Y-120695237D01*
X123654819Y-120695237D02*
X123654819Y-120504761D01*
X123654819Y-120504761D02*
X123607200Y-120409523D01*
X123607200Y-120409523D02*
X123559580Y-120361904D01*
X123559580Y-120361904D02*
X123464342Y-120314285D01*
X123464342Y-120314285D02*
X123226247Y-120314285D01*
X123226247Y-120314285D02*
X123131009Y-120361904D01*
X123131009Y-120361904D02*
X123083390Y-120409523D01*
X123083390Y-120409523D02*
X123035771Y-120504761D01*
X123035771Y-120504761D02*
X123035771Y-120695237D01*
X123035771Y-120695237D02*
X123083390Y-120790475D01*
X123083390Y-120790475D02*
X123131009Y-120838094D01*
X123131009Y-120838094D02*
X123226247Y-120885713D01*
X148616666Y-38431009D02*
X148283333Y-38431009D01*
X148283333Y-38954819D02*
X148283333Y-37954819D01*
X148283333Y-37954819D02*
X148759523Y-37954819D01*
X149664285Y-38954819D02*
X149092857Y-38954819D01*
X149378571Y-38954819D02*
X149378571Y-37954819D01*
X149378571Y-37954819D02*
X149283333Y-38097676D01*
X149283333Y-38097676D02*
X149188095Y-38192914D01*
X149188095Y-38192914D02*
X149092857Y-38240533D01*
D12*
X184800000Y-68932537D02*
X184742857Y-68989680D01*
X184742857Y-68989680D02*
X184571429Y-69046822D01*
X184571429Y-69046822D02*
X184457143Y-69046822D01*
X184457143Y-69046822D02*
X184285714Y-68989680D01*
X184285714Y-68989680D02*
X184171429Y-68875394D01*
X184171429Y-68875394D02*
X184114286Y-68761108D01*
X184114286Y-68761108D02*
X184057143Y-68532537D01*
X184057143Y-68532537D02*
X184057143Y-68361108D01*
X184057143Y-68361108D02*
X184114286Y-68132537D01*
X184114286Y-68132537D02*
X184171429Y-68018251D01*
X184171429Y-68018251D02*
X184285714Y-67903965D01*
X184285714Y-67903965D02*
X184457143Y-67846822D01*
X184457143Y-67846822D02*
X184571429Y-67846822D01*
X184571429Y-67846822D02*
X184742857Y-67903965D01*
X184742857Y-67903965D02*
X184800000Y-67961108D01*
X185942857Y-69046822D02*
X185257143Y-69046822D01*
X185600000Y-69046822D02*
X185600000Y-67846822D01*
X185600000Y-67846822D02*
X185485714Y-68018251D01*
X185485714Y-68018251D02*
X185371429Y-68132537D01*
X185371429Y-68132537D02*
X185257143Y-68189680D01*
D13*
X129484819Y-102766666D02*
X129008628Y-103099999D01*
X129484819Y-103338094D02*
X128484819Y-103338094D01*
X128484819Y-103338094D02*
X128484819Y-102957142D01*
X128484819Y-102957142D02*
X128532438Y-102861904D01*
X128532438Y-102861904D02*
X128580057Y-102814285D01*
X128580057Y-102814285D02*
X128675295Y-102766666D01*
X128675295Y-102766666D02*
X128818152Y-102766666D01*
X128818152Y-102766666D02*
X128913390Y-102814285D01*
X128913390Y-102814285D02*
X128961009Y-102861904D01*
X128961009Y-102861904D02*
X129008628Y-102957142D01*
X129008628Y-102957142D02*
X129008628Y-103338094D01*
X128484819Y-102433332D02*
X128484819Y-101766666D01*
X128484819Y-101766666D02*
X129484819Y-102195237D01*
X167833333Y-113584819D02*
X167500000Y-113108628D01*
X167261905Y-113584819D02*
X167261905Y-112584819D01*
X167261905Y-112584819D02*
X167642857Y-112584819D01*
X167642857Y-112584819D02*
X167738095Y-112632438D01*
X167738095Y-112632438D02*
X167785714Y-112680057D01*
X167785714Y-112680057D02*
X167833333Y-112775295D01*
X167833333Y-112775295D02*
X167833333Y-112918152D01*
X167833333Y-112918152D02*
X167785714Y-113013390D01*
X167785714Y-113013390D02*
X167738095Y-113061009D01*
X167738095Y-113061009D02*
X167642857Y-113108628D01*
X167642857Y-113108628D02*
X167261905Y-113108628D01*
X168690476Y-112584819D02*
X168500000Y-112584819D01*
X168500000Y-112584819D02*
X168404762Y-112632438D01*
X168404762Y-112632438D02*
X168357143Y-112680057D01*
X168357143Y-112680057D02*
X168261905Y-112822914D01*
X168261905Y-112822914D02*
X168214286Y-113013390D01*
X168214286Y-113013390D02*
X168214286Y-113394342D01*
X168214286Y-113394342D02*
X168261905Y-113489580D01*
X168261905Y-113489580D02*
X168309524Y-113537200D01*
X168309524Y-113537200D02*
X168404762Y-113584819D01*
X168404762Y-113584819D02*
X168595238Y-113584819D01*
X168595238Y-113584819D02*
X168690476Y-113537200D01*
X168690476Y-113537200D02*
X168738095Y-113489580D01*
X168738095Y-113489580D02*
X168785714Y-113394342D01*
X168785714Y-113394342D02*
X168785714Y-113156247D01*
X168785714Y-113156247D02*
X168738095Y-113061009D01*
X168738095Y-113061009D02*
X168690476Y-113013390D01*
X168690476Y-113013390D02*
X168595238Y-112965771D01*
X168595238Y-112965771D02*
X168404762Y-112965771D01*
X168404762Y-112965771D02*
X168309524Y-113013390D01*
X168309524Y-113013390D02*
X168261905Y-113061009D01*
X168261905Y-113061009D02*
X168214286Y-113156247D01*
X136991905Y-128914819D02*
X136991905Y-127914819D01*
X136991905Y-127914819D02*
X137230000Y-127914819D01*
X137230000Y-127914819D02*
X137372857Y-127962438D01*
X137372857Y-127962438D02*
X137468095Y-128057676D01*
X137468095Y-128057676D02*
X137515714Y-128152914D01*
X137515714Y-128152914D02*
X137563333Y-128343390D01*
X137563333Y-128343390D02*
X137563333Y-128486247D01*
X137563333Y-128486247D02*
X137515714Y-128676723D01*
X137515714Y-128676723D02*
X137468095Y-128771961D01*
X137468095Y-128771961D02*
X137372857Y-128867200D01*
X137372857Y-128867200D02*
X137230000Y-128914819D01*
X137230000Y-128914819D02*
X136991905Y-128914819D01*
X138420476Y-128248152D02*
X138420476Y-128914819D01*
X138182381Y-127867200D02*
X137944286Y-128581485D01*
X137944286Y-128581485D02*
X138563333Y-128581485D01*
D15*
X148485714Y-44295782D02*
X149171429Y-44295782D01*
X148828571Y-45495782D02*
X148828571Y-44295782D01*
X150257143Y-45495782D02*
X149857143Y-44924354D01*
X149571429Y-45495782D02*
X149571429Y-44295782D01*
X149571429Y-44295782D02*
X150028572Y-44295782D01*
X150028572Y-44295782D02*
X150142857Y-44352925D01*
X150142857Y-44352925D02*
X150200000Y-44410068D01*
X150200000Y-44410068D02*
X150257143Y-44524354D01*
X150257143Y-44524354D02*
X150257143Y-44695782D01*
X150257143Y-44695782D02*
X150200000Y-44810068D01*
X150200000Y-44810068D02*
X150142857Y-44867211D01*
X150142857Y-44867211D02*
X150028572Y-44924354D01*
X150028572Y-44924354D02*
X149571429Y-44924354D01*
X151400000Y-45495782D02*
X150714286Y-45495782D01*
X151057143Y-45495782D02*
X151057143Y-44295782D01*
X151057143Y-44295782D02*
X150942857Y-44467211D01*
X150942857Y-44467211D02*
X150828572Y-44581497D01*
X150828572Y-44581497D02*
X150714286Y-44638640D01*
%TO.C,TP1*%
D16*
X184750000Y-121000000D02*
G75*
G02*
X181250000Y-121000000I-1750000J0D01*
G01*
X181250000Y-121000000D02*
G75*
G02*
X184750000Y-121000000I1750000J0D01*
G01*
%TO.C,R2*%
X191000000Y-85940000D02*
X191000000Y-88590000D01*
X191000000Y-103380000D02*
X191000000Y-100730000D01*
X188630000Y-88590000D02*
X193370000Y-88590000D01*
X193370000Y-100730000D01*
X188630000Y-100730000D01*
X188630000Y-88590000D01*
%TO.C,C4*%
X104682918Y-111425000D02*
X105932918Y-111425000D01*
X105307918Y-110800000D02*
X105307918Y-112050000D01*
X111500000Y-108670000D02*
X111500000Y-121330000D01*
X111540000Y-108670000D02*
X111540000Y-121330000D01*
X111580000Y-108671000D02*
X111580000Y-121329000D01*
X111620000Y-108671000D02*
X111620000Y-121329000D01*
X111660000Y-108672000D02*
X111660000Y-121328000D01*
X111700000Y-108673000D02*
X111700000Y-121327000D01*
X111740000Y-108675000D02*
X111740000Y-121325000D01*
X111780000Y-108676000D02*
X111780000Y-121324000D01*
X111820000Y-108678000D02*
X111820000Y-121322000D01*
X111860000Y-108680000D02*
X111860000Y-121320000D01*
X111900000Y-108683000D02*
X111900000Y-121317000D01*
X111940000Y-108685000D02*
X111940000Y-121315000D01*
X111980000Y-108688000D02*
X111980000Y-121312000D01*
X112020000Y-108691000D02*
X112020000Y-121309000D01*
X112060000Y-108695000D02*
X112060000Y-121305000D01*
X112100000Y-108698000D02*
X112100000Y-121302000D01*
X112140000Y-108702000D02*
X112140000Y-121298000D01*
X112180000Y-108706000D02*
X112180000Y-121294000D01*
X112220000Y-108711000D02*
X112220000Y-121289000D01*
X112260000Y-108716000D02*
X112260000Y-121284000D01*
X112300000Y-108720000D02*
X112300000Y-121280000D01*
X112340000Y-108726000D02*
X112340000Y-121274000D01*
X112380000Y-108731000D02*
X112380000Y-121269000D01*
X112420000Y-108737000D02*
X112420000Y-121263000D01*
X112460000Y-108743000D02*
X112460000Y-121257000D01*
X112500000Y-108749000D02*
X112500000Y-121251000D01*
X112540000Y-108755000D02*
X112540000Y-121245000D01*
X112580000Y-108762000D02*
X112580000Y-113560000D01*
X112580000Y-116440000D02*
X112580000Y-121238000D01*
X112620000Y-108769000D02*
X112620000Y-113560000D01*
X112620000Y-116440000D02*
X112620000Y-121231000D01*
X112660000Y-108777000D02*
X112660000Y-113560000D01*
X112660000Y-116440000D02*
X112660000Y-121223000D01*
X112700000Y-108784000D02*
X112700000Y-113560000D01*
X112700000Y-116440000D02*
X112700000Y-121216000D01*
X112740000Y-108792000D02*
X112740000Y-113560000D01*
X112740000Y-116440000D02*
X112740000Y-121208000D01*
X112780000Y-108800000D02*
X112780000Y-113560000D01*
X112780000Y-116440000D02*
X112780000Y-121200000D01*
X112820000Y-108808000D02*
X112820000Y-113560000D01*
X112820000Y-116440000D02*
X112820000Y-121192000D01*
X112860000Y-108817000D02*
X112860000Y-113560000D01*
X112860000Y-116440000D02*
X112860000Y-121183000D01*
X112900000Y-108826000D02*
X112900000Y-113560000D01*
X112900000Y-116440000D02*
X112900000Y-121174000D01*
X112940000Y-108835000D02*
X112940000Y-113560000D01*
X112940000Y-116440000D02*
X112940000Y-121165000D01*
X112980000Y-108844000D02*
X112980000Y-113560000D01*
X112980000Y-116440000D02*
X112980000Y-121156000D01*
X113020000Y-108854000D02*
X113020000Y-113560000D01*
X113020000Y-116440000D02*
X113020000Y-121146000D01*
X113060000Y-108864000D02*
X113060000Y-113560000D01*
X113060000Y-116440000D02*
X113060000Y-121136000D01*
X113100000Y-108874000D02*
X113100000Y-113560000D01*
X113100000Y-116440000D02*
X113100000Y-121126000D01*
X113140000Y-108885000D02*
X113140000Y-113560000D01*
X113140000Y-116440000D02*
X113140000Y-121115000D01*
X113180000Y-108896000D02*
X113180000Y-113560000D01*
X113180000Y-116440000D02*
X113180000Y-121104000D01*
X113220000Y-108907000D02*
X113220000Y-113560000D01*
X113220000Y-116440000D02*
X113220000Y-121093000D01*
X113260000Y-108918000D02*
X113260000Y-113560000D01*
X113260000Y-116440000D02*
X113260000Y-121082000D01*
X113300000Y-108930000D02*
X113300000Y-113560000D01*
X113300000Y-116440000D02*
X113300000Y-121070000D01*
X113340000Y-108942000D02*
X113340000Y-113560000D01*
X113340000Y-116440000D02*
X113340000Y-121058000D01*
X113380000Y-108954000D02*
X113380000Y-113560000D01*
X113380000Y-116440000D02*
X113380000Y-121046000D01*
X113420000Y-108966000D02*
X113420000Y-113560000D01*
X113420000Y-116440000D02*
X113420000Y-121034000D01*
X113460000Y-108979000D02*
X113460000Y-113560000D01*
X113460000Y-116440000D02*
X113460000Y-121021000D01*
X113500000Y-108992000D02*
X113500000Y-113560000D01*
X113500000Y-116440000D02*
X113500000Y-121008000D01*
X113540000Y-109005000D02*
X113540000Y-113560000D01*
X113540000Y-116440000D02*
X113540000Y-120995000D01*
X113580000Y-109019000D02*
X113580000Y-113560000D01*
X113580000Y-116440000D02*
X113580000Y-120981000D01*
X113620000Y-109033000D02*
X113620000Y-113560000D01*
X113620000Y-116440000D02*
X113620000Y-120967000D01*
X113660000Y-109047000D02*
X113660000Y-113560000D01*
X113660000Y-116440000D02*
X113660000Y-120953000D01*
X113700000Y-109062000D02*
X113700000Y-113560000D01*
X113700000Y-116440000D02*
X113700000Y-120938000D01*
X113740000Y-109077000D02*
X113740000Y-113560000D01*
X113740000Y-116440000D02*
X113740000Y-120923000D01*
X113780000Y-109092000D02*
X113780000Y-113560000D01*
X113780000Y-116440000D02*
X113780000Y-120908000D01*
X113820000Y-109108000D02*
X113820000Y-113560000D01*
X113820000Y-116440000D02*
X113820000Y-120892000D01*
X113860000Y-109123000D02*
X113860000Y-113560000D01*
X113860000Y-116440000D02*
X113860000Y-120877000D01*
X113900000Y-109139000D02*
X113900000Y-113560000D01*
X113900000Y-116440000D02*
X113900000Y-120861000D01*
X113940000Y-109156000D02*
X113940000Y-113560000D01*
X113940000Y-116440000D02*
X113940000Y-120844000D01*
X113980000Y-109173000D02*
X113980000Y-113560000D01*
X113980000Y-116440000D02*
X113980000Y-120827000D01*
X114020000Y-109190000D02*
X114020000Y-113560000D01*
X114020000Y-116440000D02*
X114020000Y-120810000D01*
X114060000Y-109207000D02*
X114060000Y-113560000D01*
X114060000Y-116440000D02*
X114060000Y-120793000D01*
X114100000Y-109225000D02*
X114100000Y-113560000D01*
X114100000Y-116440000D02*
X114100000Y-120775000D01*
X114140000Y-109243000D02*
X114140000Y-113560000D01*
X114140000Y-116440000D02*
X114140000Y-120757000D01*
X114180000Y-109261000D02*
X114180000Y-113560000D01*
X114180000Y-116440000D02*
X114180000Y-120739000D01*
X114220000Y-109280000D02*
X114220000Y-113560000D01*
X114220000Y-116440000D02*
X114220000Y-120720000D01*
X114260000Y-109299000D02*
X114260000Y-113560000D01*
X114260000Y-116440000D02*
X114260000Y-120701000D01*
X114300000Y-109318000D02*
X114300000Y-113560000D01*
X114300000Y-116440000D02*
X114300000Y-120682000D01*
X114340000Y-109338000D02*
X114340000Y-113560000D01*
X114340000Y-116440000D02*
X114340000Y-120662000D01*
X114380000Y-109358000D02*
X114380000Y-113560000D01*
X114380000Y-116440000D02*
X114380000Y-120642000D01*
X114420000Y-109379000D02*
X114420000Y-113560000D01*
X114420000Y-116440000D02*
X114420000Y-120621000D01*
X114460000Y-109399000D02*
X114460000Y-113560000D01*
X114460000Y-116440000D02*
X114460000Y-120601000D01*
X114500000Y-109421000D02*
X114500000Y-113560000D01*
X114500000Y-116440000D02*
X114500000Y-120579000D01*
X114540000Y-109442000D02*
X114540000Y-113560000D01*
X114540000Y-116440000D02*
X114540000Y-120558000D01*
X114580000Y-109464000D02*
X114580000Y-113560000D01*
X114580000Y-116440000D02*
X114580000Y-120536000D01*
X114620000Y-109486000D02*
X114620000Y-113560000D01*
X114620000Y-116440000D02*
X114620000Y-120514000D01*
X114660000Y-109509000D02*
X114660000Y-113560000D01*
X114660000Y-116440000D02*
X114660000Y-120491000D01*
X114700000Y-109532000D02*
X114700000Y-113560000D01*
X114700000Y-116440000D02*
X114700000Y-120468000D01*
X114740000Y-109556000D02*
X114740000Y-113560000D01*
X114740000Y-116440000D02*
X114740000Y-120444000D01*
X114780000Y-109579000D02*
X114780000Y-113560000D01*
X114780000Y-116440000D02*
X114780000Y-120421000D01*
X114820000Y-109604000D02*
X114820000Y-113560000D01*
X114820000Y-116440000D02*
X114820000Y-120396000D01*
X114860000Y-109628000D02*
X114860000Y-113560000D01*
X114860000Y-116440000D02*
X114860000Y-120372000D01*
X114900000Y-109653000D02*
X114900000Y-113560000D01*
X114900000Y-116440000D02*
X114900000Y-120347000D01*
X114940000Y-109679000D02*
X114940000Y-113560000D01*
X114940000Y-116440000D02*
X114940000Y-120321000D01*
X114980000Y-109705000D02*
X114980000Y-113560000D01*
X114980000Y-116440000D02*
X114980000Y-120295000D01*
X115020000Y-109731000D02*
X115020000Y-113560000D01*
X115020000Y-116440000D02*
X115020000Y-120269000D01*
X115060000Y-109758000D02*
X115060000Y-113560000D01*
X115060000Y-116440000D02*
X115060000Y-120242000D01*
X115100000Y-109785000D02*
X115100000Y-113560000D01*
X115100000Y-116440000D02*
X115100000Y-120215000D01*
X115140000Y-109812000D02*
X115140000Y-113560000D01*
X115140000Y-116440000D02*
X115140000Y-120188000D01*
X115180000Y-109841000D02*
X115180000Y-113560000D01*
X115180000Y-116440000D02*
X115180000Y-120159000D01*
X115220000Y-109869000D02*
X115220000Y-113560000D01*
X115220000Y-116440000D02*
X115220000Y-120131000D01*
X115260000Y-109898000D02*
X115260000Y-113560000D01*
X115260000Y-116440000D02*
X115260000Y-120102000D01*
X115300000Y-109928000D02*
X115300000Y-113560000D01*
X115300000Y-116440000D02*
X115300000Y-120072000D01*
X115340000Y-109958000D02*
X115340000Y-113560000D01*
X115340000Y-116440000D02*
X115340000Y-120042000D01*
X115380000Y-109988000D02*
X115380000Y-113560000D01*
X115380000Y-116440000D02*
X115380000Y-120012000D01*
X115420000Y-110019000D02*
X115420000Y-113560000D01*
X115420000Y-116440000D02*
X115420000Y-119981000D01*
X115460000Y-110050000D02*
X115460000Y-119950000D01*
X115500000Y-110082000D02*
X115500000Y-119918000D01*
X115540000Y-110115000D02*
X115540000Y-119885000D01*
X115580000Y-110148000D02*
X115580000Y-119852000D01*
X115620000Y-110182000D02*
X115620000Y-119818000D01*
X115660000Y-110216000D02*
X115660000Y-119784000D01*
X115700000Y-110251000D02*
X115700000Y-119749000D01*
X115740000Y-110286000D02*
X115740000Y-119714000D01*
X115780000Y-110322000D02*
X115780000Y-119678000D01*
X115820000Y-110359000D02*
X115820000Y-119641000D01*
X115860000Y-110396000D02*
X115860000Y-119604000D01*
X115900000Y-110434000D02*
X115900000Y-119566000D01*
X115940000Y-110472000D02*
X115940000Y-119528000D01*
X115980000Y-110512000D02*
X115980000Y-119488000D01*
X116020000Y-110552000D02*
X116020000Y-119448000D01*
X116060000Y-110592000D02*
X116060000Y-119408000D01*
X116100000Y-110634000D02*
X116100000Y-119366000D01*
X116140000Y-110676000D02*
X116140000Y-119324000D01*
X116180000Y-110719000D02*
X116180000Y-119281000D01*
X116220000Y-110762000D02*
X116220000Y-119238000D01*
X116260000Y-110807000D02*
X116260000Y-119193000D01*
X116300000Y-110852000D02*
X116300000Y-119148000D01*
X116340000Y-110899000D02*
X116340000Y-119101000D01*
X116380000Y-110946000D02*
X116380000Y-119054000D01*
X116420000Y-110994000D02*
X116420000Y-119006000D01*
X116460000Y-111043000D02*
X116460000Y-118957000D01*
X116500000Y-111093000D02*
X116500000Y-118907000D01*
X116540000Y-111144000D02*
X116540000Y-118856000D01*
X116580000Y-111197000D02*
X116580000Y-118803000D01*
X116620000Y-111250000D02*
X116620000Y-118750000D01*
X116660000Y-111305000D02*
X116660000Y-118695000D01*
X116700000Y-111361000D02*
X116700000Y-118639000D01*
X116740000Y-111418000D02*
X116740000Y-118582000D01*
X116780000Y-111477000D02*
X116780000Y-118523000D01*
X116820000Y-111537000D02*
X116820000Y-118463000D01*
X116860000Y-111598000D02*
X116860000Y-118402000D01*
X116900000Y-111661000D02*
X116900000Y-118339000D01*
X116940000Y-111726000D02*
X116940000Y-118274000D01*
X116980000Y-111792000D02*
X116980000Y-118208000D01*
X117020000Y-111861000D02*
X117020000Y-118139000D01*
X117060000Y-111931000D02*
X117060000Y-118069000D01*
X117100000Y-112004000D02*
X117100000Y-117996000D01*
X117140000Y-112079000D02*
X117140000Y-117921000D01*
X117180000Y-112157000D02*
X117180000Y-117843000D01*
X117220000Y-112237000D02*
X117220000Y-117763000D01*
X117260000Y-112320000D02*
X117260000Y-117680000D01*
X117300000Y-112406000D02*
X117300000Y-117594000D01*
X117340000Y-112496000D02*
X117340000Y-117504000D01*
X117380000Y-112590000D02*
X117380000Y-117410000D01*
X117420000Y-112688000D02*
X117420000Y-117312000D01*
X117460000Y-112792000D02*
X117460000Y-117208000D01*
X117500000Y-112901000D02*
X117500000Y-117099000D01*
X117540000Y-113016000D02*
X117540000Y-116984000D01*
X117580000Y-113140000D02*
X117580000Y-116860000D01*
X117620000Y-113273000D02*
X117620000Y-116727000D01*
X117660000Y-113418000D02*
X117660000Y-116582000D01*
X117700000Y-113578000D02*
X117700000Y-116422000D01*
X117740000Y-113760000D02*
X117740000Y-116240000D01*
X117780000Y-113973000D02*
X117780000Y-116027000D01*
X117820000Y-114243000D02*
X117820000Y-115757000D01*
X117860000Y-114683000D02*
X117860000Y-115317000D01*
X117870000Y-115000000D02*
G75*
G02*
X105130000Y-115000000I-6370000J0D01*
G01*
X105130000Y-115000000D02*
G75*
G02*
X117870000Y-115000000I6370000J0D01*
G01*
%TO.C,TP2*%
X176750000Y-126000000D02*
G75*
G02*
X173250000Y-126000000I-1750000J0D01*
G01*
X173250000Y-126000000D02*
G75*
G02*
X176750000Y-126000000I1750000J0D01*
G01*
%TO.C,R3*%
X121265000Y-113772936D02*
X121265000Y-114227064D01*
X122735000Y-113772936D02*
X122735000Y-114227064D01*
%TO.C,D1*%
X194975000Y-57925000D02*
X187025000Y-57925000D01*
X194975000Y-66075000D02*
X187025000Y-66075000D01*
X195720000Y-65770000D02*
X196000000Y-65770000D01*
X195720000Y-66050000D01*
X195720000Y-65770000D01*
G36*
X195720000Y-66050000D02*
G01*
X195720000Y-65770000D01*
X196000000Y-65770000D01*
X195720000Y-66050000D01*
G37*
%TO.C,J1*%
D17*
X119760000Y-32000000D02*
X119760000Y-43200000D01*
X119760000Y-43200000D02*
X135000000Y-43200000D01*
X135000000Y-32000000D02*
X119760000Y-32000000D01*
X135000000Y-43200000D02*
X135000000Y-32000000D01*
D14*
X131290000Y-43900000D02*
G75*
G02*
X131090000Y-43900000I-100000J0D01*
G01*
X131090000Y-43900000D02*
G75*
G02*
X131290000Y-43900000I100000J0D01*
G01*
%TO.C,R5*%
D16*
X175265000Y-119772936D02*
X175265000Y-120227064D01*
X176735000Y-119772936D02*
X176735000Y-120227064D01*
%TO.C,R1*%
X109000000Y-86780000D02*
X109000000Y-89430000D01*
X109000000Y-104220000D02*
X109000000Y-101570000D01*
X106630000Y-89430000D02*
X111370000Y-89430000D01*
X111370000Y-101570000D01*
X106630000Y-101570000D01*
X106630000Y-89430000D01*
%TO.C,R10*%
X166772936Y-124590000D02*
X168227064Y-124590000D01*
X166772936Y-126410000D02*
X168227064Y-126410000D01*
%TO.C,J2*%
X142340000Y-119480000D02*
X157820000Y-119480000D01*
X142340000Y-121600000D02*
X157820000Y-121600000D01*
X142340000Y-127800000D02*
X157820000Y-127800000D01*
X142340000Y-130300000D02*
X157820000Y-130300000D01*
X142340000Y-130920000D02*
X142340000Y-119480000D01*
X144700000Y-130920000D02*
X142340000Y-130920000D01*
X157820000Y-119480000D02*
X157820000Y-130920000D01*
X157820000Y-130920000D02*
X145300000Y-130920000D01*
X145000000Y-130920000D02*
X145440000Y-131530000D01*
X144560000Y-131530000D01*
X145000000Y-130920000D01*
G36*
X145440000Y-131530000D02*
G01*
X144560000Y-131530000D01*
X145000000Y-130920000D01*
X145440000Y-131530000D01*
G37*
%TO.C,U2*%
X172190000Y-106680000D02*
X172190000Y-111321000D01*
X172190000Y-106680000D02*
X182430000Y-106680000D01*
X172190000Y-108189000D02*
X182430000Y-108189000D01*
X172190000Y-111321000D02*
X173705000Y-111321000D01*
X173500000Y-111321000D02*
X173500000Y-113951000D01*
X175460000Y-106680000D02*
X175460000Y-108189000D01*
X175836000Y-111321000D02*
X176245000Y-111321000D01*
X176040000Y-111321000D02*
X176040000Y-113935000D01*
X178375000Y-111321000D02*
X178785000Y-111321000D01*
X178580000Y-111321000D02*
X178580000Y-113935000D01*
X179160000Y-106680000D02*
X179160000Y-108189000D01*
X180915000Y-111321000D02*
X182430000Y-111321000D01*
X181120000Y-111321000D02*
X181120000Y-113935000D01*
X182430000Y-106680000D02*
X182430000Y-111321000D01*
%TO.C,D2*%
X104025000Y-57925000D02*
X111975000Y-57925000D01*
X104025000Y-66075000D02*
X111975000Y-66075000D01*
X103280000Y-58230000D02*
X103000000Y-58230000D01*
X103280000Y-57950000D01*
X103280000Y-58230000D01*
G36*
X103280000Y-58230000D02*
G01*
X103000000Y-58230000D01*
X103280000Y-57950000D01*
X103280000Y-58230000D01*
G37*
%TO.C,R8*%
X170272936Y-118090000D02*
X171727064Y-118090000D01*
X170272936Y-119910000D02*
X171727064Y-119910000D01*
%TO.C,R9*%
X130190000Y-120727064D02*
X130190000Y-119272936D01*
X132010000Y-120727064D02*
X132010000Y-119272936D01*
%TO.C,TP3*%
X118750000Y-104000000D02*
G75*
G02*
X115250000Y-104000000I-1750000J0D01*
G01*
X115250000Y-104000000D02*
G75*
G02*
X118750000Y-104000000I1750000J0D01*
G01*
%TO.C,R11*%
X131272936Y-124590000D02*
X132727064Y-124590000D01*
X131272936Y-126410000D02*
X132727064Y-126410000D01*
%TO.C,C8*%
X142960000Y-114470000D02*
X139983000Y-114470000D01*
X142960000Y-114510000D02*
X139991000Y-114510000D01*
X142960000Y-114550000D02*
X139998000Y-114550000D01*
X142960000Y-114590000D02*
X140007000Y-114590000D01*
X142960000Y-114630000D02*
X140015000Y-114630000D01*
X142960000Y-114670000D02*
X140024000Y-114670000D01*
X142960000Y-114710000D02*
X140033000Y-114710000D01*
X142960000Y-114750000D02*
X140043000Y-114750000D01*
X142960000Y-114790000D02*
X140053000Y-114790000D01*
X142960000Y-114830000D02*
X140064000Y-114830000D01*
X142960000Y-114870000D02*
X140075000Y-114870000D01*
X142960000Y-114910000D02*
X140087000Y-114910000D01*
X142960000Y-114950000D02*
X140099000Y-114950000D01*
X142960000Y-114990000D02*
X140111000Y-114990000D01*
X142960000Y-115030000D02*
X140124000Y-115030000D01*
X142960000Y-115070000D02*
X140137000Y-115070000D01*
X142960000Y-115110000D02*
X140151000Y-115110000D01*
X142960000Y-115150000D02*
X140165000Y-115150000D01*
X142960000Y-115190000D02*
X140180000Y-115190000D01*
X142960000Y-115230000D02*
X140195000Y-115230000D01*
X142960000Y-115270000D02*
X140211000Y-115270000D01*
X142960000Y-115310000D02*
X140227000Y-115310000D01*
X142960000Y-115350000D02*
X140243000Y-115350000D01*
X142960000Y-115390000D02*
X140260000Y-115390000D01*
X142960000Y-115430000D02*
X140278000Y-115430000D01*
X142960000Y-115470000D02*
X140296000Y-115470000D01*
X142960000Y-115510000D02*
X140315000Y-115510000D01*
X142960000Y-115550000D02*
X140334000Y-115550000D01*
X142960000Y-115590000D02*
X140354000Y-115590000D01*
X142960000Y-115630000D02*
X140374000Y-115630000D01*
X142960000Y-115670000D02*
X140395000Y-115670000D01*
X142960000Y-115710000D02*
X140416000Y-115710000D01*
X142960000Y-115750000D02*
X140438000Y-115750000D01*
X142960000Y-115790000D02*
X140461000Y-115790000D01*
X142960000Y-115830000D02*
X140484000Y-115830000D01*
X142960000Y-115870000D02*
X140507000Y-115870000D01*
X142960000Y-115910000D02*
X140532000Y-115910000D01*
X142960000Y-115950000D02*
X140557000Y-115950000D01*
X142960000Y-115990000D02*
X140582000Y-115990000D01*
X142960000Y-116030000D02*
X140608000Y-116030000D01*
X142960000Y-116070000D02*
X140635000Y-116070000D01*
X142960000Y-116110000D02*
X140663000Y-116110000D01*
X142960000Y-116150000D02*
X140691000Y-116150000D01*
X142960000Y-116190000D02*
X140720000Y-116190000D01*
X142960000Y-116230000D02*
X140750000Y-116230000D01*
X142960000Y-116270000D02*
X140781000Y-116270000D01*
X142960000Y-116310000D02*
X140812000Y-116310000D01*
X142960000Y-116350000D02*
X140844000Y-116350000D01*
X142960000Y-116390000D02*
X140877000Y-116390000D01*
X142960000Y-116430000D02*
X140911000Y-116430000D01*
X142960000Y-116470000D02*
X140945000Y-116470000D01*
X142960000Y-116510000D02*
X140981000Y-116510000D01*
X144533000Y-117830000D02*
X143467000Y-117830000D01*
X144768000Y-117790000D02*
X143232000Y-117790000D01*
X144947000Y-117750000D02*
X143053000Y-117750000D01*
X145097000Y-117710000D02*
X142903000Y-117710000D01*
X145228000Y-117670000D02*
X142772000Y-117670000D01*
X145346000Y-117630000D02*
X142654000Y-117630000D01*
X145453000Y-117590000D02*
X142547000Y-117590000D01*
X145552000Y-117550000D02*
X142448000Y-117550000D01*
X145644000Y-117510000D02*
X142356000Y-117510000D01*
X145731000Y-117470000D02*
X142269000Y-117470000D01*
X145813000Y-117430000D02*
X142187000Y-117430000D01*
X145890000Y-117390000D02*
X142110000Y-117390000D01*
X145964000Y-117350000D02*
X142036000Y-117350000D01*
X146034000Y-117310000D02*
X141966000Y-117310000D01*
X146101000Y-117270000D02*
X141899000Y-117270000D01*
X146165000Y-117230000D02*
X141835000Y-117230000D01*
X146227000Y-117190000D02*
X141773000Y-117190000D01*
X146287000Y-117150000D02*
X141713000Y-117150000D01*
X146315000Y-109340302D02*
X146315000Y-110140302D01*
X146344000Y-117110000D02*
X141656000Y-117110000D01*
X146400000Y-117070000D02*
X141600000Y-117070000D01*
X146453000Y-117030000D02*
X141547000Y-117030000D01*
X146505000Y-116990000D02*
X141495000Y-116990000D01*
X146555000Y-116950000D02*
X141445000Y-116950000D01*
X146604000Y-116910000D02*
X141396000Y-116910000D01*
X146651000Y-116870000D02*
X141349000Y-116870000D01*
X146696000Y-116830000D02*
X141304000Y-116830000D01*
X146715000Y-109740302D02*
X145915000Y-109740302D01*
X146741000Y-116790000D02*
X141259000Y-116790000D01*
X146784000Y-116750000D02*
X141216000Y-116750000D01*
X146826000Y-116710000D02*
X141174000Y-116710000D01*
X146867000Y-116670000D02*
X141133000Y-116670000D01*
X146906000Y-116630000D02*
X141094000Y-116630000D01*
X146945000Y-116590000D02*
X141055000Y-116590000D01*
X146982000Y-116550000D02*
X141018000Y-116550000D01*
X147019000Y-116510000D02*
X145040000Y-116510000D01*
X147055000Y-116470000D02*
X145040000Y-116470000D01*
X147089000Y-116430000D02*
X145040000Y-116430000D01*
X147123000Y-116390000D02*
X145040000Y-116390000D01*
X147156000Y-116350000D02*
X145040000Y-116350000D01*
X147188000Y-116310000D02*
X145040000Y-116310000D01*
X147219000Y-116270000D02*
X145040000Y-116270000D01*
X147250000Y-116230000D02*
X145040000Y-116230000D01*
X147280000Y-116190000D02*
X145040000Y-116190000D01*
X147309000Y-116150000D02*
X145040000Y-116150000D01*
X147337000Y-116110000D02*
X145040000Y-116110000D01*
X147365000Y-116070000D02*
X145040000Y-116070000D01*
X147392000Y-116030000D02*
X145040000Y-116030000D01*
X147418000Y-115990000D02*
X145040000Y-115990000D01*
X147443000Y-115950000D02*
X145040000Y-115950000D01*
X147468000Y-115910000D02*
X145040000Y-115910000D01*
X147493000Y-115870000D02*
X145040000Y-115870000D01*
X147516000Y-115830000D02*
X145040000Y-115830000D01*
X147539000Y-115790000D02*
X145040000Y-115790000D01*
X147562000Y-115750000D02*
X145040000Y-115750000D01*
X147584000Y-115710000D02*
X145040000Y-115710000D01*
X147605000Y-115670000D02*
X145040000Y-115670000D01*
X147626000Y-115630000D02*
X145040000Y-115630000D01*
X147646000Y-115590000D02*
X145040000Y-115590000D01*
X147666000Y-115550000D02*
X145040000Y-115550000D01*
X147685000Y-115510000D02*
X145040000Y-115510000D01*
X147704000Y-115470000D02*
X145040000Y-115470000D01*
X147722000Y-115430000D02*
X145040000Y-115430000D01*
X147740000Y-115390000D02*
X145040000Y-115390000D01*
X147757000Y-115350000D02*
X145040000Y-115350000D01*
X147773000Y-115310000D02*
X145040000Y-115310000D01*
X147789000Y-115270000D02*
X145040000Y-115270000D01*
X147805000Y-115230000D02*
X145040000Y-115230000D01*
X147820000Y-115190000D02*
X145040000Y-115190000D01*
X147835000Y-115150000D02*
X145040000Y-115150000D01*
X147849000Y-115110000D02*
X145040000Y-115110000D01*
X147863000Y-115070000D02*
X145040000Y-115070000D01*
X147876000Y-115030000D02*
X145040000Y-115030000D01*
X147889000Y-114990000D02*
X145040000Y-114990000D01*
X147901000Y-114950000D02*
X145040000Y-114950000D01*
X147913000Y-114910000D02*
X145040000Y-114910000D01*
X147925000Y-114870000D02*
X145040000Y-114870000D01*
X147936000Y-114830000D02*
X145040000Y-114830000D01*
X147947000Y-114790000D02*
X145040000Y-114790000D01*
X147957000Y-114750000D02*
X145040000Y-114750000D01*
X147967000Y-114710000D02*
X145040000Y-114710000D01*
X147976000Y-114670000D02*
X145040000Y-114670000D01*
X147985000Y-114630000D02*
X145040000Y-114630000D01*
X147993000Y-114590000D02*
X145040000Y-114590000D01*
X148002000Y-114550000D02*
X145040000Y-114550000D01*
X148009000Y-114510000D02*
X145040000Y-114510000D01*
X148017000Y-114470000D02*
X145040000Y-114470000D01*
X148023000Y-114430000D02*
X139977000Y-114430000D01*
X148030000Y-114390000D02*
X139970000Y-114390000D01*
X148036000Y-114350000D02*
X139964000Y-114350000D01*
X148042000Y-114310000D02*
X139958000Y-114310000D01*
X148047000Y-114270000D02*
X139953000Y-114270000D01*
X148052000Y-114230000D02*
X139948000Y-114230000D01*
X148056000Y-114190000D02*
X139944000Y-114190000D01*
X148061000Y-114150000D02*
X139939000Y-114150000D01*
X148064000Y-114110000D02*
X139936000Y-114110000D01*
X148068000Y-114070000D02*
X139932000Y-114070000D01*
X148070000Y-114030000D02*
X139930000Y-114030000D01*
X148073000Y-113990000D02*
X139927000Y-113990000D01*
X148075000Y-113950000D02*
X139925000Y-113950000D01*
X148077000Y-113910000D02*
X139923000Y-113910000D01*
X148078000Y-113870000D02*
X139922000Y-113870000D01*
X148079000Y-113830000D02*
X139921000Y-113830000D01*
X148080000Y-113750000D02*
X139920000Y-113750000D01*
X148080000Y-113790000D02*
X139920000Y-113790000D01*
X148120000Y-113750000D02*
G75*
G02*
X139880000Y-113750000I-4120000J0D01*
G01*
X139880000Y-113750000D02*
G75*
G02*
X148120000Y-113750000I4120000J0D01*
G01*
%TO.C,U1*%
X124690000Y-106680000D02*
X124690000Y-111321000D01*
X124690000Y-106680000D02*
X134930000Y-106680000D01*
X124690000Y-108189000D02*
X134930000Y-108189000D01*
X124690000Y-111321000D02*
X126205000Y-111321000D01*
X126000000Y-111321000D02*
X126000000Y-113951000D01*
X127960000Y-106680000D02*
X127960000Y-108189000D01*
X128336000Y-111321000D02*
X128745000Y-111321000D01*
X128540000Y-111321000D02*
X128540000Y-113935000D01*
X130875000Y-111321000D02*
X131285000Y-111321000D01*
X131080000Y-111321000D02*
X131080000Y-113935000D01*
X131660000Y-106680000D02*
X131660000Y-108189000D01*
X133415000Y-111321000D02*
X134930000Y-111321000D01*
X133620000Y-111321000D02*
X133620000Y-113935000D01*
X134930000Y-106680000D02*
X134930000Y-111321000D01*
%TO.C,D3*%
X163290000Y-124420000D02*
X163290000Y-124264000D01*
X163290000Y-126736000D02*
X163290000Y-126580000D01*
X160058563Y-124420000D02*
G75*
G02*
X163290000Y-124264484I1671437J-1080000D01*
G01*
X160689039Y-124420000D02*
G75*
G02*
X162770961Y-124420000I1040961J-1080000D01*
G01*
X162770961Y-126580000D02*
G75*
G02*
X160689039Y-126580000I-1040961J1080000D01*
G01*
X163290000Y-126735516D02*
G75*
G02*
X160058563Y-126580000I-1560000J1235516D01*
G01*
%TO.C,R4*%
X177845000Y-119772936D02*
X177845000Y-120227064D01*
X179315000Y-119772936D02*
X179315000Y-120227064D01*
%TO.C,C3*%
X189560000Y-114906041D02*
X184762000Y-114906041D01*
X189560000Y-114946041D02*
X184769000Y-114946041D01*
X189560000Y-114986041D02*
X184777000Y-114986041D01*
X189560000Y-115026041D02*
X184784000Y-115026041D01*
X189560000Y-115066041D02*
X184792000Y-115066041D01*
X189560000Y-115106041D02*
X184800000Y-115106041D01*
X189560000Y-115146041D02*
X184808000Y-115146041D01*
X189560000Y-115186041D02*
X184817000Y-115186041D01*
X189560000Y-115226041D02*
X184826000Y-115226041D01*
X189560000Y-115266041D02*
X184835000Y-115266041D01*
X189560000Y-115306041D02*
X184844000Y-115306041D01*
X189560000Y-115346041D02*
X184854000Y-115346041D01*
X189560000Y-115386041D02*
X184864000Y-115386041D01*
X189560000Y-115426041D02*
X184874000Y-115426041D01*
X189560000Y-115466041D02*
X184885000Y-115466041D01*
X189560000Y-115506041D02*
X184896000Y-115506041D01*
X189560000Y-115546041D02*
X184907000Y-115546041D01*
X189560000Y-115586041D02*
X184918000Y-115586041D01*
X189560000Y-115626041D02*
X184930000Y-115626041D01*
X189560000Y-115666041D02*
X184942000Y-115666041D01*
X189560000Y-115706041D02*
X184954000Y-115706041D01*
X189560000Y-115746041D02*
X184966000Y-115746041D01*
X189560000Y-115786041D02*
X184979000Y-115786041D01*
X189560000Y-115826041D02*
X184992000Y-115826041D01*
X189560000Y-115866041D02*
X185005000Y-115866041D01*
X189560000Y-115906041D02*
X185019000Y-115906041D01*
X189560000Y-115946041D02*
X185033000Y-115946041D01*
X189560000Y-115986041D02*
X185047000Y-115986041D01*
X189560000Y-116026041D02*
X185062000Y-116026041D01*
X189560000Y-116066041D02*
X185077000Y-116066041D01*
X189560000Y-116106041D02*
X185092000Y-116106041D01*
X189560000Y-116146041D02*
X185108000Y-116146041D01*
X189560000Y-116186041D02*
X185123000Y-116186041D01*
X189560000Y-116226041D02*
X185139000Y-116226041D01*
X189560000Y-116266041D02*
X185156000Y-116266041D01*
X189560000Y-116306041D02*
X185173000Y-116306041D01*
X189560000Y-116346041D02*
X185190000Y-116346041D01*
X189560000Y-116386041D02*
X185207000Y-116386041D01*
X189560000Y-116426041D02*
X185225000Y-116426041D01*
X189560000Y-116466041D02*
X185243000Y-116466041D01*
X189560000Y-116506041D02*
X185261000Y-116506041D01*
X189560000Y-116546041D02*
X185280000Y-116546041D01*
X189560000Y-116586041D02*
X185299000Y-116586041D01*
X189560000Y-116626041D02*
X185318000Y-116626041D01*
X189560000Y-116666041D02*
X185338000Y-116666041D01*
X189560000Y-116706041D02*
X185358000Y-116706041D01*
X189560000Y-116746041D02*
X185379000Y-116746041D01*
X189560000Y-116786041D02*
X185399000Y-116786041D01*
X189560000Y-116826041D02*
X185421000Y-116826041D01*
X189560000Y-116866041D02*
X185442000Y-116866041D01*
X189560000Y-116906041D02*
X185464000Y-116906041D01*
X189560000Y-116946041D02*
X185486000Y-116946041D01*
X189560000Y-116986041D02*
X185509000Y-116986041D01*
X189560000Y-117026041D02*
X185532000Y-117026041D01*
X189560000Y-117066041D02*
X185556000Y-117066041D01*
X189560000Y-117106041D02*
X185579000Y-117106041D01*
X189560000Y-117146041D02*
X185604000Y-117146041D01*
X189560000Y-117186041D02*
X185628000Y-117186041D01*
X189560000Y-117226041D02*
X185653000Y-117226041D01*
X189560000Y-117266041D02*
X185679000Y-117266041D01*
X189560000Y-117306041D02*
X185705000Y-117306041D01*
X189560000Y-117346041D02*
X185731000Y-117346041D01*
X189560000Y-117386041D02*
X185758000Y-117386041D01*
X189560000Y-117426041D02*
X185785000Y-117426041D01*
X189560000Y-117466041D02*
X185812000Y-117466041D01*
X189560000Y-117506041D02*
X185841000Y-117506041D01*
X189560000Y-117546041D02*
X185869000Y-117546041D01*
X189560000Y-117586041D02*
X185898000Y-117586041D01*
X189560000Y-117626041D02*
X185928000Y-117626041D01*
X189560000Y-117666041D02*
X185958000Y-117666041D01*
X189560000Y-117706041D02*
X185988000Y-117706041D01*
X189560000Y-117746041D02*
X186019000Y-117746041D01*
X191317000Y-120186041D02*
X190683000Y-120186041D01*
X191757000Y-120146041D02*
X190243000Y-120146041D01*
X192027000Y-120106041D02*
X189973000Y-120106041D01*
X192240000Y-120066041D02*
X189760000Y-120066041D01*
X192422000Y-120026041D02*
X189578000Y-120026041D01*
X192582000Y-119986041D02*
X189418000Y-119986041D01*
X192727000Y-119946041D02*
X189273000Y-119946041D01*
X192860000Y-119906041D02*
X189140000Y-119906041D01*
X192984000Y-119866041D02*
X189016000Y-119866041D01*
X193099000Y-119826041D02*
X188901000Y-119826041D01*
X193208000Y-119786041D02*
X188792000Y-119786041D01*
X193312000Y-119746041D02*
X188688000Y-119746041D01*
X193410000Y-119706041D02*
X188590000Y-119706041D01*
X193504000Y-119666041D02*
X188496000Y-119666041D01*
X193594000Y-119626041D02*
X188406000Y-119626041D01*
X193680000Y-119586041D02*
X188320000Y-119586041D01*
X193763000Y-119546041D02*
X188237000Y-119546041D01*
X193843000Y-119506041D02*
X188157000Y-119506041D01*
X193921000Y-119466041D02*
X188079000Y-119466041D01*
X193996000Y-119426041D02*
X188004000Y-119426041D01*
X194069000Y-119386041D02*
X187931000Y-119386041D01*
X194139000Y-119346041D02*
X187861000Y-119346041D01*
X194208000Y-119306041D02*
X187792000Y-119306041D01*
X194274000Y-119266041D02*
X187726000Y-119266041D01*
X194339000Y-119226041D02*
X187661000Y-119226041D01*
X194402000Y-119186041D02*
X187598000Y-119186041D01*
X194463000Y-119146041D02*
X187537000Y-119146041D01*
X194523000Y-119106041D02*
X187477000Y-119106041D01*
X194575000Y-107008959D02*
X194575000Y-108258959D01*
X194582000Y-119066041D02*
X187418000Y-119066041D01*
X194639000Y-119026041D02*
X187361000Y-119026041D01*
X194695000Y-118986041D02*
X187305000Y-118986041D01*
X194750000Y-118946041D02*
X187250000Y-118946041D01*
X194803000Y-118906041D02*
X187197000Y-118906041D01*
X194856000Y-118866041D02*
X187144000Y-118866041D01*
X194907000Y-118826041D02*
X187093000Y-118826041D01*
X194957000Y-118786041D02*
X187043000Y-118786041D01*
X195006000Y-118746041D02*
X186994000Y-118746041D01*
X195054000Y-118706041D02*
X186946000Y-118706041D01*
X195101000Y-118666041D02*
X186899000Y-118666041D01*
X195148000Y-118626041D02*
X186852000Y-118626041D01*
X195193000Y-118586041D02*
X186807000Y-118586041D01*
X195200000Y-107633959D02*
X193950000Y-107633959D01*
X195238000Y-118546041D02*
X186762000Y-118546041D01*
X195281000Y-118506041D02*
X186719000Y-118506041D01*
X195324000Y-118466041D02*
X186676000Y-118466041D01*
X195366000Y-118426041D02*
X186634000Y-118426041D01*
X195408000Y-118386041D02*
X186592000Y-118386041D01*
X195448000Y-118346041D02*
X186552000Y-118346041D01*
X195488000Y-118306041D02*
X186512000Y-118306041D01*
X195528000Y-118266041D02*
X186472000Y-118266041D01*
X195566000Y-118226041D02*
X186434000Y-118226041D01*
X195604000Y-118186041D02*
X186396000Y-118186041D01*
X195641000Y-118146041D02*
X186359000Y-118146041D01*
X195678000Y-118106041D02*
X186322000Y-118106041D01*
X195714000Y-118066041D02*
X186286000Y-118066041D01*
X195749000Y-118026041D02*
X186251000Y-118026041D01*
X195784000Y-117986041D02*
X186216000Y-117986041D01*
X195818000Y-117946041D02*
X186182000Y-117946041D01*
X195852000Y-117906041D02*
X186148000Y-117906041D01*
X195885000Y-117866041D02*
X186115000Y-117866041D01*
X195918000Y-117826041D02*
X186082000Y-117826041D01*
X195950000Y-117786041D02*
X186050000Y-117786041D01*
X195981000Y-117746041D02*
X192440000Y-117746041D01*
X196012000Y-117706041D02*
X192440000Y-117706041D01*
X196042000Y-117666041D02*
X192440000Y-117666041D01*
X196072000Y-117626041D02*
X192440000Y-117626041D01*
X196102000Y-117586041D02*
X192440000Y-117586041D01*
X196131000Y-117546041D02*
X192440000Y-117546041D01*
X196159000Y-117506041D02*
X192440000Y-117506041D01*
X196188000Y-117466041D02*
X192440000Y-117466041D01*
X196215000Y-117426041D02*
X192440000Y-117426041D01*
X196242000Y-117386041D02*
X192440000Y-117386041D01*
X196269000Y-117346041D02*
X192440000Y-117346041D01*
X196295000Y-117306041D02*
X192440000Y-117306041D01*
X196321000Y-117266041D02*
X192440000Y-117266041D01*
X196347000Y-117226041D02*
X192440000Y-117226041D01*
X196372000Y-117186041D02*
X192440000Y-117186041D01*
X196396000Y-117146041D02*
X192440000Y-117146041D01*
X196421000Y-117106041D02*
X192440000Y-117106041D01*
X196444000Y-117066041D02*
X192440000Y-117066041D01*
X196468000Y-117026041D02*
X192440000Y-117026041D01*
X196491000Y-116986041D02*
X192440000Y-116986041D01*
X196514000Y-116946041D02*
X192440000Y-116946041D01*
X196536000Y-116906041D02*
X192440000Y-116906041D01*
X196558000Y-116866041D02*
X192440000Y-116866041D01*
X196579000Y-116826041D02*
X192440000Y-116826041D01*
X196601000Y-116786041D02*
X192440000Y-116786041D01*
X196621000Y-116746041D02*
X192440000Y-116746041D01*
X196642000Y-116706041D02*
X192440000Y-116706041D01*
X196662000Y-116666041D02*
X192440000Y-116666041D01*
X196682000Y-116626041D02*
X192440000Y-116626041D01*
X196701000Y-116586041D02*
X192440000Y-116586041D01*
X196720000Y-116546041D02*
X192440000Y-116546041D01*
X196739000Y-116506041D02*
X192440000Y-116506041D01*
X196757000Y-116466041D02*
X192440000Y-116466041D01*
X196775000Y-116426041D02*
X192440000Y-116426041D01*
X196793000Y-116386041D02*
X192440000Y-116386041D01*
X196810000Y-116346041D02*
X192440000Y-116346041D01*
X196827000Y-116306041D02*
X192440000Y-116306041D01*
X196844000Y-116266041D02*
X192440000Y-116266041D01*
X196861000Y-116226041D02*
X192440000Y-116226041D01*
X196877000Y-116186041D02*
X192440000Y-116186041D01*
X196892000Y-116146041D02*
X192440000Y-116146041D01*
X196908000Y-116106041D02*
X192440000Y-116106041D01*
X196923000Y-116066041D02*
X192440000Y-116066041D01*
X196938000Y-116026041D02*
X192440000Y-116026041D01*
X196953000Y-115986041D02*
X192440000Y-115986041D01*
X196967000Y-115946041D02*
X192440000Y-115946041D01*
X196981000Y-115906041D02*
X192440000Y-115906041D01*
X196995000Y-115866041D02*
X192440000Y-115866041D01*
X197008000Y-115826041D02*
X192440000Y-115826041D01*
X197021000Y-115786041D02*
X192440000Y-115786041D01*
X197034000Y-115746041D02*
X192440000Y-115746041D01*
X197046000Y-115706041D02*
X192440000Y-115706041D01*
X197058000Y-115666041D02*
X192440000Y-115666041D01*
X197070000Y-115626041D02*
X192440000Y-115626041D01*
X197082000Y-115586041D02*
X192440000Y-115586041D01*
X197093000Y-115546041D02*
X192440000Y-115546041D01*
X197104000Y-115506041D02*
X192440000Y-115506041D01*
X197115000Y-115466041D02*
X192440000Y-115466041D01*
X197126000Y-115426041D02*
X192440000Y-115426041D01*
X197136000Y-115386041D02*
X192440000Y-115386041D01*
X197146000Y-115346041D02*
X192440000Y-115346041D01*
X197156000Y-115306041D02*
X192440000Y-115306041D01*
X197165000Y-115266041D02*
X192440000Y-115266041D01*
X197174000Y-115226041D02*
X192440000Y-115226041D01*
X197183000Y-115186041D02*
X192440000Y-115186041D01*
X197192000Y-115146041D02*
X192440000Y-115146041D01*
X197200000Y-115106041D02*
X192440000Y-115106041D01*
X197208000Y-115066041D02*
X192440000Y-115066041D01*
X197216000Y-115026041D02*
X192440000Y-115026041D01*
X197223000Y-114986041D02*
X192440000Y-114986041D01*
X197231000Y-114946041D02*
X192440000Y-114946041D01*
X197238000Y-114906041D02*
X192440000Y-114906041D01*
X197245000Y-114866041D02*
X184755000Y-114866041D01*
X197251000Y-114826041D02*
X184749000Y-114826041D01*
X197257000Y-114786041D02*
X184743000Y-114786041D01*
X197263000Y-114746041D02*
X184737000Y-114746041D01*
X197269000Y-114706041D02*
X184731000Y-114706041D01*
X197274000Y-114666041D02*
X184726000Y-114666041D01*
X197280000Y-114626041D02*
X184720000Y-114626041D01*
X197284000Y-114586041D02*
X184716000Y-114586041D01*
X197289000Y-114546041D02*
X184711000Y-114546041D01*
X197294000Y-114506041D02*
X184706000Y-114506041D01*
X197298000Y-114466041D02*
X184702000Y-114466041D01*
X197302000Y-114426041D02*
X184698000Y-114426041D01*
X197305000Y-114386041D02*
X184695000Y-114386041D01*
X197309000Y-114346041D02*
X184691000Y-114346041D01*
X197312000Y-114306041D02*
X184688000Y-114306041D01*
X197315000Y-114266041D02*
X184685000Y-114266041D01*
X197317000Y-114226041D02*
X184683000Y-114226041D01*
X197320000Y-114186041D02*
X184680000Y-114186041D01*
X197322000Y-114146041D02*
X184678000Y-114146041D01*
X197324000Y-114106041D02*
X184676000Y-114106041D01*
X197325000Y-114066041D02*
X184675000Y-114066041D01*
X197327000Y-114026041D02*
X184673000Y-114026041D01*
X197328000Y-113986041D02*
X184672000Y-113986041D01*
X197329000Y-113906041D02*
X184671000Y-113906041D01*
X197329000Y-113946041D02*
X184671000Y-113946041D01*
X197330000Y-113826041D02*
X184670000Y-113826041D01*
X197330000Y-113866041D02*
X184670000Y-113866041D01*
X197370000Y-113826041D02*
G75*
G02*
X184630000Y-113826041I-6370000J0D01*
G01*
X184630000Y-113826041D02*
G75*
G02*
X197370000Y-113826041I6370000J0D01*
G01*
%TO.C,C2*%
X107560000Y-76580000D02*
X102762000Y-76580000D01*
X107560000Y-76620000D02*
X102769000Y-76620000D01*
X107560000Y-76660000D02*
X102777000Y-76660000D01*
X107560000Y-76700000D02*
X102784000Y-76700000D01*
X107560000Y-76740000D02*
X102792000Y-76740000D01*
X107560000Y-76780000D02*
X102800000Y-76780000D01*
X107560000Y-76820000D02*
X102808000Y-76820000D01*
X107560000Y-76860000D02*
X102817000Y-76860000D01*
X107560000Y-76900000D02*
X102826000Y-76900000D01*
X107560000Y-76940000D02*
X102835000Y-76940000D01*
X107560000Y-76980000D02*
X102844000Y-76980000D01*
X107560000Y-77020000D02*
X102854000Y-77020000D01*
X107560000Y-77060000D02*
X102864000Y-77060000D01*
X107560000Y-77100000D02*
X102874000Y-77100000D01*
X107560000Y-77140000D02*
X102885000Y-77140000D01*
X107560000Y-77180000D02*
X102896000Y-77180000D01*
X107560000Y-77220000D02*
X102907000Y-77220000D01*
X107560000Y-77260000D02*
X102918000Y-77260000D01*
X107560000Y-77300000D02*
X102930000Y-77300000D01*
X107560000Y-77340000D02*
X102942000Y-77340000D01*
X107560000Y-77380000D02*
X102954000Y-77380000D01*
X107560000Y-77420000D02*
X102966000Y-77420000D01*
X107560000Y-77460000D02*
X102979000Y-77460000D01*
X107560000Y-77500000D02*
X102992000Y-77500000D01*
X107560000Y-77540000D02*
X103005000Y-77540000D01*
X107560000Y-77580000D02*
X103019000Y-77580000D01*
X107560000Y-77620000D02*
X103033000Y-77620000D01*
X107560000Y-77660000D02*
X103047000Y-77660000D01*
X107560000Y-77700000D02*
X103062000Y-77700000D01*
X107560000Y-77740000D02*
X103077000Y-77740000D01*
X107560000Y-77780000D02*
X103092000Y-77780000D01*
X107560000Y-77820000D02*
X103108000Y-77820000D01*
X107560000Y-77860000D02*
X103123000Y-77860000D01*
X107560000Y-77900000D02*
X103139000Y-77900000D01*
X107560000Y-77940000D02*
X103156000Y-77940000D01*
X107560000Y-77980000D02*
X103173000Y-77980000D01*
X107560000Y-78020000D02*
X103190000Y-78020000D01*
X107560000Y-78060000D02*
X103207000Y-78060000D01*
X107560000Y-78100000D02*
X103225000Y-78100000D01*
X107560000Y-78140000D02*
X103243000Y-78140000D01*
X107560000Y-78180000D02*
X103261000Y-78180000D01*
X107560000Y-78220000D02*
X103280000Y-78220000D01*
X107560000Y-78260000D02*
X103299000Y-78260000D01*
X107560000Y-78300000D02*
X103318000Y-78300000D01*
X107560000Y-78340000D02*
X103338000Y-78340000D01*
X107560000Y-78380000D02*
X103358000Y-78380000D01*
X107560000Y-78420000D02*
X103379000Y-78420000D01*
X107560000Y-78460000D02*
X103399000Y-78460000D01*
X107560000Y-78500000D02*
X103421000Y-78500000D01*
X107560000Y-78540000D02*
X103442000Y-78540000D01*
X107560000Y-78580000D02*
X103464000Y-78580000D01*
X107560000Y-78620000D02*
X103486000Y-78620000D01*
X107560000Y-78660000D02*
X103509000Y-78660000D01*
X107560000Y-78700000D02*
X103532000Y-78700000D01*
X107560000Y-78740000D02*
X103556000Y-78740000D01*
X107560000Y-78780000D02*
X103579000Y-78780000D01*
X107560000Y-78820000D02*
X103604000Y-78820000D01*
X107560000Y-78860000D02*
X103628000Y-78860000D01*
X107560000Y-78900000D02*
X103653000Y-78900000D01*
X107560000Y-78940000D02*
X103679000Y-78940000D01*
X107560000Y-78980000D02*
X103705000Y-78980000D01*
X107560000Y-79020000D02*
X103731000Y-79020000D01*
X107560000Y-79060000D02*
X103758000Y-79060000D01*
X107560000Y-79100000D02*
X103785000Y-79100000D01*
X107560000Y-79140000D02*
X103812000Y-79140000D01*
X107560000Y-79180000D02*
X103841000Y-79180000D01*
X107560000Y-79220000D02*
X103869000Y-79220000D01*
X107560000Y-79260000D02*
X103898000Y-79260000D01*
X107560000Y-79300000D02*
X103928000Y-79300000D01*
X107560000Y-79340000D02*
X103958000Y-79340000D01*
X107560000Y-79380000D02*
X103988000Y-79380000D01*
X107560000Y-79420000D02*
X104019000Y-79420000D01*
X109317000Y-81860000D02*
X108683000Y-81860000D01*
X109757000Y-81820000D02*
X108243000Y-81820000D01*
X110027000Y-81780000D02*
X107973000Y-81780000D01*
X110240000Y-81740000D02*
X107760000Y-81740000D01*
X110422000Y-81700000D02*
X107578000Y-81700000D01*
X110582000Y-81660000D02*
X107418000Y-81660000D01*
X110727000Y-81620000D02*
X107273000Y-81620000D01*
X110860000Y-81580000D02*
X107140000Y-81580000D01*
X110984000Y-81540000D02*
X107016000Y-81540000D01*
X111099000Y-81500000D02*
X106901000Y-81500000D01*
X111208000Y-81460000D02*
X106792000Y-81460000D01*
X111312000Y-81420000D02*
X106688000Y-81420000D01*
X111410000Y-81380000D02*
X106590000Y-81380000D01*
X111504000Y-81340000D02*
X106496000Y-81340000D01*
X111594000Y-81300000D02*
X106406000Y-81300000D01*
X111680000Y-81260000D02*
X106320000Y-81260000D01*
X111763000Y-81220000D02*
X106237000Y-81220000D01*
X111843000Y-81180000D02*
X106157000Y-81180000D01*
X111921000Y-81140000D02*
X106079000Y-81140000D01*
X111996000Y-81100000D02*
X106004000Y-81100000D01*
X112069000Y-81060000D02*
X105931000Y-81060000D01*
X112139000Y-81020000D02*
X105861000Y-81020000D01*
X112208000Y-80980000D02*
X105792000Y-80980000D01*
X112274000Y-80940000D02*
X105726000Y-80940000D01*
X112339000Y-80900000D02*
X105661000Y-80900000D01*
X112402000Y-80860000D02*
X105598000Y-80860000D01*
X112463000Y-80820000D02*
X105537000Y-80820000D01*
X112523000Y-80780000D02*
X105477000Y-80780000D01*
X112575000Y-68682918D02*
X112575000Y-69932918D01*
X112582000Y-80740000D02*
X105418000Y-80740000D01*
X112639000Y-80700000D02*
X105361000Y-80700000D01*
X112695000Y-80660000D02*
X105305000Y-80660000D01*
X112750000Y-80620000D02*
X105250000Y-80620000D01*
X112803000Y-80580000D02*
X105197000Y-80580000D01*
X112856000Y-80540000D02*
X105144000Y-80540000D01*
X112907000Y-80500000D02*
X105093000Y-80500000D01*
X112957000Y-80460000D02*
X105043000Y-80460000D01*
X113006000Y-80420000D02*
X104994000Y-80420000D01*
X113054000Y-80380000D02*
X104946000Y-80380000D01*
X113101000Y-80340000D02*
X104899000Y-80340000D01*
X113148000Y-80300000D02*
X104852000Y-80300000D01*
X113193000Y-80260000D02*
X104807000Y-80260000D01*
X113200000Y-69307918D02*
X111950000Y-69307918D01*
X113238000Y-80220000D02*
X104762000Y-80220000D01*
X113281000Y-80180000D02*
X104719000Y-80180000D01*
X113324000Y-80140000D02*
X104676000Y-80140000D01*
X113366000Y-80100000D02*
X104634000Y-80100000D01*
X113408000Y-80060000D02*
X104592000Y-80060000D01*
X113448000Y-80020000D02*
X104552000Y-80020000D01*
X113488000Y-79980000D02*
X104512000Y-79980000D01*
X113528000Y-79940000D02*
X104472000Y-79940000D01*
X113566000Y-79900000D02*
X104434000Y-79900000D01*
X113604000Y-79860000D02*
X104396000Y-79860000D01*
X113641000Y-79820000D02*
X104359000Y-79820000D01*
X113678000Y-79780000D02*
X104322000Y-79780000D01*
X113714000Y-79740000D02*
X104286000Y-79740000D01*
X113749000Y-79700000D02*
X104251000Y-79700000D01*
X113784000Y-79660000D02*
X104216000Y-79660000D01*
X113818000Y-79620000D02*
X104182000Y-79620000D01*
X113852000Y-79580000D02*
X104148000Y-79580000D01*
X113885000Y-79540000D02*
X104115000Y-79540000D01*
X113918000Y-79500000D02*
X104082000Y-79500000D01*
X113950000Y-79460000D02*
X104050000Y-79460000D01*
X113981000Y-79420000D02*
X110440000Y-79420000D01*
X114012000Y-79380000D02*
X110440000Y-79380000D01*
X114042000Y-79340000D02*
X110440000Y-79340000D01*
X114072000Y-79300000D02*
X110440000Y-79300000D01*
X114102000Y-79260000D02*
X110440000Y-79260000D01*
X114131000Y-79220000D02*
X110440000Y-79220000D01*
X114159000Y-79180000D02*
X110440000Y-79180000D01*
X114188000Y-79140000D02*
X110440000Y-79140000D01*
X114215000Y-79100000D02*
X110440000Y-79100000D01*
X114242000Y-79060000D02*
X110440000Y-79060000D01*
X114269000Y-79020000D02*
X110440000Y-79020000D01*
X114295000Y-78980000D02*
X110440000Y-78980000D01*
X114321000Y-78940000D02*
X110440000Y-78940000D01*
X114347000Y-78900000D02*
X110440000Y-78900000D01*
X114372000Y-78860000D02*
X110440000Y-78860000D01*
X114396000Y-78820000D02*
X110440000Y-78820000D01*
X114421000Y-78780000D02*
X110440000Y-78780000D01*
X114444000Y-78740000D02*
X110440000Y-78740000D01*
X114468000Y-78700000D02*
X110440000Y-78700000D01*
X114491000Y-78660000D02*
X110440000Y-78660000D01*
X114514000Y-78620000D02*
X110440000Y-78620000D01*
X114536000Y-78580000D02*
X110440000Y-78580000D01*
X114558000Y-78540000D02*
X110440000Y-78540000D01*
X114579000Y-78500000D02*
X110440000Y-78500000D01*
X114601000Y-78460000D02*
X110440000Y-78460000D01*
X114621000Y-78420000D02*
X110440000Y-78420000D01*
X114642000Y-78380000D02*
X110440000Y-78380000D01*
X114662000Y-78340000D02*
X110440000Y-78340000D01*
X114682000Y-78300000D02*
X110440000Y-78300000D01*
X114701000Y-78260000D02*
X110440000Y-78260000D01*
X114720000Y-78220000D02*
X110440000Y-78220000D01*
X114739000Y-78180000D02*
X110440000Y-78180000D01*
X114757000Y-78140000D02*
X110440000Y-78140000D01*
X114775000Y-78100000D02*
X110440000Y-78100000D01*
X114793000Y-78060000D02*
X110440000Y-78060000D01*
X114810000Y-78020000D02*
X110440000Y-78020000D01*
X114827000Y-77980000D02*
X110440000Y-77980000D01*
X114844000Y-77940000D02*
X110440000Y-77940000D01*
X114861000Y-77900000D02*
X110440000Y-77900000D01*
X114877000Y-77860000D02*
X110440000Y-77860000D01*
X114892000Y-77820000D02*
X110440000Y-77820000D01*
X114908000Y-77780000D02*
X110440000Y-77780000D01*
X114923000Y-77740000D02*
X110440000Y-77740000D01*
X114938000Y-77700000D02*
X110440000Y-77700000D01*
X114953000Y-77660000D02*
X110440000Y-77660000D01*
X114967000Y-77620000D02*
X110440000Y-77620000D01*
X114981000Y-77580000D02*
X110440000Y-77580000D01*
X114995000Y-77540000D02*
X110440000Y-77540000D01*
X115008000Y-77500000D02*
X110440000Y-77500000D01*
X115021000Y-77460000D02*
X110440000Y-77460000D01*
X115034000Y-77420000D02*
X110440000Y-77420000D01*
X115046000Y-77380000D02*
X110440000Y-77380000D01*
X115058000Y-77340000D02*
X110440000Y-77340000D01*
X115070000Y-77300000D02*
X110440000Y-77300000D01*
X115082000Y-77260000D02*
X110440000Y-77260000D01*
X115093000Y-77220000D02*
X110440000Y-77220000D01*
X115104000Y-77180000D02*
X110440000Y-77180000D01*
X115115000Y-77140000D02*
X110440000Y-77140000D01*
X115126000Y-77100000D02*
X110440000Y-77100000D01*
X115136000Y-77060000D02*
X110440000Y-77060000D01*
X115146000Y-77020000D02*
X110440000Y-77020000D01*
X115156000Y-76980000D02*
X110440000Y-76980000D01*
X115165000Y-76940000D02*
X110440000Y-76940000D01*
X115174000Y-76900000D02*
X110440000Y-76900000D01*
X115183000Y-76860000D02*
X110440000Y-76860000D01*
X115192000Y-76820000D02*
X110440000Y-76820000D01*
X115200000Y-76780000D02*
X110440000Y-76780000D01*
X115208000Y-76740000D02*
X110440000Y-76740000D01*
X115216000Y-76700000D02*
X110440000Y-76700000D01*
X115223000Y-76660000D02*
X110440000Y-76660000D01*
X115231000Y-76620000D02*
X110440000Y-76620000D01*
X115238000Y-76580000D02*
X110440000Y-76580000D01*
X115245000Y-76540000D02*
X102755000Y-76540000D01*
X115251000Y-76500000D02*
X102749000Y-76500000D01*
X115257000Y-76460000D02*
X102743000Y-76460000D01*
X115263000Y-76420000D02*
X102737000Y-76420000D01*
X115269000Y-76380000D02*
X102731000Y-76380000D01*
X115274000Y-76340000D02*
X102726000Y-76340000D01*
X115280000Y-76300000D02*
X102720000Y-76300000D01*
X115284000Y-76260000D02*
X102716000Y-76260000D01*
X115289000Y-76220000D02*
X102711000Y-76220000D01*
X115294000Y-76180000D02*
X102706000Y-76180000D01*
X115298000Y-76140000D02*
X102702000Y-76140000D01*
X115302000Y-76100000D02*
X102698000Y-76100000D01*
X115305000Y-76060000D02*
X102695000Y-76060000D01*
X115309000Y-76020000D02*
X102691000Y-76020000D01*
X115312000Y-75980000D02*
X102688000Y-75980000D01*
X115315000Y-75940000D02*
X102685000Y-75940000D01*
X115317000Y-75900000D02*
X102683000Y-75900000D01*
X115320000Y-75860000D02*
X102680000Y-75860000D01*
X115322000Y-75820000D02*
X102678000Y-75820000D01*
X115324000Y-75780000D02*
X102676000Y-75780000D01*
X115325000Y-75740000D02*
X102675000Y-75740000D01*
X115327000Y-75700000D02*
X102673000Y-75700000D01*
X115328000Y-75660000D02*
X102672000Y-75660000D01*
X115329000Y-75580000D02*
X102671000Y-75580000D01*
X115329000Y-75620000D02*
X102671000Y-75620000D01*
X115330000Y-75500000D02*
X102670000Y-75500000D01*
X115330000Y-75540000D02*
X102670000Y-75540000D01*
X115370000Y-75500000D02*
G75*
G02*
X102630000Y-75500000I-6370000J0D01*
G01*
X102630000Y-75500000D02*
G75*
G02*
X115370000Y-75500000I6370000J0D01*
G01*
%TO.C,C7*%
X150920000Y-113710000D02*
X159080000Y-113710000D01*
X150920000Y-113750000D02*
X159080000Y-113750000D01*
X150921000Y-113670000D02*
X159079000Y-113670000D01*
X150922000Y-113630000D02*
X159078000Y-113630000D01*
X150923000Y-113590000D02*
X159077000Y-113590000D01*
X150925000Y-113550000D02*
X159075000Y-113550000D01*
X150927000Y-113510000D02*
X159073000Y-113510000D01*
X150930000Y-113470000D02*
X159070000Y-113470000D01*
X150932000Y-113430000D02*
X159068000Y-113430000D01*
X150936000Y-113390000D02*
X159064000Y-113390000D01*
X150939000Y-113350000D02*
X159061000Y-113350000D01*
X150944000Y-113310000D02*
X159056000Y-113310000D01*
X150948000Y-113270000D02*
X159052000Y-113270000D01*
X150953000Y-113230000D02*
X159047000Y-113230000D01*
X150958000Y-113190000D02*
X159042000Y-113190000D01*
X150964000Y-113150000D02*
X159036000Y-113150000D01*
X150970000Y-113110000D02*
X159030000Y-113110000D01*
X150977000Y-113070000D02*
X159023000Y-113070000D01*
X150983000Y-113030000D02*
X153960000Y-113030000D01*
X150991000Y-112990000D02*
X153960000Y-112990000D01*
X150998000Y-112950000D02*
X153960000Y-112950000D01*
X151007000Y-112910000D02*
X153960000Y-112910000D01*
X151015000Y-112870000D02*
X153960000Y-112870000D01*
X151024000Y-112830000D02*
X153960000Y-112830000D01*
X151033000Y-112790000D02*
X153960000Y-112790000D01*
X151043000Y-112750000D02*
X153960000Y-112750000D01*
X151053000Y-112710000D02*
X153960000Y-112710000D01*
X151064000Y-112670000D02*
X153960000Y-112670000D01*
X151075000Y-112630000D02*
X153960000Y-112630000D01*
X151087000Y-112590000D02*
X153960000Y-112590000D01*
X151099000Y-112550000D02*
X153960000Y-112550000D01*
X151111000Y-112510000D02*
X153960000Y-112510000D01*
X151124000Y-112470000D02*
X153960000Y-112470000D01*
X151137000Y-112430000D02*
X153960000Y-112430000D01*
X151151000Y-112390000D02*
X153960000Y-112390000D01*
X151165000Y-112350000D02*
X153960000Y-112350000D01*
X151180000Y-112310000D02*
X153960000Y-112310000D01*
X151195000Y-112270000D02*
X153960000Y-112270000D01*
X151211000Y-112230000D02*
X153960000Y-112230000D01*
X151227000Y-112190000D02*
X153960000Y-112190000D01*
X151243000Y-112150000D02*
X153960000Y-112150000D01*
X151260000Y-112110000D02*
X153960000Y-112110000D01*
X151278000Y-112070000D02*
X153960000Y-112070000D01*
X151296000Y-112030000D02*
X153960000Y-112030000D01*
X151315000Y-111990000D02*
X153960000Y-111990000D01*
X151334000Y-111950000D02*
X153960000Y-111950000D01*
X151354000Y-111910000D02*
X153960000Y-111910000D01*
X151374000Y-111870000D02*
X153960000Y-111870000D01*
X151395000Y-111830000D02*
X153960000Y-111830000D01*
X151416000Y-111790000D02*
X153960000Y-111790000D01*
X151438000Y-111750000D02*
X153960000Y-111750000D01*
X151461000Y-111710000D02*
X153960000Y-111710000D01*
X151484000Y-111670000D02*
X153960000Y-111670000D01*
X151507000Y-111630000D02*
X153960000Y-111630000D01*
X151532000Y-111590000D02*
X153960000Y-111590000D01*
X151557000Y-111550000D02*
X153960000Y-111550000D01*
X151582000Y-111510000D02*
X153960000Y-111510000D01*
X151608000Y-111470000D02*
X153960000Y-111470000D01*
X151635000Y-111430000D02*
X153960000Y-111430000D01*
X151663000Y-111390000D02*
X153960000Y-111390000D01*
X151691000Y-111350000D02*
X153960000Y-111350000D01*
X151720000Y-111310000D02*
X153960000Y-111310000D01*
X151750000Y-111270000D02*
X153960000Y-111270000D01*
X151781000Y-111230000D02*
X153960000Y-111230000D01*
X151812000Y-111190000D02*
X153960000Y-111190000D01*
X151844000Y-111150000D02*
X153960000Y-111150000D01*
X151877000Y-111110000D02*
X153960000Y-111110000D01*
X151911000Y-111070000D02*
X153960000Y-111070000D01*
X151945000Y-111030000D02*
X153960000Y-111030000D01*
X151981000Y-110990000D02*
X153960000Y-110990000D01*
X152018000Y-110950000D02*
X157982000Y-110950000D01*
X152055000Y-110910000D02*
X157945000Y-110910000D01*
X152094000Y-110870000D02*
X157906000Y-110870000D01*
X152133000Y-110830000D02*
X157867000Y-110830000D01*
X152174000Y-110790000D02*
X157826000Y-110790000D01*
X152216000Y-110750000D02*
X157784000Y-110750000D01*
X152259000Y-110710000D02*
X157741000Y-110710000D01*
X152285000Y-117759698D02*
X153085000Y-117759698D01*
X152304000Y-110670000D02*
X157696000Y-110670000D01*
X152349000Y-110630000D02*
X157651000Y-110630000D01*
X152396000Y-110590000D02*
X157604000Y-110590000D01*
X152445000Y-110550000D02*
X157555000Y-110550000D01*
X152495000Y-110510000D02*
X157505000Y-110510000D01*
X152547000Y-110470000D02*
X157453000Y-110470000D01*
X152600000Y-110430000D02*
X157400000Y-110430000D01*
X152656000Y-110390000D02*
X157344000Y-110390000D01*
X152685000Y-118159698D02*
X152685000Y-117359698D01*
X152713000Y-110350000D02*
X157287000Y-110350000D01*
X152773000Y-110310000D02*
X157227000Y-110310000D01*
X152835000Y-110270000D02*
X157165000Y-110270000D01*
X152899000Y-110230000D02*
X157101000Y-110230000D01*
X152966000Y-110190000D02*
X157034000Y-110190000D01*
X153036000Y-110150000D02*
X156964000Y-110150000D01*
X153110000Y-110110000D02*
X156890000Y-110110000D01*
X153187000Y-110070000D02*
X156813000Y-110070000D01*
X153269000Y-110030000D02*
X156731000Y-110030000D01*
X153356000Y-109990000D02*
X156644000Y-109990000D01*
X153448000Y-109950000D02*
X156552000Y-109950000D01*
X153547000Y-109910000D02*
X156453000Y-109910000D01*
X153654000Y-109870000D02*
X156346000Y-109870000D01*
X153772000Y-109830000D02*
X156228000Y-109830000D01*
X153903000Y-109790000D02*
X156097000Y-109790000D01*
X154053000Y-109750000D02*
X155947000Y-109750000D01*
X154232000Y-109710000D02*
X155768000Y-109710000D01*
X154467000Y-109670000D02*
X155533000Y-109670000D01*
X156040000Y-110990000D02*
X158019000Y-110990000D01*
X156040000Y-111030000D02*
X158055000Y-111030000D01*
X156040000Y-111070000D02*
X158089000Y-111070000D01*
X156040000Y-111110000D02*
X158123000Y-111110000D01*
X156040000Y-111150000D02*
X158156000Y-111150000D01*
X156040000Y-111190000D02*
X158188000Y-111190000D01*
X156040000Y-111230000D02*
X158219000Y-111230000D01*
X156040000Y-111270000D02*
X158250000Y-111270000D01*
X156040000Y-111310000D02*
X158280000Y-111310000D01*
X156040000Y-111350000D02*
X158309000Y-111350000D01*
X156040000Y-111390000D02*
X158337000Y-111390000D01*
X156040000Y-111430000D02*
X158365000Y-111430000D01*
X156040000Y-111470000D02*
X158392000Y-111470000D01*
X156040000Y-111510000D02*
X158418000Y-111510000D01*
X156040000Y-111550000D02*
X158443000Y-111550000D01*
X156040000Y-111590000D02*
X158468000Y-111590000D01*
X156040000Y-111630000D02*
X158493000Y-111630000D01*
X156040000Y-111670000D02*
X158516000Y-111670000D01*
X156040000Y-111710000D02*
X158539000Y-111710000D01*
X156040000Y-111750000D02*
X158562000Y-111750000D01*
X156040000Y-111790000D02*
X158584000Y-111790000D01*
X156040000Y-111830000D02*
X158605000Y-111830000D01*
X156040000Y-111870000D02*
X158626000Y-111870000D01*
X156040000Y-111910000D02*
X158646000Y-111910000D01*
X156040000Y-111950000D02*
X158666000Y-111950000D01*
X156040000Y-111990000D02*
X158685000Y-111990000D01*
X156040000Y-112030000D02*
X158704000Y-112030000D01*
X156040000Y-112070000D02*
X158722000Y-112070000D01*
X156040000Y-112110000D02*
X158740000Y-112110000D01*
X156040000Y-112150000D02*
X158757000Y-112150000D01*
X156040000Y-112190000D02*
X158773000Y-112190000D01*
X156040000Y-112230000D02*
X158789000Y-112230000D01*
X156040000Y-112270000D02*
X158805000Y-112270000D01*
X156040000Y-112310000D02*
X158820000Y-112310000D01*
X156040000Y-112350000D02*
X158835000Y-112350000D01*
X156040000Y-112390000D02*
X158849000Y-112390000D01*
X156040000Y-112430000D02*
X158863000Y-112430000D01*
X156040000Y-112470000D02*
X158876000Y-112470000D01*
X156040000Y-112510000D02*
X158889000Y-112510000D01*
X156040000Y-112550000D02*
X158901000Y-112550000D01*
X156040000Y-112590000D02*
X158913000Y-112590000D01*
X156040000Y-112630000D02*
X158925000Y-112630000D01*
X156040000Y-112670000D02*
X158936000Y-112670000D01*
X156040000Y-112710000D02*
X158947000Y-112710000D01*
X156040000Y-112750000D02*
X158957000Y-112750000D01*
X156040000Y-112790000D02*
X158967000Y-112790000D01*
X156040000Y-112830000D02*
X158976000Y-112830000D01*
X156040000Y-112870000D02*
X158985000Y-112870000D01*
X156040000Y-112910000D02*
X158993000Y-112910000D01*
X156040000Y-112950000D02*
X159002000Y-112950000D01*
X156040000Y-112990000D02*
X159009000Y-112990000D01*
X156040000Y-113030000D02*
X159017000Y-113030000D01*
X159120000Y-113750000D02*
G75*
G02*
X150880000Y-113750000I-4120000J0D01*
G01*
X150880000Y-113750000D02*
G75*
G02*
X159120000Y-113750000I4120000J0D01*
G01*
%TO.C,C5*%
X163380000Y-105030000D02*
X170820000Y-105030000D01*
X163380000Y-107770000D02*
X163380000Y-105030000D01*
X170820000Y-105030000D02*
X170820000Y-107770000D01*
X170820000Y-107770000D02*
X163380000Y-107770000D01*
%TO.C,CX1*%
X168380000Y-36380000D02*
X181620000Y-36380000D01*
X168380000Y-40620000D02*
X168380000Y-36380000D01*
X181620000Y-36380000D02*
X181620000Y-40620000D01*
X181620000Y-40620000D02*
X168380000Y-40620000D01*
%TO.C,C6*%
X124830000Y-117380000D02*
X127570000Y-117380000D01*
X124830000Y-124820000D02*
X124830000Y-117380000D01*
X127570000Y-117380000D02*
X127570000Y-124820000D01*
X127570000Y-124820000D02*
X124830000Y-124820000D01*
%TO.C,F1*%
X140200000Y-33700000D02*
X164800000Y-33700000D01*
X140200000Y-43300000D02*
X140200000Y-33700000D01*
X164800000Y-33700000D02*
X164800000Y-43300000D01*
X164800000Y-43300000D02*
X140200000Y-43300000D01*
%TO.C,C1*%
X184670000Y-74460000D02*
X197330000Y-74460000D01*
X184670000Y-74500000D02*
X197330000Y-74500000D01*
X184671000Y-74380000D02*
X197329000Y-74380000D01*
X184671000Y-74420000D02*
X197329000Y-74420000D01*
X184672000Y-74340000D02*
X197328000Y-74340000D01*
X184673000Y-74300000D02*
X197327000Y-74300000D01*
X184675000Y-74260000D02*
X197325000Y-74260000D01*
X184676000Y-74220000D02*
X197324000Y-74220000D01*
X184678000Y-74180000D02*
X197322000Y-74180000D01*
X184680000Y-74140000D02*
X197320000Y-74140000D01*
X184683000Y-74100000D02*
X197317000Y-74100000D01*
X184685000Y-74060000D02*
X197315000Y-74060000D01*
X184688000Y-74020000D02*
X197312000Y-74020000D01*
X184691000Y-73980000D02*
X197309000Y-73980000D01*
X184695000Y-73940000D02*
X197305000Y-73940000D01*
X184698000Y-73900000D02*
X197302000Y-73900000D01*
X184702000Y-73860000D02*
X197298000Y-73860000D01*
X184706000Y-73820000D02*
X197294000Y-73820000D01*
X184711000Y-73780000D02*
X197289000Y-73780000D01*
X184716000Y-73740000D02*
X197284000Y-73740000D01*
X184720000Y-73700000D02*
X197280000Y-73700000D01*
X184726000Y-73660000D02*
X197274000Y-73660000D01*
X184731000Y-73620000D02*
X197269000Y-73620000D01*
X184737000Y-73580000D02*
X197263000Y-73580000D01*
X184743000Y-73540000D02*
X197257000Y-73540000D01*
X184749000Y-73500000D02*
X197251000Y-73500000D01*
X184755000Y-73460000D02*
X197245000Y-73460000D01*
X184762000Y-73420000D02*
X189560000Y-73420000D01*
X184769000Y-73380000D02*
X189560000Y-73380000D01*
X184777000Y-73340000D02*
X189560000Y-73340000D01*
X184784000Y-73300000D02*
X189560000Y-73300000D01*
X184792000Y-73260000D02*
X189560000Y-73260000D01*
X184800000Y-73220000D02*
X189560000Y-73220000D01*
X184808000Y-73180000D02*
X189560000Y-73180000D01*
X184817000Y-73140000D02*
X189560000Y-73140000D01*
X184826000Y-73100000D02*
X189560000Y-73100000D01*
X184835000Y-73060000D02*
X189560000Y-73060000D01*
X184844000Y-73020000D02*
X189560000Y-73020000D01*
X184854000Y-72980000D02*
X189560000Y-72980000D01*
X184864000Y-72940000D02*
X189560000Y-72940000D01*
X184874000Y-72900000D02*
X189560000Y-72900000D01*
X184885000Y-72860000D02*
X189560000Y-72860000D01*
X184896000Y-72820000D02*
X189560000Y-72820000D01*
X184907000Y-72780000D02*
X189560000Y-72780000D01*
X184918000Y-72740000D02*
X189560000Y-72740000D01*
X184930000Y-72700000D02*
X189560000Y-72700000D01*
X184942000Y-72660000D02*
X189560000Y-72660000D01*
X184954000Y-72620000D02*
X189560000Y-72620000D01*
X184966000Y-72580000D02*
X189560000Y-72580000D01*
X184979000Y-72540000D02*
X189560000Y-72540000D01*
X184992000Y-72500000D02*
X189560000Y-72500000D01*
X185005000Y-72460000D02*
X189560000Y-72460000D01*
X185019000Y-72420000D02*
X189560000Y-72420000D01*
X185033000Y-72380000D02*
X189560000Y-72380000D01*
X185047000Y-72340000D02*
X189560000Y-72340000D01*
X185062000Y-72300000D02*
X189560000Y-72300000D01*
X185077000Y-72260000D02*
X189560000Y-72260000D01*
X185092000Y-72220000D02*
X189560000Y-72220000D01*
X185108000Y-72180000D02*
X189560000Y-72180000D01*
X185123000Y-72140000D02*
X189560000Y-72140000D01*
X185139000Y-72100000D02*
X189560000Y-72100000D01*
X185156000Y-72060000D02*
X189560000Y-72060000D01*
X185173000Y-72020000D02*
X189560000Y-72020000D01*
X185190000Y-71980000D02*
X189560000Y-71980000D01*
X185207000Y-71940000D02*
X189560000Y-71940000D01*
X185225000Y-71900000D02*
X189560000Y-71900000D01*
X185243000Y-71860000D02*
X189560000Y-71860000D01*
X185261000Y-71820000D02*
X189560000Y-71820000D01*
X185280000Y-71780000D02*
X189560000Y-71780000D01*
X185299000Y-71740000D02*
X189560000Y-71740000D01*
X185318000Y-71700000D02*
X189560000Y-71700000D01*
X185338000Y-71660000D02*
X189560000Y-71660000D01*
X185358000Y-71620000D02*
X189560000Y-71620000D01*
X185379000Y-71580000D02*
X189560000Y-71580000D01*
X185399000Y-71540000D02*
X189560000Y-71540000D01*
X185421000Y-71500000D02*
X189560000Y-71500000D01*
X185442000Y-71460000D02*
X189560000Y-71460000D01*
X185464000Y-71420000D02*
X189560000Y-71420000D01*
X185486000Y-71380000D02*
X189560000Y-71380000D01*
X185509000Y-71340000D02*
X189560000Y-71340000D01*
X185532000Y-71300000D02*
X189560000Y-71300000D01*
X185556000Y-71260000D02*
X189560000Y-71260000D01*
X185579000Y-71220000D02*
X189560000Y-71220000D01*
X185604000Y-71180000D02*
X189560000Y-71180000D01*
X185628000Y-71140000D02*
X189560000Y-71140000D01*
X185653000Y-71100000D02*
X189560000Y-71100000D01*
X185679000Y-71060000D02*
X189560000Y-71060000D01*
X185705000Y-71020000D02*
X189560000Y-71020000D01*
X185731000Y-70980000D02*
X189560000Y-70980000D01*
X185758000Y-70940000D02*
X189560000Y-70940000D01*
X185785000Y-70900000D02*
X189560000Y-70900000D01*
X185812000Y-70860000D02*
X189560000Y-70860000D01*
X185841000Y-70820000D02*
X189560000Y-70820000D01*
X185869000Y-70780000D02*
X189560000Y-70780000D01*
X185898000Y-70740000D02*
X189560000Y-70740000D01*
X185928000Y-70700000D02*
X189560000Y-70700000D01*
X185958000Y-70660000D02*
X189560000Y-70660000D01*
X185988000Y-70620000D02*
X189560000Y-70620000D01*
X186019000Y-70580000D02*
X189560000Y-70580000D01*
X186050000Y-70540000D02*
X195950000Y-70540000D01*
X186082000Y-70500000D02*
X195918000Y-70500000D01*
X186115000Y-70460000D02*
X195885000Y-70460000D01*
X186148000Y-70420000D02*
X195852000Y-70420000D01*
X186182000Y-70380000D02*
X195818000Y-70380000D01*
X186216000Y-70340000D02*
X195784000Y-70340000D01*
X186251000Y-70300000D02*
X195749000Y-70300000D01*
X186286000Y-70260000D02*
X195714000Y-70260000D01*
X186322000Y-70220000D02*
X195678000Y-70220000D01*
X186359000Y-70180000D02*
X195641000Y-70180000D01*
X186396000Y-70140000D02*
X195604000Y-70140000D01*
X186434000Y-70100000D02*
X195566000Y-70100000D01*
X186472000Y-70060000D02*
X195528000Y-70060000D01*
X186512000Y-70020000D02*
X195488000Y-70020000D01*
X186552000Y-69980000D02*
X195448000Y-69980000D01*
X186592000Y-69940000D02*
X195408000Y-69940000D01*
X186634000Y-69900000D02*
X195366000Y-69900000D01*
X186676000Y-69860000D02*
X195324000Y-69860000D01*
X186719000Y-69820000D02*
X195281000Y-69820000D01*
X186762000Y-69780000D02*
X195238000Y-69780000D01*
X186800000Y-80692082D02*
X188050000Y-80692082D01*
X186807000Y-69740000D02*
X195193000Y-69740000D01*
X186852000Y-69700000D02*
X195148000Y-69700000D01*
X186899000Y-69660000D02*
X195101000Y-69660000D01*
X186946000Y-69620000D02*
X195054000Y-69620000D01*
X186994000Y-69580000D02*
X195006000Y-69580000D01*
X187043000Y-69540000D02*
X194957000Y-69540000D01*
X187093000Y-69500000D02*
X194907000Y-69500000D01*
X187144000Y-69460000D02*
X194856000Y-69460000D01*
X187197000Y-69420000D02*
X194803000Y-69420000D01*
X187250000Y-69380000D02*
X194750000Y-69380000D01*
X187305000Y-69340000D02*
X194695000Y-69340000D01*
X187361000Y-69300000D02*
X194639000Y-69300000D01*
X187418000Y-69260000D02*
X194582000Y-69260000D01*
X187425000Y-81317082D02*
X187425000Y-80067082D01*
X187477000Y-69220000D02*
X194523000Y-69220000D01*
X187537000Y-69180000D02*
X194463000Y-69180000D01*
X187598000Y-69140000D02*
X194402000Y-69140000D01*
X187661000Y-69100000D02*
X194339000Y-69100000D01*
X187726000Y-69060000D02*
X194274000Y-69060000D01*
X187792000Y-69020000D02*
X194208000Y-69020000D01*
X187861000Y-68980000D02*
X194139000Y-68980000D01*
X187931000Y-68940000D02*
X194069000Y-68940000D01*
X188004000Y-68900000D02*
X193996000Y-68900000D01*
X188079000Y-68860000D02*
X193921000Y-68860000D01*
X188157000Y-68820000D02*
X193843000Y-68820000D01*
X188237000Y-68780000D02*
X193763000Y-68780000D01*
X188320000Y-68740000D02*
X193680000Y-68740000D01*
X188406000Y-68700000D02*
X193594000Y-68700000D01*
X188496000Y-68660000D02*
X193504000Y-68660000D01*
X188590000Y-68620000D02*
X193410000Y-68620000D01*
X188688000Y-68580000D02*
X193312000Y-68580000D01*
X188792000Y-68540000D02*
X193208000Y-68540000D01*
X188901000Y-68500000D02*
X193099000Y-68500000D01*
X189016000Y-68460000D02*
X192984000Y-68460000D01*
X189140000Y-68420000D02*
X192860000Y-68420000D01*
X189273000Y-68380000D02*
X192727000Y-68380000D01*
X189418000Y-68340000D02*
X192582000Y-68340000D01*
X189578000Y-68300000D02*
X192422000Y-68300000D01*
X189760000Y-68260000D02*
X192240000Y-68260000D01*
X189973000Y-68220000D02*
X192027000Y-68220000D01*
X190243000Y-68180000D02*
X191757000Y-68180000D01*
X190683000Y-68140000D02*
X191317000Y-68140000D01*
X192440000Y-70580000D02*
X195981000Y-70580000D01*
X192440000Y-70620000D02*
X196012000Y-70620000D01*
X192440000Y-70660000D02*
X196042000Y-70660000D01*
X192440000Y-70700000D02*
X196072000Y-70700000D01*
X192440000Y-70740000D02*
X196102000Y-70740000D01*
X192440000Y-70780000D02*
X196131000Y-70780000D01*
X192440000Y-70820000D02*
X196159000Y-70820000D01*
X192440000Y-70860000D02*
X196188000Y-70860000D01*
X192440000Y-70900000D02*
X196215000Y-70900000D01*
X192440000Y-70940000D02*
X196242000Y-70940000D01*
X192440000Y-70980000D02*
X196269000Y-70980000D01*
X192440000Y-71020000D02*
X196295000Y-71020000D01*
X192440000Y-71060000D02*
X196321000Y-71060000D01*
X192440000Y-71100000D02*
X196347000Y-71100000D01*
X192440000Y-71140000D02*
X196372000Y-71140000D01*
X192440000Y-71180000D02*
X196396000Y-71180000D01*
X192440000Y-71220000D02*
X196421000Y-71220000D01*
X192440000Y-71260000D02*
X196444000Y-71260000D01*
X192440000Y-71300000D02*
X196468000Y-71300000D01*
X192440000Y-71340000D02*
X196491000Y-71340000D01*
X192440000Y-71380000D02*
X196514000Y-71380000D01*
X192440000Y-71420000D02*
X196536000Y-71420000D01*
X192440000Y-71460000D02*
X196558000Y-71460000D01*
X192440000Y-71500000D02*
X196579000Y-71500000D01*
X192440000Y-71540000D02*
X196601000Y-71540000D01*
X192440000Y-71580000D02*
X196621000Y-71580000D01*
X192440000Y-71620000D02*
X196642000Y-71620000D01*
X192440000Y-71660000D02*
X196662000Y-71660000D01*
X192440000Y-71700000D02*
X196682000Y-71700000D01*
X192440000Y-71740000D02*
X196701000Y-71740000D01*
X192440000Y-71780000D02*
X196720000Y-71780000D01*
X192440000Y-71820000D02*
X196739000Y-71820000D01*
X192440000Y-71860000D02*
X196757000Y-71860000D01*
X192440000Y-71900000D02*
X196775000Y-71900000D01*
X192440000Y-71940000D02*
X196793000Y-71940000D01*
X192440000Y-71980000D02*
X196810000Y-71980000D01*
X192440000Y-72020000D02*
X196827000Y-72020000D01*
X192440000Y-72060000D02*
X196844000Y-72060000D01*
X192440000Y-72100000D02*
X196861000Y-72100000D01*
X192440000Y-72140000D02*
X196877000Y-72140000D01*
X192440000Y-72180000D02*
X196892000Y-72180000D01*
X192440000Y-72220000D02*
X196908000Y-72220000D01*
X192440000Y-72260000D02*
X196923000Y-72260000D01*
X192440000Y-72300000D02*
X196938000Y-72300000D01*
X192440000Y-72340000D02*
X196953000Y-72340000D01*
X192440000Y-72380000D02*
X196967000Y-72380000D01*
X192440000Y-72420000D02*
X196981000Y-72420000D01*
X192440000Y-72460000D02*
X196995000Y-72460000D01*
X192440000Y-72500000D02*
X197008000Y-72500000D01*
X192440000Y-72540000D02*
X197021000Y-72540000D01*
X192440000Y-72580000D02*
X197034000Y-72580000D01*
X192440000Y-72620000D02*
X197046000Y-72620000D01*
X192440000Y-72660000D02*
X197058000Y-72660000D01*
X192440000Y-72700000D02*
X197070000Y-72700000D01*
X192440000Y-72740000D02*
X197082000Y-72740000D01*
X192440000Y-72780000D02*
X197093000Y-72780000D01*
X192440000Y-72820000D02*
X197104000Y-72820000D01*
X192440000Y-72860000D02*
X197115000Y-72860000D01*
X192440000Y-72900000D02*
X197126000Y-72900000D01*
X192440000Y-72940000D02*
X197136000Y-72940000D01*
X192440000Y-72980000D02*
X197146000Y-72980000D01*
X192440000Y-73020000D02*
X197156000Y-73020000D01*
X192440000Y-73060000D02*
X197165000Y-73060000D01*
X192440000Y-73100000D02*
X197174000Y-73100000D01*
X192440000Y-73140000D02*
X197183000Y-73140000D01*
X192440000Y-73180000D02*
X197192000Y-73180000D01*
X192440000Y-73220000D02*
X197200000Y-73220000D01*
X192440000Y-73260000D02*
X197208000Y-73260000D01*
X192440000Y-73300000D02*
X197216000Y-73300000D01*
X192440000Y-73340000D02*
X197223000Y-73340000D01*
X192440000Y-73380000D02*
X197231000Y-73380000D01*
X192440000Y-73420000D02*
X197238000Y-73420000D01*
X197370000Y-74500000D02*
G75*
G02*
X184630000Y-74500000I-6370000J0D01*
G01*
X184630000Y-74500000D02*
G75*
G02*
X197370000Y-74500000I6370000J0D01*
G01*
%TO.C,R7*%
X126290000Y-101872936D02*
X126290000Y-103327064D01*
X128110000Y-101872936D02*
X128110000Y-103327064D01*
%TO.C,R6*%
X168727064Y-110390000D02*
X167272936Y-110390000D01*
X168727064Y-112210000D02*
X167272936Y-112210000D01*
%TO.C,D4*%
X139290000Y-124420000D02*
X139290000Y-124264000D01*
X139290000Y-126736000D02*
X139290000Y-126580000D01*
X136058563Y-124420000D02*
G75*
G02*
X139290000Y-124264484I1671437J-1080000D01*
G01*
X136689039Y-124420000D02*
G75*
G02*
X138770961Y-124420000I1040961J-1080000D01*
G01*
X138770961Y-126580000D02*
G75*
G02*
X136689039Y-126580000I-1040961J1080000D01*
G01*
X139290000Y-126735516D02*
G75*
G02*
X136058563Y-126580000I-1560000J1235516D01*
G01*
%TO.C,TR1*%
X118250000Y-46600000D02*
X181750000Y-46600000D01*
X118250000Y-97400000D02*
X118250000Y-46600000D01*
X181750000Y-46600000D02*
X181750000Y-97400000D01*
X181750000Y-97400000D02*
X118250000Y-97400000D01*
D18*
X124955000Y-53125000D02*
G75*
G02*
X124245000Y-53125000I-355000J0D01*
G01*
X124245000Y-53125000D02*
G75*
G02*
X124955000Y-53125000I355000J0D01*
G01*
%TD*%
M02*
