%TF.GenerationSoftware,KiCad,Pcbnew,10.0.3*%
%TF.CreationDate,2026-09-02T13:05:28+01:00*%
%TF.ProjectId,RectifierBoard,52656374-6966-4696-9572-426f6172642e,rev?*%
%TF.SameCoordinates,Original*%
%TF.FileFunction,Soldermask,Bot*%
%TF.FilePolarity,Negative*%
%FSLAX46Y46*%
G04 Gerber Fmt 4.6, Leading zero omitted, Abs format (unit mm)*
G04 Created by KiCad (PCBNEW 10.0.3) date 2026-09-02 13:05:28*
%MOMM*%
%LPD*%
G01*
G04 APERTURE LIST*
G04 Aperture macros list*
%AMRoundRect*
0 Rectangle with rounded corners*
0 $1 Rounding radius*
0 $2 $3 $4 $5 $6 $7 $8 $9 X,Y pos of 4 corners*
0 Add a 4 corners polygon primitive as box body*
4,1,4,$2,$3,$4,$5,$6,$7,$8,$9,$2,$3,0*
0 Add four circle primitives for the rounded corners*
1,1,$1+$1,$2,$3*
1,1,$1+$1,$4,$5*
1,1,$1+$1,$6,$7*
1,1,$1+$1,$8,$9*
0 Add four rect primitives between the rounded corners*
20,1,$1+$1,$2,$3,$4,$5,0*
20,1,$1+$1,$4,$5,$6,$7,0*
20,1,$1+$1,$6,$7,$8,$9,0*
20,1,$1+$1,$8,$9,$2,$3,0*%
G04 Aperture macros list end*
%ADD10C,2.000000*%
%ADD11C,1.950000*%
%ADD12RoundRect,0.249999X-0.850001X-0.850001X0.850001X-0.850001X0.850001X0.850001X-0.850001X0.850001X0*%
%ADD13C,2.200000*%
%ADD14C,3.200000*%
%ADD15RoundRect,0.250001X0.949999X0.949999X-0.949999X0.949999X-0.949999X-0.949999X0.949999X-0.949999X0*%
%ADD16C,2.400000*%
%ADD17C,4.000000*%
G04 APERTURE END LIST*
D10*
%TO.C,J5*%
X146000000Y-116000000D03*
X153620000Y-116000000D03*
%TD*%
D11*
%TO.C,J3*%
X190390000Y-87000000D03*
X190390000Y-79380000D03*
D10*
X190390000Y-71760000D03*
X190390000Y-64140000D03*
%TD*%
D12*
%TO.C,D2*%
X158000000Y-43000000D03*
D13*
X168160000Y-43000000D03*
%TD*%
D14*
%TO.C,H4*%
X194750000Y-30250000D03*
%TD*%
D15*
%TO.C,C4*%
X123000000Y-113000000D03*
D16*
X115500000Y-113000000D03*
%TD*%
D10*
%TO.C,J1*%
X154000000Y-34000000D03*
X146380000Y-34000000D03*
%TD*%
D12*
%TO.C,D1*%
X136000000Y-43000000D03*
D13*
X146160000Y-43000000D03*
%TD*%
D14*
%TO.C,H8*%
X194750000Y-120250000D03*
%TD*%
%TO.C,H7*%
X104750000Y-120250000D03*
%TD*%
D16*
%TO.C,R1*%
X160000000Y-65000000D03*
X139680000Y-65000000D03*
%TD*%
D10*
%TO.C,J4*%
X190350000Y-107215000D03*
X190350000Y-99595000D03*
%TD*%
D12*
%TO.C,D3*%
X136000000Y-53000000D03*
D13*
X146160000Y-53000000D03*
%TD*%
D15*
%TO.C,C1*%
X123000000Y-38000000D03*
D16*
X115500000Y-38000000D03*
%TD*%
D12*
%TO.C,D4*%
X158000000Y-53000000D03*
D13*
X168160000Y-53000000D03*
%TD*%
D10*
%TO.C,J2*%
X190350000Y-50000000D03*
X190350000Y-42380000D03*
%TD*%
D15*
%TO.C,C2*%
X123000000Y-63000000D03*
D16*
X115500000Y-63000000D03*
%TD*%
%TO.C,R3*%
X140000000Y-96000000D03*
X160320000Y-96000000D03*
%TD*%
D17*
%TO.C,TP1*%
X105000000Y-100000000D03*
%TD*%
D15*
%TO.C,C3*%
X123000000Y-88000000D03*
D16*
X115500000Y-88000000D03*
%TD*%
D14*
%TO.C,H2*%
X104750000Y-30250000D03*
%TD*%
D16*
%TO.C,R2*%
X160000000Y-80000000D03*
X139680000Y-80000000D03*
%TD*%
M02*
