%TF.GenerationSoftware,KiCad,Pcbnew,10.0.3*%
%TF.CreationDate,2026-09-02T13:05:28+01:00*%
%TF.ProjectId,RectifierBoard,52656374-6966-4696-9572-426f6172642e,rev?*%
%TF.SameCoordinates,Original*%
%TF.FileFunction,Legend,Top*%
%TF.FilePolarity,Positive*%
%FSLAX46Y46*%
G04 Gerber Fmt 4.6, Leading zero omitted, Abs format (unit mm)*
G04 Created by KiCad (PCBNEW 10.0.3) date 2026-09-02 13:05:28*
%MOMM*%
%LPD*%
G01*
G04 APERTURE LIST*
%ADD10C,0.160000*%
%ADD11C,0.300000*%
%ADD12C,0.254000*%
%ADD13C,0.200000*%
%ADD14C,0.150000*%
%ADD15C,0.100000*%
%ADD16C,0.120000*%
G04 APERTURE END LIST*
D10*
X145290977Y-63284318D02*
X145462405Y-63341461D01*
X145462405Y-63341461D02*
X145519548Y-63398604D01*
X145519548Y-63398604D02*
X145576691Y-63512889D01*
X145576691Y-63512889D02*
X145576691Y-63684318D01*
X145576691Y-63684318D02*
X145519548Y-63798604D01*
X145519548Y-63798604D02*
X145462405Y-63855747D01*
X145462405Y-63855747D02*
X145348120Y-63912889D01*
X145348120Y-63912889D02*
X144890977Y-63912889D01*
X144890977Y-63912889D02*
X144890977Y-62712889D01*
X144890977Y-62712889D02*
X145290977Y-62712889D01*
X145290977Y-62712889D02*
X145405263Y-62770032D01*
X145405263Y-62770032D02*
X145462405Y-62827175D01*
X145462405Y-62827175D02*
X145519548Y-62941461D01*
X145519548Y-62941461D02*
X145519548Y-63055747D01*
X145519548Y-63055747D02*
X145462405Y-63170032D01*
X145462405Y-63170032D02*
X145405263Y-63227175D01*
X145405263Y-63227175D02*
X145290977Y-63284318D01*
X145290977Y-63284318D02*
X144890977Y-63284318D01*
X146662405Y-63912889D02*
X146090977Y-63912889D01*
X146090977Y-63912889D02*
X146090977Y-62712889D01*
X147062406Y-63284318D02*
X147462406Y-63284318D01*
X147633834Y-63912889D02*
X147062406Y-63912889D01*
X147062406Y-63912889D02*
X147062406Y-62712889D01*
X147062406Y-62712889D02*
X147633834Y-62712889D01*
X148148120Y-63284318D02*
X148548120Y-63284318D01*
X148719548Y-63912889D02*
X148148120Y-63912889D01*
X148148120Y-63912889D02*
X148148120Y-62712889D01*
X148148120Y-62712889D02*
X148719548Y-62712889D01*
X149233834Y-63912889D02*
X149233834Y-62712889D01*
X149233834Y-62712889D02*
X149519548Y-62712889D01*
X149519548Y-62712889D02*
X149690977Y-62770032D01*
X149690977Y-62770032D02*
X149805262Y-62884318D01*
X149805262Y-62884318D02*
X149862405Y-62998604D01*
X149862405Y-62998604D02*
X149919548Y-63227175D01*
X149919548Y-63227175D02*
X149919548Y-63398604D01*
X149919548Y-63398604D02*
X149862405Y-63627175D01*
X149862405Y-63627175D02*
X149805262Y-63741461D01*
X149805262Y-63741461D02*
X149690977Y-63855747D01*
X149690977Y-63855747D02*
X149519548Y-63912889D01*
X149519548Y-63912889D02*
X149233834Y-63912889D01*
X150433834Y-63284318D02*
X150833834Y-63284318D01*
X151005262Y-63912889D02*
X150433834Y-63912889D01*
X150433834Y-63912889D02*
X150433834Y-62712889D01*
X150433834Y-62712889D02*
X151005262Y-62712889D01*
X152205262Y-63912889D02*
X151805262Y-63341461D01*
X151519548Y-63912889D02*
X151519548Y-62712889D01*
X151519548Y-62712889D02*
X151976691Y-62712889D01*
X151976691Y-62712889D02*
X152090976Y-62770032D01*
X152090976Y-62770032D02*
X152148119Y-62827175D01*
X152148119Y-62827175D02*
X152205262Y-62941461D01*
X152205262Y-62941461D02*
X152205262Y-63112889D01*
X152205262Y-63112889D02*
X152148119Y-63227175D01*
X152148119Y-63227175D02*
X152090976Y-63284318D01*
X152090976Y-63284318D02*
X151976691Y-63341461D01*
X151976691Y-63341461D02*
X151519548Y-63341461D01*
X144890977Y-65844822D02*
X144890977Y-64644822D01*
X144890977Y-64644822D02*
X145176691Y-64644822D01*
X145176691Y-64644822D02*
X145348120Y-64701965D01*
X145348120Y-64701965D02*
X145462405Y-64816251D01*
X145462405Y-64816251D02*
X145519548Y-64930537D01*
X145519548Y-64930537D02*
X145576691Y-65159108D01*
X145576691Y-65159108D02*
X145576691Y-65330537D01*
X145576691Y-65330537D02*
X145519548Y-65559108D01*
X145519548Y-65559108D02*
X145462405Y-65673394D01*
X145462405Y-65673394D02*
X145348120Y-65787680D01*
X145348120Y-65787680D02*
X145176691Y-65844822D01*
X145176691Y-65844822D02*
X144890977Y-65844822D01*
X146319548Y-64644822D02*
X146548120Y-64644822D01*
X146548120Y-64644822D02*
X146662405Y-64701965D01*
X146662405Y-64701965D02*
X146776691Y-64816251D01*
X146776691Y-64816251D02*
X146833834Y-65044822D01*
X146833834Y-65044822D02*
X146833834Y-65444822D01*
X146833834Y-65444822D02*
X146776691Y-65673394D01*
X146776691Y-65673394D02*
X146662405Y-65787680D01*
X146662405Y-65787680D02*
X146548120Y-65844822D01*
X146548120Y-65844822D02*
X146319548Y-65844822D01*
X146319548Y-65844822D02*
X146205263Y-65787680D01*
X146205263Y-65787680D02*
X146090977Y-65673394D01*
X146090977Y-65673394D02*
X146033834Y-65444822D01*
X146033834Y-65444822D02*
X146033834Y-65044822D01*
X146033834Y-65044822D02*
X146090977Y-64816251D01*
X146090977Y-64816251D02*
X146205263Y-64701965D01*
X146205263Y-64701965D02*
X146319548Y-64644822D01*
X148262406Y-65844822D02*
X148262406Y-64644822D01*
X148262406Y-64644822D02*
X148948120Y-65844822D01*
X148948120Y-65844822D02*
X148948120Y-64644822D01*
X149748120Y-64644822D02*
X149976692Y-64644822D01*
X149976692Y-64644822D02*
X150090977Y-64701965D01*
X150090977Y-64701965D02*
X150205263Y-64816251D01*
X150205263Y-64816251D02*
X150262406Y-65044822D01*
X150262406Y-65044822D02*
X150262406Y-65444822D01*
X150262406Y-65444822D02*
X150205263Y-65673394D01*
X150205263Y-65673394D02*
X150090977Y-65787680D01*
X150090977Y-65787680D02*
X149976692Y-65844822D01*
X149976692Y-65844822D02*
X149748120Y-65844822D01*
X149748120Y-65844822D02*
X149633835Y-65787680D01*
X149633835Y-65787680D02*
X149519549Y-65673394D01*
X149519549Y-65673394D02*
X149462406Y-65444822D01*
X149462406Y-65444822D02*
X149462406Y-65044822D01*
X149462406Y-65044822D02*
X149519549Y-64816251D01*
X149519549Y-64816251D02*
X149633835Y-64701965D01*
X149633835Y-64701965D02*
X149748120Y-64644822D01*
X150605263Y-64644822D02*
X151290978Y-64644822D01*
X150948120Y-65844822D02*
X150948120Y-64644822D01*
X152833835Y-64644822D02*
X153062407Y-64644822D01*
X153062407Y-64644822D02*
X153176692Y-64701965D01*
X153176692Y-64701965D02*
X153290978Y-64816251D01*
X153290978Y-64816251D02*
X153348121Y-65044822D01*
X153348121Y-65044822D02*
X153348121Y-65444822D01*
X153348121Y-65444822D02*
X153290978Y-65673394D01*
X153290978Y-65673394D02*
X153176692Y-65787680D01*
X153176692Y-65787680D02*
X153062407Y-65844822D01*
X153062407Y-65844822D02*
X152833835Y-65844822D01*
X152833835Y-65844822D02*
X152719550Y-65787680D01*
X152719550Y-65787680D02*
X152605264Y-65673394D01*
X152605264Y-65673394D02*
X152548121Y-65444822D01*
X152548121Y-65444822D02*
X152548121Y-65044822D01*
X152548121Y-65044822D02*
X152605264Y-64816251D01*
X152605264Y-64816251D02*
X152719550Y-64701965D01*
X152719550Y-64701965D02*
X152833835Y-64644822D01*
X153862407Y-65844822D02*
X153862407Y-64644822D01*
X153862407Y-64644822D02*
X154262407Y-65501965D01*
X154262407Y-65501965D02*
X154662407Y-64644822D01*
X154662407Y-64644822D02*
X154662407Y-65844822D01*
X155233836Y-65844822D02*
X155233836Y-64644822D01*
X155633836Y-64644822D02*
X156319551Y-64644822D01*
X155976693Y-65844822D02*
X155976693Y-64644822D01*
D11*
X176554510Y-99015114D02*
X176768796Y-99086542D01*
X176768796Y-99086542D02*
X176840225Y-99157971D01*
X176840225Y-99157971D02*
X176911653Y-99300828D01*
X176911653Y-99300828D02*
X176911653Y-99515114D01*
X176911653Y-99515114D02*
X176840225Y-99657971D01*
X176840225Y-99657971D02*
X176768796Y-99729400D01*
X176768796Y-99729400D02*
X176625939Y-99800828D01*
X176625939Y-99800828D02*
X176054510Y-99800828D01*
X176054510Y-99800828D02*
X176054510Y-98300828D01*
X176054510Y-98300828D02*
X176554510Y-98300828D01*
X176554510Y-98300828D02*
X176697368Y-98372257D01*
X176697368Y-98372257D02*
X176768796Y-98443685D01*
X176768796Y-98443685D02*
X176840225Y-98586542D01*
X176840225Y-98586542D02*
X176840225Y-98729400D01*
X176840225Y-98729400D02*
X176768796Y-98872257D01*
X176768796Y-98872257D02*
X176697368Y-98943685D01*
X176697368Y-98943685D02*
X176554510Y-99015114D01*
X176554510Y-99015114D02*
X176054510Y-99015114D01*
X177554510Y-99229400D02*
X178697368Y-99229400D01*
X178125939Y-99800828D02*
X178125939Y-98657971D01*
X180554510Y-99800828D02*
X180554510Y-98300828D01*
X180554510Y-98300828D02*
X181125939Y-98300828D01*
X181125939Y-98300828D02*
X181268796Y-98372257D01*
X181268796Y-98372257D02*
X181340225Y-98443685D01*
X181340225Y-98443685D02*
X181411653Y-98586542D01*
X181411653Y-98586542D02*
X181411653Y-98800828D01*
X181411653Y-98800828D02*
X181340225Y-98943685D01*
X181340225Y-98943685D02*
X181268796Y-99015114D01*
X181268796Y-99015114D02*
X181125939Y-99086542D01*
X181125939Y-99086542D02*
X180554510Y-99086542D01*
X182054510Y-99800828D02*
X182054510Y-98300828D01*
X176554510Y-107015114D02*
X176768796Y-107086542D01*
X176768796Y-107086542D02*
X176840225Y-107157971D01*
X176840225Y-107157971D02*
X176911653Y-107300828D01*
X176911653Y-107300828D02*
X176911653Y-107515114D01*
X176911653Y-107515114D02*
X176840225Y-107657971D01*
X176840225Y-107657971D02*
X176768796Y-107729400D01*
X176768796Y-107729400D02*
X176625939Y-107800828D01*
X176625939Y-107800828D02*
X176054510Y-107800828D01*
X176054510Y-107800828D02*
X176054510Y-106300828D01*
X176054510Y-106300828D02*
X176554510Y-106300828D01*
X176554510Y-106300828D02*
X176697368Y-106372257D01*
X176697368Y-106372257D02*
X176768796Y-106443685D01*
X176768796Y-106443685D02*
X176840225Y-106586542D01*
X176840225Y-106586542D02*
X176840225Y-106729400D01*
X176840225Y-106729400D02*
X176768796Y-106872257D01*
X176768796Y-106872257D02*
X176697368Y-106943685D01*
X176697368Y-106943685D02*
X176554510Y-107015114D01*
X176554510Y-107015114D02*
X176054510Y-107015114D01*
X177554510Y-107229400D02*
X178697368Y-107229400D01*
X178125939Y-107800828D02*
X178125939Y-106657971D01*
X180554510Y-107800828D02*
X180554510Y-106300828D01*
X180554510Y-106300828D02*
X181125939Y-106300828D01*
X181125939Y-106300828D02*
X181268796Y-106372257D01*
X181268796Y-106372257D02*
X181340225Y-106443685D01*
X181340225Y-106443685D02*
X181411653Y-106586542D01*
X181411653Y-106586542D02*
X181411653Y-106800828D01*
X181411653Y-106800828D02*
X181340225Y-106943685D01*
X181340225Y-106943685D02*
X181268796Y-107015114D01*
X181268796Y-107015114D02*
X181125939Y-107086542D01*
X181125939Y-107086542D02*
X180554510Y-107086542D01*
X182911653Y-107800828D02*
X182411653Y-107086542D01*
X182054510Y-107800828D02*
X182054510Y-106300828D01*
X182054510Y-106300828D02*
X182625939Y-106300828D01*
X182625939Y-106300828D02*
X182768796Y-106372257D01*
X182768796Y-106372257D02*
X182840225Y-106443685D01*
X182840225Y-106443685D02*
X182911653Y-106586542D01*
X182911653Y-106586542D02*
X182911653Y-106800828D01*
X182911653Y-106800828D02*
X182840225Y-106943685D01*
X182840225Y-106943685D02*
X182768796Y-107015114D01*
X182768796Y-107015114D02*
X182625939Y-107086542D01*
X182625939Y-107086542D02*
X182054510Y-107086542D01*
X183554510Y-107015114D02*
X184054510Y-107015114D01*
X184268796Y-107800828D02*
X183554510Y-107800828D01*
X183554510Y-107800828D02*
X183554510Y-106300828D01*
X183554510Y-106300828D02*
X184268796Y-106300828D01*
X181015114Y-69945489D02*
X181086542Y-69731203D01*
X181086542Y-69731203D02*
X181157971Y-69659774D01*
X181157971Y-69659774D02*
X181300828Y-69588346D01*
X181300828Y-69588346D02*
X181515114Y-69588346D01*
X181515114Y-69588346D02*
X181657971Y-69659774D01*
X181657971Y-69659774D02*
X181729400Y-69731203D01*
X181729400Y-69731203D02*
X181800828Y-69874060D01*
X181800828Y-69874060D02*
X181800828Y-70445489D01*
X181800828Y-70445489D02*
X180300828Y-70445489D01*
X180300828Y-70445489D02*
X180300828Y-69945489D01*
X180300828Y-69945489D02*
X180372257Y-69802632D01*
X180372257Y-69802632D02*
X180443685Y-69731203D01*
X180443685Y-69731203D02*
X180586542Y-69659774D01*
X180586542Y-69659774D02*
X180729400Y-69659774D01*
X180729400Y-69659774D02*
X180872257Y-69731203D01*
X180872257Y-69731203D02*
X180943685Y-69802632D01*
X180943685Y-69802632D02*
X181015114Y-69945489D01*
X181015114Y-69945489D02*
X181015114Y-70445489D01*
X181229400Y-68945489D02*
X181229400Y-67802632D01*
X181800828Y-68374060D02*
X180657971Y-68374060D01*
X181800828Y-80731203D02*
X181800828Y-81445489D01*
X181800828Y-81445489D02*
X180300828Y-81445489D01*
X181800828Y-79445488D02*
X181800828Y-80302631D01*
X181800828Y-79874060D02*
X180300828Y-79874060D01*
X180300828Y-79874060D02*
X180515114Y-80016917D01*
X180515114Y-80016917D02*
X180657971Y-80159774D01*
X180657971Y-80159774D02*
X180729400Y-80302631D01*
D12*
X148791667Y-116954318D02*
X148791667Y-117861461D01*
X148791667Y-117861461D02*
X148731190Y-118042889D01*
X148731190Y-118042889D02*
X148610238Y-118163842D01*
X148610238Y-118163842D02*
X148428809Y-118224318D01*
X148428809Y-118224318D02*
X148307857Y-118224318D01*
X150001190Y-116954318D02*
X149396428Y-116954318D01*
X149396428Y-116954318D02*
X149335952Y-117559080D01*
X149335952Y-117559080D02*
X149396428Y-117498603D01*
X149396428Y-117498603D02*
X149517381Y-117438127D01*
X149517381Y-117438127D02*
X149819762Y-117438127D01*
X149819762Y-117438127D02*
X149940714Y-117498603D01*
X149940714Y-117498603D02*
X150001190Y-117559080D01*
X150001190Y-117559080D02*
X150061667Y-117680032D01*
X150061667Y-117680032D02*
X150061667Y-117982413D01*
X150061667Y-117982413D02*
X150001190Y-118103365D01*
X150001190Y-118103365D02*
X149940714Y-118163842D01*
X149940714Y-118163842D02*
X149819762Y-118224318D01*
X149819762Y-118224318D02*
X149517381Y-118224318D01*
X149517381Y-118224318D02*
X149396428Y-118163842D01*
X149396428Y-118163842D02*
X149335952Y-118103365D01*
D13*
X186612314Y-76099999D02*
X187898028Y-76099999D01*
X187898028Y-76099999D02*
X188155171Y-76185714D01*
X188155171Y-76185714D02*
X188326600Y-76357142D01*
X188326600Y-76357142D02*
X188412314Y-76614285D01*
X188412314Y-76614285D02*
X188412314Y-76785714D01*
X186612314Y-75414285D02*
X186612314Y-74299999D01*
X186612314Y-74299999D02*
X187298028Y-74899999D01*
X187298028Y-74899999D02*
X187298028Y-74642856D01*
X187298028Y-74642856D02*
X187383742Y-74471428D01*
X187383742Y-74471428D02*
X187469457Y-74385713D01*
X187469457Y-74385713D02*
X187640885Y-74299999D01*
X187640885Y-74299999D02*
X188069457Y-74299999D01*
X188069457Y-74299999D02*
X188240885Y-74385713D01*
X188240885Y-74385713D02*
X188326600Y-74471428D01*
X188326600Y-74471428D02*
X188412314Y-74642856D01*
X188412314Y-74642856D02*
X188412314Y-75157142D01*
X188412314Y-75157142D02*
X188326600Y-75328570D01*
X188326600Y-75328570D02*
X188240885Y-75414285D01*
D14*
X162341905Y-40984819D02*
X162341905Y-39984819D01*
X162341905Y-39984819D02*
X162580000Y-39984819D01*
X162580000Y-39984819D02*
X162722857Y-40032438D01*
X162722857Y-40032438D02*
X162818095Y-40127676D01*
X162818095Y-40127676D02*
X162865714Y-40222914D01*
X162865714Y-40222914D02*
X162913333Y-40413390D01*
X162913333Y-40413390D02*
X162913333Y-40556247D01*
X162913333Y-40556247D02*
X162865714Y-40746723D01*
X162865714Y-40746723D02*
X162818095Y-40841961D01*
X162818095Y-40841961D02*
X162722857Y-40937200D01*
X162722857Y-40937200D02*
X162580000Y-40984819D01*
X162580000Y-40984819D02*
X162341905Y-40984819D01*
X163294286Y-40080057D02*
X163341905Y-40032438D01*
X163341905Y-40032438D02*
X163437143Y-39984819D01*
X163437143Y-39984819D02*
X163675238Y-39984819D01*
X163675238Y-39984819D02*
X163770476Y-40032438D01*
X163770476Y-40032438D02*
X163818095Y-40080057D01*
X163818095Y-40080057D02*
X163865714Y-40175295D01*
X163865714Y-40175295D02*
X163865714Y-40270533D01*
X163865714Y-40270533D02*
X163818095Y-40413390D01*
X163818095Y-40413390D02*
X163246667Y-40984819D01*
X163246667Y-40984819D02*
X163865714Y-40984819D01*
X157738095Y-41354819D02*
X157738095Y-40354819D01*
X158309523Y-41354819D02*
X157880952Y-40783390D01*
X158309523Y-40354819D02*
X157738095Y-40926247D01*
X193988095Y-26504819D02*
X193988095Y-25504819D01*
X193988095Y-25981009D02*
X194559523Y-25981009D01*
X194559523Y-26504819D02*
X194559523Y-25504819D01*
X195464285Y-25838152D02*
X195464285Y-26504819D01*
X195226190Y-25457200D02*
X194988095Y-26171485D01*
X194988095Y-26171485D02*
X195607142Y-26171485D01*
X119083333Y-123609580D02*
X119035714Y-123657200D01*
X119035714Y-123657200D02*
X118892857Y-123704819D01*
X118892857Y-123704819D02*
X118797619Y-123704819D01*
X118797619Y-123704819D02*
X118654762Y-123657200D01*
X118654762Y-123657200D02*
X118559524Y-123561961D01*
X118559524Y-123561961D02*
X118511905Y-123466723D01*
X118511905Y-123466723D02*
X118464286Y-123276247D01*
X118464286Y-123276247D02*
X118464286Y-123133390D01*
X118464286Y-123133390D02*
X118511905Y-122942914D01*
X118511905Y-122942914D02*
X118559524Y-122847676D01*
X118559524Y-122847676D02*
X118654762Y-122752438D01*
X118654762Y-122752438D02*
X118797619Y-122704819D01*
X118797619Y-122704819D02*
X118892857Y-122704819D01*
X118892857Y-122704819D02*
X119035714Y-122752438D01*
X119035714Y-122752438D02*
X119083333Y-122800057D01*
X119940476Y-123038152D02*
X119940476Y-123704819D01*
X119702381Y-122657200D02*
X119464286Y-123371485D01*
X119464286Y-123371485D02*
X120083333Y-123371485D01*
D12*
X150361667Y-31654318D02*
X150361667Y-32561461D01*
X150361667Y-32561461D02*
X150301190Y-32742889D01*
X150301190Y-32742889D02*
X150180238Y-32863842D01*
X150180238Y-32863842D02*
X149998809Y-32924318D01*
X149998809Y-32924318D02*
X149877857Y-32924318D01*
X151631667Y-32924318D02*
X150905952Y-32924318D01*
X151268809Y-32924318D02*
X151268809Y-31654318D01*
X151268809Y-31654318D02*
X151147857Y-31835746D01*
X151147857Y-31835746D02*
X151026905Y-31956699D01*
X151026905Y-31956699D02*
X150905952Y-32017175D01*
D14*
X140341905Y-40984819D02*
X140341905Y-39984819D01*
X140341905Y-39984819D02*
X140580000Y-39984819D01*
X140580000Y-39984819D02*
X140722857Y-40032438D01*
X140722857Y-40032438D02*
X140818095Y-40127676D01*
X140818095Y-40127676D02*
X140865714Y-40222914D01*
X140865714Y-40222914D02*
X140913333Y-40413390D01*
X140913333Y-40413390D02*
X140913333Y-40556247D01*
X140913333Y-40556247D02*
X140865714Y-40746723D01*
X140865714Y-40746723D02*
X140818095Y-40841961D01*
X140818095Y-40841961D02*
X140722857Y-40937200D01*
X140722857Y-40937200D02*
X140580000Y-40984819D01*
X140580000Y-40984819D02*
X140341905Y-40984819D01*
X141865714Y-40984819D02*
X141294286Y-40984819D01*
X141580000Y-40984819D02*
X141580000Y-39984819D01*
X141580000Y-39984819D02*
X141484762Y-40127676D01*
X141484762Y-40127676D02*
X141389524Y-40222914D01*
X141389524Y-40222914D02*
X141294286Y-40270533D01*
X135738095Y-41354819D02*
X135738095Y-40354819D01*
X136309523Y-41354819D02*
X135880952Y-40783390D01*
X136309523Y-40354819D02*
X135738095Y-40926247D01*
X193988095Y-116504819D02*
X193988095Y-115504819D01*
X193988095Y-115981009D02*
X194559523Y-115981009D01*
X194559523Y-116504819D02*
X194559523Y-115504819D01*
X195178571Y-115933390D02*
X195083333Y-115885771D01*
X195083333Y-115885771D02*
X195035714Y-115838152D01*
X195035714Y-115838152D02*
X194988095Y-115742914D01*
X194988095Y-115742914D02*
X194988095Y-115695295D01*
X194988095Y-115695295D02*
X195035714Y-115600057D01*
X195035714Y-115600057D02*
X195083333Y-115552438D01*
X195083333Y-115552438D02*
X195178571Y-115504819D01*
X195178571Y-115504819D02*
X195369047Y-115504819D01*
X195369047Y-115504819D02*
X195464285Y-115552438D01*
X195464285Y-115552438D02*
X195511904Y-115600057D01*
X195511904Y-115600057D02*
X195559523Y-115695295D01*
X195559523Y-115695295D02*
X195559523Y-115742914D01*
X195559523Y-115742914D02*
X195511904Y-115838152D01*
X195511904Y-115838152D02*
X195464285Y-115885771D01*
X195464285Y-115885771D02*
X195369047Y-115933390D01*
X195369047Y-115933390D02*
X195178571Y-115933390D01*
X195178571Y-115933390D02*
X195083333Y-115981009D01*
X195083333Y-115981009D02*
X195035714Y-116028628D01*
X195035714Y-116028628D02*
X194988095Y-116123866D01*
X194988095Y-116123866D02*
X194988095Y-116314342D01*
X194988095Y-116314342D02*
X195035714Y-116409580D01*
X195035714Y-116409580D02*
X195083333Y-116457200D01*
X195083333Y-116457200D02*
X195178571Y-116504819D01*
X195178571Y-116504819D02*
X195369047Y-116504819D01*
X195369047Y-116504819D02*
X195464285Y-116457200D01*
X195464285Y-116457200D02*
X195511904Y-116409580D01*
X195511904Y-116409580D02*
X195559523Y-116314342D01*
X195559523Y-116314342D02*
X195559523Y-116123866D01*
X195559523Y-116123866D02*
X195511904Y-116028628D01*
X195511904Y-116028628D02*
X195464285Y-115981009D01*
X195464285Y-115981009D02*
X195369047Y-115933390D01*
X103988095Y-116504819D02*
X103988095Y-115504819D01*
X103988095Y-115981009D02*
X104559523Y-115981009D01*
X104559523Y-116504819D02*
X104559523Y-115504819D01*
X104940476Y-115504819D02*
X105607142Y-115504819D01*
X105607142Y-115504819D02*
X105178571Y-116504819D01*
X149673333Y-69574819D02*
X149340000Y-69098628D01*
X149101905Y-69574819D02*
X149101905Y-68574819D01*
X149101905Y-68574819D02*
X149482857Y-68574819D01*
X149482857Y-68574819D02*
X149578095Y-68622438D01*
X149578095Y-68622438D02*
X149625714Y-68670057D01*
X149625714Y-68670057D02*
X149673333Y-68765295D01*
X149673333Y-68765295D02*
X149673333Y-68908152D01*
X149673333Y-68908152D02*
X149625714Y-69003390D01*
X149625714Y-69003390D02*
X149578095Y-69051009D01*
X149578095Y-69051009D02*
X149482857Y-69098628D01*
X149482857Y-69098628D02*
X149101905Y-69098628D01*
X150625714Y-69574819D02*
X150054286Y-69574819D01*
X150340000Y-69574819D02*
X150340000Y-68574819D01*
X150340000Y-68574819D02*
X150244762Y-68717676D01*
X150244762Y-68717676D02*
X150149524Y-68812914D01*
X150149524Y-68812914D02*
X150054286Y-68860533D01*
X147244761Y-70788152D02*
X147244761Y-71454819D01*
X147006666Y-70407200D02*
X146768571Y-71121485D01*
X146768571Y-71121485D02*
X147387618Y-71121485D01*
X147673333Y-70454819D02*
X148339999Y-70454819D01*
X148339999Y-70454819D02*
X147911428Y-71454819D01*
X148911428Y-70454819D02*
X149006666Y-70454819D01*
X149006666Y-70454819D02*
X149101904Y-70502438D01*
X149101904Y-70502438D02*
X149149523Y-70550057D01*
X149149523Y-70550057D02*
X149197142Y-70645295D01*
X149197142Y-70645295D02*
X149244761Y-70835771D01*
X149244761Y-70835771D02*
X149244761Y-71073866D01*
X149244761Y-71073866D02*
X149197142Y-71264342D01*
X149197142Y-71264342D02*
X149149523Y-71359580D01*
X149149523Y-71359580D02*
X149101904Y-71407200D01*
X149101904Y-71407200D02*
X149006666Y-71454819D01*
X149006666Y-71454819D02*
X148911428Y-71454819D01*
X148911428Y-71454819D02*
X148816190Y-71407200D01*
X148816190Y-71407200D02*
X148768571Y-71359580D01*
X148768571Y-71359580D02*
X148720952Y-71264342D01*
X148720952Y-71264342D02*
X148673333Y-71073866D01*
X148673333Y-71073866D02*
X148673333Y-70835771D01*
X148673333Y-70835771D02*
X148720952Y-70645295D01*
X148720952Y-70645295D02*
X148768571Y-70550057D01*
X148768571Y-70550057D02*
X148816190Y-70502438D01*
X148816190Y-70502438D02*
X148911428Y-70454819D01*
X149673333Y-71454819D02*
X149673333Y-70454819D01*
X149768571Y-71073866D02*
X150054285Y-71454819D01*
X150054285Y-70788152D02*
X149673333Y-71169104D01*
X151149524Y-70454819D02*
X151768571Y-70454819D01*
X151768571Y-70454819D02*
X151435238Y-70835771D01*
X151435238Y-70835771D02*
X151578095Y-70835771D01*
X151578095Y-70835771D02*
X151673333Y-70883390D01*
X151673333Y-70883390D02*
X151720952Y-70931009D01*
X151720952Y-70931009D02*
X151768571Y-71026247D01*
X151768571Y-71026247D02*
X151768571Y-71264342D01*
X151768571Y-71264342D02*
X151720952Y-71359580D01*
X151720952Y-71359580D02*
X151673333Y-71407200D01*
X151673333Y-71407200D02*
X151578095Y-71454819D01*
X151578095Y-71454819D02*
X151292381Y-71454819D01*
X151292381Y-71454819D02*
X151197143Y-71407200D01*
X151197143Y-71407200D02*
X151149524Y-71359580D01*
X152101905Y-70454819D02*
X152340000Y-71454819D01*
X152340000Y-71454819D02*
X152530476Y-70740533D01*
X152530476Y-70740533D02*
X152720952Y-71454819D01*
X152720952Y-71454819D02*
X152959048Y-70454819D01*
D12*
X191304318Y-104423332D02*
X192211461Y-104423332D01*
X192211461Y-104423332D02*
X192392889Y-104483809D01*
X192392889Y-104483809D02*
X192513842Y-104604761D01*
X192513842Y-104604761D02*
X192574318Y-104786190D01*
X192574318Y-104786190D02*
X192574318Y-104907142D01*
X191727651Y-103274285D02*
X192574318Y-103274285D01*
X191243842Y-103576666D02*
X192150984Y-103879047D01*
X192150984Y-103879047D02*
X192150984Y-103092856D01*
D14*
X140341905Y-50984819D02*
X140341905Y-49984819D01*
X140341905Y-49984819D02*
X140580000Y-49984819D01*
X140580000Y-49984819D02*
X140722857Y-50032438D01*
X140722857Y-50032438D02*
X140818095Y-50127676D01*
X140818095Y-50127676D02*
X140865714Y-50222914D01*
X140865714Y-50222914D02*
X140913333Y-50413390D01*
X140913333Y-50413390D02*
X140913333Y-50556247D01*
X140913333Y-50556247D02*
X140865714Y-50746723D01*
X140865714Y-50746723D02*
X140818095Y-50841961D01*
X140818095Y-50841961D02*
X140722857Y-50937200D01*
X140722857Y-50937200D02*
X140580000Y-50984819D01*
X140580000Y-50984819D02*
X140341905Y-50984819D01*
X141246667Y-49984819D02*
X141865714Y-49984819D01*
X141865714Y-49984819D02*
X141532381Y-50365771D01*
X141532381Y-50365771D02*
X141675238Y-50365771D01*
X141675238Y-50365771D02*
X141770476Y-50413390D01*
X141770476Y-50413390D02*
X141818095Y-50461009D01*
X141818095Y-50461009D02*
X141865714Y-50556247D01*
X141865714Y-50556247D02*
X141865714Y-50794342D01*
X141865714Y-50794342D02*
X141818095Y-50889580D01*
X141818095Y-50889580D02*
X141770476Y-50937200D01*
X141770476Y-50937200D02*
X141675238Y-50984819D01*
X141675238Y-50984819D02*
X141389524Y-50984819D01*
X141389524Y-50984819D02*
X141294286Y-50937200D01*
X141294286Y-50937200D02*
X141246667Y-50889580D01*
X135738095Y-51354819D02*
X135738095Y-50354819D01*
X136309523Y-51354819D02*
X135880952Y-50783390D01*
X136309523Y-50354819D02*
X135738095Y-50926247D01*
X119083333Y-48609580D02*
X119035714Y-48657200D01*
X119035714Y-48657200D02*
X118892857Y-48704819D01*
X118892857Y-48704819D02*
X118797619Y-48704819D01*
X118797619Y-48704819D02*
X118654762Y-48657200D01*
X118654762Y-48657200D02*
X118559524Y-48561961D01*
X118559524Y-48561961D02*
X118511905Y-48466723D01*
X118511905Y-48466723D02*
X118464286Y-48276247D01*
X118464286Y-48276247D02*
X118464286Y-48133390D01*
X118464286Y-48133390D02*
X118511905Y-47942914D01*
X118511905Y-47942914D02*
X118559524Y-47847676D01*
X118559524Y-47847676D02*
X118654762Y-47752438D01*
X118654762Y-47752438D02*
X118797619Y-47704819D01*
X118797619Y-47704819D02*
X118892857Y-47704819D01*
X118892857Y-47704819D02*
X119035714Y-47752438D01*
X119035714Y-47752438D02*
X119083333Y-47800057D01*
X120035714Y-48704819D02*
X119464286Y-48704819D01*
X119750000Y-48704819D02*
X119750000Y-47704819D01*
X119750000Y-47704819D02*
X119654762Y-47847676D01*
X119654762Y-47847676D02*
X119559524Y-47942914D01*
X119559524Y-47942914D02*
X119464286Y-47990533D01*
X162341905Y-50984819D02*
X162341905Y-49984819D01*
X162341905Y-49984819D02*
X162580000Y-49984819D01*
X162580000Y-49984819D02*
X162722857Y-50032438D01*
X162722857Y-50032438D02*
X162818095Y-50127676D01*
X162818095Y-50127676D02*
X162865714Y-50222914D01*
X162865714Y-50222914D02*
X162913333Y-50413390D01*
X162913333Y-50413390D02*
X162913333Y-50556247D01*
X162913333Y-50556247D02*
X162865714Y-50746723D01*
X162865714Y-50746723D02*
X162818095Y-50841961D01*
X162818095Y-50841961D02*
X162722857Y-50937200D01*
X162722857Y-50937200D02*
X162580000Y-50984819D01*
X162580000Y-50984819D02*
X162341905Y-50984819D01*
X163770476Y-50318152D02*
X163770476Y-50984819D01*
X163532381Y-49937200D02*
X163294286Y-50651485D01*
X163294286Y-50651485D02*
X163913333Y-50651485D01*
X157738095Y-51354819D02*
X157738095Y-50354819D01*
X158309523Y-51354819D02*
X157880952Y-50783390D01*
X158309523Y-50354819D02*
X157738095Y-50926247D01*
D12*
X191304318Y-47208332D02*
X192211461Y-47208332D01*
X192211461Y-47208332D02*
X192392889Y-47268809D01*
X192392889Y-47268809D02*
X192513842Y-47389761D01*
X192513842Y-47389761D02*
X192574318Y-47571190D01*
X192574318Y-47571190D02*
X192574318Y-47692142D01*
X191425270Y-46664047D02*
X191364794Y-46603571D01*
X191364794Y-46603571D02*
X191304318Y-46482618D01*
X191304318Y-46482618D02*
X191304318Y-46180237D01*
X191304318Y-46180237D02*
X191364794Y-46059285D01*
X191364794Y-46059285D02*
X191425270Y-45998809D01*
X191425270Y-45998809D02*
X191546222Y-45938332D01*
X191546222Y-45938332D02*
X191667175Y-45938332D01*
X191667175Y-45938332D02*
X191848603Y-45998809D01*
X191848603Y-45998809D02*
X192574318Y-46724523D01*
X192574318Y-46724523D02*
X192574318Y-45938332D01*
X182513842Y-50292619D02*
X182574318Y-50111190D01*
X182574318Y-50111190D02*
X182574318Y-49808809D01*
X182574318Y-49808809D02*
X182513842Y-49687857D01*
X182513842Y-49687857D02*
X182453365Y-49627381D01*
X182453365Y-49627381D02*
X182332413Y-49566904D01*
X182332413Y-49566904D02*
X182211461Y-49566904D01*
X182211461Y-49566904D02*
X182090508Y-49627381D01*
X182090508Y-49627381D02*
X182030032Y-49687857D01*
X182030032Y-49687857D02*
X181969556Y-49808809D01*
X181969556Y-49808809D02*
X181909080Y-50050714D01*
X181909080Y-50050714D02*
X181848603Y-50171666D01*
X181848603Y-50171666D02*
X181788127Y-50232143D01*
X181788127Y-50232143D02*
X181667175Y-50292619D01*
X181667175Y-50292619D02*
X181546222Y-50292619D01*
X181546222Y-50292619D02*
X181425270Y-50232143D01*
X181425270Y-50232143D02*
X181364794Y-50171666D01*
X181364794Y-50171666D02*
X181304318Y-50050714D01*
X181304318Y-50050714D02*
X181304318Y-49748333D01*
X181304318Y-49748333D02*
X181364794Y-49566904D01*
X181727651Y-49204047D02*
X181727651Y-48720238D01*
X181304318Y-49022619D02*
X182392889Y-49022619D01*
X182392889Y-49022619D02*
X182513842Y-48962142D01*
X182513842Y-48962142D02*
X182574318Y-48841190D01*
X182574318Y-48841190D02*
X182574318Y-48720238D01*
X182574318Y-47752619D02*
X181909080Y-47752619D01*
X181909080Y-47752619D02*
X181788127Y-47813095D01*
X181788127Y-47813095D02*
X181727651Y-47934047D01*
X181727651Y-47934047D02*
X181727651Y-48175952D01*
X181727651Y-48175952D02*
X181788127Y-48296905D01*
X182513842Y-47752619D02*
X182574318Y-47873571D01*
X182574318Y-47873571D02*
X182574318Y-48175952D01*
X182574318Y-48175952D02*
X182513842Y-48296905D01*
X182513842Y-48296905D02*
X182392889Y-48357381D01*
X182392889Y-48357381D02*
X182271937Y-48357381D01*
X182271937Y-48357381D02*
X182150984Y-48296905D01*
X182150984Y-48296905D02*
X182090508Y-48175952D01*
X182090508Y-48175952D02*
X182090508Y-47873571D01*
X182090508Y-47873571D02*
X182030032Y-47752619D01*
X181727651Y-47147857D02*
X182574318Y-47147857D01*
X181848603Y-47147857D02*
X181788127Y-47087380D01*
X181788127Y-47087380D02*
X181727651Y-46966428D01*
X181727651Y-46966428D02*
X181727651Y-46784999D01*
X181727651Y-46784999D02*
X181788127Y-46664047D01*
X181788127Y-46664047D02*
X181909080Y-46603571D01*
X181909080Y-46603571D02*
X182574318Y-46603571D01*
X182574318Y-45454523D02*
X181304318Y-45454523D01*
X182513842Y-45454523D02*
X182574318Y-45575475D01*
X182574318Y-45575475D02*
X182574318Y-45817380D01*
X182574318Y-45817380D02*
X182513842Y-45938332D01*
X182513842Y-45938332D02*
X182453365Y-45998809D01*
X182453365Y-45998809D02*
X182332413Y-46059285D01*
X182332413Y-46059285D02*
X181969556Y-46059285D01*
X181969556Y-46059285D02*
X181848603Y-45998809D01*
X181848603Y-45998809D02*
X181788127Y-45938332D01*
X181788127Y-45938332D02*
X181727651Y-45817380D01*
X181727651Y-45817380D02*
X181727651Y-45575475D01*
X181727651Y-45575475D02*
X181788127Y-45454523D01*
X182574318Y-44849761D02*
X181304318Y-44849761D01*
X181788127Y-44849761D02*
X181727651Y-44728808D01*
X181727651Y-44728808D02*
X181727651Y-44486903D01*
X181727651Y-44486903D02*
X181788127Y-44365951D01*
X181788127Y-44365951D02*
X181848603Y-44305475D01*
X181848603Y-44305475D02*
X181969556Y-44244999D01*
X181969556Y-44244999D02*
X182332413Y-44244999D01*
X182332413Y-44244999D02*
X182453365Y-44305475D01*
X182453365Y-44305475D02*
X182513842Y-44365951D01*
X182513842Y-44365951D02*
X182574318Y-44486903D01*
X182574318Y-44486903D02*
X182574318Y-44728808D01*
X182574318Y-44728808D02*
X182513842Y-44849761D01*
X181727651Y-43821665D02*
X182574318Y-43519284D01*
X181727651Y-43216903D02*
X182574318Y-43519284D01*
X182574318Y-43519284D02*
X182876699Y-43640236D01*
X182876699Y-43640236D02*
X182937175Y-43700713D01*
X182937175Y-43700713D02*
X182997651Y-43821665D01*
D14*
X119083333Y-73609580D02*
X119035714Y-73657200D01*
X119035714Y-73657200D02*
X118892857Y-73704819D01*
X118892857Y-73704819D02*
X118797619Y-73704819D01*
X118797619Y-73704819D02*
X118654762Y-73657200D01*
X118654762Y-73657200D02*
X118559524Y-73561961D01*
X118559524Y-73561961D02*
X118511905Y-73466723D01*
X118511905Y-73466723D02*
X118464286Y-73276247D01*
X118464286Y-73276247D02*
X118464286Y-73133390D01*
X118464286Y-73133390D02*
X118511905Y-72942914D01*
X118511905Y-72942914D02*
X118559524Y-72847676D01*
X118559524Y-72847676D02*
X118654762Y-72752438D01*
X118654762Y-72752438D02*
X118797619Y-72704819D01*
X118797619Y-72704819D02*
X118892857Y-72704819D01*
X118892857Y-72704819D02*
X119035714Y-72752438D01*
X119035714Y-72752438D02*
X119083333Y-72800057D01*
X119464286Y-72800057D02*
X119511905Y-72752438D01*
X119511905Y-72752438D02*
X119607143Y-72704819D01*
X119607143Y-72704819D02*
X119845238Y-72704819D01*
X119845238Y-72704819D02*
X119940476Y-72752438D01*
X119940476Y-72752438D02*
X119988095Y-72800057D01*
X119988095Y-72800057D02*
X120035714Y-72895295D01*
X120035714Y-72895295D02*
X120035714Y-72990533D01*
X120035714Y-72990533D02*
X119988095Y-73133390D01*
X119988095Y-73133390D02*
X119416667Y-73704819D01*
X119416667Y-73704819D02*
X120035714Y-73704819D01*
X149993333Y-92334819D02*
X149660000Y-91858628D01*
X149421905Y-92334819D02*
X149421905Y-91334819D01*
X149421905Y-91334819D02*
X149802857Y-91334819D01*
X149802857Y-91334819D02*
X149898095Y-91382438D01*
X149898095Y-91382438D02*
X149945714Y-91430057D01*
X149945714Y-91430057D02*
X149993333Y-91525295D01*
X149993333Y-91525295D02*
X149993333Y-91668152D01*
X149993333Y-91668152D02*
X149945714Y-91763390D01*
X149945714Y-91763390D02*
X149898095Y-91811009D01*
X149898095Y-91811009D02*
X149802857Y-91858628D01*
X149802857Y-91858628D02*
X149421905Y-91858628D01*
X150326667Y-91334819D02*
X150945714Y-91334819D01*
X150945714Y-91334819D02*
X150612381Y-91715771D01*
X150612381Y-91715771D02*
X150755238Y-91715771D01*
X150755238Y-91715771D02*
X150850476Y-91763390D01*
X150850476Y-91763390D02*
X150898095Y-91811009D01*
X150898095Y-91811009D02*
X150945714Y-91906247D01*
X150945714Y-91906247D02*
X150945714Y-92144342D01*
X150945714Y-92144342D02*
X150898095Y-92239580D01*
X150898095Y-92239580D02*
X150850476Y-92287200D01*
X150850476Y-92287200D02*
X150755238Y-92334819D01*
X150755238Y-92334819D02*
X150469524Y-92334819D01*
X150469524Y-92334819D02*
X150374286Y-92287200D01*
X150374286Y-92287200D02*
X150326667Y-92239580D01*
X103738095Y-95454819D02*
X104309523Y-95454819D01*
X104023809Y-96454819D02*
X104023809Y-95454819D01*
X104642857Y-96454819D02*
X104642857Y-95454819D01*
X104642857Y-95454819D02*
X105023809Y-95454819D01*
X105023809Y-95454819D02*
X105119047Y-95502438D01*
X105119047Y-95502438D02*
X105166666Y-95550057D01*
X105166666Y-95550057D02*
X105214285Y-95645295D01*
X105214285Y-95645295D02*
X105214285Y-95788152D01*
X105214285Y-95788152D02*
X105166666Y-95883390D01*
X105166666Y-95883390D02*
X105119047Y-95931009D01*
X105119047Y-95931009D02*
X105023809Y-95978628D01*
X105023809Y-95978628D02*
X104642857Y-95978628D01*
X106166666Y-96454819D02*
X105595238Y-96454819D01*
X105880952Y-96454819D02*
X105880952Y-95454819D01*
X105880952Y-95454819D02*
X105785714Y-95597676D01*
X105785714Y-95597676D02*
X105690476Y-95692914D01*
X105690476Y-95692914D02*
X105595238Y-95740533D01*
X119083333Y-98609580D02*
X119035714Y-98657200D01*
X119035714Y-98657200D02*
X118892857Y-98704819D01*
X118892857Y-98704819D02*
X118797619Y-98704819D01*
X118797619Y-98704819D02*
X118654762Y-98657200D01*
X118654762Y-98657200D02*
X118559524Y-98561961D01*
X118559524Y-98561961D02*
X118511905Y-98466723D01*
X118511905Y-98466723D02*
X118464286Y-98276247D01*
X118464286Y-98276247D02*
X118464286Y-98133390D01*
X118464286Y-98133390D02*
X118511905Y-97942914D01*
X118511905Y-97942914D02*
X118559524Y-97847676D01*
X118559524Y-97847676D02*
X118654762Y-97752438D01*
X118654762Y-97752438D02*
X118797619Y-97704819D01*
X118797619Y-97704819D02*
X118892857Y-97704819D01*
X118892857Y-97704819D02*
X119035714Y-97752438D01*
X119035714Y-97752438D02*
X119083333Y-97800057D01*
X119416667Y-97704819D02*
X120035714Y-97704819D01*
X120035714Y-97704819D02*
X119702381Y-98085771D01*
X119702381Y-98085771D02*
X119845238Y-98085771D01*
X119845238Y-98085771D02*
X119940476Y-98133390D01*
X119940476Y-98133390D02*
X119988095Y-98181009D01*
X119988095Y-98181009D02*
X120035714Y-98276247D01*
X120035714Y-98276247D02*
X120035714Y-98514342D01*
X120035714Y-98514342D02*
X119988095Y-98609580D01*
X119988095Y-98609580D02*
X119940476Y-98657200D01*
X119940476Y-98657200D02*
X119845238Y-98704819D01*
X119845238Y-98704819D02*
X119559524Y-98704819D01*
X119559524Y-98704819D02*
X119464286Y-98657200D01*
X119464286Y-98657200D02*
X119416667Y-98609580D01*
X103988095Y-26504819D02*
X103988095Y-25504819D01*
X103988095Y-25981009D02*
X104559523Y-25981009D01*
X104559523Y-26504819D02*
X104559523Y-25504819D01*
X104988095Y-25600057D02*
X105035714Y-25552438D01*
X105035714Y-25552438D02*
X105130952Y-25504819D01*
X105130952Y-25504819D02*
X105369047Y-25504819D01*
X105369047Y-25504819D02*
X105464285Y-25552438D01*
X105464285Y-25552438D02*
X105511904Y-25600057D01*
X105511904Y-25600057D02*
X105559523Y-25695295D01*
X105559523Y-25695295D02*
X105559523Y-25790533D01*
X105559523Y-25790533D02*
X105511904Y-25933390D01*
X105511904Y-25933390D02*
X104940476Y-26504819D01*
X104940476Y-26504819D02*
X105559523Y-26504819D01*
X149673333Y-84574819D02*
X149340000Y-84098628D01*
X149101905Y-84574819D02*
X149101905Y-83574819D01*
X149101905Y-83574819D02*
X149482857Y-83574819D01*
X149482857Y-83574819D02*
X149578095Y-83622438D01*
X149578095Y-83622438D02*
X149625714Y-83670057D01*
X149625714Y-83670057D02*
X149673333Y-83765295D01*
X149673333Y-83765295D02*
X149673333Y-83908152D01*
X149673333Y-83908152D02*
X149625714Y-84003390D01*
X149625714Y-84003390D02*
X149578095Y-84051009D01*
X149578095Y-84051009D02*
X149482857Y-84098628D01*
X149482857Y-84098628D02*
X149101905Y-84098628D01*
X150054286Y-83670057D02*
X150101905Y-83622438D01*
X150101905Y-83622438D02*
X150197143Y-83574819D01*
X150197143Y-83574819D02*
X150435238Y-83574819D01*
X150435238Y-83574819D02*
X150530476Y-83622438D01*
X150530476Y-83622438D02*
X150578095Y-83670057D01*
X150578095Y-83670057D02*
X150625714Y-83765295D01*
X150625714Y-83765295D02*
X150625714Y-83860533D01*
X150625714Y-83860533D02*
X150578095Y-84003390D01*
X150578095Y-84003390D02*
X150006667Y-84574819D01*
X150006667Y-84574819D02*
X150625714Y-84574819D01*
%TO.C,J5*%
D13*
X141000000Y-116000000D02*
X141000000Y-116000000D01*
X141200000Y-116000000D02*
X141200000Y-116000000D01*
D15*
X142190000Y-111400000D02*
X157430000Y-111400000D01*
X142190000Y-123900000D02*
X142190000Y-111400000D01*
X157430000Y-111400000D02*
X157430000Y-123900000D01*
X157430000Y-123900000D02*
X142190000Y-123900000D01*
D13*
X141000000Y-116000000D02*
G75*
G02*
X141200000Y-116000000I100000J0D01*
G01*
X141200000Y-116000000D02*
G75*
G02*
X141000000Y-116000000I-100000J0D01*
G01*
%TO.C,J3*%
D15*
X185790000Y-60330000D02*
X198290000Y-60330000D01*
X185790000Y-90810000D02*
X185790000Y-60330000D01*
D13*
X190390000Y-91830000D02*
X190390000Y-91830000D01*
X190390000Y-92030000D02*
X190390000Y-92030000D01*
D15*
X198290000Y-60330000D02*
X198290000Y-90810000D01*
X198290000Y-90810000D02*
X185790000Y-90810000D01*
D13*
X190390000Y-91830000D02*
G75*
G02*
X190390000Y-92030000I0J-100000D01*
G01*
X190390000Y-92030000D02*
G75*
G02*
X190390000Y-91830000I0J100000D01*
G01*
%TO.C,D2*%
D16*
X159340000Y-43000000D02*
X160360000Y-43000000D01*
X161140000Y-41530000D02*
X161140000Y-44470000D01*
X161260000Y-41530000D02*
X161260000Y-44470000D01*
X161380000Y-41530000D02*
X161380000Y-44470000D01*
X166820000Y-43000000D02*
X165800000Y-43000000D01*
X160360000Y-41530000D02*
X165800000Y-41530000D01*
X165800000Y-44470000D01*
X160360000Y-44470000D01*
X160360000Y-41530000D01*
%TO.C,C4*%
X110130000Y-112960000D02*
X110130000Y-113040000D01*
X110170000Y-113813000D02*
X110170000Y-112187000D01*
X110210000Y-114165000D02*
X110210000Y-111835000D01*
X110250000Y-114435000D02*
X110250000Y-111565000D01*
X110290000Y-114661000D02*
X110290000Y-111339000D01*
X110330000Y-114859000D02*
X110330000Y-111141000D01*
X110370000Y-115038000D02*
X110370000Y-110962000D01*
X110410000Y-115202000D02*
X110410000Y-110798000D01*
X110450000Y-115355000D02*
X110450000Y-110645000D01*
X110490000Y-115497000D02*
X110490000Y-110503000D01*
X110530000Y-115631000D02*
X110530000Y-110369000D01*
X110570000Y-115759000D02*
X110570000Y-110241000D01*
X110610000Y-115880000D02*
X110610000Y-110120000D01*
X110650000Y-115996000D02*
X110650000Y-110004000D01*
X110690000Y-116107000D02*
X110690000Y-109893000D01*
X110730000Y-116213000D02*
X110730000Y-109787000D01*
X110770000Y-116316000D02*
X110770000Y-109684000D01*
X110810000Y-116416000D02*
X110810000Y-109584000D01*
X110850000Y-116512000D02*
X110850000Y-109488000D01*
X110890000Y-116605000D02*
X110890000Y-109395000D01*
X110930000Y-116695000D02*
X110930000Y-109305000D01*
X110970000Y-116783000D02*
X110970000Y-109217000D01*
X111010000Y-116869000D02*
X111010000Y-109131000D01*
X111050000Y-116952000D02*
X111050000Y-109048000D01*
X111090000Y-117033000D02*
X111090000Y-108967000D01*
X111130000Y-117112000D02*
X111130000Y-108888000D01*
X111170000Y-117189000D02*
X111170000Y-108811000D01*
X111210000Y-117265000D02*
X111210000Y-108735000D01*
X111250000Y-117339000D02*
X111250000Y-108661000D01*
X111290000Y-117411000D02*
X111290000Y-108589000D01*
X111330000Y-117482000D02*
X111330000Y-108518000D01*
X111370000Y-117551000D02*
X111370000Y-108449000D01*
X111410000Y-117619000D02*
X111410000Y-108381000D01*
X111450000Y-117686000D02*
X111450000Y-108314000D01*
X111490000Y-117751000D02*
X111490000Y-108249000D01*
X111530000Y-117816000D02*
X111530000Y-108184000D01*
X111570000Y-117879000D02*
X111570000Y-108121000D01*
X111610000Y-117940000D02*
X111610000Y-108060000D01*
X111650000Y-118001000D02*
X111650000Y-107999000D01*
X111690000Y-118061000D02*
X111690000Y-107939000D01*
X111730000Y-118120000D02*
X111730000Y-107880000D01*
X111770000Y-118178000D02*
X111770000Y-107822000D01*
X111810000Y-118235000D02*
X111810000Y-107765000D01*
X111850000Y-118291000D02*
X111850000Y-107709000D01*
X111890000Y-118346000D02*
X111890000Y-107654000D01*
X111930000Y-118400000D02*
X111930000Y-107600000D01*
X111970000Y-118453000D02*
X111970000Y-107547000D01*
X112010000Y-118506000D02*
X112010000Y-107494000D01*
X112050000Y-118558000D02*
X112050000Y-107442000D01*
X112090000Y-118609000D02*
X112090000Y-107391000D01*
X112130000Y-118659000D02*
X112130000Y-107341000D01*
X112170000Y-118709000D02*
X112170000Y-107291000D01*
X112210000Y-118758000D02*
X112210000Y-107242000D01*
X112250000Y-118806000D02*
X112250000Y-107194000D01*
X112290000Y-118853000D02*
X112290000Y-107147000D01*
X112330000Y-118900000D02*
X112330000Y-107100000D01*
X112370000Y-118947000D02*
X112370000Y-107053000D01*
X112410000Y-118992000D02*
X112410000Y-107008000D01*
X112450000Y-119037000D02*
X112450000Y-106963000D01*
X112490000Y-119082000D02*
X112490000Y-106918000D01*
X112530000Y-119126000D02*
X112530000Y-106874000D01*
X112570000Y-119169000D02*
X112570000Y-106831000D01*
X112610000Y-119212000D02*
X112610000Y-106788000D01*
X112650000Y-119254000D02*
X112650000Y-106746000D01*
X112690000Y-119296000D02*
X112690000Y-106704000D01*
X112730000Y-119337000D02*
X112730000Y-106663000D01*
X112770000Y-119377000D02*
X112770000Y-106623000D01*
X112810000Y-119418000D02*
X112810000Y-106582000D01*
X112850000Y-119457000D02*
X112850000Y-106543000D01*
X112890000Y-119496000D02*
X112890000Y-106504000D01*
X112930000Y-119535000D02*
X112930000Y-106465000D01*
X112970000Y-119573000D02*
X112970000Y-106427000D01*
X113010000Y-119611000D02*
X113010000Y-106389000D01*
X113050000Y-119648000D02*
X113050000Y-106352000D01*
X113090000Y-119685000D02*
X113090000Y-106315000D01*
X113130000Y-119722000D02*
X113130000Y-106278000D01*
X113170000Y-119758000D02*
X113170000Y-106242000D01*
X113210000Y-119793000D02*
X113210000Y-106207000D01*
X113250000Y-119828000D02*
X113250000Y-106172000D01*
X113290000Y-119863000D02*
X113290000Y-106137000D01*
X113330000Y-119897000D02*
X113330000Y-106103000D01*
X113370000Y-119931000D02*
X113370000Y-106069000D01*
X113410000Y-119965000D02*
X113410000Y-106035000D01*
X113450000Y-119998000D02*
X113450000Y-106002000D01*
X113490000Y-120031000D02*
X113490000Y-105969000D01*
X113530000Y-120063000D02*
X113530000Y-105937000D01*
X113570000Y-120095000D02*
X113570000Y-105905000D01*
X113610000Y-120127000D02*
X113610000Y-105873000D01*
X113650000Y-120158000D02*
X113650000Y-105842000D01*
X113690000Y-120189000D02*
X113690000Y-105811000D01*
X113730000Y-120220000D02*
X113730000Y-105780000D01*
X113770000Y-120250000D02*
X113770000Y-105750000D01*
X113810000Y-120280000D02*
X113810000Y-105720000D01*
X113850000Y-120309000D02*
X113850000Y-105691000D01*
X113890000Y-120339000D02*
X113890000Y-105661000D01*
X113930000Y-120368000D02*
X113930000Y-105632000D01*
X113970000Y-120396000D02*
X113970000Y-105604000D01*
X114010000Y-120424000D02*
X114010000Y-105576000D01*
X114050000Y-120452000D02*
X114050000Y-105548000D01*
X114090000Y-111560000D02*
X114090000Y-105520000D01*
X114090000Y-120480000D02*
X114090000Y-114440000D01*
X114130000Y-111560000D02*
X114130000Y-105493000D01*
X114130000Y-120507000D02*
X114130000Y-114440000D01*
X114170000Y-111560000D02*
X114170000Y-105466000D01*
X114170000Y-120534000D02*
X114170000Y-114440000D01*
X114210000Y-111560000D02*
X114210000Y-105439000D01*
X114210000Y-120561000D02*
X114210000Y-114440000D01*
X114250000Y-111560000D02*
X114250000Y-105413000D01*
X114250000Y-120587000D02*
X114250000Y-114440000D01*
X114290000Y-111560000D02*
X114290000Y-105387000D01*
X114290000Y-120613000D02*
X114290000Y-114440000D01*
X114330000Y-111560000D02*
X114330000Y-105361000D01*
X114330000Y-120639000D02*
X114330000Y-114440000D01*
X114370000Y-111560000D02*
X114370000Y-105335000D01*
X114370000Y-120665000D02*
X114370000Y-114440000D01*
X114410000Y-111560000D02*
X114410000Y-105310000D01*
X114410000Y-120690000D02*
X114410000Y-114440000D01*
X114450000Y-111560000D02*
X114450000Y-105285000D01*
X114450000Y-120715000D02*
X114450000Y-114440000D01*
X114490000Y-111560000D02*
X114490000Y-105261000D01*
X114490000Y-120739000D02*
X114490000Y-114440000D01*
X114530000Y-111560000D02*
X114530000Y-105236000D01*
X114530000Y-120764000D02*
X114530000Y-114440000D01*
X114570000Y-111560000D02*
X114570000Y-105212000D01*
X114570000Y-120788000D02*
X114570000Y-114440000D01*
X114610000Y-111560000D02*
X114610000Y-105189000D01*
X114610000Y-120811000D02*
X114610000Y-114440000D01*
X114650000Y-111560000D02*
X114650000Y-105165000D01*
X114650000Y-120835000D02*
X114650000Y-114440000D01*
X114690000Y-111560000D02*
X114690000Y-105142000D01*
X114690000Y-120858000D02*
X114690000Y-114440000D01*
X114730000Y-111560000D02*
X114730000Y-105119000D01*
X114730000Y-120881000D02*
X114730000Y-114440000D01*
X114770000Y-111560000D02*
X114770000Y-105096000D01*
X114770000Y-120904000D02*
X114770000Y-114440000D01*
X114810000Y-111560000D02*
X114810000Y-105074000D01*
X114810000Y-120926000D02*
X114810000Y-114440000D01*
X114850000Y-111560000D02*
X114850000Y-105052000D01*
X114850000Y-120948000D02*
X114850000Y-114440000D01*
X114890000Y-111560000D02*
X114890000Y-105030000D01*
X114890000Y-120970000D02*
X114890000Y-114440000D01*
X114930000Y-111560000D02*
X114930000Y-105008000D01*
X114930000Y-120992000D02*
X114930000Y-114440000D01*
X114970000Y-111560000D02*
X114970000Y-104987000D01*
X114970000Y-121013000D02*
X114970000Y-114440000D01*
X115010000Y-111560000D02*
X115010000Y-104966000D01*
X115010000Y-121034000D02*
X115010000Y-114440000D01*
X115050000Y-111560000D02*
X115050000Y-104945000D01*
X115050000Y-121055000D02*
X115050000Y-114440000D01*
X115090000Y-111560000D02*
X115090000Y-104924000D01*
X115090000Y-121076000D02*
X115090000Y-114440000D01*
X115130000Y-111560000D02*
X115130000Y-104904000D01*
X115130000Y-121096000D02*
X115130000Y-114440000D01*
X115170000Y-111560000D02*
X115170000Y-104884000D01*
X115170000Y-121116000D02*
X115170000Y-114440000D01*
X115210000Y-111560000D02*
X115210000Y-104864000D01*
X115210000Y-121136000D02*
X115210000Y-114440000D01*
X115250000Y-111560000D02*
X115250000Y-104844000D01*
X115250000Y-121156000D02*
X115250000Y-114440000D01*
X115290000Y-111560000D02*
X115290000Y-104825000D01*
X115290000Y-121175000D02*
X115290000Y-114440000D01*
X115330000Y-111560000D02*
X115330000Y-104805000D01*
X115330000Y-121195000D02*
X115330000Y-114440000D01*
X115370000Y-111560000D02*
X115370000Y-104787000D01*
X115370000Y-121213000D02*
X115370000Y-114440000D01*
X115410000Y-111560000D02*
X115410000Y-104768000D01*
X115410000Y-121232000D02*
X115410000Y-114440000D01*
X115450000Y-111560000D02*
X115450000Y-104749000D01*
X115450000Y-121251000D02*
X115450000Y-114440000D01*
X115490000Y-111560000D02*
X115490000Y-104731000D01*
X115490000Y-121269000D02*
X115490000Y-114440000D01*
X115530000Y-111560000D02*
X115530000Y-104713000D01*
X115530000Y-121287000D02*
X115530000Y-114440000D01*
X115570000Y-111560000D02*
X115570000Y-104695000D01*
X115570000Y-121305000D02*
X115570000Y-114440000D01*
X115610000Y-111560000D02*
X115610000Y-104678000D01*
X115610000Y-121322000D02*
X115610000Y-114440000D01*
X115650000Y-111560000D02*
X115650000Y-104661000D01*
X115650000Y-121339000D02*
X115650000Y-114440000D01*
X115690000Y-111560000D02*
X115690000Y-104644000D01*
X115690000Y-121356000D02*
X115690000Y-114440000D01*
X115730000Y-111560000D02*
X115730000Y-104627000D01*
X115730000Y-121373000D02*
X115730000Y-114440000D01*
X115770000Y-111560000D02*
X115770000Y-104610000D01*
X115770000Y-121390000D02*
X115770000Y-114440000D01*
X115810000Y-111560000D02*
X115810000Y-104594000D01*
X115810000Y-121406000D02*
X115810000Y-114440000D01*
X115850000Y-111560000D02*
X115850000Y-104577000D01*
X115850000Y-121423000D02*
X115850000Y-114440000D01*
X115890000Y-111560000D02*
X115890000Y-104562000D01*
X115890000Y-121438000D02*
X115890000Y-114440000D01*
X115930000Y-111560000D02*
X115930000Y-104546000D01*
X115930000Y-121454000D02*
X115930000Y-114440000D01*
X115970000Y-111560000D02*
X115970000Y-104530000D01*
X115970000Y-121470000D02*
X115970000Y-114440000D01*
X116010000Y-111560000D02*
X116010000Y-104515000D01*
X116010000Y-121485000D02*
X116010000Y-114440000D01*
X116050000Y-111560000D02*
X116050000Y-104500000D01*
X116050000Y-121500000D02*
X116050000Y-114440000D01*
X116090000Y-111560000D02*
X116090000Y-104485000D01*
X116090000Y-121515000D02*
X116090000Y-114440000D01*
X116130000Y-111560000D02*
X116130000Y-104470000D01*
X116130000Y-121530000D02*
X116130000Y-114440000D01*
X116170000Y-111560000D02*
X116170000Y-104456000D01*
X116170000Y-121544000D02*
X116170000Y-114440000D01*
X116210000Y-111560000D02*
X116210000Y-104442000D01*
X116210000Y-121558000D02*
X116210000Y-114440000D01*
X116250000Y-111560000D02*
X116250000Y-104428000D01*
X116250000Y-121572000D02*
X116250000Y-114440000D01*
X116290000Y-111560000D02*
X116290000Y-104414000D01*
X116290000Y-121586000D02*
X116290000Y-114440000D01*
X116330000Y-111560000D02*
X116330000Y-104400000D01*
X116330000Y-121600000D02*
X116330000Y-114440000D01*
X116370000Y-111560000D02*
X116370000Y-104387000D01*
X116370000Y-121613000D02*
X116370000Y-114440000D01*
X116410000Y-111560000D02*
X116410000Y-104373000D01*
X116410000Y-121627000D02*
X116410000Y-114440000D01*
X116450000Y-111560000D02*
X116450000Y-104360000D01*
X116450000Y-121640000D02*
X116450000Y-114440000D01*
X116490000Y-111560000D02*
X116490000Y-104348000D01*
X116490000Y-121652000D02*
X116490000Y-114440000D01*
X116530000Y-111560000D02*
X116530000Y-104335000D01*
X116530000Y-121665000D02*
X116530000Y-114440000D01*
X116570000Y-111560000D02*
X116570000Y-104323000D01*
X116570000Y-121677000D02*
X116570000Y-114440000D01*
X116610000Y-111560000D02*
X116610000Y-104310000D01*
X116610000Y-121690000D02*
X116610000Y-114440000D01*
X116650000Y-111560000D02*
X116650000Y-104298000D01*
X116650000Y-121702000D02*
X116650000Y-114440000D01*
X116690000Y-111560000D02*
X116690000Y-104287000D01*
X116690000Y-121713000D02*
X116690000Y-114440000D01*
X116730000Y-111560000D02*
X116730000Y-104275000D01*
X116730000Y-121725000D02*
X116730000Y-114440000D01*
X116770000Y-111560000D02*
X116770000Y-104264000D01*
X116770000Y-121736000D02*
X116770000Y-114440000D01*
X116810000Y-111560000D02*
X116810000Y-104252000D01*
X116810000Y-121748000D02*
X116810000Y-114440000D01*
X116850000Y-111560000D02*
X116850000Y-104241000D01*
X116850000Y-121759000D02*
X116850000Y-114440000D01*
X116890000Y-111560000D02*
X116890000Y-104231000D01*
X116890000Y-121769000D02*
X116890000Y-114440000D01*
X116930000Y-111560000D02*
X116930000Y-104220000D01*
X116930000Y-121780000D02*
X116930000Y-114440000D01*
X116970000Y-121790000D02*
X116970000Y-104210000D01*
X117010000Y-121801000D02*
X117010000Y-104199000D01*
X117050000Y-121811000D02*
X117050000Y-104189000D01*
X117090000Y-121821000D02*
X117090000Y-104179000D01*
X117130000Y-121830000D02*
X117130000Y-104170000D01*
X117170000Y-121840000D02*
X117170000Y-104160000D01*
X117210000Y-121849000D02*
X117210000Y-104151000D01*
X117250000Y-121858000D02*
X117250000Y-104142000D01*
X117290000Y-121867000D02*
X117290000Y-104133000D01*
X117330000Y-121876000D02*
X117330000Y-104124000D01*
X117370000Y-121884000D02*
X117370000Y-104116000D01*
X117410000Y-121892000D02*
X117410000Y-104108000D01*
X117450000Y-121901000D02*
X117450000Y-104099000D01*
X117490000Y-121909000D02*
X117490000Y-104091000D01*
X117530000Y-121916000D02*
X117530000Y-104084000D01*
X117570000Y-121924000D02*
X117570000Y-104076000D01*
X117610000Y-121931000D02*
X117610000Y-104069000D01*
X117650000Y-121939000D02*
X117650000Y-104061000D01*
X117690000Y-121946000D02*
X117690000Y-104054000D01*
X117730000Y-121952000D02*
X117730000Y-104048000D01*
X117770000Y-121959000D02*
X117770000Y-104041000D01*
X117810000Y-121966000D02*
X117810000Y-104034000D01*
X117850000Y-121972000D02*
X117850000Y-104028000D01*
X117890000Y-121978000D02*
X117890000Y-104022000D01*
X117930000Y-121984000D02*
X117930000Y-104016000D01*
X117970000Y-121990000D02*
X117970000Y-104010000D01*
X118010000Y-121995000D02*
X118010000Y-104005000D01*
X118050000Y-122001000D02*
X118050000Y-103999000D01*
X118090000Y-122006000D02*
X118090000Y-103994000D01*
X118130000Y-122011000D02*
X118130000Y-103989000D01*
X118170000Y-122016000D02*
X118170000Y-103984000D01*
X118210000Y-122021000D02*
X118210000Y-103979000D01*
X118250000Y-122025000D02*
X118250000Y-103975000D01*
X118290000Y-122029000D02*
X118290000Y-103971000D01*
X118330000Y-122033000D02*
X118330000Y-103967000D01*
X118370000Y-122037000D02*
X118370000Y-103963000D01*
X118410000Y-122041000D02*
X118410000Y-103959000D01*
X118450000Y-122045000D02*
X118450000Y-103955000D01*
X118490000Y-122048000D02*
X118490000Y-103952000D01*
X118530000Y-122052000D02*
X118530000Y-103948000D01*
X118570000Y-122055000D02*
X118570000Y-103945000D01*
X118610000Y-122058000D02*
X118610000Y-103942000D01*
X118650000Y-122060000D02*
X118650000Y-103940000D01*
X118690000Y-122063000D02*
X118690000Y-103937000D01*
X118730000Y-122065000D02*
X118730000Y-103935000D01*
X118770000Y-122067000D02*
X118770000Y-103933000D01*
X118810000Y-122069000D02*
X118810000Y-103931000D01*
X118850000Y-122071000D02*
X118850000Y-103929000D01*
X118890000Y-122073000D02*
X118890000Y-103927000D01*
X118930000Y-122074000D02*
X118930000Y-103926000D01*
X118970000Y-122076000D02*
X118970000Y-103924000D01*
X119010000Y-122077000D02*
X119010000Y-103923000D01*
X119050000Y-122078000D02*
X119050000Y-103922000D01*
X119090000Y-122079000D02*
X119090000Y-103921000D01*
X119130000Y-122079000D02*
X119130000Y-103921000D01*
X119170000Y-122080000D02*
X119170000Y-103920000D01*
X119210000Y-122080000D02*
X119210000Y-103920000D01*
X119250000Y-122080000D02*
X119250000Y-103920000D01*
X128109440Y-119015000D02*
X128109440Y-117215000D01*
X129009440Y-118115000D02*
X127209440Y-118115000D01*
X128370000Y-113000000D02*
G75*
G02*
X110130000Y-113000000I-9120000J0D01*
G01*
X110130000Y-113000000D02*
G75*
G02*
X128370000Y-113000000I9120000J0D01*
G01*
%TO.C,J1*%
D15*
X142570000Y-26100000D02*
X157810000Y-26100000D01*
X142570000Y-38600000D02*
X142570000Y-26100000D01*
X157810000Y-26100000D02*
X157810000Y-38600000D01*
X157810000Y-38600000D02*
X142570000Y-38600000D01*
D13*
X158800000Y-34000000D02*
X158800000Y-34000000D01*
X159000000Y-34000000D02*
X159000000Y-34000000D01*
X158800000Y-34000000D02*
G75*
G02*
X159000000Y-34000000I100000J0D01*
G01*
X159000000Y-34000000D02*
G75*
G02*
X158800000Y-34000000I-100000J0D01*
G01*
%TO.C,D1*%
D16*
X137340000Y-43000000D02*
X138360000Y-43000000D01*
X139140000Y-41530000D02*
X139140000Y-44470000D01*
X139260000Y-41530000D02*
X139260000Y-44470000D01*
X139380000Y-41530000D02*
X139380000Y-44470000D01*
X144820000Y-43000000D02*
X143800000Y-43000000D01*
X138360000Y-41530000D02*
X143800000Y-41530000D01*
X143800000Y-44470000D01*
X138360000Y-44470000D01*
X138360000Y-41530000D01*
%TO.C,R1*%
X141120000Y-65000000D02*
X141220000Y-65000000D01*
X158560000Y-65000000D02*
X158460000Y-65000000D01*
X141220000Y-61880000D02*
X158460000Y-61880000D01*
X158460000Y-68120000D01*
X141220000Y-68120000D01*
X141220000Y-61880000D01*
%TO.C,J4*%
D15*
X185750000Y-95785000D02*
X198250000Y-95785000D01*
X185750000Y-111025000D02*
X185750000Y-95785000D01*
D13*
X190350000Y-112015000D02*
X190350000Y-112015000D01*
X190350000Y-112215000D02*
X190350000Y-112215000D01*
D15*
X198250000Y-95785000D02*
X198250000Y-111025000D01*
X198250000Y-111025000D02*
X185750000Y-111025000D01*
D13*
X190350000Y-112015000D02*
G75*
G02*
X190350000Y-112215000I0J-100000D01*
G01*
X190350000Y-112215000D02*
G75*
G02*
X190350000Y-112015000I0J100000D01*
G01*
%TO.C,D3*%
D16*
X137340000Y-53000000D02*
X138360000Y-53000000D01*
X139140000Y-51530000D02*
X139140000Y-54470000D01*
X139260000Y-51530000D02*
X139260000Y-54470000D01*
X139380000Y-51530000D02*
X139380000Y-54470000D01*
X144820000Y-53000000D02*
X143800000Y-53000000D01*
X138360000Y-51530000D02*
X143800000Y-51530000D01*
X143800000Y-54470000D01*
X138360000Y-54470000D01*
X138360000Y-51530000D01*
%TO.C,C1*%
X110130000Y-37960000D02*
X110130000Y-38040000D01*
X110170000Y-38813000D02*
X110170000Y-37187000D01*
X110210000Y-39165000D02*
X110210000Y-36835000D01*
X110250000Y-39435000D02*
X110250000Y-36565000D01*
X110290000Y-39661000D02*
X110290000Y-36339000D01*
X110330000Y-39859000D02*
X110330000Y-36141000D01*
X110370000Y-40038000D02*
X110370000Y-35962000D01*
X110410000Y-40202000D02*
X110410000Y-35798000D01*
X110450000Y-40355000D02*
X110450000Y-35645000D01*
X110490000Y-40497000D02*
X110490000Y-35503000D01*
X110530000Y-40631000D02*
X110530000Y-35369000D01*
X110570000Y-40759000D02*
X110570000Y-35241000D01*
X110610000Y-40880000D02*
X110610000Y-35120000D01*
X110650000Y-40996000D02*
X110650000Y-35004000D01*
X110690000Y-41107000D02*
X110690000Y-34893000D01*
X110730000Y-41213000D02*
X110730000Y-34787000D01*
X110770000Y-41316000D02*
X110770000Y-34684000D01*
X110810000Y-41416000D02*
X110810000Y-34584000D01*
X110850000Y-41512000D02*
X110850000Y-34488000D01*
X110890000Y-41605000D02*
X110890000Y-34395000D01*
X110930000Y-41695000D02*
X110930000Y-34305000D01*
X110970000Y-41783000D02*
X110970000Y-34217000D01*
X111010000Y-41869000D02*
X111010000Y-34131000D01*
X111050000Y-41952000D02*
X111050000Y-34048000D01*
X111090000Y-42033000D02*
X111090000Y-33967000D01*
X111130000Y-42112000D02*
X111130000Y-33888000D01*
X111170000Y-42189000D02*
X111170000Y-33811000D01*
X111210000Y-42265000D02*
X111210000Y-33735000D01*
X111250000Y-42339000D02*
X111250000Y-33661000D01*
X111290000Y-42411000D02*
X111290000Y-33589000D01*
X111330000Y-42482000D02*
X111330000Y-33518000D01*
X111370000Y-42551000D02*
X111370000Y-33449000D01*
X111410000Y-42619000D02*
X111410000Y-33381000D01*
X111450000Y-42686000D02*
X111450000Y-33314000D01*
X111490000Y-42751000D02*
X111490000Y-33249000D01*
X111530000Y-42816000D02*
X111530000Y-33184000D01*
X111570000Y-42879000D02*
X111570000Y-33121000D01*
X111610000Y-42940000D02*
X111610000Y-33060000D01*
X111650000Y-43001000D02*
X111650000Y-32999000D01*
X111690000Y-43061000D02*
X111690000Y-32939000D01*
X111730000Y-43120000D02*
X111730000Y-32880000D01*
X111770000Y-43178000D02*
X111770000Y-32822000D01*
X111810000Y-43235000D02*
X111810000Y-32765000D01*
X111850000Y-43291000D02*
X111850000Y-32709000D01*
X111890000Y-43346000D02*
X111890000Y-32654000D01*
X111930000Y-43400000D02*
X111930000Y-32600000D01*
X111970000Y-43453000D02*
X111970000Y-32547000D01*
X112010000Y-43506000D02*
X112010000Y-32494000D01*
X112050000Y-43558000D02*
X112050000Y-32442000D01*
X112090000Y-43609000D02*
X112090000Y-32391000D01*
X112130000Y-43659000D02*
X112130000Y-32341000D01*
X112170000Y-43709000D02*
X112170000Y-32291000D01*
X112210000Y-43758000D02*
X112210000Y-32242000D01*
X112250000Y-43806000D02*
X112250000Y-32194000D01*
X112290000Y-43853000D02*
X112290000Y-32147000D01*
X112330000Y-43900000D02*
X112330000Y-32100000D01*
X112370000Y-43947000D02*
X112370000Y-32053000D01*
X112410000Y-43992000D02*
X112410000Y-32008000D01*
X112450000Y-44037000D02*
X112450000Y-31963000D01*
X112490000Y-44082000D02*
X112490000Y-31918000D01*
X112530000Y-44126000D02*
X112530000Y-31874000D01*
X112570000Y-44169000D02*
X112570000Y-31831000D01*
X112610000Y-44212000D02*
X112610000Y-31788000D01*
X112650000Y-44254000D02*
X112650000Y-31746000D01*
X112690000Y-44296000D02*
X112690000Y-31704000D01*
X112730000Y-44337000D02*
X112730000Y-31663000D01*
X112770000Y-44377000D02*
X112770000Y-31623000D01*
X112810000Y-44418000D02*
X112810000Y-31582000D01*
X112850000Y-44457000D02*
X112850000Y-31543000D01*
X112890000Y-44496000D02*
X112890000Y-31504000D01*
X112930000Y-44535000D02*
X112930000Y-31465000D01*
X112970000Y-44573000D02*
X112970000Y-31427000D01*
X113010000Y-44611000D02*
X113010000Y-31389000D01*
X113050000Y-44648000D02*
X113050000Y-31352000D01*
X113090000Y-44685000D02*
X113090000Y-31315000D01*
X113130000Y-44722000D02*
X113130000Y-31278000D01*
X113170000Y-44758000D02*
X113170000Y-31242000D01*
X113210000Y-44793000D02*
X113210000Y-31207000D01*
X113250000Y-44828000D02*
X113250000Y-31172000D01*
X113290000Y-44863000D02*
X113290000Y-31137000D01*
X113330000Y-44897000D02*
X113330000Y-31103000D01*
X113370000Y-44931000D02*
X113370000Y-31069000D01*
X113410000Y-44965000D02*
X113410000Y-31035000D01*
X113450000Y-44998000D02*
X113450000Y-31002000D01*
X113490000Y-45031000D02*
X113490000Y-30969000D01*
X113530000Y-45063000D02*
X113530000Y-30937000D01*
X113570000Y-45095000D02*
X113570000Y-30905000D01*
X113610000Y-45127000D02*
X113610000Y-30873000D01*
X113650000Y-45158000D02*
X113650000Y-30842000D01*
X113690000Y-45189000D02*
X113690000Y-30811000D01*
X113730000Y-45220000D02*
X113730000Y-30780000D01*
X113770000Y-45250000D02*
X113770000Y-30750000D01*
X113810000Y-45280000D02*
X113810000Y-30720000D01*
X113850000Y-45309000D02*
X113850000Y-30691000D01*
X113890000Y-45339000D02*
X113890000Y-30661000D01*
X113930000Y-45368000D02*
X113930000Y-30632000D01*
X113970000Y-45396000D02*
X113970000Y-30604000D01*
X114010000Y-45424000D02*
X114010000Y-30576000D01*
X114050000Y-45452000D02*
X114050000Y-30548000D01*
X114090000Y-36560000D02*
X114090000Y-30520000D01*
X114090000Y-45480000D02*
X114090000Y-39440000D01*
X114130000Y-36560000D02*
X114130000Y-30493000D01*
X114130000Y-45507000D02*
X114130000Y-39440000D01*
X114170000Y-36560000D02*
X114170000Y-30466000D01*
X114170000Y-45534000D02*
X114170000Y-39440000D01*
X114210000Y-36560000D02*
X114210000Y-30439000D01*
X114210000Y-45561000D02*
X114210000Y-39440000D01*
X114250000Y-36560000D02*
X114250000Y-30413000D01*
X114250000Y-45587000D02*
X114250000Y-39440000D01*
X114290000Y-36560000D02*
X114290000Y-30387000D01*
X114290000Y-45613000D02*
X114290000Y-39440000D01*
X114330000Y-36560000D02*
X114330000Y-30361000D01*
X114330000Y-45639000D02*
X114330000Y-39440000D01*
X114370000Y-36560000D02*
X114370000Y-30335000D01*
X114370000Y-45665000D02*
X114370000Y-39440000D01*
X114410000Y-36560000D02*
X114410000Y-30310000D01*
X114410000Y-45690000D02*
X114410000Y-39440000D01*
X114450000Y-36560000D02*
X114450000Y-30285000D01*
X114450000Y-45715000D02*
X114450000Y-39440000D01*
X114490000Y-36560000D02*
X114490000Y-30261000D01*
X114490000Y-45739000D02*
X114490000Y-39440000D01*
X114530000Y-36560000D02*
X114530000Y-30236000D01*
X114530000Y-45764000D02*
X114530000Y-39440000D01*
X114570000Y-36560000D02*
X114570000Y-30212000D01*
X114570000Y-45788000D02*
X114570000Y-39440000D01*
X114610000Y-36560000D02*
X114610000Y-30189000D01*
X114610000Y-45811000D02*
X114610000Y-39440000D01*
X114650000Y-36560000D02*
X114650000Y-30165000D01*
X114650000Y-45835000D02*
X114650000Y-39440000D01*
X114690000Y-36560000D02*
X114690000Y-30142000D01*
X114690000Y-45858000D02*
X114690000Y-39440000D01*
X114730000Y-36560000D02*
X114730000Y-30119000D01*
X114730000Y-45881000D02*
X114730000Y-39440000D01*
X114770000Y-36560000D02*
X114770000Y-30096000D01*
X114770000Y-45904000D02*
X114770000Y-39440000D01*
X114810000Y-36560000D02*
X114810000Y-30074000D01*
X114810000Y-45926000D02*
X114810000Y-39440000D01*
X114850000Y-36560000D02*
X114850000Y-30052000D01*
X114850000Y-45948000D02*
X114850000Y-39440000D01*
X114890000Y-36560000D02*
X114890000Y-30030000D01*
X114890000Y-45970000D02*
X114890000Y-39440000D01*
X114930000Y-36560000D02*
X114930000Y-30008000D01*
X114930000Y-45992000D02*
X114930000Y-39440000D01*
X114970000Y-36560000D02*
X114970000Y-29987000D01*
X114970000Y-46013000D02*
X114970000Y-39440000D01*
X115010000Y-36560000D02*
X115010000Y-29966000D01*
X115010000Y-46034000D02*
X115010000Y-39440000D01*
X115050000Y-36560000D02*
X115050000Y-29945000D01*
X115050000Y-46055000D02*
X115050000Y-39440000D01*
X115090000Y-36560000D02*
X115090000Y-29924000D01*
X115090000Y-46076000D02*
X115090000Y-39440000D01*
X115130000Y-36560000D02*
X115130000Y-29904000D01*
X115130000Y-46096000D02*
X115130000Y-39440000D01*
X115170000Y-36560000D02*
X115170000Y-29884000D01*
X115170000Y-46116000D02*
X115170000Y-39440000D01*
X115210000Y-36560000D02*
X115210000Y-29864000D01*
X115210000Y-46136000D02*
X115210000Y-39440000D01*
X115250000Y-36560000D02*
X115250000Y-29844000D01*
X115250000Y-46156000D02*
X115250000Y-39440000D01*
X115290000Y-36560000D02*
X115290000Y-29825000D01*
X115290000Y-46175000D02*
X115290000Y-39440000D01*
X115330000Y-36560000D02*
X115330000Y-29805000D01*
X115330000Y-46195000D02*
X115330000Y-39440000D01*
X115370000Y-36560000D02*
X115370000Y-29787000D01*
X115370000Y-46213000D02*
X115370000Y-39440000D01*
X115410000Y-36560000D02*
X115410000Y-29768000D01*
X115410000Y-46232000D02*
X115410000Y-39440000D01*
X115450000Y-36560000D02*
X115450000Y-29749000D01*
X115450000Y-46251000D02*
X115450000Y-39440000D01*
X115490000Y-36560000D02*
X115490000Y-29731000D01*
X115490000Y-46269000D02*
X115490000Y-39440000D01*
X115530000Y-36560000D02*
X115530000Y-29713000D01*
X115530000Y-46287000D02*
X115530000Y-39440000D01*
X115570000Y-36560000D02*
X115570000Y-29695000D01*
X115570000Y-46305000D02*
X115570000Y-39440000D01*
X115610000Y-36560000D02*
X115610000Y-29678000D01*
X115610000Y-46322000D02*
X115610000Y-39440000D01*
X115650000Y-36560000D02*
X115650000Y-29661000D01*
X115650000Y-46339000D02*
X115650000Y-39440000D01*
X115690000Y-36560000D02*
X115690000Y-29644000D01*
X115690000Y-46356000D02*
X115690000Y-39440000D01*
X115730000Y-36560000D02*
X115730000Y-29627000D01*
X115730000Y-46373000D02*
X115730000Y-39440000D01*
X115770000Y-36560000D02*
X115770000Y-29610000D01*
X115770000Y-46390000D02*
X115770000Y-39440000D01*
X115810000Y-36560000D02*
X115810000Y-29594000D01*
X115810000Y-46406000D02*
X115810000Y-39440000D01*
X115850000Y-36560000D02*
X115850000Y-29577000D01*
X115850000Y-46423000D02*
X115850000Y-39440000D01*
X115890000Y-36560000D02*
X115890000Y-29562000D01*
X115890000Y-46438000D02*
X115890000Y-39440000D01*
X115930000Y-36560000D02*
X115930000Y-29546000D01*
X115930000Y-46454000D02*
X115930000Y-39440000D01*
X115970000Y-36560000D02*
X115970000Y-29530000D01*
X115970000Y-46470000D02*
X115970000Y-39440000D01*
X116010000Y-36560000D02*
X116010000Y-29515000D01*
X116010000Y-46485000D02*
X116010000Y-39440000D01*
X116050000Y-36560000D02*
X116050000Y-29500000D01*
X116050000Y-46500000D02*
X116050000Y-39440000D01*
X116090000Y-36560000D02*
X116090000Y-29485000D01*
X116090000Y-46515000D02*
X116090000Y-39440000D01*
X116130000Y-36560000D02*
X116130000Y-29470000D01*
X116130000Y-46530000D02*
X116130000Y-39440000D01*
X116170000Y-36560000D02*
X116170000Y-29456000D01*
X116170000Y-46544000D02*
X116170000Y-39440000D01*
X116210000Y-36560000D02*
X116210000Y-29442000D01*
X116210000Y-46558000D02*
X116210000Y-39440000D01*
X116250000Y-36560000D02*
X116250000Y-29428000D01*
X116250000Y-46572000D02*
X116250000Y-39440000D01*
X116290000Y-36560000D02*
X116290000Y-29414000D01*
X116290000Y-46586000D02*
X116290000Y-39440000D01*
X116330000Y-36560000D02*
X116330000Y-29400000D01*
X116330000Y-46600000D02*
X116330000Y-39440000D01*
X116370000Y-36560000D02*
X116370000Y-29387000D01*
X116370000Y-46613000D02*
X116370000Y-39440000D01*
X116410000Y-36560000D02*
X116410000Y-29373000D01*
X116410000Y-46627000D02*
X116410000Y-39440000D01*
X116450000Y-36560000D02*
X116450000Y-29360000D01*
X116450000Y-46640000D02*
X116450000Y-39440000D01*
X116490000Y-36560000D02*
X116490000Y-29348000D01*
X116490000Y-46652000D02*
X116490000Y-39440000D01*
X116530000Y-36560000D02*
X116530000Y-29335000D01*
X116530000Y-46665000D02*
X116530000Y-39440000D01*
X116570000Y-36560000D02*
X116570000Y-29323000D01*
X116570000Y-46677000D02*
X116570000Y-39440000D01*
X116610000Y-36560000D02*
X116610000Y-29310000D01*
X116610000Y-46690000D02*
X116610000Y-39440000D01*
X116650000Y-36560000D02*
X116650000Y-29298000D01*
X116650000Y-46702000D02*
X116650000Y-39440000D01*
X116690000Y-36560000D02*
X116690000Y-29287000D01*
X116690000Y-46713000D02*
X116690000Y-39440000D01*
X116730000Y-36560000D02*
X116730000Y-29275000D01*
X116730000Y-46725000D02*
X116730000Y-39440000D01*
X116770000Y-36560000D02*
X116770000Y-29264000D01*
X116770000Y-46736000D02*
X116770000Y-39440000D01*
X116810000Y-36560000D02*
X116810000Y-29252000D01*
X116810000Y-46748000D02*
X116810000Y-39440000D01*
X116850000Y-36560000D02*
X116850000Y-29241000D01*
X116850000Y-46759000D02*
X116850000Y-39440000D01*
X116890000Y-36560000D02*
X116890000Y-29231000D01*
X116890000Y-46769000D02*
X116890000Y-39440000D01*
X116930000Y-36560000D02*
X116930000Y-29220000D01*
X116930000Y-46780000D02*
X116930000Y-39440000D01*
X116970000Y-46790000D02*
X116970000Y-29210000D01*
X117010000Y-46801000D02*
X117010000Y-29199000D01*
X117050000Y-46811000D02*
X117050000Y-29189000D01*
X117090000Y-46821000D02*
X117090000Y-29179000D01*
X117130000Y-46830000D02*
X117130000Y-29170000D01*
X117170000Y-46840000D02*
X117170000Y-29160000D01*
X117210000Y-46849000D02*
X117210000Y-29151000D01*
X117250000Y-46858000D02*
X117250000Y-29142000D01*
X117290000Y-46867000D02*
X117290000Y-29133000D01*
X117330000Y-46876000D02*
X117330000Y-29124000D01*
X117370000Y-46884000D02*
X117370000Y-29116000D01*
X117410000Y-46892000D02*
X117410000Y-29108000D01*
X117450000Y-46901000D02*
X117450000Y-29099000D01*
X117490000Y-46909000D02*
X117490000Y-29091000D01*
X117530000Y-46916000D02*
X117530000Y-29084000D01*
X117570000Y-46924000D02*
X117570000Y-29076000D01*
X117610000Y-46931000D02*
X117610000Y-29069000D01*
X117650000Y-46939000D02*
X117650000Y-29061000D01*
X117690000Y-46946000D02*
X117690000Y-29054000D01*
X117730000Y-46952000D02*
X117730000Y-29048000D01*
X117770000Y-46959000D02*
X117770000Y-29041000D01*
X117810000Y-46966000D02*
X117810000Y-29034000D01*
X117850000Y-46972000D02*
X117850000Y-29028000D01*
X117890000Y-46978000D02*
X117890000Y-29022000D01*
X117930000Y-46984000D02*
X117930000Y-29016000D01*
X117970000Y-46990000D02*
X117970000Y-29010000D01*
X118010000Y-46995000D02*
X118010000Y-29005000D01*
X118050000Y-47001000D02*
X118050000Y-28999000D01*
X118090000Y-47006000D02*
X118090000Y-28994000D01*
X118130000Y-47011000D02*
X118130000Y-28989000D01*
X118170000Y-47016000D02*
X118170000Y-28984000D01*
X118210000Y-47021000D02*
X118210000Y-28979000D01*
X118250000Y-47025000D02*
X118250000Y-28975000D01*
X118290000Y-47029000D02*
X118290000Y-28971000D01*
X118330000Y-47033000D02*
X118330000Y-28967000D01*
X118370000Y-47037000D02*
X118370000Y-28963000D01*
X118410000Y-47041000D02*
X118410000Y-28959000D01*
X118450000Y-47045000D02*
X118450000Y-28955000D01*
X118490000Y-47048000D02*
X118490000Y-28952000D01*
X118530000Y-47052000D02*
X118530000Y-28948000D01*
X118570000Y-47055000D02*
X118570000Y-28945000D01*
X118610000Y-47058000D02*
X118610000Y-28942000D01*
X118650000Y-47060000D02*
X118650000Y-28940000D01*
X118690000Y-47063000D02*
X118690000Y-28937000D01*
X118730000Y-47065000D02*
X118730000Y-28935000D01*
X118770000Y-47067000D02*
X118770000Y-28933000D01*
X118810000Y-47069000D02*
X118810000Y-28931000D01*
X118850000Y-47071000D02*
X118850000Y-28929000D01*
X118890000Y-47073000D02*
X118890000Y-28927000D01*
X118930000Y-47074000D02*
X118930000Y-28926000D01*
X118970000Y-47076000D02*
X118970000Y-28924000D01*
X119010000Y-47077000D02*
X119010000Y-28923000D01*
X119050000Y-47078000D02*
X119050000Y-28922000D01*
X119090000Y-47079000D02*
X119090000Y-28921000D01*
X119130000Y-47079000D02*
X119130000Y-28921000D01*
X119170000Y-47080000D02*
X119170000Y-28920000D01*
X119210000Y-47080000D02*
X119210000Y-28920000D01*
X119250000Y-47080000D02*
X119250000Y-28920000D01*
X128109440Y-44015000D02*
X128109440Y-42215000D01*
X129009440Y-43115000D02*
X127209440Y-43115000D01*
X128370000Y-38000000D02*
G75*
G02*
X110130000Y-38000000I-9120000J0D01*
G01*
X110130000Y-38000000D02*
G75*
G02*
X128370000Y-38000000I9120000J0D01*
G01*
%TO.C,D4*%
X159340000Y-53000000D02*
X160360000Y-53000000D01*
X161140000Y-51530000D02*
X161140000Y-54470000D01*
X161260000Y-51530000D02*
X161260000Y-54470000D01*
X161380000Y-51530000D02*
X161380000Y-54470000D01*
X166820000Y-53000000D02*
X165800000Y-53000000D01*
X160360000Y-51530000D02*
X165800000Y-51530000D01*
X165800000Y-54470000D01*
X160360000Y-54470000D01*
X160360000Y-51530000D01*
%TO.C,J2*%
D15*
X185750000Y-38570000D02*
X198250000Y-38570000D01*
X185750000Y-53810000D02*
X185750000Y-38570000D01*
D13*
X190350000Y-54800000D02*
X190350000Y-54800000D01*
X190350000Y-55000000D02*
X190350000Y-55000000D01*
D15*
X198250000Y-38570000D02*
X198250000Y-53810000D01*
X198250000Y-53810000D02*
X185750000Y-53810000D01*
D13*
X190350000Y-54800000D02*
G75*
G02*
X190350000Y-55000000I0J-100000D01*
G01*
X190350000Y-55000000D02*
G75*
G02*
X190350000Y-54800000I0J100000D01*
G01*
%TO.C,C2*%
D16*
X110130000Y-62960000D02*
X110130000Y-63040000D01*
X110170000Y-63813000D02*
X110170000Y-62187000D01*
X110210000Y-64165000D02*
X110210000Y-61835000D01*
X110250000Y-64435000D02*
X110250000Y-61565000D01*
X110290000Y-64661000D02*
X110290000Y-61339000D01*
X110330000Y-64859000D02*
X110330000Y-61141000D01*
X110370000Y-65038000D02*
X110370000Y-60962000D01*
X110410000Y-65202000D02*
X110410000Y-60798000D01*
X110450000Y-65355000D02*
X110450000Y-60645000D01*
X110490000Y-65497000D02*
X110490000Y-60503000D01*
X110530000Y-65631000D02*
X110530000Y-60369000D01*
X110570000Y-65759000D02*
X110570000Y-60241000D01*
X110610000Y-65880000D02*
X110610000Y-60120000D01*
X110650000Y-65996000D02*
X110650000Y-60004000D01*
X110690000Y-66107000D02*
X110690000Y-59893000D01*
X110730000Y-66213000D02*
X110730000Y-59787000D01*
X110770000Y-66316000D02*
X110770000Y-59684000D01*
X110810000Y-66416000D02*
X110810000Y-59584000D01*
X110850000Y-66512000D02*
X110850000Y-59488000D01*
X110890000Y-66605000D02*
X110890000Y-59395000D01*
X110930000Y-66695000D02*
X110930000Y-59305000D01*
X110970000Y-66783000D02*
X110970000Y-59217000D01*
X111010000Y-66869000D02*
X111010000Y-59131000D01*
X111050000Y-66952000D02*
X111050000Y-59048000D01*
X111090000Y-67033000D02*
X111090000Y-58967000D01*
X111130000Y-67112000D02*
X111130000Y-58888000D01*
X111170000Y-67189000D02*
X111170000Y-58811000D01*
X111210000Y-67265000D02*
X111210000Y-58735000D01*
X111250000Y-67339000D02*
X111250000Y-58661000D01*
X111290000Y-67411000D02*
X111290000Y-58589000D01*
X111330000Y-67482000D02*
X111330000Y-58518000D01*
X111370000Y-67551000D02*
X111370000Y-58449000D01*
X111410000Y-67619000D02*
X111410000Y-58381000D01*
X111450000Y-67686000D02*
X111450000Y-58314000D01*
X111490000Y-67751000D02*
X111490000Y-58249000D01*
X111530000Y-67816000D02*
X111530000Y-58184000D01*
X111570000Y-67879000D02*
X111570000Y-58121000D01*
X111610000Y-67940000D02*
X111610000Y-58060000D01*
X111650000Y-68001000D02*
X111650000Y-57999000D01*
X111690000Y-68061000D02*
X111690000Y-57939000D01*
X111730000Y-68120000D02*
X111730000Y-57880000D01*
X111770000Y-68178000D02*
X111770000Y-57822000D01*
X111810000Y-68235000D02*
X111810000Y-57765000D01*
X111850000Y-68291000D02*
X111850000Y-57709000D01*
X111890000Y-68346000D02*
X111890000Y-57654000D01*
X111930000Y-68400000D02*
X111930000Y-57600000D01*
X111970000Y-68453000D02*
X111970000Y-57547000D01*
X112010000Y-68506000D02*
X112010000Y-57494000D01*
X112050000Y-68558000D02*
X112050000Y-57442000D01*
X112090000Y-68609000D02*
X112090000Y-57391000D01*
X112130000Y-68659000D02*
X112130000Y-57341000D01*
X112170000Y-68709000D02*
X112170000Y-57291000D01*
X112210000Y-68758000D02*
X112210000Y-57242000D01*
X112250000Y-68806000D02*
X112250000Y-57194000D01*
X112290000Y-68853000D02*
X112290000Y-57147000D01*
X112330000Y-68900000D02*
X112330000Y-57100000D01*
X112370000Y-68947000D02*
X112370000Y-57053000D01*
X112410000Y-68992000D02*
X112410000Y-57008000D01*
X112450000Y-69037000D02*
X112450000Y-56963000D01*
X112490000Y-69082000D02*
X112490000Y-56918000D01*
X112530000Y-69126000D02*
X112530000Y-56874000D01*
X112570000Y-69169000D02*
X112570000Y-56831000D01*
X112610000Y-69212000D02*
X112610000Y-56788000D01*
X112650000Y-69254000D02*
X112650000Y-56746000D01*
X112690000Y-69296000D02*
X112690000Y-56704000D01*
X112730000Y-69337000D02*
X112730000Y-56663000D01*
X112770000Y-69377000D02*
X112770000Y-56623000D01*
X112810000Y-69418000D02*
X112810000Y-56582000D01*
X112850000Y-69457000D02*
X112850000Y-56543000D01*
X112890000Y-69496000D02*
X112890000Y-56504000D01*
X112930000Y-69535000D02*
X112930000Y-56465000D01*
X112970000Y-69573000D02*
X112970000Y-56427000D01*
X113010000Y-69611000D02*
X113010000Y-56389000D01*
X113050000Y-69648000D02*
X113050000Y-56352000D01*
X113090000Y-69685000D02*
X113090000Y-56315000D01*
X113130000Y-69722000D02*
X113130000Y-56278000D01*
X113170000Y-69758000D02*
X113170000Y-56242000D01*
X113210000Y-69793000D02*
X113210000Y-56207000D01*
X113250000Y-69828000D02*
X113250000Y-56172000D01*
X113290000Y-69863000D02*
X113290000Y-56137000D01*
X113330000Y-69897000D02*
X113330000Y-56103000D01*
X113370000Y-69931000D02*
X113370000Y-56069000D01*
X113410000Y-69965000D02*
X113410000Y-56035000D01*
X113450000Y-69998000D02*
X113450000Y-56002000D01*
X113490000Y-70031000D02*
X113490000Y-55969000D01*
X113530000Y-70063000D02*
X113530000Y-55937000D01*
X113570000Y-70095000D02*
X113570000Y-55905000D01*
X113610000Y-70127000D02*
X113610000Y-55873000D01*
X113650000Y-70158000D02*
X113650000Y-55842000D01*
X113690000Y-70189000D02*
X113690000Y-55811000D01*
X113730000Y-70220000D02*
X113730000Y-55780000D01*
X113770000Y-70250000D02*
X113770000Y-55750000D01*
X113810000Y-70280000D02*
X113810000Y-55720000D01*
X113850000Y-70309000D02*
X113850000Y-55691000D01*
X113890000Y-70339000D02*
X113890000Y-55661000D01*
X113930000Y-70368000D02*
X113930000Y-55632000D01*
X113970000Y-70396000D02*
X113970000Y-55604000D01*
X114010000Y-70424000D02*
X114010000Y-55576000D01*
X114050000Y-70452000D02*
X114050000Y-55548000D01*
X114090000Y-61560000D02*
X114090000Y-55520000D01*
X114090000Y-70480000D02*
X114090000Y-64440000D01*
X114130000Y-61560000D02*
X114130000Y-55493000D01*
X114130000Y-70507000D02*
X114130000Y-64440000D01*
X114170000Y-61560000D02*
X114170000Y-55466000D01*
X114170000Y-70534000D02*
X114170000Y-64440000D01*
X114210000Y-61560000D02*
X114210000Y-55439000D01*
X114210000Y-70561000D02*
X114210000Y-64440000D01*
X114250000Y-61560000D02*
X114250000Y-55413000D01*
X114250000Y-70587000D02*
X114250000Y-64440000D01*
X114290000Y-61560000D02*
X114290000Y-55387000D01*
X114290000Y-70613000D02*
X114290000Y-64440000D01*
X114330000Y-61560000D02*
X114330000Y-55361000D01*
X114330000Y-70639000D02*
X114330000Y-64440000D01*
X114370000Y-61560000D02*
X114370000Y-55335000D01*
X114370000Y-70665000D02*
X114370000Y-64440000D01*
X114410000Y-61560000D02*
X114410000Y-55310000D01*
X114410000Y-70690000D02*
X114410000Y-64440000D01*
X114450000Y-61560000D02*
X114450000Y-55285000D01*
X114450000Y-70715000D02*
X114450000Y-64440000D01*
X114490000Y-61560000D02*
X114490000Y-55261000D01*
X114490000Y-70739000D02*
X114490000Y-64440000D01*
X114530000Y-61560000D02*
X114530000Y-55236000D01*
X114530000Y-70764000D02*
X114530000Y-64440000D01*
X114570000Y-61560000D02*
X114570000Y-55212000D01*
X114570000Y-70788000D02*
X114570000Y-64440000D01*
X114610000Y-61560000D02*
X114610000Y-55189000D01*
X114610000Y-70811000D02*
X114610000Y-64440000D01*
X114650000Y-61560000D02*
X114650000Y-55165000D01*
X114650000Y-70835000D02*
X114650000Y-64440000D01*
X114690000Y-61560000D02*
X114690000Y-55142000D01*
X114690000Y-70858000D02*
X114690000Y-64440000D01*
X114730000Y-61560000D02*
X114730000Y-55119000D01*
X114730000Y-70881000D02*
X114730000Y-64440000D01*
X114770000Y-61560000D02*
X114770000Y-55096000D01*
X114770000Y-70904000D02*
X114770000Y-64440000D01*
X114810000Y-61560000D02*
X114810000Y-55074000D01*
X114810000Y-70926000D02*
X114810000Y-64440000D01*
X114850000Y-61560000D02*
X114850000Y-55052000D01*
X114850000Y-70948000D02*
X114850000Y-64440000D01*
X114890000Y-61560000D02*
X114890000Y-55030000D01*
X114890000Y-70970000D02*
X114890000Y-64440000D01*
X114930000Y-61560000D02*
X114930000Y-55008000D01*
X114930000Y-70992000D02*
X114930000Y-64440000D01*
X114970000Y-61560000D02*
X114970000Y-54987000D01*
X114970000Y-71013000D02*
X114970000Y-64440000D01*
X115010000Y-61560000D02*
X115010000Y-54966000D01*
X115010000Y-71034000D02*
X115010000Y-64440000D01*
X115050000Y-61560000D02*
X115050000Y-54945000D01*
X115050000Y-71055000D02*
X115050000Y-64440000D01*
X115090000Y-61560000D02*
X115090000Y-54924000D01*
X115090000Y-71076000D02*
X115090000Y-64440000D01*
X115130000Y-61560000D02*
X115130000Y-54904000D01*
X115130000Y-71096000D02*
X115130000Y-64440000D01*
X115170000Y-61560000D02*
X115170000Y-54884000D01*
X115170000Y-71116000D02*
X115170000Y-64440000D01*
X115210000Y-61560000D02*
X115210000Y-54864000D01*
X115210000Y-71136000D02*
X115210000Y-64440000D01*
X115250000Y-61560000D02*
X115250000Y-54844000D01*
X115250000Y-71156000D02*
X115250000Y-64440000D01*
X115290000Y-61560000D02*
X115290000Y-54825000D01*
X115290000Y-71175000D02*
X115290000Y-64440000D01*
X115330000Y-61560000D02*
X115330000Y-54805000D01*
X115330000Y-71195000D02*
X115330000Y-64440000D01*
X115370000Y-61560000D02*
X115370000Y-54787000D01*
X115370000Y-71213000D02*
X115370000Y-64440000D01*
X115410000Y-61560000D02*
X115410000Y-54768000D01*
X115410000Y-71232000D02*
X115410000Y-64440000D01*
X115450000Y-61560000D02*
X115450000Y-54749000D01*
X115450000Y-71251000D02*
X115450000Y-64440000D01*
X115490000Y-61560000D02*
X115490000Y-54731000D01*
X115490000Y-71269000D02*
X115490000Y-64440000D01*
X115530000Y-61560000D02*
X115530000Y-54713000D01*
X115530000Y-71287000D02*
X115530000Y-64440000D01*
X115570000Y-61560000D02*
X115570000Y-54695000D01*
X115570000Y-71305000D02*
X115570000Y-64440000D01*
X115610000Y-61560000D02*
X115610000Y-54678000D01*
X115610000Y-71322000D02*
X115610000Y-64440000D01*
X115650000Y-61560000D02*
X115650000Y-54661000D01*
X115650000Y-71339000D02*
X115650000Y-64440000D01*
X115690000Y-61560000D02*
X115690000Y-54644000D01*
X115690000Y-71356000D02*
X115690000Y-64440000D01*
X115730000Y-61560000D02*
X115730000Y-54627000D01*
X115730000Y-71373000D02*
X115730000Y-64440000D01*
X115770000Y-61560000D02*
X115770000Y-54610000D01*
X115770000Y-71390000D02*
X115770000Y-64440000D01*
X115810000Y-61560000D02*
X115810000Y-54594000D01*
X115810000Y-71406000D02*
X115810000Y-64440000D01*
X115850000Y-61560000D02*
X115850000Y-54577000D01*
X115850000Y-71423000D02*
X115850000Y-64440000D01*
X115890000Y-61560000D02*
X115890000Y-54562000D01*
X115890000Y-71438000D02*
X115890000Y-64440000D01*
X115930000Y-61560000D02*
X115930000Y-54546000D01*
X115930000Y-71454000D02*
X115930000Y-64440000D01*
X115970000Y-61560000D02*
X115970000Y-54530000D01*
X115970000Y-71470000D02*
X115970000Y-64440000D01*
X116010000Y-61560000D02*
X116010000Y-54515000D01*
X116010000Y-71485000D02*
X116010000Y-64440000D01*
X116050000Y-61560000D02*
X116050000Y-54500000D01*
X116050000Y-71500000D02*
X116050000Y-64440000D01*
X116090000Y-61560000D02*
X116090000Y-54485000D01*
X116090000Y-71515000D02*
X116090000Y-64440000D01*
X116130000Y-61560000D02*
X116130000Y-54470000D01*
X116130000Y-71530000D02*
X116130000Y-64440000D01*
X116170000Y-61560000D02*
X116170000Y-54456000D01*
X116170000Y-71544000D02*
X116170000Y-64440000D01*
X116210000Y-61560000D02*
X116210000Y-54442000D01*
X116210000Y-71558000D02*
X116210000Y-64440000D01*
X116250000Y-61560000D02*
X116250000Y-54428000D01*
X116250000Y-71572000D02*
X116250000Y-64440000D01*
X116290000Y-61560000D02*
X116290000Y-54414000D01*
X116290000Y-71586000D02*
X116290000Y-64440000D01*
X116330000Y-61560000D02*
X116330000Y-54400000D01*
X116330000Y-71600000D02*
X116330000Y-64440000D01*
X116370000Y-61560000D02*
X116370000Y-54387000D01*
X116370000Y-71613000D02*
X116370000Y-64440000D01*
X116410000Y-61560000D02*
X116410000Y-54373000D01*
X116410000Y-71627000D02*
X116410000Y-64440000D01*
X116450000Y-61560000D02*
X116450000Y-54360000D01*
X116450000Y-71640000D02*
X116450000Y-64440000D01*
X116490000Y-61560000D02*
X116490000Y-54348000D01*
X116490000Y-71652000D02*
X116490000Y-64440000D01*
X116530000Y-61560000D02*
X116530000Y-54335000D01*
X116530000Y-71665000D02*
X116530000Y-64440000D01*
X116570000Y-61560000D02*
X116570000Y-54323000D01*
X116570000Y-71677000D02*
X116570000Y-64440000D01*
X116610000Y-61560000D02*
X116610000Y-54310000D01*
X116610000Y-71690000D02*
X116610000Y-64440000D01*
X116650000Y-61560000D02*
X116650000Y-54298000D01*
X116650000Y-71702000D02*
X116650000Y-64440000D01*
X116690000Y-61560000D02*
X116690000Y-54287000D01*
X116690000Y-71713000D02*
X116690000Y-64440000D01*
X116730000Y-61560000D02*
X116730000Y-54275000D01*
X116730000Y-71725000D02*
X116730000Y-64440000D01*
X116770000Y-61560000D02*
X116770000Y-54264000D01*
X116770000Y-71736000D02*
X116770000Y-64440000D01*
X116810000Y-61560000D02*
X116810000Y-54252000D01*
X116810000Y-71748000D02*
X116810000Y-64440000D01*
X116850000Y-61560000D02*
X116850000Y-54241000D01*
X116850000Y-71759000D02*
X116850000Y-64440000D01*
X116890000Y-61560000D02*
X116890000Y-54231000D01*
X116890000Y-71769000D02*
X116890000Y-64440000D01*
X116930000Y-61560000D02*
X116930000Y-54220000D01*
X116930000Y-71780000D02*
X116930000Y-64440000D01*
X116970000Y-71790000D02*
X116970000Y-54210000D01*
X117010000Y-71801000D02*
X117010000Y-54199000D01*
X117050000Y-71811000D02*
X117050000Y-54189000D01*
X117090000Y-71821000D02*
X117090000Y-54179000D01*
X117130000Y-71830000D02*
X117130000Y-54170000D01*
X117170000Y-71840000D02*
X117170000Y-54160000D01*
X117210000Y-71849000D02*
X117210000Y-54151000D01*
X117250000Y-71858000D02*
X117250000Y-54142000D01*
X117290000Y-71867000D02*
X117290000Y-54133000D01*
X117330000Y-71876000D02*
X117330000Y-54124000D01*
X117370000Y-71884000D02*
X117370000Y-54116000D01*
X117410000Y-71892000D02*
X117410000Y-54108000D01*
X117450000Y-71901000D02*
X117450000Y-54099000D01*
X117490000Y-71909000D02*
X117490000Y-54091000D01*
X117530000Y-71916000D02*
X117530000Y-54084000D01*
X117570000Y-71924000D02*
X117570000Y-54076000D01*
X117610000Y-71931000D02*
X117610000Y-54069000D01*
X117650000Y-71939000D02*
X117650000Y-54061000D01*
X117690000Y-71946000D02*
X117690000Y-54054000D01*
X117730000Y-71952000D02*
X117730000Y-54048000D01*
X117770000Y-71959000D02*
X117770000Y-54041000D01*
X117810000Y-71966000D02*
X117810000Y-54034000D01*
X117850000Y-71972000D02*
X117850000Y-54028000D01*
X117890000Y-71978000D02*
X117890000Y-54022000D01*
X117930000Y-71984000D02*
X117930000Y-54016000D01*
X117970000Y-71990000D02*
X117970000Y-54010000D01*
X118010000Y-71995000D02*
X118010000Y-54005000D01*
X118050000Y-72001000D02*
X118050000Y-53999000D01*
X118090000Y-72006000D02*
X118090000Y-53994000D01*
X118130000Y-72011000D02*
X118130000Y-53989000D01*
X118170000Y-72016000D02*
X118170000Y-53984000D01*
X118210000Y-72021000D02*
X118210000Y-53979000D01*
X118250000Y-72025000D02*
X118250000Y-53975000D01*
X118290000Y-72029000D02*
X118290000Y-53971000D01*
X118330000Y-72033000D02*
X118330000Y-53967000D01*
X118370000Y-72037000D02*
X118370000Y-53963000D01*
X118410000Y-72041000D02*
X118410000Y-53959000D01*
X118450000Y-72045000D02*
X118450000Y-53955000D01*
X118490000Y-72048000D02*
X118490000Y-53952000D01*
X118530000Y-72052000D02*
X118530000Y-53948000D01*
X118570000Y-72055000D02*
X118570000Y-53945000D01*
X118610000Y-72058000D02*
X118610000Y-53942000D01*
X118650000Y-72060000D02*
X118650000Y-53940000D01*
X118690000Y-72063000D02*
X118690000Y-53937000D01*
X118730000Y-72065000D02*
X118730000Y-53935000D01*
X118770000Y-72067000D02*
X118770000Y-53933000D01*
X118810000Y-72069000D02*
X118810000Y-53931000D01*
X118850000Y-72071000D02*
X118850000Y-53929000D01*
X118890000Y-72073000D02*
X118890000Y-53927000D01*
X118930000Y-72074000D02*
X118930000Y-53926000D01*
X118970000Y-72076000D02*
X118970000Y-53924000D01*
X119010000Y-72077000D02*
X119010000Y-53923000D01*
X119050000Y-72078000D02*
X119050000Y-53922000D01*
X119090000Y-72079000D02*
X119090000Y-53921000D01*
X119130000Y-72079000D02*
X119130000Y-53921000D01*
X119170000Y-72080000D02*
X119170000Y-53920000D01*
X119210000Y-72080000D02*
X119210000Y-53920000D01*
X119250000Y-72080000D02*
X119250000Y-53920000D01*
X128109440Y-69015000D02*
X128109440Y-67215000D01*
X129009440Y-68115000D02*
X127209440Y-68115000D01*
X128370000Y-63000000D02*
G75*
G02*
X110130000Y-63000000I-9120000J0D01*
G01*
X110130000Y-63000000D02*
G75*
G02*
X128370000Y-63000000I9120000J0D01*
G01*
%TO.C,R3*%
X141440000Y-96000000D02*
X141540000Y-96000000D01*
X158880000Y-96000000D02*
X158780000Y-96000000D01*
X141540000Y-92880000D02*
X158780000Y-92880000D01*
X158780000Y-99120000D01*
X141540000Y-99120000D01*
X141540000Y-92880000D01*
%TO.C,TP1*%
X107250000Y-100000000D02*
G75*
G02*
X102750000Y-100000000I-2250000J0D01*
G01*
X102750000Y-100000000D02*
G75*
G02*
X107250000Y-100000000I2250000J0D01*
G01*
%TO.C,C3*%
X110130000Y-87960000D02*
X110130000Y-88040000D01*
X110170000Y-88813000D02*
X110170000Y-87187000D01*
X110210000Y-89165000D02*
X110210000Y-86835000D01*
X110250000Y-89435000D02*
X110250000Y-86565000D01*
X110290000Y-89661000D02*
X110290000Y-86339000D01*
X110330000Y-89859000D02*
X110330000Y-86141000D01*
X110370000Y-90038000D02*
X110370000Y-85962000D01*
X110410000Y-90202000D02*
X110410000Y-85798000D01*
X110450000Y-90355000D02*
X110450000Y-85645000D01*
X110490000Y-90497000D02*
X110490000Y-85503000D01*
X110530000Y-90631000D02*
X110530000Y-85369000D01*
X110570000Y-90759000D02*
X110570000Y-85241000D01*
X110610000Y-90880000D02*
X110610000Y-85120000D01*
X110650000Y-90996000D02*
X110650000Y-85004000D01*
X110690000Y-91107000D02*
X110690000Y-84893000D01*
X110730000Y-91213000D02*
X110730000Y-84787000D01*
X110770000Y-91316000D02*
X110770000Y-84684000D01*
X110810000Y-91416000D02*
X110810000Y-84584000D01*
X110850000Y-91512000D02*
X110850000Y-84488000D01*
X110890000Y-91605000D02*
X110890000Y-84395000D01*
X110930000Y-91695000D02*
X110930000Y-84305000D01*
X110970000Y-91783000D02*
X110970000Y-84217000D01*
X111010000Y-91869000D02*
X111010000Y-84131000D01*
X111050000Y-91952000D02*
X111050000Y-84048000D01*
X111090000Y-92033000D02*
X111090000Y-83967000D01*
X111130000Y-92112000D02*
X111130000Y-83888000D01*
X111170000Y-92189000D02*
X111170000Y-83811000D01*
X111210000Y-92265000D02*
X111210000Y-83735000D01*
X111250000Y-92339000D02*
X111250000Y-83661000D01*
X111290000Y-92411000D02*
X111290000Y-83589000D01*
X111330000Y-92482000D02*
X111330000Y-83518000D01*
X111370000Y-92551000D02*
X111370000Y-83449000D01*
X111410000Y-92619000D02*
X111410000Y-83381000D01*
X111450000Y-92686000D02*
X111450000Y-83314000D01*
X111490000Y-92751000D02*
X111490000Y-83249000D01*
X111530000Y-92816000D02*
X111530000Y-83184000D01*
X111570000Y-92879000D02*
X111570000Y-83121000D01*
X111610000Y-92940000D02*
X111610000Y-83060000D01*
X111650000Y-93001000D02*
X111650000Y-82999000D01*
X111690000Y-93061000D02*
X111690000Y-82939000D01*
X111730000Y-93120000D02*
X111730000Y-82880000D01*
X111770000Y-93178000D02*
X111770000Y-82822000D01*
X111810000Y-93235000D02*
X111810000Y-82765000D01*
X111850000Y-93291000D02*
X111850000Y-82709000D01*
X111890000Y-93346000D02*
X111890000Y-82654000D01*
X111930000Y-93400000D02*
X111930000Y-82600000D01*
X111970000Y-93453000D02*
X111970000Y-82547000D01*
X112010000Y-93506000D02*
X112010000Y-82494000D01*
X112050000Y-93558000D02*
X112050000Y-82442000D01*
X112090000Y-93609000D02*
X112090000Y-82391000D01*
X112130000Y-93659000D02*
X112130000Y-82341000D01*
X112170000Y-93709000D02*
X112170000Y-82291000D01*
X112210000Y-93758000D02*
X112210000Y-82242000D01*
X112250000Y-93806000D02*
X112250000Y-82194000D01*
X112290000Y-93853000D02*
X112290000Y-82147000D01*
X112330000Y-93900000D02*
X112330000Y-82100000D01*
X112370000Y-93947000D02*
X112370000Y-82053000D01*
X112410000Y-93992000D02*
X112410000Y-82008000D01*
X112450000Y-94037000D02*
X112450000Y-81963000D01*
X112490000Y-94082000D02*
X112490000Y-81918000D01*
X112530000Y-94126000D02*
X112530000Y-81874000D01*
X112570000Y-94169000D02*
X112570000Y-81831000D01*
X112610000Y-94212000D02*
X112610000Y-81788000D01*
X112650000Y-94254000D02*
X112650000Y-81746000D01*
X112690000Y-94296000D02*
X112690000Y-81704000D01*
X112730000Y-94337000D02*
X112730000Y-81663000D01*
X112770000Y-94377000D02*
X112770000Y-81623000D01*
X112810000Y-94418000D02*
X112810000Y-81582000D01*
X112850000Y-94457000D02*
X112850000Y-81543000D01*
X112890000Y-94496000D02*
X112890000Y-81504000D01*
X112930000Y-94535000D02*
X112930000Y-81465000D01*
X112970000Y-94573000D02*
X112970000Y-81427000D01*
X113010000Y-94611000D02*
X113010000Y-81389000D01*
X113050000Y-94648000D02*
X113050000Y-81352000D01*
X113090000Y-94685000D02*
X113090000Y-81315000D01*
X113130000Y-94722000D02*
X113130000Y-81278000D01*
X113170000Y-94758000D02*
X113170000Y-81242000D01*
X113210000Y-94793000D02*
X113210000Y-81207000D01*
X113250000Y-94828000D02*
X113250000Y-81172000D01*
X113290000Y-94863000D02*
X113290000Y-81137000D01*
X113330000Y-94897000D02*
X113330000Y-81103000D01*
X113370000Y-94931000D02*
X113370000Y-81069000D01*
X113410000Y-94965000D02*
X113410000Y-81035000D01*
X113450000Y-94998000D02*
X113450000Y-81002000D01*
X113490000Y-95031000D02*
X113490000Y-80969000D01*
X113530000Y-95063000D02*
X113530000Y-80937000D01*
X113570000Y-95095000D02*
X113570000Y-80905000D01*
X113610000Y-95127000D02*
X113610000Y-80873000D01*
X113650000Y-95158000D02*
X113650000Y-80842000D01*
X113690000Y-95189000D02*
X113690000Y-80811000D01*
X113730000Y-95220000D02*
X113730000Y-80780000D01*
X113770000Y-95250000D02*
X113770000Y-80750000D01*
X113810000Y-95280000D02*
X113810000Y-80720000D01*
X113850000Y-95309000D02*
X113850000Y-80691000D01*
X113890000Y-95339000D02*
X113890000Y-80661000D01*
X113930000Y-95368000D02*
X113930000Y-80632000D01*
X113970000Y-95396000D02*
X113970000Y-80604000D01*
X114010000Y-95424000D02*
X114010000Y-80576000D01*
X114050000Y-95452000D02*
X114050000Y-80548000D01*
X114090000Y-86560000D02*
X114090000Y-80520000D01*
X114090000Y-95480000D02*
X114090000Y-89440000D01*
X114130000Y-86560000D02*
X114130000Y-80493000D01*
X114130000Y-95507000D02*
X114130000Y-89440000D01*
X114170000Y-86560000D02*
X114170000Y-80466000D01*
X114170000Y-95534000D02*
X114170000Y-89440000D01*
X114210000Y-86560000D02*
X114210000Y-80439000D01*
X114210000Y-95561000D02*
X114210000Y-89440000D01*
X114250000Y-86560000D02*
X114250000Y-80413000D01*
X114250000Y-95587000D02*
X114250000Y-89440000D01*
X114290000Y-86560000D02*
X114290000Y-80387000D01*
X114290000Y-95613000D02*
X114290000Y-89440000D01*
X114330000Y-86560000D02*
X114330000Y-80361000D01*
X114330000Y-95639000D02*
X114330000Y-89440000D01*
X114370000Y-86560000D02*
X114370000Y-80335000D01*
X114370000Y-95665000D02*
X114370000Y-89440000D01*
X114410000Y-86560000D02*
X114410000Y-80310000D01*
X114410000Y-95690000D02*
X114410000Y-89440000D01*
X114450000Y-86560000D02*
X114450000Y-80285000D01*
X114450000Y-95715000D02*
X114450000Y-89440000D01*
X114490000Y-86560000D02*
X114490000Y-80261000D01*
X114490000Y-95739000D02*
X114490000Y-89440000D01*
X114530000Y-86560000D02*
X114530000Y-80236000D01*
X114530000Y-95764000D02*
X114530000Y-89440000D01*
X114570000Y-86560000D02*
X114570000Y-80212000D01*
X114570000Y-95788000D02*
X114570000Y-89440000D01*
X114610000Y-86560000D02*
X114610000Y-80189000D01*
X114610000Y-95811000D02*
X114610000Y-89440000D01*
X114650000Y-86560000D02*
X114650000Y-80165000D01*
X114650000Y-95835000D02*
X114650000Y-89440000D01*
X114690000Y-86560000D02*
X114690000Y-80142000D01*
X114690000Y-95858000D02*
X114690000Y-89440000D01*
X114730000Y-86560000D02*
X114730000Y-80119000D01*
X114730000Y-95881000D02*
X114730000Y-89440000D01*
X114770000Y-86560000D02*
X114770000Y-80096000D01*
X114770000Y-95904000D02*
X114770000Y-89440000D01*
X114810000Y-86560000D02*
X114810000Y-80074000D01*
X114810000Y-95926000D02*
X114810000Y-89440000D01*
X114850000Y-86560000D02*
X114850000Y-80052000D01*
X114850000Y-95948000D02*
X114850000Y-89440000D01*
X114890000Y-86560000D02*
X114890000Y-80030000D01*
X114890000Y-95970000D02*
X114890000Y-89440000D01*
X114930000Y-86560000D02*
X114930000Y-80008000D01*
X114930000Y-95992000D02*
X114930000Y-89440000D01*
X114970000Y-86560000D02*
X114970000Y-79987000D01*
X114970000Y-96013000D02*
X114970000Y-89440000D01*
X115010000Y-86560000D02*
X115010000Y-79966000D01*
X115010000Y-96034000D02*
X115010000Y-89440000D01*
X115050000Y-86560000D02*
X115050000Y-79945000D01*
X115050000Y-96055000D02*
X115050000Y-89440000D01*
X115090000Y-86560000D02*
X115090000Y-79924000D01*
X115090000Y-96076000D02*
X115090000Y-89440000D01*
X115130000Y-86560000D02*
X115130000Y-79904000D01*
X115130000Y-96096000D02*
X115130000Y-89440000D01*
X115170000Y-86560000D02*
X115170000Y-79884000D01*
X115170000Y-96116000D02*
X115170000Y-89440000D01*
X115210000Y-86560000D02*
X115210000Y-79864000D01*
X115210000Y-96136000D02*
X115210000Y-89440000D01*
X115250000Y-86560000D02*
X115250000Y-79844000D01*
X115250000Y-96156000D02*
X115250000Y-89440000D01*
X115290000Y-86560000D02*
X115290000Y-79825000D01*
X115290000Y-96175000D02*
X115290000Y-89440000D01*
X115330000Y-86560000D02*
X115330000Y-79805000D01*
X115330000Y-96195000D02*
X115330000Y-89440000D01*
X115370000Y-86560000D02*
X115370000Y-79787000D01*
X115370000Y-96213000D02*
X115370000Y-89440000D01*
X115410000Y-86560000D02*
X115410000Y-79768000D01*
X115410000Y-96232000D02*
X115410000Y-89440000D01*
X115450000Y-86560000D02*
X115450000Y-79749000D01*
X115450000Y-96251000D02*
X115450000Y-89440000D01*
X115490000Y-86560000D02*
X115490000Y-79731000D01*
X115490000Y-96269000D02*
X115490000Y-89440000D01*
X115530000Y-86560000D02*
X115530000Y-79713000D01*
X115530000Y-96287000D02*
X115530000Y-89440000D01*
X115570000Y-86560000D02*
X115570000Y-79695000D01*
X115570000Y-96305000D02*
X115570000Y-89440000D01*
X115610000Y-86560000D02*
X115610000Y-79678000D01*
X115610000Y-96322000D02*
X115610000Y-89440000D01*
X115650000Y-86560000D02*
X115650000Y-79661000D01*
X115650000Y-96339000D02*
X115650000Y-89440000D01*
X115690000Y-86560000D02*
X115690000Y-79644000D01*
X115690000Y-96356000D02*
X115690000Y-89440000D01*
X115730000Y-86560000D02*
X115730000Y-79627000D01*
X115730000Y-96373000D02*
X115730000Y-89440000D01*
X115770000Y-86560000D02*
X115770000Y-79610000D01*
X115770000Y-96390000D02*
X115770000Y-89440000D01*
X115810000Y-86560000D02*
X115810000Y-79594000D01*
X115810000Y-96406000D02*
X115810000Y-89440000D01*
X115850000Y-86560000D02*
X115850000Y-79577000D01*
X115850000Y-96423000D02*
X115850000Y-89440000D01*
X115890000Y-86560000D02*
X115890000Y-79562000D01*
X115890000Y-96438000D02*
X115890000Y-89440000D01*
X115930000Y-86560000D02*
X115930000Y-79546000D01*
X115930000Y-96454000D02*
X115930000Y-89440000D01*
X115970000Y-86560000D02*
X115970000Y-79530000D01*
X115970000Y-96470000D02*
X115970000Y-89440000D01*
X116010000Y-86560000D02*
X116010000Y-79515000D01*
X116010000Y-96485000D02*
X116010000Y-89440000D01*
X116050000Y-86560000D02*
X116050000Y-79500000D01*
X116050000Y-96500000D02*
X116050000Y-89440000D01*
X116090000Y-86560000D02*
X116090000Y-79485000D01*
X116090000Y-96515000D02*
X116090000Y-89440000D01*
X116130000Y-86560000D02*
X116130000Y-79470000D01*
X116130000Y-96530000D02*
X116130000Y-89440000D01*
X116170000Y-86560000D02*
X116170000Y-79456000D01*
X116170000Y-96544000D02*
X116170000Y-89440000D01*
X116210000Y-86560000D02*
X116210000Y-79442000D01*
X116210000Y-96558000D02*
X116210000Y-89440000D01*
X116250000Y-86560000D02*
X116250000Y-79428000D01*
X116250000Y-96572000D02*
X116250000Y-89440000D01*
X116290000Y-86560000D02*
X116290000Y-79414000D01*
X116290000Y-96586000D02*
X116290000Y-89440000D01*
X116330000Y-86560000D02*
X116330000Y-79400000D01*
X116330000Y-96600000D02*
X116330000Y-89440000D01*
X116370000Y-86560000D02*
X116370000Y-79387000D01*
X116370000Y-96613000D02*
X116370000Y-89440000D01*
X116410000Y-86560000D02*
X116410000Y-79373000D01*
X116410000Y-96627000D02*
X116410000Y-89440000D01*
X116450000Y-86560000D02*
X116450000Y-79360000D01*
X116450000Y-96640000D02*
X116450000Y-89440000D01*
X116490000Y-86560000D02*
X116490000Y-79348000D01*
X116490000Y-96652000D02*
X116490000Y-89440000D01*
X116530000Y-86560000D02*
X116530000Y-79335000D01*
X116530000Y-96665000D02*
X116530000Y-89440000D01*
X116570000Y-86560000D02*
X116570000Y-79323000D01*
X116570000Y-96677000D02*
X116570000Y-89440000D01*
X116610000Y-86560000D02*
X116610000Y-79310000D01*
X116610000Y-96690000D02*
X116610000Y-89440000D01*
X116650000Y-86560000D02*
X116650000Y-79298000D01*
X116650000Y-96702000D02*
X116650000Y-89440000D01*
X116690000Y-86560000D02*
X116690000Y-79287000D01*
X116690000Y-96713000D02*
X116690000Y-89440000D01*
X116730000Y-86560000D02*
X116730000Y-79275000D01*
X116730000Y-96725000D02*
X116730000Y-89440000D01*
X116770000Y-86560000D02*
X116770000Y-79264000D01*
X116770000Y-96736000D02*
X116770000Y-89440000D01*
X116810000Y-86560000D02*
X116810000Y-79252000D01*
X116810000Y-96748000D02*
X116810000Y-89440000D01*
X116850000Y-86560000D02*
X116850000Y-79241000D01*
X116850000Y-96759000D02*
X116850000Y-89440000D01*
X116890000Y-86560000D02*
X116890000Y-79231000D01*
X116890000Y-96769000D02*
X116890000Y-89440000D01*
X116930000Y-86560000D02*
X116930000Y-79220000D01*
X116930000Y-96780000D02*
X116930000Y-89440000D01*
X116970000Y-96790000D02*
X116970000Y-79210000D01*
X117010000Y-96801000D02*
X117010000Y-79199000D01*
X117050000Y-96811000D02*
X117050000Y-79189000D01*
X117090000Y-96821000D02*
X117090000Y-79179000D01*
X117130000Y-96830000D02*
X117130000Y-79170000D01*
X117170000Y-96840000D02*
X117170000Y-79160000D01*
X117210000Y-96849000D02*
X117210000Y-79151000D01*
X117250000Y-96858000D02*
X117250000Y-79142000D01*
X117290000Y-96867000D02*
X117290000Y-79133000D01*
X117330000Y-96876000D02*
X117330000Y-79124000D01*
X117370000Y-96884000D02*
X117370000Y-79116000D01*
X117410000Y-96892000D02*
X117410000Y-79108000D01*
X117450000Y-96901000D02*
X117450000Y-79099000D01*
X117490000Y-96909000D02*
X117490000Y-79091000D01*
X117530000Y-96916000D02*
X117530000Y-79084000D01*
X117570000Y-96924000D02*
X117570000Y-79076000D01*
X117610000Y-96931000D02*
X117610000Y-79069000D01*
X117650000Y-96939000D02*
X117650000Y-79061000D01*
X117690000Y-96946000D02*
X117690000Y-79054000D01*
X117730000Y-96952000D02*
X117730000Y-79048000D01*
X117770000Y-96959000D02*
X117770000Y-79041000D01*
X117810000Y-96966000D02*
X117810000Y-79034000D01*
X117850000Y-96972000D02*
X117850000Y-79028000D01*
X117890000Y-96978000D02*
X117890000Y-79022000D01*
X117930000Y-96984000D02*
X117930000Y-79016000D01*
X117970000Y-96990000D02*
X117970000Y-79010000D01*
X118010000Y-96995000D02*
X118010000Y-79005000D01*
X118050000Y-97001000D02*
X118050000Y-78999000D01*
X118090000Y-97006000D02*
X118090000Y-78994000D01*
X118130000Y-97011000D02*
X118130000Y-78989000D01*
X118170000Y-97016000D02*
X118170000Y-78984000D01*
X118210000Y-97021000D02*
X118210000Y-78979000D01*
X118250000Y-97025000D02*
X118250000Y-78975000D01*
X118290000Y-97029000D02*
X118290000Y-78971000D01*
X118330000Y-97033000D02*
X118330000Y-78967000D01*
X118370000Y-97037000D02*
X118370000Y-78963000D01*
X118410000Y-97041000D02*
X118410000Y-78959000D01*
X118450000Y-97045000D02*
X118450000Y-78955000D01*
X118490000Y-97048000D02*
X118490000Y-78952000D01*
X118530000Y-97052000D02*
X118530000Y-78948000D01*
X118570000Y-97055000D02*
X118570000Y-78945000D01*
X118610000Y-97058000D02*
X118610000Y-78942000D01*
X118650000Y-97060000D02*
X118650000Y-78940000D01*
X118690000Y-97063000D02*
X118690000Y-78937000D01*
X118730000Y-97065000D02*
X118730000Y-78935000D01*
X118770000Y-97067000D02*
X118770000Y-78933000D01*
X118810000Y-97069000D02*
X118810000Y-78931000D01*
X118850000Y-97071000D02*
X118850000Y-78929000D01*
X118890000Y-97073000D02*
X118890000Y-78927000D01*
X118930000Y-97074000D02*
X118930000Y-78926000D01*
X118970000Y-97076000D02*
X118970000Y-78924000D01*
X119010000Y-97077000D02*
X119010000Y-78923000D01*
X119050000Y-97078000D02*
X119050000Y-78922000D01*
X119090000Y-97079000D02*
X119090000Y-78921000D01*
X119130000Y-97079000D02*
X119130000Y-78921000D01*
X119170000Y-97080000D02*
X119170000Y-78920000D01*
X119210000Y-97080000D02*
X119210000Y-78920000D01*
X119250000Y-97080000D02*
X119250000Y-78920000D01*
X128109440Y-94015000D02*
X128109440Y-92215000D01*
X129009440Y-93115000D02*
X127209440Y-93115000D01*
X128370000Y-88000000D02*
G75*
G02*
X110130000Y-88000000I-9120000J0D01*
G01*
X110130000Y-88000000D02*
G75*
G02*
X128370000Y-88000000I9120000J0D01*
G01*
%TO.C,R2*%
X141120000Y-80000000D02*
X141220000Y-80000000D01*
X158560000Y-80000000D02*
X158460000Y-80000000D01*
X141220000Y-76880000D02*
X158460000Y-76880000D01*
X158460000Y-83120000D01*
X141220000Y-83120000D01*
X141220000Y-76880000D01*
%TD*%
M02*
