%TF.GenerationSoftware,KiCad,Pcbnew,10.0.3*%
%TF.CreationDate,2026-09-02T13:05:28+01:00*%
%TF.ProjectId,RectifierBoard,52656374-6966-4696-9572-426f6172642e,rev?*%
%TF.SameCoordinates,Original*%
%TF.FileFunction,Copper,L1,Top*%
%TF.FilePolarity,Positive*%
%FSLAX46Y46*%
G04 Gerber Fmt 4.6, Leading zero omitted, Abs format (unit mm)*
G04 Created by KiCad (PCBNEW 10.0.3) date 2026-09-02 13:05:28*
%MOMM*%
%LPD*%
G01*
G04 APERTURE LIST*
G04 Aperture macros list*
%AMRoundRect*
0 Rectangle with rounded corners*
0 $1 Rounding radius*
0 $2 $3 $4 $5 $6 $7 $8 $9 X,Y pos of 4 corners*
0 Add a 4 corners polygon primitive as box body*
4,1,4,$2,$3,$4,$5,$6,$7,$8,$9,$2,$3,0*
0 Add four circle primitives for the rounded corners*
1,1,$1+$1,$2,$3*
1,1,$1+$1,$4,$5*
1,1,$1+$1,$6,$7*
1,1,$1+$1,$8,$9*
0 Add four rect primitives between the rounded corners*
20,1,$1+$1,$2,$3,$4,$5,0*
20,1,$1+$1,$4,$5,$6,$7,0*
20,1,$1+$1,$6,$7,$8,$9,0*
20,1,$1+$1,$8,$9,$2,$3,0*%
G04 Aperture macros list end*
%TA.AperFunction,ComponentPad*%
%ADD10C,2.000000*%
%TD*%
%TA.AperFunction,ComponentPad*%
%ADD11C,1.950000*%
%TD*%
%TA.AperFunction,ComponentPad*%
%ADD12RoundRect,0.249999X-0.850001X-0.850001X0.850001X-0.850001X0.850001X0.850001X-0.850001X0.850001X0*%
%TD*%
%TA.AperFunction,ComponentPad*%
%ADD13C,2.200000*%
%TD*%
%TA.AperFunction,ComponentPad*%
%ADD14RoundRect,0.250001X0.949999X0.949999X-0.949999X0.949999X-0.949999X-0.949999X0.949999X-0.949999X0*%
%TD*%
%TA.AperFunction,ComponentPad*%
%ADD15C,2.400000*%
%TD*%
%TA.AperFunction,ComponentPad*%
%ADD16C,4.000000*%
%TD*%
%TA.AperFunction,Conductor*%
%ADD17C,2.000000*%
%TD*%
G04 APERTURE END LIST*
D10*
%TO.P,J5,1,Pin_1_1*%
%TO.N,GND*%
X146000000Y-116000000D03*
%TO.P,J5,2,Pin_2_2*%
X153620000Y-116000000D03*
%TD*%
D11*
%TO.P,J3,1,Pin_1_1*%
%TO.N,/B+_L1_OUT*%
X190390000Y-87000000D03*
%TO.P,J3,2,Pin_2_2*%
X190390000Y-79380000D03*
D10*
%TO.P,J3,3,Pin_3_3*%
%TO.N,/B+_STBY_OUT*%
X190390000Y-71760000D03*
%TO.P,J3,4,Pin_4_4*%
X190390000Y-64140000D03*
%TD*%
D12*
%TO.P,D2,1,K_1*%
%TO.N,/HT_AC_B*%
X158000000Y-43000000D03*
D13*
%TO.P,D2,2,A_2*%
%TO.N,GND*%
X168160000Y-43000000D03*
%TD*%
D14*
%TO.P,C4,1*%
%TO.N,/B+_PREAMP*%
X123000000Y-113000000D03*
D15*
%TO.P,C4,2*%
%TO.N,GND*%
X115500000Y-113000000D03*
%TD*%
D10*
%TO.P,J1,1,Pin_1_1*%
%TO.N,/HT_AC_A*%
X154000000Y-34000000D03*
%TO.P,J1,2,Pin_2_2*%
%TO.N,/HT_AC_B*%
X146380000Y-34000000D03*
%TD*%
D12*
%TO.P,D1,1,K_1*%
%TO.N,/B+_PRE_STBY*%
X136000000Y-43000000D03*
D13*
%TO.P,D1,2,A_2*%
%TO.N,/HT_AC_B*%
X146160000Y-43000000D03*
%TD*%
D15*
%TO.P,R1,1*%
%TO.N,/B+_PRE_STBY*%
X160000000Y-65000000D03*
%TO.P,R1,2*%
%TO.N,GND*%
X139680000Y-65000000D03*
%TD*%
D10*
%TO.P,J4,1,Pin_1_1*%
%TO.N,/B+_PREAMP*%
X190350000Y-107215000D03*
%TO.P,J4,2,Pin_2_2*%
%TO.N,/B+_PI*%
X190350000Y-99595000D03*
%TD*%
D12*
%TO.P,D3,1,K_1*%
%TO.N,/B+_PRE_STBY*%
X136000000Y-53000000D03*
D13*
%TO.P,D3,2,A_2*%
%TO.N,/HT_AC_A*%
X146160000Y-53000000D03*
%TD*%
D14*
%TO.P,C1,1*%
%TO.N,/B+_PRE_STBY*%
X123000000Y-38000000D03*
D15*
%TO.P,C1,2*%
%TO.N,GND*%
X115500000Y-38000000D03*
%TD*%
D12*
%TO.P,D4,1,K_1*%
%TO.N,/HT_AC_A*%
X158000000Y-53000000D03*
D13*
%TO.P,D4,2,A_2*%
%TO.N,GND*%
X168160000Y-53000000D03*
%TD*%
D10*
%TO.P,J2,1,Pin_1_1*%
%TO.N,/B+_STBY_OUT*%
X190350000Y-50000000D03*
%TO.P,J2,2,Pin_2_2*%
%TO.N,/B+_PRE_STBY*%
X190350000Y-42380000D03*
%TD*%
D14*
%TO.P,C2,1*%
%TO.N,/B+_L1_OUT*%
X123000000Y-63000000D03*
D15*
%TO.P,C2,2*%
%TO.N,GND*%
X115500000Y-63000000D03*
%TD*%
%TO.P,R3,1*%
%TO.N,/B+_PI*%
X140000000Y-96000000D03*
%TO.P,R3,2*%
%TO.N,/B+_PREAMP*%
X160320000Y-96000000D03*
%TD*%
D16*
%TO.P,TP1,1,1*%
%TO.N,GND*%
X105000000Y-100000000D03*
%TD*%
D14*
%TO.P,C3,1*%
%TO.N,/B+_PI*%
X123000000Y-88000000D03*
D15*
%TO.P,C3,2*%
%TO.N,GND*%
X115500000Y-88000000D03*
%TD*%
%TO.P,R2,1*%
%TO.N,/B+_L1_OUT*%
X160000000Y-80000000D03*
%TO.P,R2,2*%
%TO.N,/B+_PI*%
X139680000Y-80000000D03*
%TD*%
%TO.N,GND*%
D17*
X144880000Y-59800000D02*
X139680000Y-65000000D01*
X161360000Y-59800000D02*
X144880000Y-59800000D01*
X168160000Y-53000000D02*
X161360000Y-59800000D01*
%TO.N,/HT_AC_A*%
X154000000Y-34000000D02*
X152900000Y-35100000D01*
X152900000Y-47900000D02*
X158000000Y-53000000D01*
X152900000Y-35100000D02*
X152900000Y-47900000D01*
%TD*%
M02*
